<?xml version="1.0" encoding="UTF-8" standalone="no"?>
<svg
   viewBox="0 0 32.000401 32.000999"
   version="1.1"
   id="svg439"
   sodipodi:docname="gtk-select-color.svg"
   width="32.000401"
   height="32.000999"
   inkscape:version="1.2.2 (b0a8486541, 2022-12-01)"
   xmlns:inkscape="http://www.inkscape.org/namespaces/inkscape"
   xmlns:sodipodi="http://sodipodi.sourceforge.net/DTD/sodipodi-0.dtd"
   xmlns="http://www.w3.org/2000/svg"
   xmlns:svg="http://www.w3.org/2000/svg">
  <defs
     id="defs443" />
  <sodipodi:namedview
     id="namedview441"
     pagecolor="#ffffff"
     bordercolor="#999999"
     borderopacity="1"
     inkscape:showpageshadow="0"
     inkscape:pageopacity="0"
     inkscape:pagecheckerboard="0"
     inkscape:deskcolor="#d1d1d1"
     showgrid="false"
     inkscape:zoom="24.549864"
     inkscape:cx="16.048969"
     inkscape:cy="20.916613"
     inkscape:window-width="1517"
     inkscape:window-height="1317"
     inkscape:window-x="598"
     inkscape:window-y="56"
     inkscape:window-maximized="0"
     inkscape:current-layer="g437" />
  <g
     transform="matrix(0.5,0,0,0.5,6.0006152,10.00025)"
     id="g437">
    <path
       d="m 1.4528318,17.0395 c -0.356,-1.26 -1.52400002,-2.132 -2.856,-2.132 h -7.634 c -0.89,0 -1.7319998,0.392 -2.2959998,1.068 -0.564,0.676 -0.786,1.566 -0.608,2.42 1.35,6.5 4.6699998,12.348 9.6019998,16.91 0.554,0.512 1.282,0.792 2.03199998,0.792 0.142,0 0.288,-0.01 0.43,-0.03 0.89600002,-0.13 1.68200002,-0.654 2.13600002,-1.424 l 3.852,-6.548 c 0.644,-1.094 0.494,-2.47 -0.37,-3.408 -2,-2.178 -3.492,-4.822 -4.29,-7.648"
       style="fill:#268bd2;fill-opacity:1;fill-rule:nonzero;stroke:none;stroke-width:2"
       id="path423" />
    <path
       d="m 27.264832,31.8635 c -0.538,-0.914 -1.524,-1.456 -2.566,-1.456 -0.21,0 -0.422,0.022 -0.634,0.068 -1.342,0.288 -2.71,0.434 -4.066,0.434 -1.896,0 -3.77,-0.272 -5.57,-0.81 -0.286,-0.086 -0.576,-0.126 -0.864,-0.126 -1.038,0 -2.026,0.536 -2.566,1.454 l -3.7820002,6.432 c -0.436,0.744 -0.518,1.636 -0.22,2.444 0.296,0.806 0.942,1.444 1.76,1.74 3.5840002,1.3 7.3660002,1.958 11.2420002,1.958 3.206,0 6.37,-0.456 9.404,-1.354 0.866,-0.256 1.566,-0.888 1.9,-1.714 0.334,-0.826 0.264,-1.756 -0.188,-2.526 l -3.85,-6.544"
       style="fill:#859900;fill-opacity:1;fill-rule:nonzero;stroke:none;stroke-width:2"
       id="path425" />
    <path
       d="m 38.540832,6.9515 c 0.354,1.264 1.524,2.14 2.858,2.14 h 7.634 c 0.89,0 1.732,-0.392 2.294,-1.068 0.562,-0.676 0.788,-1.564 0.612,-2.418 -1.458,-7.084 -5.386,-13.54 -11.06,-18.18 -0.536,-0.438 -1.21,-0.674 -1.896,-0.674 -0.174,0 -0.346,0.014 -0.52,0.044 -0.86,0.15 -1.61,0.666 -2.046,1.41 l -3.788,6.44 c -0.688,1.172 -0.464,2.654 0.542,3.578 2.582,2.37 4.44,5.386 5.372,8.724"
       style="fill:#ee7616;fill-opacity:1;fill-rule:nonzero;stroke:none;stroke-width:2"
       id="path427" />
    <path
       d="m 29.402832,-18.6465 c -3.034,-0.898 -6.196,-1.354 -9.404,-1.354 -3.876,0 -7.658,0.658 -11.2420002,1.958 -0.82,0.298 -1.464,0.934 -1.76,1.74 -0.296,0.806 -0.216,1.7 0.22,2.444 l 3.7820002,6.432 c 0.54,0.918 1.53,1.454 2.566,1.454 0.288,0 0.578,-0.04 0.864,-0.126 1.8,-0.538 3.674,-0.81 5.57,-0.81 1.356,0 2.724,0.146 4.066,0.434 0.21,0.046 0.424,0.068 0.634,0.068 1.042,0 2.028,-0.542 2.566,-1.456 l 3.85,-6.544 c 0.452,-0.77 0.522,-1.7 0.188,-2.526 -0.334,-0.826 -1.034,-1.458 -1.9,-1.714"
       style="fill:#dc322f;fill-opacity:1;fill-rule:nonzero;stroke:none;stroke-width:2"
       id="path429" />
    <path
       d="m 49.036832,14.9095 h -7.634 c -1.334,0 -2.504,0.876 -2.858,2.14 -0.932,3.336 -2.79,6.352 -5.372,8.724 -1.006,0.924 -1.232,2.408 -0.542,3.578 l 3.788,6.44 c 0.436,0.744 1.186,1.26 2.046,1.41 0.172,0.03 0.346,0.044 0.52,0.044 0.688,0 1.36,-0.234 1.896,-0.674 5.674,-4.638 9.602,-11.094 11.06,-18.18 0.176,-0.856 -0.048,-1.744 -0.612,-2.418 -0.562,-0.676 -1.404,-1.068 -2.294,-1.068"
       style="fill:#ffcf38;fill-opacity:1;fill-rule:nonzero;stroke:none;stroke-width:2"
       id="path431" />
    <path
       d="m 2.2628318,-10.6445 c -0.454,-0.77 -1.24,-1.294 -2.13600002,-1.424 -0.144,-0.02 -0.288,-0.03 -0.43,-0.03 -0.74999998,0 -1.47799998,0.28 -2.03199998,0.792 -4.932,4.562 -8.2539998,10.408 -9.6019998,16.91 -0.178,0.856 0.046,1.744 0.608,2.42 0.562,0.676 1.4059998,1.068 2.2959998,1.068 h 7.634 c 1.33199998,0 2.5,-0.872 2.856,-2.132 0.798,-2.826 2.282,-5.47 4.29,-7.648 0.864,-0.936 1.014,-2.314 0.37,-3.408 l -3.852,-6.548"
       style="fill:#3a4f7a;fill-opacity:1;fill-rule:nonzero;stroke:none;stroke-width:2"
       id="path433" />
    <path
       d="m 45.056832,-0.9005 -24.488,6.388 c -3.128,0.816 -6.194,2.056 -6.788,5.418 -0.626,3.552 1.654,6.926 5.088,7.532 2.464,0.434 4.39,-1.098 6.238,-2.644 z"
       style="fill:#4d4d4d;stroke:none;stroke-width:2"
       id="path435" />
  </g>
</svg>
