<?xml version="1.0" encoding="UTF-8" standalone="no"?>
<svg
   height="32"
   width="32"
   version="1.1"
   id="svg122"
   sodipodi:docname="koiourpaint.svg"
   inkscape:version="1.2.2 (b0a8486541, 2022-12-01)"
   xmlns:inkscape="http://www.inkscape.org/namespaces/inkscape"
   xmlns:sodipodi="http://sodipodi.sourceforge.net/DTD/sodipodi-0.dtd"
   xmlns="http://www.w3.org/2000/svg"
   xmlns:svg="http://www.w3.org/2000/svg">
  <defs
     id="defs126" />
  <sodipodi:namedview
     id="namedview124"
     pagecolor="#ffffff"
     bordercolor="#999999"
     borderopacity="1"
     inkscape:showpageshadow="0"
     inkscape:pageopacity="0"
     inkscape:pagecheckerboard="0"
     inkscape:deskcolor="#d1d1d1"
     showgrid="false"
     inkscape:zoom="11.572917"
     inkscape:cx="11.881188"
     inkscape:cy="2.160216"
     inkscape:window-width="2560"
     inkscape:window-height="1358"
     inkscape:window-x="0"
     inkscape:window-y="28"
     inkscape:window-maximized="1"
     inkscape:current-layer="svg122" />
  <linearGradient
     id="a"
     gradientTransform="matrix(0.47830728,0,0,0.4762006,58.94328,-290.70105)"
     gradientUnits="userSpaceOnUse"
     x1="-87"
     x2="-87"
     y1="616"
     y2="672">
    <stop
       offset="0"
       stop-color="#d4ba94"
       id="stop2" />
    <stop
       offset="1"
       stop-color="#997657"
       id="stop4" />
  </linearGradient>
  <linearGradient
     id="i"
     gradientTransform="matrix(0,0.47618725,-0.47830728,0,535.65252,-189.36026)"
     gradientUnits="userSpaceOnUse"
     x1="410"
     x2="421"
     y1="1080.4"
     y2="1080.4">
    <stop
       offset="0"
       stop-color="#e4720c"
       id="stop7" />
    <stop
       offset="1"
       stop-color="#f1d23b"
       id="stop9" />
  </linearGradient>
  <linearGradient
     id="b"
     gradientTransform="matrix(0.47830728,0,0,0.47618725,-180.20835,-506.07665)"
     gradientUnits="userSpaceOnUse"
     x1="415"
     x2="415"
     y1="1068.4"
     y2="1079.4">
    <stop
       offset="0"
       stop-color="#884d2c"
       id="stop12" />
    <stop
       offset="1"
       stop-color="#ffa92d"
       id="stop14" />
  </linearGradient>
  <linearGradient
     id="j"
     gradientTransform="matrix(0.47830728,0,0,0.47618725,-179.88835,-505.90797)"
     gradientUnits="userSpaceOnUse"
     x1="424"
     x2="424"
     y1="1074.4"
     y2="1086.4">
    <stop
       offset="0"
       stop-color="#884d2c"
       id="stop17" />
    <stop
       offset="1"
       stop-color="#b7bf31"
       id="stop19" />
  </linearGradient>
  <linearGradient
     id="e"
     gradientTransform="matrix(0.47830728,0,0,0.47618725,-180.23502,-290.30705)"
     gradientUnits="userSpaceOnUse"
     x1="409"
     x2="409"
     y1="629"
     y2="642">
    <stop
       offset="0"
       stop-color="#ffa92d"
       id="stop22" />
    <stop
       offset="1"
       stop-color="#ffe5e1"
       id="stop24" />
  </linearGradient>
  <linearGradient
     id="l"
     gradientTransform="matrix(0.47830728,0,0,0.47618725,-179.88835,-505.52733)"
     gradientUnits="userSpaceOnUse"
     x1="424"
     x2="424"
     y1="1092.4"
     y2="1101.4">
    <stop
       offset="0"
       stop-color="#7ceca4"
       id="stop27" />
    <stop
       offset="1"
       stop-color="#e1f2ff"
       id="stop29" />
  </linearGradient>
  <linearGradient
     id="g"
     gradientTransform="matrix(0.47830728,0,0,0.47618725,-179.71502,-290.30772)"
     gradientUnits="userSpaceOnUse"
     x1="433.29999"
     x2="433.29999"
     y1="632"
     y2="643.95001">
    <stop
       offset="0"
       stop-color="#377d50"
       id="stop32" />
    <stop
       offset="1"
       stop-color="#3b85b5"
       id="stop34" />
  </linearGradient>
  <linearGradient
     id="k"
     gradientTransform="matrix(0.47830728,0,0,0.47618725,-179.88835,-290.30705)"
     gradientUnits="userSpaceOnUse"
     x1="425"
     x2="425"
     y1="632"
     y2="640">
    <stop
       offset="0"
       stop-color="#b7bf31"
       id="stop37" />
    <stop
       offset="1"
       stop-color="#54d883"
       id="stop39" />
  </linearGradient>
  <linearGradient
     id="f"
     gradientTransform="matrix(0.47830728,0,0,0.47618725,-179.71502,-289.91237)"
     gradientUnits="userSpaceOnUse"
     x1="432"
     x2="432"
     y1="647"
     y2="662">
    <stop
       offset="0"
       stop-color="#375a7d"
       id="stop42" />
    <stop
       offset="1"
       stop-color="#7cbcec"
       id="stop44" />
  </linearGradient>
  <linearGradient
     id="d"
     gradientTransform="matrix(0.47830728,0,0,0.47618725,-180.20835,-506.10065)"
     gradientUnits="userSpaceOnUse"
     x1="401"
     x2="401"
     y1="1075.4"
     y2="1086.4">
    <stop
       offset="0"
       stop-color="#ac0808"
       id="stop47" />
    <stop
       offset="1"
       stop-color="#e4720c"
       id="stop49" />
  </linearGradient>
  <linearGradient
     id="h"
     gradientTransform="matrix(0.47830728,0,0,0.47618725,-180.20835,-290.69372)"
     gradientUnits="userSpaceOnUse"
     x1="407"
     x2="407"
     y1="636"
     y2="622">
    <stop
       offset="0"
       stop-color="#ffa92d"
       id="stop52" />
    <stop
       offset="1"
       stop-color="#e05e4c"
       id="stop54" />
  </linearGradient>
  <linearGradient
     id="c"
     gradientTransform="matrix(0.47830728,0,0,0.47618725,-180.20835,-290.69372)"
     gradientUnits="userSpaceOnUse"
     x1="393"
     x2="393"
     y1="623"
     y2="632">
    <stop
       offset="0"
       stop-color="#913bb5"
       id="stop57" />
    <stop
       offset="1"
       stop-color="#bf4231"
       id="stop59" />
  </linearGradient>
  <path
     d="M 12.998556,3.3333175 10.331886,3.999985 7.6652158,5.33332 4.3318783,8.6666575 V 10.66666 l 0.4606672,1.382668 c 2.398003,2.706004 7.6240095,4.86934 5.5653405,6.920009 -1.1586682,1.153335 -1.6340022,2.628003 -1.6366687,4.173338 0.00133,0.07467 0.00533,0.148667 0.00933,0.223334 -0.00333,0.084 -0.00933,0.168667 -0.00933,0.253334 l 0.022,0.01333 c 0.256667,3.218005 2.9533367,5.700007 6.1953407,5.700675 0.176001,0 0.353334,-0.0087 0.528668,-0.02467 C 22.647235,29.026682 28.323243,23.153342 28.331908,16 c 0,-0.223334 -0.006,-0.446001 -0.01667,-0.666668 h -0.65 V 13.33333 L 26.998573,11.333327 24.99857,7.99999 22.3319,5.33332 17.665228,3.3333175 Z m 1.940002,16.9520215 a 2.8700035,2.857337 0 0 1 2.871337,2.858003 2.8700035,2.857337 0 0 1 -2.871337,2.85667 2.8700035,2.857337 0 0 1 -2.870003,-2.85667 2.8700035,2.857337 0 0 1 2.870003,-2.858003 z"
     fill="url(#a)"
     id="path62"
     style="fill:url(#a);stroke-width:0.666668" />
  <path
     d="M 8.9985508,4.061985 A 13.376684,13.376684 0 0 0 5.3905463,6.6659882 L 9.5585516,7.225989 Z"
     fill="#432b4d"
     id="path64"
     style="stroke-width:0.666668" />
  <path
     d="M 12.998556,2.8133167 C 11.600554,3.0186505 10.251886,3.442651 8.9985508,4.061985 v 2.6040032 l 4.6480062,0.8253345 z"
     fill="#4d2f2b"
     id="path66"
     style="stroke-width:0.666668" />
  <path
     d="m 14.939892,2.66665 c -0.654001,6.75e-4 -1.302669,0.053333 -1.941336,0.1466667 V 6.666655 l 4.824673,0.7066675 -0.824668,-4.549339 A 13.544684,13.544684 0 0 0 14.939892,2.66665 Z"
     fill="#813c33"
     id="path68"
     style="stroke-width:0.666668" />
  <path
     d="M 16.998561,2.8239835 V 6.666655 L 21.9119,7.4913227 20.998566,4.1206517 A 13.316017,13.316017 0 0 0 16.998561,2.8239835 Z"
     fill="url(#b)"
     id="path70"
     style="fill:url(#b);stroke-width:0.666668" />
  <path
     d="m 20.998566,4.1206517 v 2.5453365 l 2.308669,0.796001 1.188669,-0.796001 A 13.412017,13.412017 0 0 0 20.998566,4.1206517 Z"
     fill="#7c8133"
     id="path72"
     style="stroke-width:0.666668" />
  <path
     d="M 3.6852108,9.3999917 C 3.3712105,12.807996 10.305886,15.389999 10.796553,17.728002 11.263887,15.371999 4.031878,12.802663 3.6852108,9.3999917 Z"
     fill="#6c5548"
     id="path74"
     style="stroke-width:0.666668" />
  <path
     d="M 5.3745463,6.6833217 C 5.1958793,6.865322 5.0212125,7.0513222 4.851879,7.2446557 2.850543,9.2379915 3.664544,10.963994 5.242546,12.513996 4.5558785,11.727328 5.4025463,11.742661 5.8518803,12.189995 6.3305475,12.665996 6.3305475,13.142663 6.8092148,12.666662 7.2872153,12.189995 5.3745463,11.238661 5.3745463,10.286659 Z"
     fill="#2b3c4d"
     id="path76"
     style="stroke-width:0.666668" />
  <path
     d="m 5.397213,6.666655 a 13.428684,13.42935 0 0 0 -0.024,0.022 v 0.264667 c 0,0.4760005 -0.956668,0.9520012 -0.956668,1.4280017 0,0.4760008 0.956668,0.952668 0.956668,1.9053353 l 0.070667,-0.49 c 0.4586672,-1.2866683 2.8680035,1.173335 3.554671,0.49 L 9.4118848,9.3599917 9.6652186,6.666655 Z"
     fill="url(#c)"
     id="path78"
     style="fill:url(#c);stroke-width:0.666668" />
  <path
     d="m 12.520555,10.66666 c 0.478001,-0.476001 -0.450667,-1.8093355 -0.929334,-1.333335 -0.478001,0.4766672 0,1.428668 -0.956001,1.428668 -0.9560014,0 -0.414667,-1.1906678 0,-1.428668 0.408,-0.234667 0.352,-0.834001 0.014,-1.0053345 -0.338001,-0.1713335 -0.9580014,0.086667 -0.9580014,0.892001 0,0.688001 -0.6926678,1.0660015 -0.6926678,1.0660015 V 6.666655 h 4.0000052 l 0.766668,4.913339 z"
     fill="url(#d)"
     id="path80"
     style="fill:url(#d);stroke-width:0.666668" />
  <path
     d="m 12.521222,10.66666 c 0,0 -1.434668,0.833334 -1.434668,3.809338 h 1.912669 v -1.904669 c 0,-1.428669 1.434668,-1.904669 1.434668,-1.904669 h -1.913336 z"
     fill="#ffafa5"
     id="path82"
     style="stroke-width:0.666668" />
  <path
     d="m 12.998556,10.66666 v 1.904669 c 0,0.476001 -0.956668,0.476001 -1.434668,0.952668 -0.240001,0.238 -0.478668,0.476 -0.478668,0.952001 0,0.420667 0.478668,0.952668 0.956668,0.952668 0.956668,0 0.956668,-0.762001 2.290003,-0.762001 h 2.66667 V 10.66666 Z"
     fill="url(#e)"
     id="path84"
     style="fill:url(#e);stroke-width:0.666668" />
  <path
     d="m 24.07057,17.414668 0.928001,2.21667 v 0.464 c 0,1.428669 -1.434669,3.810005 -1.912669,4.286672 -0.440667,0.438668 0.742001,1.27867 1.304668,1.034667 0.17,-0.168665 0.333334,-0.344 0.493334,-0.521999 0.357334,-0.490001 0.714669,-1.110668 1.072001,-1.466669 0.058,-0.05733 0.138,-0.112667 0.208,-0.17 a 13.23735,13.23735 0 0 0 1.89467,-4.591339 z"
     fill="url(#f)"
     id="path86"
     style="fill:url(#f);stroke-width:0.666668" />
  <path
     d="m 24.998571,14.665998 -0.854668,1.911336 0.854668,2.088669 h 3.060004 a 13.312683,13.312683 0 0 0 0.206668,-4.000005 z"
     fill="#2b3c4d"
     id="path88"
     style="stroke-width:0.666668" />
  <path
     d="m 24.998571,10.665993 -1.355335,3.764005 1.355335,1.664669 c 0,0.952001 0.618667,0.813334 0.957334,0.476 0.478,-0.476 0.956003,-1.904669 1.91267,-1.904669 h 0.396668 a 13.190683,13.190683 0 0 0 -1.05467,-4.000005 z"
     fill="url(#g)"
     id="path90"
     style="fill:url(#g);stroke-width:0.666668" />
  <g
     fill="#6c5548"
     id="g96"
     transform="matrix(0.6666675,0,0,0.6666675,-0.334794,-2.0002132e-5)">
    <path
       d="m 42.99,23.647 c -0.202,10.565 -8.64,19.182 -19.287,19.6 a 8.722,8.722 0 0 1 -0.792,0.039 c -4.863,0 -8.908,-3.724 -9.293,-8.55 l -0.034,-0.022 c 0.003,0.112 0.007,0.223 0.013,0.334 -0.004,0.126 -0.013,0.252 -0.013,0.38 l 0.034,0.022 c 0.385,4.826 4.43,8.548 9.293,8.55 0.265,0 0.529,-0.015 0.792,-0.039 10.769,-0.423 19.284,-9.23 19.297,-19.96 0,-0.12 -0.008,-0.236 -0.01,-0.354 z"
       id="path92" />
    <path
       d="m 22.911,29.747 a 4.305,4.286 0 0 0 -4.305,4.286 4.305,4.286 0 0 0 0.019,0.355 4.305,4.286 0 0 1 4.286,-3.927 4.305,4.286 0 0 1 4.287,3.93 4.305,4.286 0 0 0 0.018,-0.358 4.305,4.286 0 0 0 -4.305,-4.286 z"
       id="path94" />
  </g>
  <ellipse
     cx="26.334572"
     cy="20.000006"
     fill="#7cbcec"
     rx="0.66933411"
     ry="0.66666752"
     id="ellipse98"
     style="stroke-width:0.666668" />
  <path
     d="m 12.998556,6.666655 v 4.000005 h 2.391336 c 0.956668,0 0.956668,0.476 0.956668,0.952668 0,0.476667 -0.478001,1.238001 -0.478001,1.714002 0,0.476 0.652001,1.333335 1.130002,1.333335 L 18.088562,10.66666 16.998561,6.666655 Z"
     fill="url(#h)"
     id="path100"
     style="fill:url(#h);stroke-width:0.666668" />
  <path
     d="m 20.998566,6.666655 1.002001,5.03134 -5.002006,-1.031335 V 6.666655 Z"
     fill="url(#i)"
     id="path102"
     style="fill:url(#i);stroke-width:0.666668" />
  <path
     d="m 20.998566,6.6659882 v 4.0000048 l 4.560007,0.560001 -0.560002,-4.0093383 C 24.833904,7.0299887 24.67057,6.843322 24.495904,6.6659882 Z"
     fill="url(#j)"
     id="path104"
     style="fill:url(#j);stroke-width:0.666668" />
  <path
     d="m 24.998571,7.2166557 v 3.4493373 h 2.212002 A 13.322017,13.322017 0 0 0 24.998571,7.2166557 Z"
     fill="#2b4d37"
     id="path106"
     style="stroke-width:0.666668" />
  <path
     d="m 16.998561,10.66666 h 4.000005 l 0.677334,4.648006 -4.677339,-0.648001 z"
     fill="#f7e385"
     id="path108"
     style="stroke-width:0.666668" />
  <path
     d="m 20.998566,10.66666 v 4.000005 h 4.000005 V 13.33333 c 0,-0.952668 1.740002,-0.052 1.740002,-0.762001 0,-0.476001 -0.784668,-0.537334 -0.956668,-0.952001 -0.122,-0.293334 0.476668,-0.952668 0,-0.952668 z"
     fill="url(#k)"
     id="path110"
     style="fill:url(#k);stroke-width:0.666668" />
  <ellipse
     cx="22.113901"
     cy="8.7999907"
     fill="#ffa92d"
     rx="0.47800061"
     ry="0.47600058"
     id="ellipse112"
     style="stroke-width:0.666668" />
  <path
     d="m 19.868564,12.285995 c -0.478,0 -0.956667,0.476001 -0.478,0.952668 0.478,0.476001 0.478,1.428002 -0.478667,1.428002 h -1.913336 c 0,0 1.435335,0.476667 1.435335,1.428668 0,0.952668 -1.173335,1.098002 -1.168001,2.315337 0.004,1.176668 1.133334,0.825334 1.508668,1.630668 0.242667,0.520001 -0.341334,0.903335 0.19,1.432002 0.180001,0.115334 1.291335,0.176667 1.694669,-0.224667 0.906668,-0.902668 0.340001,-1.343335 0.340001,-2.296003 l 1.384001,-2.113336 -1.384668,-2.173336 v -0.476 c 0,-0.476001 -0.651334,-1.904669 -1.130002,-1.904669 z"
     fill="#ecfde3"
     id="path114"
     style="stroke-width:0.666668" />
  <path
     d="m 20.998566,14.666665 v 4.285339 c 0,-0.476001 4.000005,-0.476001 4.000005,0.953334 v -5.238673 z"
     fill="url(#l)"
     id="path116"
     style="fill:url(#l);stroke-width:0.666668" />
  <ellipse
     cx="19.722565"
     cy="17.133335"
     fill="#986f34"
     rx="0.47800061"
     ry="0.71400088"
     id="ellipse118"
     style="stroke-width:0.666668" />
  <ellipse
     cx="18.526562"
     cy="7.8666568"
     fill="#d7e04c"
     rx="0.71733421"
     ry="0.47600058"
     id="ellipse120"
     style="stroke-width:0.666668" />
</svg>
