<?xml version="1.0" encoding="UTF-8"?>
<!-- Created with Inkscape (http://www.inkscape.org/) -->
<svg width="24" height="24" version="1.1" xmlns="http://www.w3.org/2000/svg" xmlns:cc="http://creativecommons.org/ns#" xmlns:dc="http://purl.org/dc/elements/1.1/" xmlns:rdf="http://www.w3.org/1999/02/22-rdf-syntax-ns#" xmlns:xlink="http://www.w3.org/1999/xlink"><defs><radialGradient id="radialGradient3305" cx="163.49" cy="274.87" r="2.8801" gradientTransform="matrix(1 0 0 -1 24.945 588.36)" gradientUnits="userSpaceOnUse"><stop stop-color="#FAF0BB" offset=".0112"/><stop stop-color="#FAF0BD" offset=".4917"/><stop stop-color="#FBF2C5" offset=".6648"/><stop stop-color="#FCF6D0" offset=".7882"/><stop stop-color="#FCF8E1" offset=".8879"/><stop stop-color="#FFFDF7" offset=".9723"/><stop stop-color="#fff" offset="1"/></radialGradient><radialGradient id="radialGradient3307" cx="155.32" cy="310.68" r="4.4867" gradientTransform="matrix(1 0 0 -1 24.945 588.36)" gradientUnits="userSpaceOnUse"><stop stop-color="#FAF0BB" offset=".0112"/><stop stop-color="#FAF0BD" offset=".4917"/><stop stop-color="#FBF2C5" offset=".6648"/><stop stop-color="#FCF6D0" offset=".7882"/><stop stop-color="#FCF8E1" offset=".8879"/><stop stop-color="#FFFDF7" offset=".9723"/><stop stop-color="#fff" offset="1"/></radialGradient><radialGradient id="radialGradient3310" cx="170.31" cy="302.01" r="5.0811" gradientTransform="matrix(1 0 0 -1 24.945 588.36)" gradientUnits="userSpaceOnUse"><stop stop-color="#FAF0BB" offset=".0112"/><stop stop-color="#FAF0BD" offset=".4917"/><stop stop-color="#FBF2C5" offset=".6648"/><stop stop-color="#FCF6D0" offset=".7882"/><stop stop-color="#FCF8E1" offset=".8879"/><stop stop-color="#FFFDF7" offset=".9723"/><stop stop-color="#fff" offset="1"/></radialGradient><radialGradient id="radialGradient3312" cx="173.28" cy="283.68" r="2.8804" gradientTransform="matrix(1 0 0 -1 24.945 588.36)" gradientUnits="userSpaceOnUse"><stop stop-color="#FAF0BB" offset=".0112"/><stop stop-color="#FAF0BD" offset=".4917"/><stop stop-color="#FBF2C5" offset=".6648"/><stop stop-color="#FCF6D0" offset=".7882"/><stop stop-color="#FCF8E1" offset=".8879"/><stop stop-color="#FFFDF7" offset=".9723"/><stop stop-color="#fff" offset="1"/></radialGradient><radialGradient id="radialGradient3314" cx="148.95" cy="270.04" r="2.8799" gradientTransform="matrix(1 0 0 -1 24.945 588.36)" gradientUnits="userSpaceOnUse"><stop stop-color="#FAF0BB" offset=".0112"/><stop stop-color="#FAF0BD" offset=".4917"/><stop stop-color="#FBF2C5" offset=".6648"/><stop stop-color="#FCF6D0" offset=".7882"/><stop stop-color="#FCF8E1" offset=".8879"/><stop stop-color="#FFFDF7" offset=".9723"/><stop stop-color="#fff" offset="1"/></radialGradient><radialGradient id="radialGradient3316" cx="148.07" cy="319.09" r="3.9265" gradientTransform="matrix(1 0 0 -1 24.945 588.36)" gradientUnits="userSpaceOnUse"><stop stop-color="#FAF0BB" offset=".0112"/><stop stop-color="#FAF0BD" offset=".4917"/><stop stop-color="#FBF2C5" offset=".6648"/><stop stop-color="#FCF6D0" offset=".7882"/><stop stop-color="#FCF8E1" offset=".8879"/><stop stop-color="#FFFDF7" offset=".9723"/><stop stop-color="#fff" offset="1"/></radialGradient><radialGradient id="radialGradient3318" cx="112.96" cy="315.56" r="3.0684" gradientTransform="matrix(1 0 0 -1 24.945 588.36)" gradientUnits="userSpaceOnUse"><stop stop-color="#FAF0BB" offset=".0112"/><stop stop-color="#FAF0BD" offset=".4917"/><stop stop-color="#FBF2C5" offset=".6648"/><stop stop-color="#FCF6D0" offset=".7882"/><stop stop-color="#FCF8E1" offset=".8879"/><stop stop-color="#FFFDF7" offset=".9723"/><stop stop-color="#fff" offset="1"/></radialGradient><radialGradient id="radialGradient3320" cx="132.09" cy="320.11" r="4.1713" gradientTransform="matrix(1 0 0 -1 24.945 588.36)" gradientUnits="userSpaceOnUse"><stop stop-color="#FAF0BB" offset=".0112"/><stop stop-color="#FAF0BD" offset=".4917"/><stop stop-color="#FBF2C5" offset=".6648"/><stop stop-color="#FCF6D0" offset=".7882"/><stop stop-color="#FCF8E1" offset=".8879"/><stop stop-color="#FFFDF7" offset=".9723"/><stop stop-color="#fff" offset="1"/></radialGradient><radialGradient id="radialGradient3322" cx="147.44" cy="301.21" r="2.5313" gradientTransform="matrix(1 0 0 -1 24.945 588.36)" gradientUnits="userSpaceOnUse"><stop stop-color="#FAF0BB" offset=".0112"/><stop stop-color="#FAF0BD" offset=".4917"/><stop stop-color="#FBF2C5" offset=".6648"/><stop stop-color="#FCF6D0" offset=".7882"/><stop stop-color="#FCF8E1" offset=".8879"/><stop stop-color="#FFFDF7" offset=".9723"/><stop stop-color="#fff" offset="1"/></radialGradient></defs><metadata><rdf:RDF><cc:Work rdf:about=""><dc:format>image/svg+xml</dc:format><dc:type rdf:resource="http://purl.org/dc/dcmitype/StillImage"/></cc:Work></rdf:RDF></metadata><g transform="translate(0,-8)"><g transform="matrix(.46702 0 0 .38319 .63989 4.647)"><path d="m47.748 36.241c-0.30488-0.66978-0.93996-2.526-1.2643-3.18-0.49996-1.0059-2.4099-0.34074-2.8503-1.4021-0.61524-1.4819 0.40284-3.0758-0.26687-4.517-0.51052-1.0985-2.3208-1.75-2.8309-2.8485-0.37413-0.80454 0.05785-5.08-0.91589-3.7039-1.6439 2.3236-3.1336 4.93-4.5186 7.7698-0.22718-0.29954-0.46027-0.59044-0.69969-0.87269l1.274-2.3958-1.9488 1.6416c-0.20944-0.22275-0.42311-0.43889-0.641-0.64842l0.93658-2.1629-1.5641 1.5852c-0.53543-0.47093-1.0932-0.90778-1.6726-1.3075l1.1688-5.789-2.8731 4.753c-0.28545-0.15155-0.57428-0.29547-0.86775-0.42973l0.28376-3.5401-1.3601 3.0931c-1.2132-0.45364-2.4812-0.75877-3.7869-0.90015l-0.34964-4.8064-1.2263 4.7164h-0.01056c-1.4222-0.0066-2.8182 0.18512-4.1644 0.55382l-1.1908-2.8561 0.19635 3.1638c-0.40326 0.13935-0.80104 0.29446-1.1933 0.46533l-0.67647-1.1931 0.24365 1.3889c-0.48223 0.22631-0.95432 0.47703-1.4163 0.75013l-2.6493-2.6766 1.4881 3.4252c-0.73389 0.51517-1.4349 1.0883-2.0965 1.7159-0.09374 0.089-0.18706 0.18003-0.27954 0.27106l-2.6176-1.7759 1.7558 2.6852c-0.26434 0.297-0.5215 0.60519-0.7719 0.92253l-2.0729-1.396 1.4581 2.2158c-0.34077 0.47906-0.66507 0.97847-0.97163 1.4957-1.2706 0.25123-2.4082 1.1575-3.0906 2.497 0.00253-5e-3 0.00508-0.01071 0.00802-0.01578-0.50798 0.01071-0.90745 0.31124-1.1177 1.0461-0.73474 2.5687-0.5367 4.3752 0.16891 5.4086-0.11992 0.09664-0.23731 0.20241-0.35175 0.31785-1.9015 1.9259-2.2055 5.7884-0.679 8.6252 0.84706 1.574 2.0797 2.5016 3.3342 2.6867 0.64522 1.7194 1.4881 3.3372 2.5116 4.81 3.3334 4.7998 8.4204 7.8491 14.241 7.7225 5.7664-0.12612 10.742-3.3529 13.963-8.1955 2.2688-3.4104 3.604-7.5364 3.8038-11.872l2.1831-0.57722-2.1569-0.45872c3e-3 -0.73436-0.02618-1.4738-0.08952-2.2158l3.3321-2.1126-3.5377 0.40075c-0.06334-0.40786-0.13681-0.81013-0.21958-1.2073l0.95981-0.62858-1.0675 0.13782c-0.02618-0.11391-0.05278-0.22682-0.08023-0.33972 2.7565-0.43482 5.4734-0.39312 8.2253 0.32802 0.69969 0.18359 0.89351 0.07272 0.60257-0.56806zm-44.493-2.0704c-0.017313 0.06662-0.033782 0.13426-0.04856 0.20292-0.0114 0.05139-0.022381 0.10273-0.032514 0.1546 0.010132-0.05188 0.020692-0.10325 0.032514-0.1546 0.01478-0.06866 0.031247-0.13629 0.04856-0.20292zm0.40495-1.1112c-0.010132 0.02085-0.020269 0.04223-0.030404 0.06306 0.010132-0.02085 0.02027-0.04222 0.030404-0.06306zm-0.079808 0.1724c-0.010557 0.02339-0.020692 0.0473-0.030825 0.07119 0.010132-0.02389 0.02027-0.04782 0.030825-0.07119zm-0.075164 0.17749c-0.010557 0.02644-0.021113 0.0529-0.031248 0.07984 0.010132-0.02694 0.020692-0.0534 0.031248-0.07984zm-0.070097 0.18257c-0.010979 0.03002-0.021535 0.06-0.032092 0.09001 0.010557-0.03002 0.021113-0.06002 0.032092-0.09001zm-0.06545 0.18766c-0.01098 0.03407-0.021535 0.06866-0.032515 0.10324 0.010979-0.03458 0.021113-0.06866 0.032515-0.10324zm-0.059962 0.19325c-0.011823 0.04119-0.023225 0.08289-0.034626 0.1246 0.0114-0.04172 0.022381-0.08342 0.034626-0.1246zm-0.25589 1.7037c-8.452e-4 0.05034-8.452e-4 0.1007-4.223e-4 0.15054-4.223e-4 -0.05034-4.223e-4 -0.1007 4.223e-4 -0.15054zm0.11063-1.0975c-0.00633 0.03458-0.012668 0.06866-0.018578 0.10324 0.00591-0.03407 0.012245-0.06866 0.018578-0.10324zm-0.028713 0.16478c-0.00507 0.03153-0.010132 0.06256-0.01478 0.09357 0.00464-0.03101 0.00971-0.06204 0.01478-0.09357zm-0.023646 0.15867c-0.00423 0.03053-0.00802 0.06053-0.011823 0.09052 0.00379-0.03052 0.0076-0.06054 0.011823-0.09052zm-0.019423 0.15613c-0.00338 0.03002-0.00633 0.05949-0.00929 0.0895 0.00296-0.03002 0.00591-0.05951 0.00929-0.0895zm-0.015624 0.15562c-0.00253 0.03002-0.00464 0.06001-0.00717 0.09001 0.00253-0.03002 0.00508-0.06001 0.00717-0.09001zm-0.0114 0.1546c-0.0017 0.03154-0.00338 0.06256-0.00507 0.09408 0.0017-0.03153 0.00338-0.06256 0.00507-0.09408zm-0.0076 0.1541c-0.00127 0.03662-0.00211 0.07322-0.00296 0.10933 4.221e-4 -0.03662 0.00127-0.07272 0.00296-0.10933zm0.16342 1.7052c-0.0076-0.03203-0.01478-0.06407-0.021535-0.09611 0.00718 0.03205 0.013934 0.06407 0.021535 0.09611zm-0.037161-0.16833c-0.00802-0.03865-0.015624-0.07728-0.023225-0.11594 0.0076 0.03865 0.015624 0.07729 0.023225 0.11594zm-0.033785-0.17698c-0.00507-0.02847-0.010132-0.05696-0.01478-0.08543 0.00464 0.02795 0.010132 0.05696 0.01478 0.08543zm-0.024491-0.15206c-0.00423-0.02694-0.00844-0.05392-0.012245-0.08138 0.00379 0.02694 0.0076 0.05442 0.012245 0.08138zm-0.021113-0.15002c-0.00338-0.02694-0.00675-0.0534-0.00971-0.08086 0.00296 0.02747 0.00633 0.05442 0.00971 0.08086zm-0.017313-0.14952c-0.00296-0.02694-0.00549-0.05392-0.00802-0.08137 0.00253 0.02747 0.00508 0.05441 0.00802 0.08137zm-0.013934-0.15002c-0.00211-0.02795-0.00423-0.05546-0.00591-0.08341 0.0017 0.02747 0.00379 0.05544 0.00591 0.08341zm-0.010132-0.15054c-0.0017-0.0295-0.00296-0.059-0.00423-0.0885 0.00127 0.0295 0.00253 0.05898 0.00423 0.0885zm-0.00675-0.15206c-0.00127-0.03356-0.0017-0.06765-0.00211-0.10172 0 0.03407 8.451e-4 0.06814 0.00211 0.10172zm0.18031 1.3136c0.00633 0.02644 0.012668 0.0529 0.019424 0.07882-0.00633-0.02644-0.012668-0.05239-0.019424-0.07882zm0.18115 1.6793c-0.00211 9.74e-4 -0.00423 0.0021-0.00633 3e-3h4.224e-4c0.015624-0.01072 0.031247-0.02137 0.046871-0.03205-0.013511 0.0097-0.027025 0.01933-0.04096 0.02896zm-0.14357-1.5338c0.00675 0.02492 0.013511 0.04984 0.020692 0.07476-0.00717-0.02492-0.013934-0.04984-0.020692-0.07476zm0.040537 0.14189c0.00717 0.0244 0.014357 0.04883 0.021957 0.07272-0.00717-0.0244-0.014779-0.04832-0.021957-0.07272zm0.043072 0.13935c0.00802 0.02389 0.015624 0.04782 0.023646 0.0717-0.0076-0.02389-0.015624-0.04728-0.023646-0.0717zm0.046449 0.13782c0.00844 0.02389 0.016891 0.04782 0.025758 0.07171-0.00844-0.02389-0.017313-0.0473-0.025758-0.07171zm0.049405 0.13579c0.00929 0.0244 0.019001 0.04883 0.028292 0.07322-0.00929-0.02441-0.019001-0.04831-0.028292-0.07322zm0.052361 0.13426c0.010979 0.02747 0.022803 0.05442 0.034203 0.08188-0.0114-0.02747-0.023225-0.05442-0.034203-0.08188zm0.055317 0.13223c0.018158 0.04223 0.037159 0.08491 0.056584 0.12663-0.019001-0.04223-0.038005-0.0844-0.056584-0.12663zm0.081498 0.1785c0.012245 0.02543 0.024491 0.05086 0.036737 0.07627-0.012668-0.02543-0.024491-0.05086-0.036737-0.07627zm0.065028 0.13273c0.011824 0.02339 0.023646 0.04678 0.035893 0.07019-0.012246-0.02339-0.024069-0.04678-0.035893-0.07019zm0.066295 0.12714c0.00802 0.01423 0.015624 0.029 0.023646 0.04272-0.012668 0.0066-0.025336 0.01272-0.037582 0.01933 0.012246-0.0066 0.02449-0.01373 0.036737-0.01983-0.00802-0.01373-0.015202-0.02797-0.022803-0.04223z"/><path d="m46.872 35.322c-0.29559-0.57468-0.59117-1.1494-0.88718-1.724-0.41128-0.79946-2.4424-0.78014-2.8537-1.5796-0.64015-1.2434 0.33992-3.3067-0.30023-4.5501-0.48729-0.94745-2.1649-1.4697-2.6522-2.4172-0.27278-0.53043-0.35555-1.275-0.33063-1.9122 0.05237-1.365 0.09627-2.1466-0.8251-0.81522-1.4631 2.1151-2.7903 4.4591-4.02 7.0019 0.08403 0.13019 0.16679 0.26293 0.24872 0.39617 1.8677-0.78064 3.5795-1.9259 5.0841-3.3591-1.3905 1.5821-3.0331 2.8602-4.8607 3.7334 0.11908 0.20393 0.23647 0.41092 0.35006 0.62095-0.87662-1.4779-1.9048-2.7976-3.0437-3.9312l-0.22084 0.5106 1.0168-2.7213-1.7212 1.5399 0.1005-0.10172c-0.42691-0.37532-0.86902-0.72724-1.3246-1.0568l-0.25969 1.2872 0.92814-6.117-3.2763 4.7825 0.69505-1.1493c-1.6549-0.8854-3.4461-1.4784-5.3222-1.721l0.05785 0.79031-0.58104-4.7886-1.426 4.5099 0.16511-0.63519c-0.02449 0-0.04899-9.74e-4 -0.07348-9.74e-4 -2.6966-0.0122-5.2973 0.7069-7.6286 2.0053l0.99401 1.0039-3.2223-2.8917 1.6392 4.4036-0.73643-1.695c-0.77781 0.53196-1.5189 1.1305-2.2148 1.7912-0.58653 0.55688-1.146 1.1616-1.6734 1.81l0.38004 0.25581-2.2287-1.304 1.2275 2.1171-0.091631-0.13934c-0.26096 0.36159-0.51221 0.73538-0.75332 1.1204h4.226e-4c0.058698-0.0046 0.11781-0.0076 0.17693-0.0097 0.41973-0.01322 0.84833 0.04476 1.2748 0.18258 0.95432 0.30768 1.7532 0.96576 2.3275 1.8278 1.0426-3.6367 4.2598-5.7356 7.393-4.7245 3.2755 1.0573 5.22 5.1141 4.3426 9.059-0.23816 1.07-0.65958 2.022-1.2127 2.82 0.07093 0.03205 0.14188 0.06509 0.2124 0.1007 0.08361 0.04223 0.16595 0.08645 0.24702 0.13273-2.9765-1.3131-6.3141 0.41855-7.5484 3.9759-1.2347 3.5584 0.08783 7.6345 2.955 9.2629-0.08446-0.03713-0.16848-0.07627-0.25252-0.1185-3.0382-1.5292-4.4722-5.7366-3.2025-9.3962 0.21873-0.6296 0.50292-1.2022 0.83988-1.7113-1.4729-0.61892-2.6396-1.8613-3.349-3.4114-0.58821 1.2775-1.5788 2.1939-2.7177 2.5749 0.033789 0.06461 0.067143 0.12917 0.099654 0.1958 1.3449 2.7503 0.92856 6.3794-0.92982 8.1039-0.051515 0.04782-0.10388 0.09407-0.15666 0.13782 0.026184-0.02694 0.05236-0.05442 0.078121-0.08188 8.773e-4 -0.0014 0.00167-0.0026 0.00296-0.0036 0.024916-0.02694 0.049402-0.05442 0.073895-0.08239 0.00128-0.0021 0.00296-0.0036 0.00462-5e-3 0.024071-0.02795 0.047713-0.05545 0.070937-0.08341 0.00167-0.0026 0.00384-0.0046 0.0055-0.0071 0.023227-0.02796 0.045607-0.05543 0.067989-0.08391 0.00216-3e-3 0.00423-0.0061 0.00675-0.0086 0.021955-0.02847 0.043919-0.05646 0.065029-0.08542 0.00251-3e-3 0.00512-0.0066 0.0072-0.0097 0.021109-0.02847 0.042228-0.05696 0.062493-0.08645 0.00251-0.0036 0.00512-0.0072 0.00755-0.01071 0.020265-0.0295 0.040538-0.05799 0.060379-0.08797 0.00251-4e-3 0.00512-0.0076 8e-3 -0.01121 0.01942-0.0295 0.038848-0.05898 0.058277-0.08899 0.00251-0.0046 0.00549-0.0086 8e-3 -0.0122 0.018997-0.03002 0.037589-0.06 0.055741-0.09052 0.00251-0.0046 0.00549-0.0086 8e-3 -0.01272 0.018152-0.03052 0.036322-0.06103 0.054051-0.09204 0.00251-0.0046 0.00512-9e-3 8e-3 -0.01322 0.017729-0.03153 0.035054-0.06204 0.052361-0.09357 0.00251-5e-3 0.00513-0.0097 0.00755-0.01373 0.017306-0.03153 0.033789-0.06306 0.050253-0.09508 0.00251-5e-3 0.00513-0.0097 0.00755-0.01423 0.016464-0.03153 0.032521-0.06407 0.048559-0.09613 0.00213-5e-3 0.00455-0.0097 0.00716-0.01425 0.015622-0.03253 0.031254-0.06509 0.046458-0.09816 0.00213-0.0046 0.00426-0.0097 0.00677-0.01373 0.015206-0.03304 0.030402-0.06713 0.045191-0.10069 0.00213-4e-3 0.00387-9e-3 0.0059-0.01272 0.01478-0.03409 0.029559-0.06865 0.043913-0.10273 0.00175-0.0046 0.00329-0.0086 0.00513-0.0122 0.014354-0.03508 0.028291-0.07019 0.042229-0.10528 0.00126-4e-3 3e-3 -0.0082 0.00426-0.0112 0.013937-0.0356 0.027449-0.07222 0.040961-0.10833 8.768e-4 -3e-3 0.00213-0.0061 0.00329-0.0097 0.013511-0.03662 0.026607-0.07425 0.039693-0.11137 8.769e-4 -0.0026 0.00175-5e-3 0.00251-0.0076 0.013085-0.03815 0.026181-0.07627 0.038425-0.11544 0-9.73e-4 4.229e-4 -0.0021 8.769e-4 -0.0026 0.15708-0.48568 0.26307-1.0029 0.3167-1.5359 4.228e-4 -4e-3 8.777e-4 -0.0082 0.00124-0.01118 0.00383-0.03762 0.00713-0.07528 0.010132-0.1134 4.219e-4 -0.0082 0.00124-0.01576 0.00217-0.02389 3e-3 -0.03458 0.00548-0.06968 0.00755-0.10424 8.767e-4 -0.01071 0.00176-0.02238 0.00248-0.03305 0.00217-0.03253 0.00383-0.06561 0.00548-0.09816 4.218e-4 -0.01322 0.00124-0.02644 0.00217-0.03917 0.00176-0.03153 0.00248-0.06306 0.00383-0.09459 4.229e-4 -0.01474 8.778e-4 -0.03002 0.00176-0.04425 8.777e-4 -0.03052 0.00124-0.06053 0.00217-0.09052 4.228e-4 -0.01627 8.777e-4 -0.03253 8.777e-4 -0.04883 4.229e-4 -0.0295 4.229e-4 -0.05799 4.229e-4 -0.08747v-0.05239c0-0.02847-4.229e-4 -0.05644-8.778e-4 -0.08492 0-0.01831-4.228e-4 -0.03611-4.228e-4 -0.05441-4.208e-4 -0.02796-0.00124-0.05544-0.00217-0.08339-4.229e-4 -0.0188-8.767e-4 -0.03763-0.00176-0.05645-8.767e-4 -0.02694-0.00217-0.0534-0.00331-0.08086-8.768e-4 -0.01984-0.00176-0.03918-3e-3 -0.05899-0.00124-0.02694-3e-3 -0.0529-0.00455-0.07935-0.00124-0.02032-0.00248-0.04068-0.00383-0.06053-0.00176-0.02644-0.00383-0.05238-0.00589-0.07832-0.00176-0.02085-0.00331-0.04119-0.00517-0.06204-0.00217-0.02594-0.00455-0.05138-0.00713-0.0768-0.00176-0.02136-0.00424-0.04222-0.00631-0.06307-0.00248-0.02543-0.00548-0.05086-0.00842-0.07577-0.00251-0.02185-0.00513-0.04323-0.00755-0.06461-3e-3 -0.02492-0.0059-0.04985-0.00929-0.07425-3e-3 -0.02185-0.0059-0.04375-0.0089-0.06561-0.00329-0.02492-0.00677-0.04934-0.01056-0.07425-0.00329-0.02185-0.00677-0.04425-0.010132-0.06612-0.00387-0.02439-0.00755-0.04883-0.011401-0.07322-0.00387-0.02237-0.00755-0.04476-0.011401-0.06661-0.00426-0.02441-0.00842-0.04831-0.01267-0.07221-0.00426-0.02288-0.00842-0.04526-0.01267-0.06765-0.00455-0.02389-0.0089-0.04782-0.013937-0.07119-0.00455-0.02288-0.00929-0.04526-0.013938-0.06815-0.00513-0.0234-0.00971-0.04729-0.015206-0.07069-0.00513-0.02288-0.010132-0.04576-0.015206-0.06866-0.00513-0.02288-0.010549-0.04629-0.016047-0.06915-0.00552-0.02339-0.010976-0.04629-0.01688-0.06915-0.00552-0.02288-0.010975-0.04576-0.01688-0.06814-0.0059-0.02339-0.011827-0.04678-0.018148-0.06968-0.0059-0.02288-0.011818-0.04527-0.018148-0.06765-0.0063-0.0234-0.01267-0.04628-0.019416-0.06968-0.0063-0.02238-0.01267-0.04425-0.018999-0.06661-0.00677-0.0234-0.013937-0.04678-0.021109-0.07019-0.00677-0.02185-0.013086-0.04374-0.019842-0.0656-0.00755-0.02389-0.015206-0.0473-0.022804-0.0707-0.00677-0.02136-0.013937-0.0427-0.020683-0.0646-0.00803-0.02339-0.016038-0.04679-0.024071-0.07069-0.00755-0.02085-0.014354-0.04222-0.021952-0.06306-0.00842-0.0244-0.017306-0.04831-0.026181-0.07221-0.00755-0.02031-0.01478-0.04069-0.022378-0.06103-0.0089-0.02441-0.018574-0.04883-0.027875-0.07272-0.00755-0.02032-0.015206-0.04018-0.022804-0.05949-0.00971-0.02492-0.019842-0.04933-0.029985-0.07425-0.00803-0.01865-0.015622-0.03799-0.023645-0.05732-0.010975-0.02594-0.021952-0.05188-0.033363-0.0768-0.00755-0.0178-0.015206-0.0351-0.022804-0.0529-0.01267-0.0295-0.026182-0.05799-0.039267-0.08696-0.00677-0.0137-0.01267-0.02845-0.019416-0.04219-0.019842-0.043047-0.040119-0.085755-0.060803-0.12849-1.3449-2.7503-3.9426-3.5823-5.801-1.8583-1.8584 1.724-2.2747 5.3531-0.92983 8.1034 0.023225 0.04782 0.046871 0.0951 0.07094 0.14087 0.0076 0.01474 0.015624 0.0295 0.023225 0.04425 0.01689 0.03153 0.033358 0.06307 0.05025 0.09459 0.00887 0.01626 0.018158 0.03307 0.027448 0.04985 0.016468 0.0295 0.032514 0.05799 0.048982 0.08645 0.00929 0.01627 0.018578 0.03253 0.028291 0.04883 0.017735 0.03002 0.035048 0.0595 0.053205 0.0885 0.00844 0.01373 0.01689 0.02795 0.025336 0.04172 0.024491 0.03917 0.048983 0.07729 0.073473 0.11594 0.00211 0.0036 0.00423 0.0072 0.00633 0.01012 0.027025 0.0417 0.054894 0.0824 0.082765 0.12307 0.00802 0.01121 0.015624 0.02237 0.023646 0.03305 0.020269 0.02896 0.040538 0.05746 0.061228 0.08595 0.00971 0.01322 0.019424 0.02694 0.029136 0.03966 0.019423 0.02644 0.038848 0.05239 0.058271 0.07729 0.00971 0.01271 0.019847 0.02594 0.029981 0.03865 0.020692 0.02694 0.041381 0.0529 0.062496 0.0783 0.00887 0.01071 0.017735 0.02185 0.026181 0.03255 0.027025 0.03305 0.054473 0.06561 0.082342 0.09764 0.00253 3e-3 0.00464 0.0061 0.00718 0.0086 0.031248 0.03611 0.062496 0.07119 0.094165 0.10578 0.00591 0.0066 0.011823 0.0122 0.017735 0.0188 0.025337 0.02747 0.050671 0.05392 0.076429 0.08086 0.00887 0.0097 0.018158 0.0183 0.027448 0.02796 0.023226 0.02339 0.046027 0.0468 0.069674 0.06969 0.00929 0.0097 0.019001 0.0183 0.028292 0.02796 0.024491 0.02339 0.048982 0.04678 0.073473 0.06915 0.00802 0.0076 0.016046 0.01474 0.024069 0.02238 0.031247 0.02847 0.062496 0.05645 0.094587 0.08391 0.00127 9.74e-4 0.00253 0.0021 0.00338 3e-3 0.035048 0.03002 0.070097 0.05898 0.10514 0.08747 0.0017 0.0014 0.00338 3e-3 0.00508 0.0046 0.032091 0.02594 0.064184 0.05086 0.096698 0.07527 0.00718 0.0056 0.014357 0.01073 0.021535 0.01578 0.027448 0.02085 0.055317 0.04069 0.083186 0.0605 0.00802 0.0061 0.016046 0.01121 0.024069 0.01678 0.028293 0.02032 0.057006 0.03967 0.08572 0.059 0.00633 4e-3 0.012668 0.0086 0.019424 0.0122 0.10726 0.07119 0.21662 0.13578 0.32683 0.19376 0.00423 0.0021 0.00887 0.0046 0.01309 0.0066 0.032515 0.01678 0.064607 0.03307 0.097121 0.04883 0.0059 3e-3 0.012246 0.0061 0.018158 9e-3 0.032092 0.01524 0.064607 0.03052 0.096698 0.04425 0.00464 0.0021 0.00929 0.0046 0.014356 0.0066 0.11359 0.04933 0.22844 0.09256 0.3433 0.12816 0.0017 5.1e-4 0.00338 9.74e-4 0.00549 0.0014 0.035892 0.0112 0.071785 0.02187 0.10768 0.03154 0.00464 9.73e-4 0.00929 0.0026 0.013934 0.0036 0.034626 0.0097 0.068829 0.0178 0.10345 0.02594 0.00379 9.74e-4 0.00802 0.0021 0.011824 3e-3 0.11697 0.02694 0.23436 0.04679 0.35175 0.05951 0.64818 1.8491 1.5273 3.5843 2.6164 5.1517 3.2493 4.6783 8.2075 7.6508 13.881 7.5267 5.6208-0.12256 10.47-3.2675 13.61-7.9875 2.7118-4.0776 4.0554-9.2029 3.6674-14.468l-0.6258 0.39719 3.4419-2.4975-4.0043 0.1602 0.94925-0.10731c-0.22042-1.3787-0.55654-2.6964-0.99063-3.9424 0.16848 0.42872 0.32556 0.8671 0.46913 1.3151 2.7983-0.57112 5.5654-0.68554 8.2886-0.15104 0.77148 0.15308 0.9332 0.41702 0.46449-0.49382zm-12.8 3.7033c-0.15033 4.2434-1.5991 6.2024-3.284 6.3514-0.29178 0.02594-0.58104-3e-3 -0.88295-0.08339 0.1271 0.01169 0.25378 0.01373 0.38046 5e-3 0.94798-0.0656 1.8263-0.71809 2.4386-2.049-1.6544-1.0029-3.3849-1.6076-5.06-1.8268 1.6848 0.07272 3.4651 0.59909 5.1596 1.5989 0.21578-0.52026 0.39313-1.1341 0.52234-1.8466-1.8664-0.63926-3.7468-0.83099-5.4979-0.62604 1.7288-0.35549 3.6412-0.25581 5.5414 0.37074 0.08615-0.53551 0.14653-1.1229 0.17651-1.7647 0.0114-0.23851-3e-3 -0.4516-0.03927-0.6418-2.0091-0.11443-3.9418 0.2436-5.6567 0.97186 1.6435-0.86405 3.5681-1.3207 5.5861-1.2368-0.41213-1.1865-1.896-1.25-3.5546-0.9032 2.2106-0.57976 4.2501-0.55281 4.1703 1.6803zm2.4411-7.0558c1.9247-0.564 3.7214-1.5114 5.3349-2.7701-1.5104 1.4194-3.2481 2.5062-5.139 3.1678-0.06418-0.13324-0.12921-0.26598-0.19593-0.39769zm0.82553 1.8425c-0.05574-0.14138-0.11275-0.28225-0.17102-0.4216 1.9998-0.29852 3.9976-0.1124 5.8876 0.50551-1.8622-0.40176-3.7919-0.44245-5.7166-0.08392z" fill="#b3b3b3"/><path d="m17.972 28.383c3.0293 0.97746 4.8278 4.7291 4.0162 8.378-0.21409 0.96322-0.58948 1.8232-1.081 2.5494-2.2021-0.67283-4.511 0.23801-5.9649 2.257-2.9749-1.0222-4.7298-4.7347-3.9262-8.347 0.81159-3.6489 3.9266-5.8154 6.956-4.8374z" fill="#fff"/><path d="m21.469 31.676c0.68829 1.4962 0.91505 3.3031 0.51854 5.0856-0.21409 0.96322-0.58948 1.8232-1.081 2.5494-2.2025-0.67283-4.5115 0.23801-5.9653 2.257-1.2174-0.41804-2.2304-1.2877-2.9474-2.4157 0.30783 0.16172 0.63002 0.29853 0.96445 0.40634 3.6057 1.1636 7.3132-1.4143 8.2793-5.7569 0.15793-0.71046 0.23225-1.424 0.2314-2.1258z" fill="#f2f2f2"/><path d="m11.148 37.666c-0.47378-1.3619-0.61397-2.9034-0.33232-4.4413-0.52952-1.0202-1.3686-1.8105-2.409-2.1461-2.1827-0.70436-4.427 0.85642-5.0119 3.4847-0.3243 1.457-0.070517 2.9364 0.59159 4.0858 1.0683-0.4694 2.249-0.27157 3.2582 0.50348 0.46196 0.35447 0.8876 0.82946 1.2503 1.4169 1.1794-0.41702 2.1776-1.4636 2.6531-2.9034z" fill="#fff"/><path d="m31.241 51.394 1.2664 0.63723-2.4652-0.01373c-4.5305 2.1797-9.4262 2.6099-12.63 1.0075-0.08825-0.03864-0.17651-0.07984-0.26434-0.12409-3.0382-1.5292-4.4722-5.7366-3.2025-9.3962 0.21873-0.6296 0.50334-1.2022 0.84031-1.7108v-5.07e-4c-1.4729-0.61892-2.6396-1.8618-3.349-3.4114-0.58822 1.2775-1.5788 2.1939-2.7177 2.5748 0.033779 0.06461 0.067143 0.12918 0.099655 0.1958 1.3449 2.7503 0.92856 6.3794-0.92983 8.1039-0.051515 0.04782-0.10388 0.09408-0.15666 0.13782-0.048979 0.05034-0.098387 0.09866-0.14948 0.14596-0.74867 0.6947-1.6177 0.97441-2.4762 0.88032v5.08e-4c0.64775 1.8486 1.5273 3.5843 2.6159 5.1517 3.2493 4.6783 8.2075 7.6503 13.881 7.5267 5.6208-0.12256 10.47-3.268 13.61-7.988 2.1236-3.1922 3.4077-7.0283 3.6788-11.071-1.8702 3.1856-4.6344 5.6659-7.651 7.3533z" fill="#e6e6e6"/><path d="m11.261 44.175c-0.15877-0.25072-0.25083-0.56654-0.24365-0.90677 0.01224-0.58485 0.3129-1.0797 0.7339-1.2917-0.61693 0.50754-0.83904 1.751-0.17313 2.3368 0.27743 0.2436 0.43958 0.57417 0.37075 1.0288-0.05363 0.35599-0.26265 0.80251-0.59117 1.1443-0.37497 0.38956-0.83313 0.59959-1.2288 0.54111 0.37835-0.1124 0.75754-0.38702 1.0628-0.75216 0.26307-0.31429 0.44464-0.67537 0.51938-0.97542 0.14906-0.59654-0.182-0.70182-0.45013-1.1249zm1.8951 4.4087c-0.23394 0.93168-0.95221 1.6101-1.8022 1.6101-0.76556 0-1.4251-0.55128-1.719-1.3421 0.37835 0.63214 0.99443 1.0441 1.6907 1.0441 0.79006 0 1.4775-0.53094 1.8305-1.3121z"/><g transform="matrix(.42226 0 0 .50856 -47.727 -111.73)"><path d="m189.81 311.3c-0.681-0.478-1.432-0.68-2.1-0.645-0.633 0.034-1.217 0.284-1.625 0.739-0.408 0.454-0.59 1.052-0.559 1.676 0.034 0.653 0.305 1.364 0.834 1.98 0.577 0.671 1.35 1.108 2.143 1.244 0.845 0.145 1.679-0.06 2.247-0.657 0.573-0.604 0.725-1.448 0.515-2.282-0.199-0.789-0.713-1.534-1.455-2.055z" fill="url(#radialGradient3305)"/><path d="m183.16 274.26c-0.777-0.621-1.774-0.996-2.853-1-1.077-4e-3 -2.096 0.366-2.89 0.992-0.839 0.661-1.465 1.633-1.646 2.791-0.197 1.263 0.167 2.499 0.961 3.449 0.841 1.005 2.124 1.644 3.592 1.617 1.455-0.026 2.71-0.702 3.522-1.716 0.762-0.951 1.106-2.168 0.913-3.4-0.179-1.131-0.786-2.082-1.599-2.733z" fill="url(#radialGradient3307)"/><path d="m197.25 290.92c1.482-0.322 2.697-1.225 3.201-2.604 0.5-1.367 0.166-2.845-0.726-4.066-0.835-1.146-2.134-2.023-3.647-2.408-1.389-0.352-2.723-0.223-3.781 0.238-1.011 0.439-1.812 1.196-2.21 2.198-0.397 1.001-0.335 2.12 0.108 3.146 0.468 1.083 1.377 2.112 2.666 2.812 1.407 0.762 2.987 0.989 4.389 0.684z" fill="url(#radialGradient3310)"/><path d="m200.54 302.53c-0.568-0.598-1.402-0.802-2.248-0.657-0.792 0.136-1.565 0.573-2.143 1.244-0.529 0.616-0.8 1.327-0.833 1.98-0.032 0.624 0.15 1.222 0.559 1.676 0.408 0.455 0.991 0.705 1.624 0.739 0.668 0.035 1.42-0.167 2.101-0.645 0.741-0.521 1.256-1.267 1.454-2.056 0.21-0.833 0.058-1.677-0.514-2.281z" fill="url(#radialGradient3312)"/><path d="m173.96 315.52c-0.793 0.136-1.566 0.573-2.143 1.244-0.529 0.616-0.801 1.327-0.834 1.98-0.031 0.623 0.15 1.222 0.559 1.676 0.408 0.455 0.991 0.705 1.624 0.738 0.669 0.036 1.42-0.166 2.101-0.645 0.741-0.521 1.256-1.266 1.454-2.055 0.211-0.834 0.06-1.679-0.514-2.282-0.568-0.598-1.402-0.801-2.247-0.656z" fill="url(#radialGradient3314)"/><path d="m171.28 272.34c1.106 0.549 2.333 0.68 3.407 0.405 1.136-0.291 2.049-1.022 2.398-2.102 0.347-1.069 0.048-2.201-0.675-3.119-0.678-0.861-1.706-1.502-2.885-1.756-1.083-0.233-2.109-0.095-2.914 0.291-0.768 0.368-1.365 0.975-1.645 1.76-0.278 0.785-0.198 1.646 0.173 2.426 0.394 0.822 1.125 1.592 2.141 2.095z" fill="url(#radialGradient3316)"/><path d="m140.78 270.8c-0.132-0.306-0.298-0.603-0.496-0.884l-1e-3 -1e-3c-0.031 0.02-0.061 0.042-0.091 0.062-0.1 0.067-0.199 0.135-0.298 0.203-0.12 0.082-0.24 0.163-0.358 0.246-0.123 0.085-0.245 0.173-0.366 0.26-0.096 0.068-0.193 0.136-0.289 0.206-0.146 0.106-0.29 0.213-0.434 0.321-0.072 0.054-0.145 0.106-0.216 0.161-0.215 0.163-0.429 0.328-0.641 0.495-0.223 0.175-0.443 0.354-0.663 0.535-0.064 0.053-0.129 0.107-0.194 0.161-0.171 0.143-0.341 0.287-0.51 0.432-0.054 0.046-0.108 0.092-0.162 0.139-0.193 0.167-0.384 0.337-0.574 0.509-0.098 0.088-0.196 0.178-0.293 0.268-0.099 0.09-0.196 0.182-0.294 0.274-0.079 0.074-0.16 0.146-0.238 0.222l1e-3 1e-3c0.177 0.156 0.363 0.299 0.555 0.429 0.596 0.402 1.257 0.671 1.927 0.786 1.185 0.202 2.356-0.083 3.152-0.922 0.804-0.847 1.017-2.032 0.722-3.202-0.06-0.24-0.14-0.473-0.239-0.701z" fill="url(#radialGradient3318)"/><path d="m160.2 265.6c-0.85-0.392-1.938-0.592-3.115-0.521-1.177 0.07-2.29 0.405-3.157 0.906-0.916 0.53-1.6 1.269-1.798 2.11-0.216 0.917 0.182 1.777 1.05 2.403 0.918 0.663 2.32 1.032 3.923 0.914 1.588-0.118 2.959-0.687 3.847-1.468 0.833-0.732 1.209-1.627 0.998-2.496-0.195-0.799-0.859-1.438-1.748-1.848z" fill="url(#radialGradient3320)"/><path d="m173.96 289.2c0.657-0.143 1.12-0.506 1.265-1.029 0.133-0.48-0.03-1.015-0.381-1.495-0.335-0.458-0.853-0.886-1.498-1.196s-1.333-0.461-1.94-0.451c-0.643 0.011-1.223 0.2-1.576 0.587-0.385 0.422-0.428 0.996-0.152 1.584 0.291 0.622 0.925 1.231 1.811 1.642 0.876 0.408 1.77 0.51 2.471 0.358z" fill="url(#radialGradient3322)"/></g><path d="m32.301 46.797c-0.24491-0.2075-0.51601-0.29497-0.75628-0.27971-0.2276 0.01425-0.43789 0.12307-0.58484 0.3204-0.14737 0.19732-0.21282 0.45618-0.20142 0.72674 0.01182 0.28378 0.10979 0.59146 0.30023 0.85845 0.20733 0.2909 0.48603 0.48059 0.77106 0.53959 0.30445 0.06256 0.6051-0.02543 0.80906-0.28479 0.20649-0.26191 0.26096-0.62808 0.18537-0.98966-0.07136-0.34226-0.25631-0.6652-0.52318-0.891z"/><g transform="matrix(.42226 0 0 .50856 -47.727 -111.73)" fill="#fff"><path d="m168.56 264.43c4.145 0.407 8.127 1.382 11.858 2.845l0.623-0.856c-3.919-1.741-8.161-2.906-12.604-3.384l0.123 1.395z"/><path d="m145.97 266.73 1.059 0.888c5.193-2.147 10.87-3.351 16.738-3.403l9e-3 -0.038 0.435-1.388c-0.059 0-0.116-2e-3 -0.175-2e-3 -6.387-0.024-12.545 1.39-18.066 3.943z"/><path d="m185.37 269.58c0.97 0.527 1.917 1.087 2.84 1.683l0.494-0.416c-1.011-0.738-2.058-1.431-3.138-2.078l-0.196 0.811z"/><path d="m190.66 272.37-0.224 0.429c0.458 0.338 0.91 0.683 1.354 1.038 1.494 1.193 2.916 2.493 4.25 3.889-1.633-1.962-3.44-3.752-5.38-5.356z"/><path d="m140.28 269.92c0.198 0.281 0.363 0.578 0.496 0.884 0.84-0.514 1.699-1.002 2.575-1.462l-0.52-0.994c-0.871 0.494-1.721 1.019-2.551 1.572z"/><path d="m133.62 275.43 0.562 0.314c0.338-0.307 0.681-0.608 1.028-0.904-0.192-0.129-0.378-0.272-0.555-0.429-0.35 0.333-0.696 0.673-1.035 1.019z"/><path d="m130.15 279.46c0.139-9e-3 0.279-0.015 0.419-0.019 0.538-0.62 1.091-1.224 1.66-1.81l-0.295-0.374c-0.618 0.713-1.212 1.447-1.784 2.203z"/></g><path d="m11.718 25.989c-0.05574-0.15562-0.12583-0.30667-0.20944-0.44957-0.01309 0.01012-0.02618 0.02032-0.03885 0.03052-0.04223 0.03408-0.08403 0.06866-0.12584 0.10324-0.05067 0.0417-0.10134 0.08289-0.15117 0.1251-0.05194 0.04324-0.10346 0.08798-0.15455 0.13223-0.04054 0.03459-0.0815 0.06916-0.12203 0.10477-0.06165 0.0534-0.12246 0.10833-0.18326 0.16325-0.03041 0.02747-0.06122 0.05392-0.09122 0.08188-0.09078 0.08288-0.18115 0.16681-0.27067 0.25174-0.09416 0.0895-0.18706 0.18003-0.27996 0.27208-0.02703 0.02695-0.05447 0.05442-0.08192 0.08188-0.07221 0.07272-0.14399 0.14596-0.21535 0.2197-0.02281 0.02339-0.0456 0.04679-0.068411 0.07019-0.081499 0.08492-0.16215 0.1719-0.24238 0.25886-0.041385 0.04477-0.08276 0.09052-0.12372 0.13629-0.041799 0.04628-0.08276 0.09308-0.12415 0.13935-0.033364 0.03762-0.066717 0.07527-0.10008 0.11391 0.074741 0.07935 0.15328 0.15206 0.23436 0.21818 0.18157-0.18714 0.36568-0.36972 0.55274-0.54721 0.5709-0.54365 1.1709-1.0456 1.7959-1.5064z" fill="#eee"/><path d="m28.382 27.537c0.38848 0.0014 0.74741 0.16426 1.0269 0.4338 0.29305 0.28225 0.5122 0.6947 0.57597 1.1849 0.06968 0.5345-0.05447 1.0619-0.32852 1.4743-0.29263 0.43991-0.74445 0.73284-1.2681 0.74403-0.52867 0.01119-0.99063-0.26547-1.293-0.70131-0.2863-0.41193-0.4172-0.94796-0.34583-1.4957 0.06503-0.50195 0.29052-0.92355 0.59244-1.2099 0.28545-0.27106 0.6524-0.43177 1.04-0.43024z"/><path d="m13.466 55.284c0.1782 0.09256 0.32979 0.21461 0.43662 0.34277 0.1119 0.13477 0.17862 0.28124 0.16806 0.40888-0.0114 0.13935-0.1119 0.23139-0.27152 0.2614-0.17017 0.03153-0.40199-0.0082-0.64353-0.12918-0.24407-0.12256-0.43367-0.29547-0.53712-0.46737-0.09797-0.16223-0.11443-0.31683-0.03674-0.42567 0.07093-0.10019 0.20902-0.14341 0.37117-0.13782 0.15286 5e-3 0.33486 0.05491 0.51305 0.14697zm-2.3681-0.2614c0.05025 0.0122 0.09585 0.04017 0.13048 0.0768 0.03588 0.03815 0.06165 0.08797 0.06671 0.14036 0.0055 0.05696-0.01435 0.10731-0.05278 0.14138-0.04097 0.0356-0.10176 0.05188-0.16975 0.03611-0.06883-0.01525-0.1271-0.05848-0.16342-0.1134-0.03463-0.05139-0.04772-0.11086-0.03463-0.16477 0.01183-0.04984 0.04392-0.08594 0.0853-0.10578 0.03885-0.01831 0.08741-0.02339 0.13808-0.01071zm3.808 2.3684c0.09627 0.02389 0.18326 0.07728 0.24871 0.14748 0.06925 0.07322 0.11781 0.16732 0.1271 0.26751 0.01013 0.10933-0.02745 0.20495-0.10092 0.27004-0.07854 0.06866-0.19424 0.09866-0.3243 0.06968-0.13132-0.03002-0.24238-0.11189-0.31163-0.21614-0.06545-0.09816-0.09122-0.21156-0.0663-0.3148 0.02281-0.09459 0.08446-0.16376 0.163-0.2019 0.07515-0.03611 0.16806-0.04576 0.26434-0.02185zm-2.3575-1.0359c-0.09333-0.04831-0.18875-0.07425-0.2694-0.0768-0.08487-3e-3 -0.1575 0.01983-0.19424 0.07222-0.04054 0.05696-0.03209 0.13782 0.01942 0.22275 0.05405 0.09052 0.1537 0.18054 0.28165 0.24513 0.12668 0.06356 0.24787 0.08391 0.33739 0.06765 0.08362-0.01576 0.13639-0.06407 0.1423-0.13731 0.0055-0.06713-0.02956-0.14341-0.08783-0.2141-0.05658-0.06714-0.13597-0.13121-0.22929-0.17953z" fill="#ccc"/><g><path d="m32.897 32.896c0.14315-0.43431 0.43156-0.76233 0.79555-0.95304 0.38088-0.19986 0.86184-0.25581 1.3618-0.10325 0.54472 0.16681 1.0122 0.54772 1.3132 1.0441 0.32092 0.52941 0.44084 1.1702 0.26096 1.7627-0.18157 0.59807-0.61862 0.98966-1.1524 1.1295-0.50461 0.13222-1.0738 0.03356-1.5797-0.297-0.46449-0.3031-0.79175-0.74962-0.96023-1.219-0.16004-0.44499-0.18242-0.92965-0.03927-1.364z"/><path d="m35.093 44.081c-0.14695-0.19732-0.2124-0.45618-0.201-0.72673 0.01182-0.28378 0.10937-0.59146 0.29981-0.85846 0.20775-0.2909 0.48603-0.48059 0.77148-0.54009 0.30445-0.06256 0.60468 0.02594 0.80906 0.28531 0.20649 0.26191 0.26096 0.62808 0.18495 0.98966-0.07137 0.34226-0.25631 0.6652-0.52361 0.891-0.24491 0.20749-0.51559 0.29496-0.75585 0.27971-0.2276-0.01423-0.43747-0.12307-0.58484-0.32039z"/><path d="m24.819 51.017c-0.14737-0.19732-0.21282-0.45618-0.20142-0.72724 0.01183-0.28327 0.10979-0.59095 0.30023-0.85846 0.20733-0.2909 0.4856-0.4811 0.77106-0.54009 0.30445-0.06256 0.60511 0.02594 0.80906 0.2853 0.20649 0.26191 0.26096 0.62807 0.18495 0.98966-0.07136 0.34226-0.25631 0.6652-0.52361 0.891-0.24449 0.20749-0.51558 0.29496-0.75585 0.27971-0.2276-0.01425-0.43746-0.12307-0.58441-0.31989z"/><path d="m23.786 24.445c0.10219-0.34786 0.32261-0.61688 0.6051-0.77962 0.29601-0.17088 0.67393-0.23241 1.0721-0.12867 0.43367 0.1129 0.81244 0.39668 1.062 0.77861 0.26603 0.40685 0.37624 0.90829 0.24829 1.3823-0.12879 0.47805-0.46491 0.80251-0.88253 0.93168-0.39566 0.12205-0.84664 0.06357-1.2541-0.17952-0.37412-0.22275-0.64269-0.564-0.7871-0.92864-0.13724-0.34633-0.16637-0.72826-0.06377-1.0761z"/><path d="m9.3573 27.571c0.25378 0.25632 0.5519 0.42465 0.85551 0.4872 0.42649 0.08747 0.84833-0.03611 1.135-0.39973 0.28925-0.36718 0.3661-0.88083 0.25969-1.3884-0.0456-0.21767-0.12372-0.42923-0.23056-0.62553-0.34457 0.28174-0.68027 0.57773-1.0063 0.88693-0.34752 0.33006-0.68576 0.6769-1.0134 1.0395z"/></g><path d="m9.3573 27.571c0.081923 0.08289 0.16848 0.15664 0.25843 0.22021 0.10134-0.10019 0.20311-0.19986 0.30614-0.297 0.52445-0.49788 1.0734-0.96271 1.6435-1.3919-0.04604-0.15867-0.10937-0.31226-0.18875-0.4572-0.02997 0.02442-0.05996 0.04933-0.08995 0.07425-0.01942 0.01628-0.03927 0.03255-0.05869 0.04883-0.03336 0.02747-0.0663 0.05545-0.09923 0.08341l-0.04519 0.03865c-0.03758 0.03205-0.07474 0.06407-0.1119 0.09613l-0.02997 0.02594c-0.04139 0.03611-0.08235 0.07221-0.1233 0.10833l-0.02026 0.01832c-0.04392 0.03918-0.08741 0.07781-0.1309 0.11748l-0.01309 0.01169c-0.04603 0.04223-0.09206 0.08442-0.13808 0.12714l-0.0018 0.0014c-0.04815 0.04476-0.09585 0.0895-0.14357 0.13477-0.07685 0.07322-0.15286 0.14647-0.22887 0.22123l-0.01098 0.01072c-0.02026 0.02032-0.04097 0.04018-0.06123 0.06051l-0.01858 0.01882-0.05236 0.05238-0.02956 0.03002-0.04307 0.04376-0.03801 0.03865-0.01605 0.01627-0.01562 0.01627-0.04771 0.04883-0.01562 0.01627c-0.14698 0.15105-0.29224 0.30718-0.43581 0.46585z" fill="#888678"/><path d="m18.571 23.295c0.42396-0.03051 0.81582 0.05645 1.1215 0.22631 0.32008 0.178 0.55908 0.45516 0.62918 0.80098 0.07601 0.37684-0.05954 0.76437-0.35935 1.0822-0.31923 0.3387-0.81286 0.58535-1.385 0.63672-0.57724 0.05138-1.0818-0.10883-1.4125-0.39617-0.31248-0.27157-0.45605-0.64435-0.37835-1.042 0.07136-0.36464 0.31796-0.68503 0.64733-0.9144 0.3129-0.21766 0.7132-0.36311 1.1372-0.39363z"/><path d="m25.269 33.539c0.20986 0.12155 0.37835 0.28937 0.48772 0.4689 0.11401 0.18817 0.16722 0.3977 0.12372 0.58586-0.04687 0.20495-0.19804 0.34786-0.41213 0.40329-0.22802 0.05951-0.51938 0.01933-0.80484-0.13985-0.28841-0.16071-0.49447-0.39973-0.58948-0.64384-0.08995-0.23038-0.07601-0.45567 0.04941-0.62095 0.11486-0.15206 0.30445-0.22631 0.51305-0.23038 0.19804-0.0036 0.42269 0.05543 0.63255 0.17698z"/><polygon transform="matrix(.42226 0 0 .50856 -47.727 -111.73)" points="190.01 322.01 182.53 321.97 188.38 321.66 183.83 319.43"/><polygon transform="matrix(.42226 0 0 .50856 -47.727 -111.73)" points="182.68 309.54 176.61 313.92 181.16 310.22 176.16 311.09"/><polygon transform="matrix(.42226 0 0 .50856 -47.727 -111.73)" points="191.13 279.55 180.14 285.18 189 281.27 183.96 287.96"/><path d="m35.59 54.525c-0.12203 0.19783-0.24745 0.39312-0.37624 0.58637-3.14 4.72-7.9892 7.8649-13.61 7.988-5.674 0.12358-10.632-2.849-13.881-7.5267-0.19973-0.28734-0.39228-0.58128-0.57808-0.8793 3.5504 4.5557 8.6742 7.3925 14.483 7.2658 5.6178-0.12307 10.533-3.0025 13.962-7.4342z" fill="#ccc"/><g fill="#fff"><path d="m16.345 52.252c-2.1177-1.93-2.9711-5.408-1.9002-8.495 1.184-3.4124 4.3025-5.1446 7.1823-4.1214-2.7912-0.69571-5.6913 1.0609-6.8314 4.3462-1.0231 2.9497-0.32134 6.2492 1.5493 8.2702z"/><path d="m7.9004 49.211c1.5839-1.8262 1.8765-5.1884 0.61186-7.7744-0.96065-1.9641-2.5602-2.9497-4.0732-2.7244 1.4429-0.03307 2.9115 0.97491 3.8219 2.8373 1.2267 2.5077 1.0299 5.7254-0.36061 7.6615z"/><path d="m46.745 35.073-0.49701-0.87931c-0.44633-0.78929-2.6168-1.2714-3.0631-2.0607-0.04897-0.08645-0.08995-0.1785-0.12414-0.27361 0.02111 0.05392 0.04434 0.10628 0.07093 0.15766 0.41129 0.79946 2.4424 0.78013 2.8537 1.5796l0.75965 1.4764zm-3.8409-4.2353c-0.02154-1.1427 0.27658-2.4762-0.21155-3.3397-0.68407-1.2104-3.1091-1.7088-3.0703-3.6789 0.02618-1.3009 0.05531-2.0449-0.87789-0.83048-0.4742 0.61689-0.9332 1.2567-1.3783 1.9188 0.5329-0.89558 1.0844-1.7581 1.657-2.5855 0.92138-1.3314 0.87704-0.54975 0.8251 0.81522-0.02492 0.63723 0.05786 1.3818 0.33063 1.9127 0.48729 0.94745 2.1649 1.4692 2.6522 2.4167 0.46449 0.90168 0.07769 2.2336 0.07305 3.3713z"/></g><path d="m16.757 33.897c0.35724-0.24869 0.77781-0.24614 1.1211-0.03865-0.09501 0.0122-0.1896 0.04832-0.27785 0.10935-0.33866 0.23546-0.4552 0.75776-0.25927 1.1656 0.19551 0.40837 0.62917 0.54823 0.96783 0.31226 0.08783-0.06155 0.16088-0.14189 0.21747-0.23496-0.02237 0.46177-0.23098 0.90168-0.58864 1.1504-0.56457 0.39261-1.2871 0.15918-1.6135-0.52077-0.32514-0.68045-0.13175-1.5501 0.43282-1.9432zm-8.4626 1.1839c0.25758-0.17901 0.56034-0.17749 0.80779-0.02795-0.068836 9e-3 -0.13681 0.03458-0.20015 0.07882-0.24407 0.16935-0.32768 0.54569-0.18664 0.83964 0.14061 0.29395 0.45309 0.39464 0.69716 0.22478 0.063334-0.04425 0.11612-0.10222 0.15708-0.16935-0.016459 0.3326-0.16679 0.64944-0.42395 0.82845-0.40664 0.28274-0.92729 0.11492-1.1621-0.37534-0.23562-0.48924-0.095855-1.1163 0.31079-1.3991z"/><path d="m11.148 37.666c-0.26011-0.7481-0.42015-1.5501-0.46449-2.376-0.53374 1.9671-1.8647 3.383-3.4389 3.8625 0.46196 0.35447 0.8876 0.82946 1.2503 1.4169 1.1794-0.41702 2.1776-1.4636 2.6531-2.9034z" fill="#f2f2f2"/><path d="m3.5655 33.264c-0.28841 0.13935-0.51601 0.43228-0.65662 0.92355-0.66971 2.3419-0.54599 4.0354 0.033358 5.0724 0.15244-0.10933 0.3091-0.20394 0.46871-0.28429 0.12626-0.088991 0.25505-0.16732 0.38637-0.23546-0.68196-1.2414-0.93616-2.8159-0.59075-4.3665 0.086987-0.39312 0.2086-0.76386 0.35892-1.1097z" fill="#b3b3b3"/><path d="m9.6347 48.852c0.79597 1.0532 2.8689 0.91744 3.5213-0.26801-0.35259 0.78115-1.0405 1.3121-1.8305 1.3121-0.69589 0-1.3124-0.41194-1.6907-1.0441z" fill="#fff"/></g></g></svg>
