<?xml version="1.0" encoding="UTF-8" standalone="no"?>
<!-- Created with Inkscape (http://www.inkscape.org/) -->

<svg
   version="1.1"
   id="svg3955"
   width="48"
   height="48"
   viewBox="0 0 48 48"
   sodipodi:docname="application-x-theme.svg"
   inkscape:version="1.2.2 (b0a8486541, 2022-12-01)"
   xml:space="preserve"
   xmlns:inkscape="http://www.inkscape.org/namespaces/inkscape"
   xmlns:sodipodi="http://sodipodi.sourceforge.net/DTD/sodipodi-0.dtd"
   xmlns:xlink="http://www.w3.org/1999/xlink"
   xmlns="http://www.w3.org/2000/svg"
   xmlns:svg="http://www.w3.org/2000/svg"><defs
     id="defs3959"><linearGradient
       inkscape:collect="always"
       id="linearGradient1067"><stop
         style="stop-color:#41eeff;stop-opacity:1;"
         offset="0"
         id="stop1063" /><stop
         style="stop-color:#fb41ff;stop-opacity:1;"
         offset="1"
         id="stop1065" /></linearGradient><linearGradient
       inkscape:collect="always"
       xlink:href="#linearGradient1067"
       id="linearGradient1069"
       x1="-2.219929"
       y1="64.472412"
       x2="58.298805"
       y2="64.472412"
       gradientUnits="userSpaceOnUse"
       gradientTransform="matrix(0.75,0,0,0.75,-8.0011928,-8.001598)" /></defs><sodipodi:namedview
     id="namedview3957"
     pagecolor="#ffffff"
     bordercolor="#999999"
     borderopacity="1"
     inkscape:showpageshadow="0"
     inkscape:pageopacity="0"
     inkscape:pagecheckerboard="0"
     inkscape:deskcolor="#d1d1d1"
     showgrid="false"
     inkscape:zoom="8.0000001"
     inkscape:cx="23.4375"
     inkscape:cy="40.625"
     inkscape:window-width="1808"
     inkscape:window-height="1355"
     inkscape:window-x="617"
     inkscape:window-y="28"
     inkscape:window-maximized="0"
     inkscape:current-layer="layer1" /><path
     id="rect1980"
     style="display:inline;opacity:1;fill:#f5f5f5;fill-opacity:1;fill-rule:evenodd;stroke:#000000;stroke-width:0;stroke-dasharray:none;stop-color:#000000;stop-opacity:1"
     d="M 5.8194001,0.476479 H 32.776422 l 9.35397,9.3782547 V 47.424858 H 5.8194001 Z"
     sodipodi:nodetypes="cccccc"
     inkscape:label="rect1980__Dokument_bg-colour" /><g
     inkscape:groupmode="layer"
     id="layer1"
     inkscape:label="Image 2"
     style="display:inline"
     transform="matrix(0.5,0,0,0.5,16.002688,16.003199)"><rect
       style="font-variation-settings:normal;display:inline;opacity:1;fill:#ba8855;fill-opacity:1;fill-rule:evenodd;stroke:none;stroke-width:0;stroke-linecap:butt;stroke-linejoin:miter;stroke-miterlimit:4;stroke-dasharray:none;stroke-dashoffset:0;stroke-opacity:1;stop-color:#000000;stop-opacity:1"
       id="rect1018"
       width="11.402658"
       height="26.251047"
       x="7.2852864"
       y="-16.101788"
       inkscape:label="handtaget" /><rect
       style="font-variation-settings:normal;display:inline;opacity:1;fill:url(#linearGradient1069);fill-opacity:1;fill-rule:evenodd;stroke:none;stroke-width:0;stroke-linecap:butt;stroke-linejoin:miter;stroke-miterlimit:4;stroke-dasharray:none;stroke-dashoffset:0;stroke-opacity:1;stop-color:#000000;stop-opacity:1"
       id="rect1038"
       width="45.38905"
       height="14.235638"
       x="-9.6661367"
       y="33.23489"
       inkscape:label="rullen" /><path
       d="m -13.973287,38.604159 h 1.988514 v -1.691884 c 0,-1.609488 0.653682,-3.065166 1.713855,-4.125342 1.0601762,-1.05468 2.5158572,-1.713855 4.1253422,-1.713855 H 32.33381 c 1.609488,0 3.065166,0.653682 4.125341,1.713855 1.060174,1.060176 1.713858,2.515854 1.713858,4.125342 v 1.933582 h 0.796504 c 0.845942,0 1.61498,-0.346068 2.175279,-0.906366 0.5603,-0.560299 0.906367,-1.329339 0.906367,-2.17528 v -8.920845 c 0,-0.845943 -0.346067,-1.614981 -0.906367,-2.175282 -0.560299,-0.560298 -1.329337,-0.906366 -2.175279,-0.906366 H 23.418458 c -0.675657,0 -0.911859,0.0054 -1.142571,0.0054 -2.675157,0.04395 -5.663421,0.09339 -7.998,-1.598499 -0.801999,-0.57678 -1.439202,-1.312861 -1.900623,-2.219227 -0.444945,-0.867915 -0.714108,-1.889637 -0.801999,-3.070662 0,-0.03294 -0.0054,-0.06594 -0.0054,-0.09888 v 0 -4.50986 H 9.2133112 c -1.032708,0 -1.972032,-0.42297 -2.647686,-1.098628 -0.68115,-0.681147 -1.098627,-1.61498 -1.098627,-2.647689 v -22.390077 c 0,-1.032711 0.42297,-1.972035 1.098627,-2.647686 0.681147,-0.68115 1.614978,-1.09863 2.647686,-1.09863 H 16.54115 c 1.032708,0 1.972035,0.42297 2.647689,1.09863 0.68115,0.681145 1.098627,1.614975 1.098627,2.647686 V 8.523622 c 0,1.032708 -0.42297,1.972032 -1.098627,2.647689 -0.681147,0.681148 -1.614981,1.098624 -2.647689,1.098624 h -2.213733 v 4.482397 c 0.06048,0.769037 0.23625,1.411733 0.505425,1.94457 0.25818,0.510861 0.615231,0.917351 1.060176,1.241448 1.598499,1.15905 4.103367,1.120598 6.339072,1.082145 0.560301,-0.0111 1.109613,-0.0165 1.186518,-0.0165 h 15.551055 c 1.609487,0 3.065166,0.653682 4.125342,1.713858 1.060173,1.06017 1.713856,2.521344 1.713856,4.125339 v 8.920845 c 0,1.609488 -0.659176,3.065169 -1.713856,4.125342 -1.060176,1.054681 -2.515855,1.713858 -4.125342,1.713858 h -0.796654 v 2.444443 c 0,1.609487 -0.653684,3.065166 -1.713858,4.125342 -1.060175,1.060176 -2.515853,1.713855 -4.125341,1.713855 H -6.1455758 c -1.609485,0 -3.065166,-0.653679 -4.1253422,-1.713855 -1.060173,-1.054683 -1.713855,-2.515855 -1.713855,-4.125342 v -2.685961 h -1.988514 z m 7.8277112,8.530833 H 32.33381 c 0.845943,0 1.614981,-0.346068 2.175279,-0.906366 0.5603,-0.560299 0.906368,-1.329339 0.906368,-2.17528 v -7.135578 c 0,-0.845943 -0.346068,-1.614981 -0.906368,-2.175281 C 33.948791,34.182189 33.179753,33.83612 32.33381,33.83612 H -6.1455758 c -0.845943,0 -1.614981,0.346069 -2.175279,0.906367 -0.560298,0.5603 -0.906366,1.329338 -0.906366,2.175281 v 7.130084 c 0,0.845942 0.346068,1.614981 0.906366,2.175281 0.560298,0.560298 1.329336,0.911859 2.175279,0.911859 z M 9.2187112,9.51803 h 7.3223458 c 0.26916,0 0.521847,-0.10986 0.703119,-0.29115 0.18126,-0.18126 0.29115,-0.428464 0.29115,-0.703119 v -22.390005 c 0,-0.26916 -0.10986,-0.521848 -0.29115,-0.703123 -0.18126,-0.181289 -0.428463,-0.291119 -0.703119,-0.291119 H 9.2187112 c -0.26916,0 -0.521847,0.109859 -0.703119,0.291119 -0.18126,0.18129 -0.29115,0.428466 -0.29115,0.703123 V 8.523761 c 0,0.26916 0.10986,0.521846 0.29115,0.703119 0.18126,0.18126 0.433956,0.29115 0.703119,0.29115 z"
       id="path250"
       style="stroke-width:0.549315" /></g><g
     inkscape:groupmode="layer"
     inkscape:label="Image"
     id="g3961"
     style="display:inline"
     transform="matrix(0.5,0,0,0.5,16.002688,16.003199)"><g
       id="g2372"
       style="display:inline"
       transform="matrix(1.5,0,0,1.5,-29.005084,-53.027497)"><g
         id="g342"
         style="display:inline;stroke:#000000;stroke-opacity:1"
         inkscape:label="g342__Diagonalt_veck"><path
           style="display:inline;fill:none;stroke:#000000;stroke-width:2;stroke-linecap:butt;stroke-linejoin:miter;stroke-dasharray:none;stroke-opacity:1"
           d="m 46.999618,21.009995 h 0.99819 v 0.09561"
           id="path2368"
           sodipodi:nodetypes="ccc" /><path
           style="display:inline;fill:none;stroke:#000000;stroke-width:2;stroke-linecap:butt;stroke-linejoin:miter;stroke-dasharray:none;stroke-opacity:1"
           d="m 48.999618,23.009995 h 0.99819 v 0.09561"
           id="path329"
           sodipodi:nodetypes="ccc" /><path
           style="display:inline;fill:none;stroke:#000000;stroke-width:2;stroke-linecap:butt;stroke-linejoin:miter;stroke-dasharray:none;stroke-opacity:1"
           d="m 50.999618,25.009995 h 0.99819 v 0.09561"
           id="path331"
           sodipodi:nodetypes="ccc" /><path
           style="display:inline;fill:none;stroke:#000000;stroke-width:2;stroke-linecap:butt;stroke-linejoin:miter;stroke-dasharray:none;stroke-opacity:1"
           d="m 44.999618,19.009995 h 0.99819 v 0.09561"
           id="path333"
           sodipodi:nodetypes="ccc" /><path
           style="display:inline;fill:none;stroke:#000000;stroke-width:2;stroke-linecap:butt;stroke-linejoin:miter;stroke-dasharray:none;stroke-opacity:1"
           d="m 42.999618,17.009995 h 0.99819 v 0.09561"
           id="path335"
           sodipodi:nodetypes="ccc" /></g></g></g><g
     inkscape:groupmode="layer"
     id="layer2"
     inkscape:label="Image 1"
     style="display:inline"
     transform="matrix(0.5,0,0,0.5,16.002688,16.003199)"><path
       id="rect4394"
       style="display:inline;opacity:1;fill:none;fill-rule:evenodd;stroke:#000000;stroke-width:3.00003;stroke-opacity:1;stop-color:#000000;stop-opacity:1"
       d="M -20.010721,-30.508273 H 33.99782 l -0.0105,17.986883 18.012801,-0.0114 v 75.028267 h -72.010992 z"
       sodipodi:nodetypes="ccccccc"
       inkscape:label="rect4394__Dokument_kontur" /></g></svg>
