<?xml version="1.0" encoding="UTF-8" standalone="no"?>
<svg
   viewBox="0 0 48 48"
   version="1.1"
   id="svg12"
   sodipodi:docname="application-x-python-bytecode.svg"
   inkscape:version="1.2.2 (b0a8486541, 2022-12-01)"
   xmlns:inkscape="http://www.inkscape.org/namespaces/inkscape"
   xmlns:sodipodi="http://sodipodi.sourceforge.net/DTD/sodipodi-0.dtd"
   xmlns="http://www.w3.org/2000/svg"
   xmlns:svg="http://www.w3.org/2000/svg">
  <defs
     id="defs16" />
  <sodipodi:namedview
     id="namedview14"
     pagecolor="#ffffff"
     bordercolor="#999999"
     borderopacity="1"
     inkscape:showpageshadow="0"
     inkscape:pageopacity="0"
     inkscape:pagecheckerboard="0"
     inkscape:deskcolor="#d1d1d1"
     showgrid="false"
     inkscape:zoom="5.7864583"
     inkscape:cx="-2.7650765"
     inkscape:cy="33.094509"
     inkscape:window-width="2560"
     inkscape:window-height="1357"
     inkscape:window-x="0"
     inkscape:window-y="28"
     inkscape:window-maximized="1"
     inkscape:current-layer="svg12" />
  <path
     d="m 8 1 c -1.029 0 -2 0.971 -2 2 l 0 42 c 0 0.971 1.029 2 2 2 l 32 0 c 0.971 0 2 -1.029 2 -2 l 0 -31 -13 -13 z"
     style="fill:#bcd35f;fill-opacity:1"
     id="path2" />
  <path
     d="m 29 12 0.063 0.063 0.156 -0.063 -0.219 0 z m 2 2 11 11 0 -11 -11 0 z"
     style="fill-opacity:0.196"
     id="path4" />
  <path
     d="m 29 1 13 13 -11 0 c -0.971 0 -2 -1.029 -2 -2 l 0 -11 z"
     style="fill:#fff;fill-opacity:0.392"
     id="path6" />
  <path
     d="m 29 20 0 6 -9 0 0 10 9 0 0 -5 -5 0 0 -1 9 0 0 -10 z m -4 12 2 0 0 2 -2 0 z"
     style="fill:#ffe680;fill-opacity:1;stroke:none;fill-rule:evenodd"
     id="path8" />
  <path
     d="m 19 15 0 5 5 0 0 1 -9 0 0 10 4 0 0 -6 9 0 0 -10 z m 2 2 2 0 0 2 -2 0 z"
     style="fill:#baa20a;fill-opacity:1;stroke:none"
     id="path10" />
</svg>
