<?xml version="1.0" encoding="UTF-8" standalone="no"?>
<!-- Created with Inkscape (http://www.inkscape.org/) -->

<svg
   version="1.1"
   id="svg3955"
   width="48"
   height="48"
   viewBox="0 0 48 48"
   sodipodi:docname="application-x-perl 48.svg"
   inkscape:version="1.2.2 (b0a8486541, 2022-12-01)"
   xmlns:inkscape="http://www.inkscape.org/namespaces/inkscape"
   xmlns:sodipodi="http://sodipodi.sourceforge.net/DTD/sodipodi-0.dtd"
   xmlns="http://www.w3.org/2000/svg"
   xmlns:svg="http://www.w3.org/2000/svg">
  <defs
     id="defs3959" />
  <sodipodi:namedview
     id="namedview3957"
     pagecolor="#ffffff"
     bordercolor="#999999"
     borderopacity="1"
     inkscape:showpageshadow="0"
     inkscape:pageopacity="0"
     inkscape:pagecheckerboard="0"
     inkscape:deskcolor="#d1d1d1"
     showgrid="false"
     inkscape:zoom="7.9999996"
     inkscape:cx="28.375001"
     inkscape:cy="14.250001"
     inkscape:window-width="1855"
     inkscape:window-height="1317"
     inkscape:window-x="485"
     inkscape:window-y="59"
     inkscape:window-maximized="0"
     inkscape:current-layer="layer1" />
  <g
     id="g1028"
     transform="matrix(-1,0,0,1,64.010753,0)">
    <g
       inkscape:groupmode="layer"
       id="layer1"
       inkscape:label="Image 2"
       style="display:inline">
      <path
         id="rect1980"
         style="display:inline;opacity:1;fill:#fff4de;fill-opacity:1;fill-rule:evenodd;stroke:#000000;stroke-width:0;stroke-dasharray:none;stop-color:#000000;stop-opacity:1"
         d="m 21.83019,0.4764805 h 26.957022 l 9.353973,9.3782546 V 47.424858 H 21.83019 Z"
         sodipodi:nodetypes="cccccc"
         inkscape:label="rect1980__Dokument_bg-colour" />
    </g>
    <path
       fill="#005a7d"
       d="m 36.805551,9.1034031 a 17.720952,17.720952 0 0 1 7.38465,1.4725079 c 8.964394,3.907896 13.064644,14.343687 9.156747,23.310289 -3.307616,7.533339 -11.36772,11.797755 -19.456566,10.29208 -0.344906,-1.098301 -0.6257,-2.304937 -0.6257,-3.620469 q 0,-0.278581 0.015,-0.563797 c 0,0 -0.63234,-1.079507 -1.131468,-2.484581 -0.617415,-1.738377 -0.2913,-3.653635 0.777711,-5.169256 0.06246,-0.08181 0.12492,-0.17466 0.19179,-0.26973 6.294084,0 9.407691,-5.707075 10.195902,-9.176644 0.326121,-1.427181 0.591435,-1.569789 1.483011,-1.569789 1.647177,0 2.837232,-0.682086 2.837232,-0.682086 1.513413,0.693138 2.191626,0.410136 1.986561,-0.313407 0.660527,-0.07296 0.645603,-0.820269 0.243749,-1.506777 -0.500789,-0.863937 -1.528338,-1.448742 -2.759298,-1.448742 h -0.658316 c -1.358092,0 -1.638886,-0.710274 -3.04009,-0.559374 -0.218339,0.0192 -0.421191,0.05637 -0.606912,0.10392 -0.388578,-0.447171 -0.829116,-0.635103 -1.364724,-0.598068 -0.08181,0.0111 -0.13377,0.08403 -0.11883,0.16194 l 0.1299,0.60249 c 0.04533,0.22221 -0.0156,0.45546 -0.17688,0.60636 -1.131465,1.05795 -1.779834,2.863209 -2.505033,4.49325 -1.179003,2.401116 -4.022312,5.736925 -8.582445,1.457586 -3.205905,-3.010242 -5.143272,-5.519142 -8.328177,-5.765115 A 17.709897,17.709897 0 0 1 36.805626,9.1034034 m 7.520625,8.7123386 c 0.465963,0 0.932478,0.375868 0.772734,0.442197 -0.03429,0.0156 -0.09507,0.0261 -0.16416,0.03261 -0.04974,0.300138 -0.300141,0.530631 -0.613545,0.530631 -0.310644,0 -0.558273,-0.23049 -0.60636,-0.530631 -0.06909,-0.0066 -0.12936,-0.0171 -0.16416,-0.03261 -0.15975,-0.06633 0.306774,-0.442197 0.7755,-0.442197 m -16.543541,17.0267 c 0.378078,0.0087 0.718566,0.24873 0.833537,0.617414 v 0.0042 c 0.5638,1.815762 1.664862,4.161051 1.664862,4.161051 0,0 1.094433,1.938471 1.711849,4.108542 a 17.687787,17.687787 0 0 1 -1.953951,-0.69093 17.687787,17.687787 0 0 1 -3.519315,-2.050677 11.054866,11.054866 0 0 1 0.589224,-1.040815 c 0,0 0.363153,-1.612907 1.05795,-3.372839 a 18.240531,18.240531 0 0 1 -0.29571,-0.881076 l -0.0066,-0.0195 c -0.0192,-0.04311 -0.06633,-0.05802 -0.11829,-0.05802 h -0.0042 a 27.084424,27.084424 0 0 1 -1.193928,0.16581 c -0.13431,0.0111 -0.27417,0.0222 -0.414555,0.03702 -0.17079,0.015 -0.337176,0.0297 -0.509631,0.04089 -0.04089,1.632253 -0.74952,3.193201 -0.928608,3.565198 a 17.687787,17.687787 0 0 1 -3.255694,-4.392099 c 1.260255,0.144839 2.802408,0.194009 4.61817,0.0126 a 9.3966375,9.3966375 0 0 1 0.436113,-0.04089 q 0.564354,-0.06744 1.124835,-0.157529 a 1.1054866,1.1054866 0 0 1 0.16416,-0.0087"
       id="path4"
       style="fill:#0a00ff;fill-opacity:1;stroke-width:0.552741"
       inkscape:label="path4___Kamelen" />
    <g
       inkscape:groupmode="layer"
       inkscape:label="Image"
       id="g3961"
       style="display:inline">
      <g
         id="g2372"
         style="display:inline"
         transform="matrix(0.75,0,0,0.75,17.510934,-10.510548)">
        <g
           id="g342"
           style="display:inline;stroke:#000000;stroke-opacity:1"
           inkscape:label="g342__Diagonalt_veck">
          <path
             style="display:inline;fill:none;stroke:#000000;stroke-width:2;stroke-linecap:butt;stroke-linejoin:miter;stroke-dasharray:none;stroke-opacity:1"
             d="m 46.999618,21.009995 h 0.99819 v 0.09561"
             id="path2368"
             sodipodi:nodetypes="ccc" />
          <path
             style="display:inline;fill:none;stroke:#000000;stroke-width:2;stroke-linecap:butt;stroke-linejoin:miter;stroke-dasharray:none;stroke-opacity:1"
             d="m 48.999618,23.009995 h 0.99819 v 0.09561"
             id="path329"
             sodipodi:nodetypes="ccc" />
          <path
             style="display:inline;fill:none;stroke:#000000;stroke-width:2;stroke-linecap:butt;stroke-linejoin:miter;stroke-dasharray:none;stroke-opacity:1"
             d="m 50.999618,25.009995 h 0.99819 v 0.09561"
             id="path331"
             sodipodi:nodetypes="ccc" />
          <path
             style="display:inline;fill:none;stroke:#000000;stroke-width:2;stroke-linecap:butt;stroke-linejoin:miter;stroke-dasharray:none;stroke-opacity:1"
             d="m 44.999618,19.009995 h 0.99819 v 0.09561"
             id="path333"
             sodipodi:nodetypes="ccc" />
          <path
             style="display:inline;fill:none;stroke:#000000;stroke-width:2;stroke-linecap:butt;stroke-linejoin:miter;stroke-dasharray:none;stroke-opacity:1"
             d="m 42.999618,17.009995 h 0.99819 v 0.09561"
             id="path335"
             sodipodi:nodetypes="ccc" />
        </g>
      </g>
    </g>
    <g
       inkscape:groupmode="layer"
       id="layer2"
       inkscape:label="Image 1"
       style="display:inline">
      <path
         id="rect4394"
         style="display:inline;opacity:1;fill:none;fill-rule:evenodd;stroke:#000000;stroke-width:1.50002;stroke-opacity:1;stop-color:#000000;stop-opacity:1"
         d="m 22.008117,0.7490635 h 27.004269 l -0.0054,8.9934416 9.006402,-0.0057 V 47.250937 H 22.008117 Z"
         sodipodi:nodetypes="ccccccc"
         inkscape:label="rect4394__Dokument_kontur" />
    </g>
  </g>
</svg>
