<?xml version="1.0" encoding="UTF-8" standalone="no"?>
<svg
   height="48"
   viewBox="0 0 48 48"
   width="48"
   version="1.1"
   id="svg10"
   sodipodi:docname="inode-socket.svg"
   inkscape:version="1.2.2 (b0a8486541, 2022-12-01)"
   xml:space="preserve"
   xmlns:inkscape="http://www.inkscape.org/namespaces/inkscape"
   xmlns:sodipodi="http://sodipodi.sourceforge.net/DTD/sodipodi-0.dtd"
   xmlns="http://www.w3.org/2000/svg"
   xmlns:svg="http://www.w3.org/2000/svg"><defs
     id="defs14"><inkscape:perspective
       sodipodi:type="inkscape:persp3d"
       inkscape:vp_x="2.145402 : -12.70781 : 1"
       inkscape:vp_y="0 : 1292.1954 : 0"
       inkscape:vp_z="148.14119 : -21.6186 : 1"
       inkscape:persp3d-origin="73.025383 : -49.185435 : 1"
       id="perspective2019" /></defs><sodipodi:namedview
     id="namedview12"
     pagecolor="#ffffff"
     bordercolor="#999999"
     borderopacity="1"
     inkscape:showpageshadow="0"
     inkscape:pageopacity="0"
     inkscape:pagecheckerboard="0"
     inkscape:deskcolor="#d1d1d1"
     showgrid="false"
     inkscape:zoom="16"
     inkscape:cx="16.34375"
     inkscape:cy="15.53125"
     inkscape:window-width="1990"
     inkscape:window-height="1326"
     inkscape:window-x="562"
     inkscape:window-y="28"
     inkscape:window-maximized="0"
     inkscape:current-layer="g9323" /><path
     d="M 3.7194449,5.618436 H 34.906491 c 12.776571,12.540587 0.16575,0.224061 12.700143,12.518084 V 29.858687 L 34.946865,42.381564 H 3.7194449 c -1.870942,0 -3.37593698,-1.48872 -3.37593698,-3.339432 V 8.9578702 c 0,-1.84908 1.50499498,-3.3394342 3.37593698,-3.3394342 z"
     fill="#f6f5f4"
     id="path2"
     style="display:inline;stroke:#000000;stroke-width:0.736875;stroke-dasharray:none;stroke-opacity:1"
     sodipodi:nodetypes="sccccssss" /><g
     fill="#deddda"
     id="g8"
     transform="matrix(0.42857235,0,0,0.42579615,-3.0785071,-6.61299)"
     style="display:inline"><path
       d="M 118.06653,58.020744 H 96.719906 c -4.301912,0 -7.762392,-3.46427 -7.762392,-7.762392 V 29.033061 Z m 0,0"
       id="path852"
       style="display:inline;stroke:#000000;stroke-width:0.970169;stroke-dasharray:none;stroke-opacity:1" /><path
       d="M 118.06653,85.770599 H 96.719906 c -4.301912,0 -7.762392,3.46427 -7.762392,7.762392 v 21.225269 z m 0,0"
       id="path550"
       style="display:inline;stroke:#000000;stroke-width:0.970169;stroke-dasharray:none;stroke-opacity:1" /></g><g
     id="g9323"
     transform="matrix(0.2126642,0,0,0.2126642,4.6520878,10.97857)"
     style="display:inline"><g
       id="g9481"><path
         class="st0"
         d="M 69.76,26.16 62.01,33.91 54.02,42 42.21,53.81 34.12,61.8 26.58,69.34 c -1.4,1.4 -3.68,1.4 -5.08,0 l -2.95,-2.95 c -1.4,-1.4 -1.4,-3.68 0,-5.08 L 61.73,18.13 c 1.4,-1.4 3.68,-1.4 5.08,0 l 2.95,2.95 c 1.4,1.4 1.4,3.68 0,5.08 z m -29.297499,2.282443 -10.56254,10.686786 -4.036109,4.067692 18.744325,-18.88909 z M 53.12,96.3 60.87,88.55 45.28,72.96 c -2.21,-2.21 -2.21,-5.83 0,-8.04 v 0 c 2.21,-2.21 5.83,-2.21 8.04,0 L 68.86,80.46 80.67,68.65 65.13,53.11 c -2.21,-2.21 -2.21,-5.83 0,-8.04 v 0 c 2.21,-2.21 5.83,-2.21 8.04,0 l 15.59,15.59 7.54,-7.54 c 1.4,-1.4 3.68,-1.4 5.08,0 l 2.95,2.95 c 1.4,1.4 1.4,3.68 0,5.08 l -43.18,43.18 c -1.4,1.4 -3.68,1.4 -5.08,0 l -2.95,-2.95 c -1.4,-1.39 -1.4,-3.68 0,-5.08 z M 87.865434,89.057924 94.359305,82.366822 99.08,77.24 79.618396,97.690832 Z M 63.14,102.33 l 6.2,6.21 c 10.79,10.79 20.86,11.28 33.18,1.61 l 12.31,12.31 8.04,-8.04 -12.41,-12.41 c 9.83,-11.93 8.34,-23.24 -2.11,-33.69 l -5.6,-5.6 z m -3.4,-82.2 -6.2,-6.21 C 42.75,3.13 32.67,2.64 20.36,12.31 L 8.04,0 0,8.04 12.41,20.45 C 2.58,32.38 4.07,43.69 14.52,54.14 l 5.6,5.6 z"
         id="path9321"
         style="clip-rule:evenodd;display:inline;fill:#0084c8;fill-opacity:1;fill-rule:evenodd;stroke:#000000;stroke-opacity:1"
         sodipodi:nodetypes="sccccsssssssscccccscssssccsssscsssssscscccccccccccsccccccccscc" /></g></g></svg>
