<?xml version="1.0" encoding="UTF-8" standalone="no"?>
<svg
   viewBox="0 0 48 48"
   version="1.1"
   id="svg32"
   sodipodi:docname="libreoffice-oasis-text-template.svg"
   inkscape:version="1.2.2 (b0a8486541, 2022-12-01)"
   xmlns:inkscape="http://www.inkscape.org/namespaces/inkscape"
   xmlns:sodipodi="http://sodipodi.sourceforge.net/DTD/sodipodi-0.dtd"
   xmlns="http://www.w3.org/2000/svg"
   xmlns:svg="http://www.w3.org/2000/svg">
  <defs
     id="defs36">
    <rect
       x="9.1927605"
       y="5.2253876"
       width="24.808346"
       height="24.962544"
       id="rect1388" />
  </defs>
  <sodipodi:namedview
     id="namedview34"
     pagecolor="#ffffff"
     bordercolor="#999999"
     borderopacity="1"
     inkscape:showpageshadow="0"
     inkscape:pageopacity="0"
     inkscape:pagecheckerboard="0"
     inkscape:deskcolor="#d1d1d1"
     showgrid="false"
     inkscape:zoom="32"
     inkscape:cx="31.015625"
     inkscape:cy="41.359375"
     inkscape:window-width="2384"
     inkscape:window-height="1331"
     inkscape:window-x="60"
     inkscape:window-y="29"
     inkscape:window-maximized="0"
     inkscape:current-layer="g16" />
  <path
     d="m 8.0035501,0.2539939 c -1.0287717,0 -1.9995563,1.0024944 -1.9995563,2.06487 V 31.259779 45.681136 c 0,1.002494 1.0287717,2.06487 1.9995563,2.06487 H 39.99645 c 0.970784,0 1.999556,-1.062376 1.999556,-2.06487 V 13.264827 L 28.998891,0.2539939 Z"
     style="display:inline;fill:#efefef;fill-opacity:1;stroke:#646464;stroke-width:0.507988;stroke-miterlimit:4;stroke-dasharray:none;stroke-opacity:1;image-rendering:auto"
     id="path2"
     sodipodi:nodetypes="sscssssccs" />
  <path
     d="m 31,13.25 11,11 v -11 z"
     style="display:none;fill-opacity:0.196"
     id="path4"
     sodipodi:nodetypes="cccc"
     sodipodi:insensitive="true" />
  <path
     d="m 6.4965972,35.246597 0,10.38617 c 0,0.786818 0.8093364,1.620636 1.5730543,1.620636 l 31.8843215,0 c 0.752249,0 1.54943,-0.834497 1.54943,-1.621956 l 0,-10.38485 z"
     style="display:inline;fill:#427fb8;fill-opacity:1;stroke:#427fb8;stroke-width:0.493194;stroke-dasharray:none;stroke-opacity:1"
     id="path8"
     sodipodi:nodetypes="csssscc" />
  <g
     transform="matrix(0.98658,0,0,0.88456,-6.7325468,7.3857294)"
     style="display:inline;fill:#ffffff"
     id="g16">
    <text
       xml:space="preserve"
       id="text1386"
       style="font-style:normal;font-variant:normal;font-weight:normal;font-stretch:normal;font-size:18.6667px;font-family:Stencil;-inkscape-font-specification:'Stencil, Normal';font-variant-ligatures:normal;font-variant-caps:normal;font-variant-numeric:normal;font-variant-east-asian:normal;white-space:pre;shape-inside:url(#rect1388);opacity:0.99;fill:#427fb8;fill-opacity:1;fill-rule:evenodd;stroke:#427fb8;stroke-width:0.572338;stroke-dasharray:none;stroke-opacity:1"
       transform="matrix(1.758609,0.01336108,0,1.9891424,4.9960983,-26.306922)"><tspan
         x="9.1933594"
         y="25.335757"
         id="tspan3649">T</tspan></text>
    <path
       d="m 22.67,38.247626 c 0,0.42 0.014,0.817 0.042,1.19 0.037,0.364 0.103,0.681 0.196,0.952 0.103,0.271 0.243,0.485 0.42,0.644 0.177,0.159 0.415,0.238 0.714,0.238 0.289,0 0.523,-0.079 0.7,-0.238 0.187,-0.159 0.327,-0.373 0.42,-0.644 0.103,-0.28 0.168,-0.602 0.196,-0.966 0.037,-0.364 0.056,-0.756 0.056,-1.176 0,-0.42 -0.019,-0.812 -0.056,-1.176 -0.028,-0.373 -0.093,-0.695 -0.196,-0.966 -0.093,-0.271 -0.229,-0.485 -0.406,-0.644 -0.177,-0.159 -0.415,-0.238 -0.714,-0.238 -0.299,0 -0.537,0.079 -0.714,0.238 -0.177,0.159 -0.317,0.378 -0.42,0.658 -0.093,0.271 -0.159,0.588 -0.196,0.952 -0.028,0.364 -0.042,0.756 -0.042,1.176 m -1.75,0 c 0,-1.493 0.275,-2.618 0.826,-3.374 0.551,-0.765 1.316,-1.148 2.296,-1.148 1.017,0 1.792,0.383 2.324,1.148 0.532,0.756 0.798,1.881 0.798,3.374 0,1.493 -0.271,2.623 -0.812,3.388 -0.541,0.756 -1.307,1.134 -2.296,1.134 -1.017,0 -1.797,-0.378 -2.338,-1.134 -0.532,-0.765 -0.798,-1.895 -0.798,-3.388"
       id="path10"
       sodipodi:nodetypes="cccsscccsccssscccccscscscc" />
    <path
       d="m 41.19,33.921626 v 1.428 h -2.282 v 7.238 h -1.736 v -7.238 H 34.89 v -1.428 h 6.3"
       id="path14"
       style="display:inline"
       sodipodi:nodetypes="ccccccccc" />
    <path
       d="M 29.172257,0.47885615 41.786144,13.092743 H 31.112855 c -0.942161,0 -1.940598,-0.998437 -1.940598,-1.940598 z"
       style="font-style:normal;font-variant:normal;font-weight:normal;font-stretch:normal;font-size:18.6667px;font-family:Stencil;-inkscape-font-specification:'Stencil, Normal';font-variant-ligatures:normal;font-variant-caps:normal;font-variant-numeric:normal;font-variant-east-asian:normal;white-space:pre;shape-inside:url(#rect1388);display:inline;opacity:0.99;fill:#ffffff;fill-opacity:0.392;fill-rule:evenodd;stroke:#646464;stroke-width:0.38812;stroke-dasharray:none;stroke-opacity:1"
       id="path6"
       transform="matrix(1.0136025,0,0,1.1305056,6.7299864,-8.3854572)" />
    <path
       d="m 34.052278,33.921626 v 1.428 h -2.282 v 7.238 h -1.736 v -7.238 h -2.282 v -1.428 h 6.3"
       id="path3633"
       style="display:inline"
       sodipodi:nodetypes="ccccccccc" />
  </g>
</svg>
