<?xml version="1.0" encoding="UTF-8" standalone="no"?>
<!-- Generator: https://ezgif.com/png-to-svg -->

<svg
   width="37.5"
   height="48"
   version="1.1"
   id="svg473"
   xmlns="http://www.w3.org/2000/svg"
   xmlns:svg="http://www.w3.org/2000/svg">
  <defs
     id="defs477" />
  <path
     d="M 0,0 H 29.258252 L 37.5,8.466 V 48 H 0 Z"
     fill="#e4f3fb"
     id="path463"
     style="stroke-width:0.749994" />
  <path
     d="M 0,0 H 29.258252 L 37.5,8.466 V 48 H 0 Z m 1.5,1.5 v 45 H 36 v -36 h -9 v -9 z"
     id="path465"
     style="stroke-width:0.749994" />
  <path
     d="M 3.75,4.5 H 13.5 V 6 H 11.250007 V 8.25 H 12 v 1.5 h 0.750007 V 12 H 13.5 v 2.250007 h 0.750007 v 1.5 H 15 V 15 h 0.750007 V 13.5 H 16.5 v -2.249993 h 0.750007 V 9 H 18 V 8.25 h 0.750007 V 6 H 16.5 V 4.5 h 6.750007 V 6 h -1.5 V 6.75 H 21 v 1.5 h -0.750007 v 1.5 H 19.5 V 12 h -0.749993 v 1.5 H 18 v 2.250007 h -0.750007 v 1.499986 H 16.5 V 19.5 H 15.750007 V 21 H 15 v 2.250007 h -0.749993 v 1.5 H 13.5 V 27 h -0.749993 v 0.750007 H 12 V 28.5 h -0.749993 v 0.750007 H 10.5 V 30 H 6 V 29.250007 H 5.25 V 28.5 H 4.5 V 26.250007 H 5.25 V 25.5 H 6 V 24.749993 H 7.5 V 25.5 h 0.75 v 2.250007 h 2.25 v -1.5 h 0.750007 v -1.5 H 12 v -1.5 h 0.750007 V 22.5 h -1.5 V 21 H 10.5 V 18.750007 H 9.75 V 16.5 H 9 V 14.250007 H 8.25 V 12 H 7.5 V 9.75 H 6.75 V 7.5 H 6 V 6.75 H 5.25 V 6 h -1.5 z"
     fill="#e1262f"
     id="path467"
     style="stroke-width:0.749994" />
  <path
     d="M 15.750007,25.5 H 24 V 27 h -0.750007 v 2.250007 H 24 V 30 h 0.750007 v 0.750007 h 1.5 V 30 H 27 v -0.749993 h 0.750007 V 27 H 27 v -1.5 h 6 V 27 h -1.5 v 0.750007 H 30.750007 V 28.5 H 30 V 30 h -0.749993 v 0.750007 H 28.5 V 31.5 h -0.749993 v 0.750007 H 27 V 34.5 h 0.750007 v 0.750007 H 28.5 v 1.5 h 0.750007 V 37.5 H 30 V 39 h 0.750007 v 0.750007 H 31.5 v 1.5 h 0.750007 V 42 h 1.5 v 1.5 h -9 V 42 h 1.5 V 40.5 H 25.5 v -0.750007 h -0.750007 v -1.5 H 24 V 37.5 H 22.5 V 39 h -0.750007 v 0.750007 H 21 V 40.5 H 20.249993 V 42 h 1.5 v 1.5 H 15 V 42 h 1.5 v -0.749993 h 0.750007 V 40.5 H 18 v -0.750007 h 0.750007 V 39 H 19.5 v -1.5 h 0.750007 V 36.749993 H 21 V 36 h 0.750007 V 34.5 H 21 V 33 H 20.249993 V 32.250007 H 19.5 v -1.5 H 18.750007 V 30 H 18 V 28.5 H 17.250007 V 27.750007 H 16.5 V 27 h -0.749993 z"
     fill="#088408"
     id="path469"
     style="stroke-width:0.749994" />
  <path
     d="M 28.5,1.4854786 30,3 34.5,7.5 35.985847,9 H 28.5 Z"
     fill="#e5f6ff"
     id="path471"
     style="stroke-width:0.749994" />
</svg>
