<?xml version="1.0" encoding="UTF-8" standalone="no"?>
<svg
   width="48"
   viewBox="0 0 48 48"
   height="48"
   version="1.1"
   id="svg14"
   sodipodi:docname="text-x-python.svg"
   inkscape:version="1.2.2 (b0a8486541, 2022-12-01)"
   xmlns:inkscape="http://www.inkscape.org/namespaces/inkscape"
   xmlns:sodipodi="http://sodipodi.sourceforge.net/DTD/sodipodi-0.dtd"
   xmlns="http://www.w3.org/2000/svg"
   xmlns:svg="http://www.w3.org/2000/svg">
  <defs
     id="defs18" />
  <sodipodi:namedview
     id="namedview16"
     pagecolor="#ffffff"
     bordercolor="#999999"
     borderopacity="1"
     inkscape:showpageshadow="0"
     inkscape:pageopacity="0"
     inkscape:pagecheckerboard="0"
     inkscape:deskcolor="#d1d1d1"
     showgrid="false"
     inkscape:zoom="23.145833"
     inkscape:cx="19.161116"
     inkscape:cy="24.043204"
     inkscape:window-width="1517"
     inkscape:window-height="1317"
     inkscape:window-x="350"
     inkscape:window-y="28"
     inkscape:window-maximized="0"
     inkscape:current-layer="svg14" />
  <path
     style="fill:#a3cdf8;fill-opacity:1"
     d="M 8,1 C 6.9714285,1 6,1.9714285 6,3 l 0,42 c 0,0.971429 1.0285714,2 2,2 l 32,0 c 0.971429,0 2,-1.028571 2,-2 L 42,14 29,1 z"
     id="path2" />
  <path
     style="fill-opacity:.196"
     d="M 29,12 29.0625,12.0625 29.21875,12 29,12 z m 2,2 11,11 0,-11 -11,0 z"
     id="path4" />
  <path
     style="fill:#fff;fill-opacity:.392"
     d="m 29,1 13,13 -11,0 c -0.971429,0 -2,-1.028571 -2,-2 L 29,1 z"
     id="path6" />
  <g
     transform="translate(.5)"
     id="g12">
    <path
       style="fill:#8391ff;fill-opacity:1"
       d="m 23.71574,15 c -0.811435,0.0037 -1.601021,0.0679 -2.282855,0.1875 -2.008593,0.351765 -2.439214,0.45468 -2.439214,1.8125 l 0,3 5.003517,0 0,1 -5.003517,0 -2.001406,0 c -1.379481,0 -2.280299,0.842647 -2.658118,2.40625 -0.435811,1.792251 -0.455141,2.909851 0,4.78125 C 14.671548,29.580497 15.612784,31 16.992265,31 l 1.000703,0 0,-3 c 0,-1.55305 1.392423,-3 3.00211,-3 l 5.003516,0 C 27.318326,25 28,24.31385 28,23 l 0,-5 C 28,16.724846 27.474326,15.400317 26.186226,15.1875 25.370839,15.052949 24.527172,14.996262 23.71574,15 z m -1.719959,2 c 0.552673,0 1.000703,0.447715 1.000703,1 0,0.552285 -0.44803,1 -1.000703,1 -0.552673,0 -1.000703,-0.447715 -1.000703,-1 0,-0.552285 0.44803,-1 1.000703,-1 z"
       id="path8" />
    <path
       style="fill:#ffdf16;fill-opacity:1"
       d="m 23.284261,35.999827 c 0.811434,-0.0037 1.601021,-0.0679 2.282854,-0.1875 2.008594,-0.351765 2.439214,-0.45468 2.439214,-1.8125 l 0,-3 -5.003516,0 0,-1 5.003516,0 2.001407,0 c 1.37948,0 2.280298,-0.842647 2.658118,-2.40625 0.435811,-1.792251 0.455141,-2.909851 0,-4.78125 -0.337401,-1.392997 -1.278638,-2.8125 -2.658118,-2.8125 l -1.000704,0 0,3 c 0,1.55305 -1.392422,3 -3.002109,3 l -5.003517,0 c -1.319732,0 -2.001406,0.68615 -2.001406,2 l 0,5 c 0,1.275154 0.525674,2.599683 1.813775,2.8125 0.815387,0.134551 1.659054,0.191238 2.470486,0.1875 z m 1.719958,-2 c -0.552673,0 -1.000703,-0.447715 -1.000703,-1 0,-0.552285 0.44803,-1 1.000703,-1 0.552674,0 1.000704,0.447715 1.000704,1 0,0.552285 -0.44803,1 -1.000704,1 z"
       id="path10" />
  </g>
</svg>
