<?xml version="1.0" encoding="UTF-8" standalone="no"?>
<svg
   version="1.1"
   viewBox="0 0 48 48"
   id="svg10"
   sodipodi:docname="text-x-common-lisp (kopia2).svg"
   inkscape:version="1.2.2 (b0a8486541, 2022-12-01)"
   xmlns:inkscape="http://www.inkscape.org/namespaces/inkscape"
   xmlns:sodipodi="http://sodipodi.sourceforge.net/DTD/sodipodi-0.dtd"
   xmlns="http://www.w3.org/2000/svg"
   xmlns:svg="http://www.w3.org/2000/svg">
  <defs
     id="defs14">
    <linearGradient
       id="linearGradient12880"
       inkscape:swatch="solid">
      <stop
         style="stop-color:#000000;stop-opacity:1;"
         offset="0"
         id="stop12878" />
    </linearGradient>
    <linearGradient
       id="linearGradient3909"
       inkscape:swatch="solid">
      <stop
         style="stop-color:#274e90;stop-opacity:1;"
         offset="0"
         id="stop3907" />
    </linearGradient>
    <linearGradient
       id="linearGradient3890"
       inkscape:swatch="solid">
      <stop
         style="stop-color:#1a405c;stop-opacity:0.56862748;"
         offset="0"
         id="stop3888" />
    </linearGradient>
  </defs>
  <sodipodi:namedview
     id="namedview12"
     pagecolor="#ffffff"
     bordercolor="#999999"
     borderopacity="1"
     inkscape:showpageshadow="0"
     inkscape:pageopacity="0"
     inkscape:pagecheckerboard="0"
     inkscape:deskcolor="#d1d1d1"
     showgrid="false"
     inkscape:zoom="11.313709"
     inkscape:cx="16.219262"
     inkscape:cy="30.228815"
     inkscape:window-width="2560"
     inkscape:window-height="1358"
     inkscape:window-x="0"
     inkscape:window-y="28"
     inkscape:window-maximized="1"
     inkscape:current-layer="svg10" />
  <path
     d="M 6.238831,1 C 6.0031311,1 6,0.99664466 6,1.2536274 V 46.76212 C 6,47.005458 5.9983243,47 6.2630525,47 H 41.751422 C 41.993014,47 42,47.000244 42,46.751416 V 14 L 29,1 Z"
     style="display:inline;fill:#d8f1fc;fill-opacity:1;stroke:#000000;stroke-width:0.2;stroke-dasharray:none;stroke-opacity:1"
     id="path2"
     sodipodi:nodetypes="ccssssccc" />
  <path
     d="m31 14 11 11v-11z"
     style="fill-opacity:0.196;opacity:0.99;fill-rule:evenodd"
     id="path4" />
  <path
     d="m29 1 13 13h-11c-0.971 0-2-1.029-2-2v-11z"
     style="fill-opacity:.392;fill:#fff"
     id="path6" />
  <path
     d="m22.5 13c-2.4853 0-4.5 2.0147-4.5 4.5 0 0.82841 0.67157 1.5 1.5 1.5 0.82841 0 1.5-0.67157 1.5-1.5s0.67157-1.5 1.5-1.5 1.5 0.67157 1.5 1.5v1.5l-10.207 17.643c-0.19443 0.33606-0.29286 0.71918-0.29298 1.1074-3.66e-4 1.2426 1.0074 2.2503 2.25 2.25 0.8105-2.22e-4 1.5746-0.42795 1.957-1.1426l6.293-11.76v8.4023c0 2.4853 2.0147 4.5 4.5 4.5s4.5-2.0147 4.5-4.5c0-0.82841-0.67157-1.5-1.5-1.5s-1.5 0.67157-1.5 1.5-0.67157 1.5-1.5 1.5c-0.82841 0-1.5-0.67157-1.5-1.5v-18c0-2.4853-2.0147-4.5-4.5-4.5z"
     style="fill:#9b3131;fill-opacity:1"
     id="path8" />
</svg>
