<?xml version="1.0" encoding="UTF-8" standalone="no"?>
<!-- Created with Inkscape (http://www.inkscape.org/) -->

<svg
   version="1.1"
   id="svg3955"
   width="48"
   height="48"
   viewBox="0 0 48 48"
   sodipodi:docname="text-xml.svg"
   inkscape:version="1.2.2 (b0a8486541, 2022-12-01)"
   xmlns:inkscape="http://www.inkscape.org/namespaces/inkscape"
   xmlns:sodipodi="http://sodipodi.sourceforge.net/DTD/sodipodi-0.dtd"
   xmlns="http://www.w3.org/2000/svg"
   xmlns:svg="http://www.w3.org/2000/svg">
  <defs
     id="defs3959" />
  <sodipodi:namedview
     id="namedview3957"
     pagecolor="#ffffff"
     bordercolor="#999999"
     borderopacity="1"
     inkscape:showpageshadow="0"
     inkscape:pageopacity="0"
     inkscape:pagecheckerboard="0"
     inkscape:deskcolor="#d1d1d1"
     showgrid="false"
     inkscape:zoom="8"
     inkscape:cx="1.75"
     inkscape:cy="8.75"
     inkscape:window-width="1808"
     inkscape:window-height="1355"
     inkscape:window-x="477"
     inkscape:window-y="28"
     inkscape:window-maximized="0"
     inkscape:current-layer="layer1" />
  <g
     inkscape:groupmode="layer"
     id="layer1"
     inkscape:label="Image 2"
     style="display:inline"
     transform="matrix(0.5,0,0,0.5,16.002688,16.003199)">
    <path
       id="rect1980"
       style="display:inline;opacity:1;fill:#ffffff;fill-opacity:1;fill-rule:evenodd;stroke:#000000;stroke-width:0;stroke-dasharray:none;stop-color:#000000;stop-opacity:1"
       d="M -20.366801,-31.053436 H 33.547243 L 52.255186,-12.29693 V 62.843321 H -20.366801 Z"
       sodipodi:nodetypes="cccccc"
       inkscape:label="rect1980__Dokument_bg-colour" />
    <g
       transform="matrix(2.43,0,0,2.43,-37.427411,-52.046395)"
       id="g14"
       style="fill:#ba00ff">
      <path
         d="m 27,21 6,6 c 0,1 0,1 0,2 l -6,6 v -4 l 3,-3 -3,-3 z"
         style="display:none;fill:#ba00ff"
         id="path10"
         sodipodi:insensitive="true" />
      <path
         d="m 23,21 h 2 l -4,14 h -2 z"
         style="fill:#ba00ff"
         id="path12" />
      <path
         d="m 16.96875,21 -6,6 c 0,1 0,1 0,2 l 6,6 v -4 l -3,-3 3,-3 z"
         style="display:none;fill:#ba00ff;stroke-width:0.111111;stroke-dasharray:none"
         id="path8" />
      <path
         d="m 27,21 6,6 v 2 l -6,6 V 32.218622 L 31.178768,28 27,23.8125 Z"
         style="fill:#ba00ff"
         id="path6717"
         sodipodi:nodetypes="cccccccc" />
      <path
         d="m 16.969278,21 -6,6 v 2 l 6,6 V 32.218622 L 12.79051,28 16.969278,23.8125 Z"
         style="fill:#ba00ff"
         id="path6719"
         sodipodi:nodetypes="cccccccc" />
    </g>
  </g>
  <g
     inkscape:groupmode="layer"
     inkscape:label="Image"
     id="g3961"
     style="display:inline"
     transform="matrix(0.5,0,0,0.5,16.002688,16.003199)">
    <g
       id="g2372"
       style="display:inline"
       transform="matrix(1.5,0,0,1.5,-29.00531,-53.027498)">
      <g
         id="g342"
         style="display:inline;stroke:#000000;stroke-opacity:1"
         inkscape:label="g342__Diagonalt_veck">
        <path
           style="display:inline;fill:none;stroke:#000000;stroke-width:2;stroke-linecap:butt;stroke-linejoin:miter;stroke-dasharray:none;stroke-opacity:1"
           d="m 46.999618,21.009995 h 0.99819 v 0.09561"
           id="path2368"
           sodipodi:nodetypes="ccc" />
        <path
           style="display:inline;fill:none;stroke:#000000;stroke-width:2;stroke-linecap:butt;stroke-linejoin:miter;stroke-dasharray:none;stroke-opacity:1"
           d="m 48.999618,23.009995 h 0.99819 v 0.09561"
           id="path329"
           sodipodi:nodetypes="ccc" />
        <path
           style="display:inline;fill:none;stroke:#000000;stroke-width:2;stroke-linecap:butt;stroke-linejoin:miter;stroke-dasharray:none;stroke-opacity:1"
           d="m 50.999618,25.009995 h 0.99819 v 0.09561"
           id="path331"
           sodipodi:nodetypes="ccc" />
        <path
           style="display:inline;fill:none;stroke:#000000;stroke-width:2;stroke-linecap:butt;stroke-linejoin:miter;stroke-dasharray:none;stroke-opacity:1"
           d="m 44.999618,19.009995 h 0.99819 v 0.09561"
           id="path333"
           sodipodi:nodetypes="ccc" />
        <path
           style="display:inline;fill:none;stroke:#000000;stroke-width:2;stroke-linecap:butt;stroke-linejoin:miter;stroke-dasharray:none;stroke-opacity:1"
           d="m 42.999618,17.009995 h 0.99819 v 0.09561"
           id="path335"
           sodipodi:nodetypes="ccc" />
      </g>
    </g>
  </g>
  <g
     inkscape:groupmode="layer"
     id="layer2"
     inkscape:label="Image 1"
     style="display:inline"
     transform="matrix(0.5,0,0,0.5,16.002688,16.003199)">
    <path
       id="rect4394"
       style="display:inline;opacity:1;fill:none;fill-rule:evenodd;stroke:#000000;stroke-width:3.00003;stroke-opacity:1;stop-color:#000000;stop-opacity:1"
       d="m -20.010947,-30.508273 h 54.008541 l -0.0102,17.986883 18.012801,-0.0114 v 75.028267 h -72.011142 z"
       sodipodi:nodetypes="ccccccc"
       inkscape:label="rect4394__Dokument_kontur" />
  </g>
</svg>
