<?xml version="1.0" encoding="UTF-8" standalone="no"?>
<!-- Created with Inkscape (http://www.inkscape.org/) -->

<svg
   version="1.1"
   id="svg3955"
   width="24"
   height="24"
   viewBox="0 0 24 24"
   sodipodi:docname="application-x-perl 24.svg"
   inkscape:version="1.2.2 (b0a8486541, 2022-12-01)"
   xmlns:inkscape="http://www.inkscape.org/namespaces/inkscape"
   xmlns:sodipodi="http://sodipodi.sourceforge.net/DTD/sodipodi-0.dtd"
   xmlns="http://www.w3.org/2000/svg"
   xmlns:svg="http://www.w3.org/2000/svg">
  <defs
     id="defs3959" />
  <sodipodi:namedview
     id="namedview3957"
     pagecolor="#ffffff"
     bordercolor="#999999"
     borderopacity="1"
     inkscape:showpageshadow="0"
     inkscape:pageopacity="0"
     inkscape:pagecheckerboard="0"
     inkscape:deskcolor="#d1d1d1"
     showgrid="false"
     inkscape:zoom="7.9999996"
     inkscape:cx="28.375001"
     inkscape:cy="14.250001"
     inkscape:window-width="1855"
     inkscape:window-height="1317"
     inkscape:window-x="485"
     inkscape:window-y="59"
     inkscape:window-maximized="0"
     inkscape:current-layer="layer1" />
  <g
     id="g1028"
     transform="matrix(-1,0,0,1,64.010753,0)">
    <g
       inkscape:groupmode="layer"
       id="layer1"
       inkscape:label="Image 2"
       style="display:inline">
      <path
         id="rect1980"
         style="display:inline;opacity:1;fill:#fff4de;fill-opacity:1;fill-rule:evenodd;stroke:#000000;stroke-width:0;stroke-dasharray:none;stop-color:#000000;stop-opacity:1"
         d="m 42.920471,0.2382395 h 13.478511 l 4.676987,4.689128 V 23.712428 H 42.920471 Z"
         sodipodi:nodetypes="cccccc"
         inkscape:label="rect1980__Dokument_bg-colour" />
    </g>
    <path
       fill="#005a7d"
       d="m 50.408152,4.5517015 a 8.860476,8.860476 0 0 1 3.692325,0.736254 c 4.482197,1.953948 6.532322,7.1718425 4.578373,11.6551435 -1.653808,3.76667 -5.68386,5.898878 -9.728283,5.14604 -0.172453,-0.54915 -0.31285,-1.152468 -0.31285,-1.810234 q 0,-0.139291 0.0075,-0.281899 c 0,0 -0.316169,-0.539753 -0.565733,-1.24229 -0.308707,-0.869189 -0.145651,-1.826818 0.388855,-2.584628 0.03123,-0.04091 0.06246,-0.08733 0.09589,-0.134865 3.147042,0 4.703845,-2.853538 5.097951,-4.588322 0.16306,-0.713591 0.295718,-0.784894 0.741505,-0.784894 0.823589,0 1.418616,-0.341043 1.418616,-0.341043 0.756707,0.346569 1.095813,0.205068 0.993281,-0.156703 0.330263,-0.03648 0.322801,-0.4101355 0.121874,-0.7533895 -0.250394,-0.431968 -0.764169,-0.724371 -1.379649,-0.724371 h -0.329158 c -0.679046,0 -0.819443,-0.355137 -1.520045,-0.279687 -0.109169,0.0096 -0.210595,0.02819 -0.303456,0.05196 -0.194289,-0.223585 -0.414558,-0.317551 -0.682362,-0.299034 -0.04091,0.0055 -0.06688,0.04201 -0.05942,0.08097 l 0.06495,0.301245 c 0.02266,0.111105 -0.0078,0.22773 -0.08844,0.30318 -0.565731,0.528975 -0.889916,1.4316055 -1.252516,2.2466255 -0.589502,1.200558 -2.011156,2.868463 -4.291223,0.728793 -1.602952,-1.505121 -2.571636,-2.7595715 -4.164088,-2.8825575 a 8.8549485,8.8549485 0 0 1 7.47613,-4.386294 m 3.760313,4.356169 c 0.232982,0 0.466239,0.187934 0.386367,0.221099 -0.01714,0.0078 -0.04753,0.01305 -0.08208,0.01631 -0.02487,0.150069 -0.150071,0.265315 -0.306773,0.265315 -0.155322,0 -0.279137,-0.115245 -0.30318,-0.265315 -0.03455,-0.0033 -0.06468,-0.0086 -0.08208,-0.01631 -0.07987,-0.03317 0.153387,-0.221099 0.38775,-0.221099 m -8.271771,8.5133505 c 0.189039,0.0044 0.359283,0.124365 0.416768,0.308707 v 0.0021 c 0.2819,0.907881 0.832431,2.080526 0.832431,2.080526 0,0 0.547217,0.969234 0.855925,2.054271 a 8.8438935,8.8438935 0 0 1 -0.976976,-0.345465 8.8438935,8.8438935 0 0 1 -1.759657,-1.025339 5.527433,5.527433 0 0 1 0.294612,-0.520407 c 0,0 0.181576,-0.806454 0.528976,-1.68642 A 9.1202655,9.1202655 0 0 1 45.94095,17.848655 l -0.0033,-0.0097 c -0.0096,-0.02156 -0.03316,-0.02901 -0.05914,-0.02901 h -0.0021 a 13.542212,13.542212 0 0 1 -0.596963,0.08291 c -0.06715,0.0056 -0.137085,0.0111 -0.207279,0.01851 -0.0854,0.0075 -0.168588,0.01485 -0.254815,0.02044 -0.02045,0.816127 -0.37476,1.596601 -0.464304,1.782599 a 8.8438935,8.8438935 0 0 1 -1.627847,-2.196049 c 0.630127,0.07242 1.401205,0.097 2.309085,0.0063 a 4.6983188,4.6983187 0 0 1 0.218056,-0.02044 q 0.282177,-0.03372 0.562418,-0.07877 a 0.5527433,0.5527433 0 0 1 0.08208,-0.0043"
       id="path4"
       style="fill:#0a00ff;fill-opacity:1;stroke-width:0.27637"
       inkscape:label="path4___Kamelen" />
    <g
       inkscape:groupmode="layer"
       inkscape:label="Image"
       id="g3961"
       style="display:inline">
      <g
         id="g2372"
         style="display:inline"
         transform="matrix(0.375,0,0,0.375,40.760843,-5.2552744)">
        <g
           id="g342"
           style="display:inline;stroke:#000000;stroke-opacity:1"
           inkscape:label="g342__Diagonalt_veck">
          <path
             style="display:inline;fill:none;stroke:#000000;stroke-width:2;stroke-linecap:butt;stroke-linejoin:miter;stroke-dasharray:none;stroke-opacity:1"
             d="m 46.999618,21.009995 h 0.99819 v 0.09561"
             id="path2368"
             sodipodi:nodetypes="ccc" />
          <path
             style="display:inline;fill:none;stroke:#000000;stroke-width:2;stroke-linecap:butt;stroke-linejoin:miter;stroke-dasharray:none;stroke-opacity:1"
             d="m 48.999618,23.009995 h 0.99819 v 0.09561"
             id="path329"
             sodipodi:nodetypes="ccc" />
          <path
             style="display:inline;fill:none;stroke:#000000;stroke-width:2;stroke-linecap:butt;stroke-linejoin:miter;stroke-dasharray:none;stroke-opacity:1"
             d="m 50.999618,25.009995 h 0.99819 v 0.09561"
             id="path331"
             sodipodi:nodetypes="ccc" />
          <path
             style="display:inline;fill:none;stroke:#000000;stroke-width:2;stroke-linecap:butt;stroke-linejoin:miter;stroke-dasharray:none;stroke-opacity:1"
             d="m 44.999618,19.009995 h 0.99819 v 0.09561"
             id="path333"
             sodipodi:nodetypes="ccc" />
          <path
             style="display:inline;fill:none;stroke:#000000;stroke-width:2;stroke-linecap:butt;stroke-linejoin:miter;stroke-dasharray:none;stroke-opacity:1"
             d="m 42.999618,17.009995 h 0.99819 v 0.09561"
             id="path335"
             sodipodi:nodetypes="ccc" />
        </g>
      </g>
    </g>
    <g
       inkscape:groupmode="layer"
       id="layer2"
       inkscape:label="Image 1"
       style="display:inline">
      <path
         id="rect4394"
         style="display:inline;opacity:1;fill:none;fill-rule:evenodd;stroke:#000000;stroke-width:0.75001;stroke-opacity:1;stop-color:#000000;stop-opacity:1"
         d="m 43.009435,0.3745315 h 13.502134 l -0.0027,4.496721 4.5032,-0.0028 V 23.625468 H 43.009435 Z"
         sodipodi:nodetypes="ccccccc"
         inkscape:label="rect4394__Dokument_kontur" />
    </g>
  </g>
</svg>
