<?xml version="1.0" encoding="UTF-8" standalone="no"?>
<!-- Created with Inkscape (http://www.inkscape.org/) -->

<svg
   version="1.1"
   id="svg3955"
   width="24"
   height="24"
   viewBox="0 0 24 24"
   sodipodi:docname="application-x-theme.svg"
   inkscape:version="1.2.2 (b0a8486541, 2022-12-01)"
   xml:space="preserve"
   xmlns:inkscape="http://www.inkscape.org/namespaces/inkscape"
   xmlns:sodipodi="http://sodipodi.sourceforge.net/DTD/sodipodi-0.dtd"
   xmlns:xlink="http://www.w3.org/1999/xlink"
   xmlns="http://www.w3.org/2000/svg"
   xmlns:svg="http://www.w3.org/2000/svg"><defs
     id="defs3959"><linearGradient
       inkscape:collect="always"
       id="linearGradient1067"><stop
         style="stop-color:#41eeff;stop-opacity:1;"
         offset="0"
         id="stop1063" /><stop
         style="stop-color:#fb41ff;stop-opacity:1;"
         offset="1"
         id="stop1065" /></linearGradient><linearGradient
       inkscape:collect="always"
       xlink:href="#linearGradient1067"
       id="linearGradient1069"
       x1="-2.219929"
       y1="64.472412"
       x2="58.298805"
       y2="64.472412"
       gradientUnits="userSpaceOnUse"
       gradientTransform="matrix(0.375,0,0,0.375,-20.003259,-20.003998)" /></defs><sodipodi:namedview
     id="namedview3957"
     pagecolor="#ffffff"
     bordercolor="#999999"
     borderopacity="1"
     inkscape:showpageshadow="0"
     inkscape:pageopacity="0"
     inkscape:pagecheckerboard="0"
     inkscape:deskcolor="#d1d1d1"
     showgrid="false"
     inkscape:zoom="8.0000001"
     inkscape:cx="23.4375"
     inkscape:cy="40.625"
     inkscape:window-width="1808"
     inkscape:window-height="1355"
     inkscape:window-x="617"
     inkscape:window-y="28"
     inkscape:window-maximized="0"
     inkscape:current-layer="layer1" /><path
     id="rect1980"
     style="display:inline;opacity:1;fill:#f5f5f5;fill-opacity:1;fill-rule:evenodd;stroke:#000000;stroke-width:0;stroke-dasharray:none;stop-color:#000000;stop-opacity:1"
     d="M 2.9097127,0.23824013 H 16.388224 L 21.065209,4.9273671 V 23.712429 H 2.9097127 Z"
     sodipodi:nodetypes="cccccc"
     inkscape:label="rect1980__Dokument_bg-colour" /><g
     inkscape:groupmode="layer"
     id="layer1"
     inkscape:label="Image 2"
     style="display:inline"
     transform="matrix(0.5,0,0,0.5,16.002688,16.003199)"><rect
       style="font-variation-settings:normal;display:inline;opacity:1;fill:#ba8855;fill-opacity:1;fill-rule:evenodd;stroke:none;stroke-width:0;stroke-linecap:butt;stroke-linejoin:miter;stroke-miterlimit:4;stroke-dasharray:none;stroke-dashoffset:0;stroke-opacity:1;stop-color:#000000;stop-opacity:1"
       id="rect1018"
       width="5.7013292"
       height="13.125524"
       x="-12.360018"
       y="-24.054092"
       inkscape:label="handtaget" /><rect
       style="font-variation-settings:normal;display:inline;opacity:1;fill:url(#linearGradient1069);fill-opacity:1;fill-rule:evenodd;stroke:none;stroke-width:0;stroke-linecap:butt;stroke-linejoin:miter;stroke-miterlimit:4;stroke-dasharray:none;stroke-dashoffset:0;stroke-opacity:1;stop-color:#000000;stop-opacity:1"
       id="rect1038"
       width="22.694525"
       height="7.1178188"
       x="-20.835732"
       y="0.61424661"
       inkscape:label="rullen" /><path
       d="m -22.989306,3.2988803 h 0.994257 v -0.845942 c 0,-0.804744 0.326841,-1.53258305 0.856927,-2.06267105 0.530088,-0.52734 1.257929,-0.856927 2.062671,-0.856927 H 0.1642424 c 0.804744,0 1.532583,0.326841 2.06267,0.856927 0.530087,0.530088 0.856929,1.25792705 0.856929,2.06267105 v 0.966791 h 0.398252 c 0.422971,0 0.80749,-0.173034 1.08764,-0.453183 0.28015,-0.280149 0.453183,-0.664669 0.453183,-1.08764 v -4.460422 c 0,-0.422971 -0.173033,-0.807491 -0.453183,-1.087641 -0.28015,-0.280149 -0.664669,-0.453183 -1.08764,-0.453183 h -7.775527 c -0.337829,0 -0.45593,0.0027 -0.571286,0.0027 -1.337578,0.02198 -2.83171,0.04669 -3.999,-0.79925 -0.400999,-0.288389 -0.719601,-0.65643 -0.950311,-1.109613 -0.2224734,-0.433958 -0.3570544,-0.944818 -0.4010004,-1.535331 0,-0.01647 -0.0027,-0.03297 -0.0027,-0.04944 v 0 -2.25493 h -1.178277 c -0.516354,0 -0.986016,-0.2114853 -1.323843,-0.5493143 -0.340575,-0.340573 -0.549313,-0.80749 -0.549313,-1.323844 v -11.195039 c 0,-0.516355 0.211485,-0.986017 0.549313,-1.323843 0.340574,-0.340575 0.807489,-0.549315 1.323843,-0.549315 h 3.6639204 c 0.516354,0 0.986017,0.211485 1.323844,0.549315 0.340575,0.340573 0.549314,0.807488 0.549314,1.323843 v 11.195013 c 0,0.516354 -0.211485,0.986016 -0.549314,1.323844 -0.340573,0.340574 -0.80749,0.5493123 -1.323844,0.5493123 h -1.106867 v 2.241199 c 0.03024,0.384518 0.118125,0.705866 0.252713,0.972285 0.12909,0.25543 0.307615,0.458675 0.530088,0.620724 0.799249,0.579525 2.051683,0.560299 3.169536,0.541072 0.28015,-0.0055 0.554806,-0.0083 0.593259,-0.0083 h 7.775527 c 0.804744,0 1.532583,0.326841 2.062671,0.856929 0.530087,0.530085 0.856928,1.260672 0.856928,2.06267 v 4.460422 c 0,0.804744 -0.329588,1.532585 -0.856928,2.062671 -0.530088,0.527341 -1.257927,0.856929 -2.062671,0.856929 h -0.398327 v 1.222222 c 0,0.804743 -0.326842,1.532583 -0.856929,2.062671 -0.530087,0.530088 -1.257926,0.856927 -2.06267,0.856927 H -19.075451 c -0.804742,0 -1.532583,-0.326839 -2.062671,-0.856927 -0.530086,-0.527292 -0.856927,-1.257878 -0.856927,-2.062621 v -1.342981 h -0.994257 z m 3.913855,4.265417 H 0.1642424 c 0.422971,0 0.80749,-0.173034 1.087639,-0.453183 0.28015,-0.28015 0.453184,-0.66467 0.453184,-1.08764 v -3.567789 c 0,-0.422972 -0.173034,-0.807491 -0.453184,-1.087641 C 0.9717324,1.0878953 0.5872134,0.91486125 0.1642424,0.91486125 H -19.075451 c -0.422971,0 -0.80749,0.17303405 -1.087639,0.45318305 -0.280149,0.28015 -0.453183,0.664669 -0.453183,1.087641 v 3.565042 c 0,0.422971 0.173034,0.80749 0.453183,1.08764 0.280149,0.280149 0.664668,0.45593 1.087639,0.45593 z m 7.682143,-18.8084813 h 3.6611734 c 0.13458,0 0.260924,-0.05493 0.35156,-0.145575 0.09063,-0.09063 0.145575,-0.214232 0.145575,-0.35156 v -11.195002 c 0,-0.13458 -0.05493,-0.260924 -0.145575,-0.351561 -0.09063,-0.09064 -0.214232,-0.14556 -0.35156,-0.14556 h -3.6611734 c -0.13458,0 -0.260923,0.05493 -0.351559,0.14556 -0.09063,0.09064 -0.145575,0.214233 -0.145575,0.351561 v 11.195002 c 0,0.13458 0.05493,0.260923 0.145575,0.35156 0.09063,0.09063 0.216978,0.145575 0.351559,0.145575 z"
       id="path250"
       style="stroke-width:0.274657" /></g><g
     inkscape:groupmode="layer"
     inkscape:label="Image"
     id="g3961"
     style="display:inline"
     transform="matrix(0.5,0,0,0.5,16.002688,16.003199)"><g
       id="g2372"
       style="display:inline"
       transform="matrix(0.75,0,0,0.75,-30.505205,-42.516947)"><g
         id="g342"
         style="display:inline;stroke:#000000;stroke-opacity:1"
         inkscape:label="g342__Diagonalt_veck"><path
           style="display:inline;fill:none;stroke:#000000;stroke-width:2;stroke-linecap:butt;stroke-linejoin:miter;stroke-dasharray:none;stroke-opacity:1"
           d="m 46.999618,21.009995 h 0.99819 v 0.09561"
           id="path2368"
           sodipodi:nodetypes="ccc" /><path
           style="display:inline;fill:none;stroke:#000000;stroke-width:2;stroke-linecap:butt;stroke-linejoin:miter;stroke-dasharray:none;stroke-opacity:1"
           d="m 48.999618,23.009995 h 0.99819 v 0.09561"
           id="path329"
           sodipodi:nodetypes="ccc" /><path
           style="display:inline;fill:none;stroke:#000000;stroke-width:2;stroke-linecap:butt;stroke-linejoin:miter;stroke-dasharray:none;stroke-opacity:1"
           d="m 50.999618,25.009995 h 0.99819 v 0.09561"
           id="path331"
           sodipodi:nodetypes="ccc" /><path
           style="display:inline;fill:none;stroke:#000000;stroke-width:2;stroke-linecap:butt;stroke-linejoin:miter;stroke-dasharray:none;stroke-opacity:1"
           d="m 44.999618,19.009995 h 0.99819 v 0.09561"
           id="path333"
           sodipodi:nodetypes="ccc" /><path
           style="display:inline;fill:none;stroke:#000000;stroke-width:2;stroke-linecap:butt;stroke-linejoin:miter;stroke-dasharray:none;stroke-opacity:1"
           d="m 42.999618,17.009995 h 0.99819 v 0.09561"
           id="path335"
           sodipodi:nodetypes="ccc" /></g></g></g><g
     inkscape:groupmode="layer"
     id="layer2"
     inkscape:label="Image 1"
     style="display:inline"
     transform="matrix(0.5,0,0,0.5,16.002688,16.003199)"><path
       id="rect4394"
       style="display:inline;opacity:1;fill:none;fill-rule:evenodd;stroke:#000000;stroke-width:1.50002;stroke-opacity:1;stop-color:#000000;stop-opacity:1"
       d="M -26.008023,-31.257335 H 0.9962474 l -0.0053,8.993441 9.0064,-0.0057 V 15.244539 H -26.008098 Z"
       sodipodi:nodetypes="ccccccc"
       inkscape:label="rect4394__Dokument_kontur" /></g></svg>
