<?xml version="1.0" encoding="UTF-8" standalone="no"?>
<svg
   viewBox="0 0 24 24"
   version="1.1"
   id="svg24"
   sodipodi:docname="application-vnd.oasis.opendocument.database.svg"
   inkscape:version="1.2.2 (b0a8486541, 2022-12-01)"
   width="24"
   height="24"
   xmlns:inkscape="http://www.inkscape.org/namespaces/inkscape"
   xmlns:sodipodi="http://sodipodi.sourceforge.net/DTD/sodipodi-0.dtd"
   xmlns="http://www.w3.org/2000/svg"
   xmlns:svg="http://www.w3.org/2000/svg">
  <defs
     id="defs28" />
  <sodipodi:namedview
     id="namedview26"
     pagecolor="#ffffff"
     bordercolor="#999999"
     borderopacity="1"
     inkscape:showpageshadow="0"
     inkscape:pageopacity="0"
     inkscape:pagecheckerboard="0"
     inkscape:deskcolor="#d1d1d1"
     showgrid="false"
     inkscape:zoom="17.359375"
     inkscape:cx="10.80108"
     inkscape:cy="22.840684"
     inkscape:window-width="1570"
     inkscape:window-height="1326"
     inkscape:window-x="454"
     inkscape:window-y="57"
     inkscape:window-maximized="0"
     inkscape:current-layer="svg24" />
  <g
     id="g22"
     transform="matrix(0.375,0,0,0.375,0,1.875e-4)">
    <path
       d="M 10.672,0 C 9.297,0 8,1.355 8,2.789 v 58.42 c 0,1.355 1.375,2.789 2.672,2.789 h 42.656 c 1.297,0 2.672,-1.434 2.672,-2.789 v -43.21 l -18,-18 m -27.328,0"
       style="fill:#a33638;fill-opacity:1;fill-rule:nonzero;stroke:none"
       id="path2" />
    <path
       d="M 8,48 V 61.336 C 8,62.633 9.375,64 10.664,64 H 53.336 C 54.625,64 56,62.633 56,61.336 V 48 M 8,48"
       style="fill:#000000;fill-opacity:0.196;fill-rule:nonzero;stroke:none"
       id="path4" />
    <path
       d="M 42,18 56,32 V 18 m -14,0"
       style="fill:#000000;fill-opacity:0.196;fill-rule:nonzero;stroke:none"
       id="path6" />
    <path
       d="m 20.613,56.22 c 0,0.535 0.027,1.039 0.059,1.508 0.059,0.461 0.152,0.867 0.277,1.211 0.152,0.344 0.344,0.609 0.598,0.813 0.25,0.199 0.594,0.301 1.012,0.301 0.41,0 0.746,-0.102 1,-0.301 0.258,-0.203 0.461,-0.469 0.594,-0.813 0.141,-0.363 0.234,-0.766 0.277,-1.227 0.051,-0.461 0.074,-0.957 0.074,-1.492 0,-0.527 -0.023,-1.023 -0.074,-1.484 C 24.387,54.259 24.293,53.857 24.153,53.513 24.02,53.169 23.825,52.9 23.575,52.7 c -0.25,-0.203 -0.586,-0.305 -1.016,-0.305 -0.418,0 -0.762,0.102 -1.012,0.305 -0.254,0.199 -0.445,0.477 -0.598,0.828 -0.125,0.344 -0.219,0.746 -0.277,1.207 -0.031,0.461 -0.059,0.957 -0.059,1.484 m -2.48,0 c 0,-1.887 0.395,-3.313 1.172,-4.266 0.781,-0.973 1.863,-1.453 3.254,-1.453 1.441,0 2.543,0.48 3.297,1.453 0.754,0.953 1.129,2.379 1.129,4.266 0,1.895 -0.383,3.32 -1.148,4.293 -0.77,0.957 -1.852,1.434 -3.25,1.434 -1.445,0 -2.551,-0.477 -3.32,-1.434 -0.754,-0.973 -1.133,-2.398 -1.133,-4.293"
       style="fill:#ffffff;fill-opacity:1;fill-rule:nonzero;stroke:none"
       id="path8" />
    <path
       d="m 31.04,59.941 c 0.066,0.016 0.145,0.016 0.219,0.016 0.074,0 0.148,0 0.219,0 0.551,0 1.02,-0.09 1.391,-0.273 0.375,-0.195 0.688,-0.453 0.914,-0.781 0.234,-0.336 0.402,-0.723 0.492,-1.176 0.102,-0.461 0.16,-0.961 0.16,-1.508 0,-0.469 -0.039,-0.93 -0.117,-1.375 -0.082,-0.453 -0.227,-0.848 -0.418,-1.191 -0.203,-0.344 -0.469,-0.609 -0.813,-0.813 -0.344,-0.219 -0.789,-0.316 -1.336,-0.316 -0.098,0 -0.227,0 -0.352,0.016 -0.133,0 -0.25,0.008 -0.359,0.035 v 7.367 m 5.879,-3.723 c 0,1.023 -0.152,1.887 -0.438,2.609 -0.285,0.711 -0.672,1.289 -1.176,1.734 -0.5,0.453 -1.105,0.777 -1.809,0.996 -0.688,0.203 -1.441,0.293 -2.281,0.293 -0.438,0 -0.863,-0.016 -1.289,-0.066 -0.414,-0.031 -0.848,-0.102 -1.328,-0.191 V 50.887 c 0.555,-0.102 1.074,-0.176 1.57,-0.211 0.484,-0.031 0.945,-0.047 1.367,-0.047 0.805,0 1.543,0.098 2.203,0.316 0.672,0.211 1.242,0.547 1.703,1.01 0.469,0.453 0.82,1.031 1.07,1.734 0.27,0.695 0.406,1.543 0.406,2.531"
       style="fill:#ffffff;fill-opacity:1;fill-rule:nonzero;stroke:none"
       id="path10" />
    <path
       d="m 46.754,58.4 c 0,0.664 -0.125,1.215 -0.375,1.668 -0.254,0.438 -0.598,0.789 -1.031,1.066 -0.43,0.258 -0.941,0.445 -1.535,0.563 -0.578,0.109 -1.207,0.156 -1.887,0.156 -0.535,0 -1.098,-0.023 -1.684,-0.082 -0.582,-0.051 -1.16,-0.125 -1.73,-0.234 V 50.889 c 0.473,-0.066 0.973,-0.125 1.535,-0.176 0.555,-0.059 1.098,-0.082 1.645,-0.082 0.93,0 1.676,0.082 2.262,0.258 0.578,0.168 1.039,0.395 1.367,0.68 0.336,0.27 0.563,0.578 0.68,0.914 0.117,0.344 0.176,0.688 0.176,1.031 0,0.52 -0.141,0.98 -0.438,1.383 -0.273,0.402 -0.652,0.723 -1.129,0.957 0.828,0.266 1.398,0.637 1.684,1.098 0.313,0.461 0.461,0.945 0.461,1.449 m -5.801,-1.484 v 2.977 c 0.176,0.027 0.359,0.043 0.563,0.051 0.207,0.016 0.41,0.016 0.609,0.016 0.277,0 0.555,-0.016 0.816,-0.051 0.266,-0.047 0.492,-0.125 0.695,-0.223 0.207,-0.129 0.383,-0.285 0.52,-0.488 0.125,-0.211 0.191,-0.477 0.191,-0.797 0,-0.527 -0.191,-0.906 -0.57,-1.133 -0.375,-0.234 -0.879,-0.352 -1.508,-0.352 h -1.316 m 0.957,-1.809 c 0.617,0 1.09,-0.117 1.406,-0.352 0.32,-0.254 0.48,-0.59 0.48,-1.016 0,-0.262 -0.051,-0.461 -0.145,-0.613 -0.094,-0.168 -0.219,-0.293 -0.379,-0.375 -0.156,-0.094 -0.344,-0.152 -0.551,-0.176 -0.211,-0.035 -0.43,-0.051 -0.656,-0.051 -0.184,0 -0.375,0 -0.578,0.016 -0.191,0.008 -0.375,0.023 -0.535,0.051 v 2.516 h 0.957"
       style="fill:#ffffff;fill-opacity:1;fill-rule:nonzero;stroke:none"
       id="path12" />
    <path
       d="M 38,0 55.984,18 H 40.757 c -1.348,0 -2.758,-1.426 -2.758,-2.773 M 37.999,0"
       style="fill:#ffffff;fill-opacity:0.392;fill-rule:nonzero;stroke:none"
       id="path14" />
    <path
       d="m 32,21.992 c -5.523,0 -10,1.398 -10,3.129 v 2.496 c 0,1.73 4.477,3.129 10,3.129 5.523,0 10,-1.398 10,-3.129 v -2.496 c 0,-1.73 -4.477,-3.129 -10,-3.129 m 0,0"
       style="fill:#ffffff;fill-opacity:1;fill-rule:nonzero;stroke:none"
       id="path16" />
    <path
       d="m 31.969,31.992 c -4.48,0 -8.254,-0.914 -9.527,-2.184 -0.301,0.293 -0.441,0.609 -0.441,0.938 v 2.5 c 0,1.727 4.477,3.129 10,3.129 5.523,0 10,-1.402 10,-3.129 v -2.5 c 0,-0.328 -0.176,-0.645 -0.469,-0.938 -1.273,1.27 -5.086,2.184 -9.563,2.184 m 0,0"
       style="fill:#ffffff;fill-opacity:1;fill-rule:nonzero;stroke:none"
       id="path18" />
    <path
       d="m 31.969,37.617 c -4.48,0 -8.254,-0.914 -9.527,-2.18 -0.301,0.293 -0.441,0.605 -0.441,0.938 v 2.496 c 0,1.73 4.477,3.129 10,3.129 5.523,0 10,-1.398 10,-3.129 v -2.496 c 0,-0.332 -0.176,-0.645 -0.469,-0.938 -1.273,1.266 -5.086,2.18 -9.563,2.18 m 0,0"
       style="fill:#ffffff;fill-opacity:1;fill-rule:nonzero;stroke:none"
       id="path20" />
  </g>
</svg>
