<?xml version="1.0" encoding="UTF-8" standalone="no"?>
<!-- Generator: Adobe Illustrator 20.1.0, SVG Export Plug-In . SVG Version: 6.00 Build 0)  -->

<svg
   version="1.1"
   x="0px"
   y="0px"
   viewBox="0 0 24 24"
   xml:space="preserve"
   id="svg16"
   sodipodi:docname="package-x-generic.svg"
   width="24"
   height="24"
   inkscape:version="1.2.2 (b0a8486541, 2022-12-01)"
   xmlns:inkscape="http://www.inkscape.org/namespaces/inkscape"
   xmlns:sodipodi="http://sodipodi.sourceforge.net/DTD/sodipodi-0.dtd"
   xmlns="http://www.w3.org/2000/svg"
   xmlns:svg="http://www.w3.org/2000/svg"><defs
   id="defs20" /><sodipodi:namedview
   id="namedview18"
   pagecolor="#ffffff"
   bordercolor="#999999"
   borderopacity="1"
   inkscape:showpageshadow="0"
   inkscape:pageopacity="0"
   inkscape:pagecheckerboard="0"
   inkscape:deskcolor="#d1d1d1"
   showgrid="false"
   showguides="false"
   inkscape:zoom="24.549864"
   inkscape:cx="0.91650204"
   inkscape:cy="11.568292"
   inkscape:window-width="2560"
   inkscape:window-height="1358"
   inkscape:window-x="0"
   inkscape:window-y="28"
   inkscape:window-maximized="1"
   inkscape:current-layer="svg16" />
<g
   id="canvas"
   transform="scale(1.5)"
   style="stroke-width:0.666667">
	<path
   style="opacity:0;fill:#252526;stroke-width:0.666667"
   d="M 16,16 H 0 V 0 h 16 z"
   id="path2" />
</g>
<g
   id="outline"
   transform="matrix(1.4670579,0,0,1.4615385,-0.47292613,-0.46153846)"
   style="stroke-width:0.682922">
	<path
   style="fill:#252526;stroke-width:0.682922"
   d="m 16,2.5 v 10 C 16,13.327 15.327,14 14.5,14 H 2.504 c -0.827,0 -1.5,-0.673 -1.5,-1.5 v -8 C 1.004,3.673 1.677,3 2.504,3 H 5.39 l 1,-2 H 14.5 C 15.327,1 16,1.673 16,2.5 Z"
   id="path5" />
</g>
<g
   id="iconBg"
   transform="matrix(1.5,0,0,1.5,-0.77499985,-0.775)"
   style="stroke-width:0.666667">
	<path
   style="fill:#dcb67a;stroke-width:0.666667"
   d="m 15,2.5 v 10 C 15,12.776 14.775,13 14.5,13 H 14 V 4 4 3 H 13 11 8.012 8.008 l -0.5,1 H 10 v 9 H 2.504 C 2.227,13 2,12.776 2,12.5 v -8 C 2,4.224 2.227,4 2.504,4 h 3.504 l 1,-2 H 14.5 C 14.775,2 15,2.224 15,2.5 Z"
   id="path8" />
	<path
   style="fill:#c5c5c5;stroke-width:0.666667"
   d="M 13,3 V 4 H 11 V 3 Z m 0,1 V 6 H 11 V 4 h -1 v 9 h 1 v -1 h 1 v -1 h -1 v -1 h 1 V 9 H 11 V 8 h 1 V 7 h 1 v 1 h -1 v 1 h 1 v 1 h -1 v 1 h 1 v 1 h -1 v 1 h 2 V 4 Z"
   id="path10" />
</g>
<g
   id="iconFg"
   transform="matrix(1.5,0,0,1.5,-0.77499985,-0.75)"
   style="stroke-width:0.666667">
	<path
   style="fill:#252526;stroke-width:0.666667"
   d="M 11,3 V 4 H 7.5 L 8,3 Z m 2,0 v 1 h 1 V 3 Z m 0,4 h -1 v 1 h 1 z m 0,2 h -1 v 1 h 1 z m -2,1 v 1 h 1 v -1 z m 2,1 h -1 v 1 h 1 z m -2,1 v 1 h 1 v -1 z m 0,-4 v 1 h 1 V 8 Z M 13,6 V 4 h -2 v 2 z"
   id="path13" />
</g>
</svg>
