<?xml version="1.0" encoding="UTF-8" standalone="no"?>
<svg
   viewBox="0 0 24 24"
   version="1.1"
   id="svg3609"
   sodipodi:docname="gnome-mime-text-x-chdr.svg"
   inkscape:version="1.2.2 (b0a8486541, 2022-12-01)"
   width="24"
   height="24"
   xmlns:inkscape="http://www.inkscape.org/namespaces/inkscape"
   xmlns:sodipodi="http://sodipodi.sourceforge.net/DTD/sodipodi-0.dtd"
   xmlns="http://www.w3.org/2000/svg"
   xmlns:svg="http://www.w3.org/2000/svg">
  <defs
     id="defs3613" />
  <sodipodi:namedview
     id="namedview3611"
     pagecolor="#ffffff"
     bordercolor="#999999"
     borderopacity="1"
     inkscape:showpageshadow="0"
     inkscape:pageopacity="0"
     inkscape:pagecheckerboard="0"
     inkscape:deskcolor="#d1d1d1"
     showgrid="false"
     inkscape:zoom="5.6568542"
     inkscape:cx="55.242717"
     inkscape:cy="4.6845824"
     inkscape:window-width="2220"
     inkscape:window-height="1317"
     inkscape:window-x="97"
     inkscape:window-y="28"
     inkscape:window-maximized="0"
     inkscape:current-layer="svg3609" />
  <path
     d="m 2.9275756,0.026578 c -0.02605,12.485799 -2.17e-4,12.513269 0.0068,24.006463 H 20.952381 c 0.0044,-2.149503 -6.1e-5,-0.004 -6.1e-5,-17.264333 L 14.194774,0.0131 C 3.3451066,0.03533 14.129974,0.013276 2.9275086,0.0266 Z"
     style="fill:#f2f2f2;stroke:none;stroke-width:0.3;stroke-dasharray:none;stroke-opacity:1"
     id="path3599"
     sodipodi:nodetypes="cccccc" />
  <path
     d="m 15.723564,6.734135 5.280925,5.26336 v -5.26336 z"
     style="fill:#000000;fill-opacity:0.196;stroke-width:1"
     id="path3601" />
  <path
     d="m 14.214727,-0.033041 6.783726,6.767176 H 15.25507 c -0.507724,0 -1.039588,-0.536111 -1.039588,-1.042145 z"
     style="fill:#ffffff;fill-opacity:0.964505;stroke-width:1"
     id="path3603" />
  <path
     d="m 2.8936856,12.173882 c -0.02618,12.507181 -2.84e-4,0.228792 0.0068,11.852645 H 21.004486 c 0.0044,-2.153182 -6e-5,-6.171882 -6e-5,-11.854733 -17.9226594,0 -0.500854,0.0021 -18.1108034,0.0021 z"
     style="fill:#ffff00;stroke-width:1"
     id="path403"
     sodipodi:nodetypes="ccccc" />
  <g
     transform="matrix(0.45535665,0,0,0.42438312,13.029503,6.081451)"
     style="fill:#888888;stroke-width:1.32774"
     id="g3607">
    <path
       d="M 11.819189,39.263202 H 8.3848901 v -8.331447 c 0,-1.463815 -0.2053799,-1.997609 -0.5638258,-2.563373 -0.349727,-0.57642 -1.1974033,-0.958116 -2.1099873,-0.958116 -0.6917038,0 -1.2942805,0.222818 -1.6110693,0.449511 -0.3603835,0.257693 -0.562857,0.546387 -0.7895499,0.990085 -0.2266928,0.443698 -0.3875091,0.991055 -0.4814801,1.643039 -0.093971,0.651984 -0.1685664,1.52388 -0.1685664,2.237866 v 6.532435 H -0.7748573 V 17.222651 h 3.4352686 v 9.148122 c 0.4630734,-0.82152 1.1082761,-1.411502 1.8261368,-1.770917 0.7178607,-0.368134 1.5374425,-0.5367 2.4432452,-0.5367 0.7837372,0 1.2758738,0.09785 1.9094513,0.324539 0.6422964,0.217005 1.1896524,0.561888 1.6430384,1.03368 0.453385,0.471793 0.803112,1.076307 1.048212,1.813543 0.245099,0.727549 0.289663,1.600413 0.289663,2.620531 z"
       id="path3605"
       style="stroke-width:1.32773" />
  </g>
  <path
     id="rect1032"
     style="display:inline;opacity:1;fill:none;fill-rule:evenodd;stroke:#000000;stroke-width:0.3;stop-color:#000000;stop-opacity:1"
     inkscape:label="rect1032"
     d="m 3.0813636,0.237444 11.2597884,9.5e-4 6.626621,6.405224 V 23.86161 L 3.0813636,23.81109 Z"
     sodipodi:nodetypes="cccccc" />
</svg>
