<?xml version="1.0" encoding="UTF-8" standalone="no"?>
<svg
   version="1.1"
   viewBox="0 0 24 24"
   id="svg10"
   sodipodi:docname="text-x-arduino.svg"
   inkscape:version="1.2.2 (b0a8486541, 2022-12-01)"
   width="24"
   height="24"
   xmlns:inkscape="http://www.inkscape.org/namespaces/inkscape"
   xmlns:sodipodi="http://sodipodi.sourceforge.net/DTD/sodipodi-0.dtd"
   xmlns="http://www.w3.org/2000/svg"
   xmlns:svg="http://www.w3.org/2000/svg">
  <defs
     id="defs14">
    <linearGradient
       id="linearGradient12880"
       inkscape:swatch="solid">
      <stop
         style="stop-color:#000000;stop-opacity:1;"
         offset="0"
         id="stop12878" />
    </linearGradient>
    <linearGradient
       id="linearGradient3909"
       inkscape:swatch="solid">
      <stop
         style="stop-color:#274e90;stop-opacity:1;"
         offset="0"
         id="stop3907" />
    </linearGradient>
    <linearGradient
       id="linearGradient3890"
       inkscape:swatch="solid">
      <stop
         style="stop-color:#1a405c;stop-opacity:0.56862748;"
         offset="0"
         id="stop3888" />
    </linearGradient>
  </defs>
  <sodipodi:namedview
     id="namedview12"
     pagecolor="#ffffff"
     bordercolor="#999999"
     borderopacity="1"
     inkscape:showpageshadow="0"
     inkscape:pageopacity="0"
     inkscape:pagecheckerboard="0"
     inkscape:deskcolor="#d1d1d1"
     showgrid="false"
     inkscape:zoom="8.01"
     inkscape:cx="19.350811"
     inkscape:cy="44.881398"
     inkscape:window-width="1517"
     inkscape:window-height="1355"
     inkscape:window-x="438"
     inkscape:window-y="148"
     inkscape:window-maximized="0"
     inkscape:current-layer="svg10" />
  <path
     d="m 3.2164767,0.47504002 c -0.116562,0 -0.11811,-0.0017 -0.11811,0.127089 V 23.405765 c 0,0.121933 -8.46e-4,0.119198 0.130089,0.119198 H 20.778741 c 0.119477,0 0.122932,1.23e-4 0.122932,-0.124561 V 6.989149 L 14.472701,0.47504002 Z"
     style="display:inline;fill:#e5f1f2;fill-opacity:1;stroke:#000000;stroke-width:0.2;stroke-dasharray:none;stroke-opacity:1"
     id="path2"
     sodipodi:nodetypes="ccssssccc"
     inkscape:label="path2__DOC-BLANK" />
  <path
     d="m 15.711509,6.991213 5.192634,5.260983 V 6.991213 Z"
     style="display:inline;fill:#000000;fill-opacity:0.144102;fill-rule:nonzero;stroke:none;stroke-width:0.999996"
     id="path4-6"
     inkscape:label="path4__FLIK-SKUGGA"
     sodipodi:nodetypes="cccc" />
  <path
     d="M 14.472701,0.47504002 20.901673,6.989149 h -6.426322 l -0.0026,2.05e-4 z"
     style="fill:#ffffff;fill-opacity:0.492688;stroke-width:0.999996"
     id="path6"
     inkscape:label="path6__FLIK-VIT"
     sodipodi:nodetypes="ccccc" />
  <g
     inkscape:groupmode="layer"
     id="layer1"
     inkscape:label="LOGO"
     transform="matrix(0.7489887,0,0,0.74919067,8.0331967,8.0258982)"
     style="stroke-width:1.33495">
    <path
       d="m 12.506739,6.228596 c 0,-1.780771 -1.600235,-3.235956 -3.5445852,-3.235956 v 0 c -0.182501,0 -0.364504,0.01892 -0.547004,0.03833 v 0 c -1.519179,0.210586 -2.531633,1.244598 -3.118917,2.029691 v 0 C 4.7293388,4.275568 3.6959988,3.222638 2.1773168,3.03097 v 0 C 1.9948168,3.01205 1.8128138,2.99264 1.6303128,2.99264 v 0 c -1.96473803,0 -3.544585,1.455185 -3.544585,3.235956 v 0 c 0,1.780771 1.60023497,3.235956 3.544585,3.235956 v 0 c 0.182501,0 0.364504,-0.01892 0.547004,-0.03833 v 0 c 1.519179,-0.210586 2.531633,-1.244598 3.118916,-2.029691 v 0 c 0.566895,0.804011 1.579847,1.838023 3.118917,2.029691 v 0 c 0.1825,0.01892 0.364503,0.03833 0.547004,0.03833 v 0 c 1.9443502,0 3.5445852,-1.436267 3.5445852,-3.235956 z M 2.0142098,8.296621 c -0.121335,0.01892 -0.243168,0.01892 -0.384891,0.01892 v 0 c -1.29640003,0 -2.32924203,-0.938428 -2.32924203,-2.086943 v 0 c 0,-1.149013 1.053231,-2.086943 2.32924203,-2.086943 v 0 c 0.121335,0 0.243168,0.01892 0.384891,0.01892 v 0 c 1.438123,0.191668 2.308854,1.531852 2.61269,2.068025 v 0 c -0.303836,0.536173 -1.174567,1.876357 -2.61269,2.068025 z m 3.949368,-2.068025 c 0.303836,-0.536173 1.174567,-1.876357 2.612689,-2.068025 v 0 c 0.121336,-0.01892 0.243168,-0.01892 0.384892,-0.01892 v 0 c 1.2963992,0 2.3292422,0.938428 2.3292422,2.086943 v 0 c 0,1.149013 -1.053231,2.086943 -2.3292422,2.086943 v 0 c -0.121335,0 -0.243168,0 -0.384892,-0.01892 v 0 C 7.1381448,8.104953 6.2674138,6.764769 5.9635778,6.228596 Z"
       style="display:inline;fill:#0099ab;fill-opacity:1;stroke-width:1.33495"
       id="path8-6" />
    <path
       d="m 0.47265377,5.880109 v 0 0.696975 H 3.1579458 v 0 -0.696975 0 z"
       style="display:inline;fill:#0099ab;fill-opacity:1;stroke-width:0.499593"
       id="path10" />
    <path
       d="m 7.3847938,5.880108 v 0.696976 0 h 1.04428 v 0 1.045462 0 h 0.696186 V 6.577084 H 10.16954 V 5.880108 H 9.1252598 V 4.834646 h -0.696186 v 1.045462 z"
       style="display:inline;fill:#0099ab;fill-opacity:1;stroke-width:0.381415"
       id="path12" />
  </g>
</svg>
