<?xml version="1.0" encoding="UTF-8" standalone="no"?>
<svg
   version="1.1"
   viewBox="0 0 24 24"
   id="svg10"
   sodipodi:docname="text-x-common-lisp (kopia2).svg"
   inkscape:version="1.2.2 (b0a8486541, 2022-12-01)"
   width="24"
   height="24"
   xmlns:inkscape="http://www.inkscape.org/namespaces/inkscape"
   xmlns:sodipodi="http://sodipodi.sourceforge.net/DTD/sodipodi-0.dtd"
   xmlns="http://www.w3.org/2000/svg"
   xmlns:svg="http://www.w3.org/2000/svg">
  <defs
     id="defs14">
    <linearGradient
       id="linearGradient12880"
       inkscape:swatch="solid">
      <stop
         style="stop-color:#000000;stop-opacity:1;"
         offset="0"
         id="stop12878" />
    </linearGradient>
    <linearGradient
       id="linearGradient3909"
       inkscape:swatch="solid">
      <stop
         style="stop-color:#274e90;stop-opacity:1;"
         offset="0"
         id="stop3907" />
    </linearGradient>
    <linearGradient
       id="linearGradient3890"
       inkscape:swatch="solid">
      <stop
         style="stop-color:#1a405c;stop-opacity:0.56862748;"
         offset="0"
         id="stop3888" />
    </linearGradient>
  </defs>
  <sodipodi:namedview
     id="namedview12"
     pagecolor="#ffffff"
     bordercolor="#999999"
     borderopacity="1"
     inkscape:showpageshadow="0"
     inkscape:pageopacity="0"
     inkscape:pagecheckerboard="0"
     inkscape:deskcolor="#d1d1d1"
     showgrid="false"
     inkscape:zoom="11.313709"
     inkscape:cx="15.865708"
     inkscape:cy="30.228815"
     inkscape:window-width="2560"
     inkscape:window-height="1358"
     inkscape:window-x="0"
     inkscape:window-y="28"
     inkscape:window-maximized="1"
     inkscape:current-layer="svg10" />
  <path
     d="m 3.1687784,0.55001889 c -0.117195,0 -0.118752,-0.0017 -0.118752,0.126262 V 23.331561 c 0,0.12114 -8.33e-4,0.118423 0.130796,0.118423 H 20.826415 c 0.120125,0 0.123599,1.22e-4 0.123599,-0.123751 V 7.021748 L 14.48613,0.55001889 Z"
     style="display:inline;fill:#d8f1fc;fill-opacity:1;stroke:#000000;stroke-width:0.2;stroke-dasharray:none;stroke-opacity:1"
     id="path2"
     sodipodi:nodetypes="ccssssccc" />
  <path
     d="m 15.480573,7.021748 5.469441,5.476079 V 7.021748 Z"
     style="opacity:0.99;fill-opacity:0.196;fill-rule:evenodd;stroke-width:1"
     id="path4" />
  <path
     d="M 14.48613,0.55001889 20.950014,7.021748 h -5.469441 c -0.482802,0 -0.994443,-0.512262 -0.994443,-0.99565 z"
     style="fill:#ffffff;fill-opacity:0.392;stroke-width:1"
     id="path6" />
  <path
     d="m 11.254188,6.523923 c -1.235746,0 -2.2374992,1.002969 -2.2374992,2.240214 0,0.412404 0.33392,0.746738 0.745833,0.746738 0.4119042,0 0.7458332,-0.334324 0.7458332,-0.746738 0,-0.412413 0.333919,-0.746738 0.745833,-0.746738 0.411913,0 0.745832,0.334325 0.745832,0.746738 v 0.746738 l -5.0751432,8.783132 c -0.09667,0.167299 -0.145616,0.358026 -0.145676,0.551292 -1.82e-4,0.618598 0.500901,1.120256 1.118749,1.120107 0.402998,-1.11e-4 0.782926,-0.213044 0.973063,-0.568815 L 12.00003,13.542165 v 4.182878 c 0,1.237245 1.001753,2.240214 2.237499,2.240214 1.235745,0 2.237498,-1.002969 2.237498,-2.240214 0,-0.412404 -0.333919,-0.746738 -0.745833,-0.746738 -0.411913,0 -0.745833,0.334324 -0.745833,0.746738 0,0.412413 -0.333919,0.746738 -0.745832,0.746738 -0.411904,0 -0.745833,-0.334325 -0.745833,-0.746738 V 8.764187 c 0,-1.237245 -1.001753,-2.240214 -2.237498,-2.240214 z"
     style="fill:#9b3131;fill-opacity:1;stroke-width:1"
     id="path8" />
</svg>
