<?xml version="1.0" encoding="UTF-8" standalone="no"?>
<!-- Created with Inkscape (http://www.inkscape.org/) -->

<svg
   version="1.0"
   width="64"
   height="64"
   id="svg3786"
   sodipodi:docname="drive-harddisk-root.svg"
   inkscape:version="1.2.2 (b0a8486541, 2022-12-01)"
   xmlns:inkscape="http://www.inkscape.org/namespaces/inkscape"
   xmlns:sodipodi="http://sodipodi.sourceforge.net/DTD/sodipodi-0.dtd"
   xmlns:xlink="http://www.w3.org/1999/xlink"
   xmlns="http://www.w3.org/2000/svg"
   xmlns:svg="http://www.w3.org/2000/svg">
  <sodipodi:namedview
     id="namedview63"
     pagecolor="#ffffff"
     bordercolor="#999999"
     borderopacity="1"
     inkscape:showpageshadow="0"
     inkscape:pageopacity="0"
     inkscape:pagecheckerboard="0"
     inkscape:deskcolor="#d1d1d1"
     showgrid="false"
     inkscape:zoom="2.8932292"
     inkscape:cx="99.715571"
     inkscape:cy="-33.69937"
     inkscape:window-width="2022"
     inkscape:window-height="1326"
     inkscape:window-x="598"
     inkscape:window-y="30"
     inkscape:window-maximized="0"
     inkscape:current-layer="svg3786" />
  <defs
     id="defs3788">
    <linearGradient
       id="linearGradient6310">
      <stop
         id="stop6312"
         style="stop-color:white;stop-opacity:1"
         offset="0" />
      <stop
         id="stop6314"
         style="stop-color:white;stop-opacity:0"
         offset="1" />
    </linearGradient>
    <linearGradient
       id="linearGradient5060">
      <stop
         id="stop5062"
         style="stop-color:black;stop-opacity:1"
         offset="0" />
      <stop
         id="stop5064"
         style="stop-color:black;stop-opacity:0"
         offset="1" />
    </linearGradient>
    <linearGradient
       id="linearGradient5048">
      <stop
         id="stop5050"
         style="stop-color:black;stop-opacity:0"
         offset="0" />
      <stop
         id="stop5056"
         style="stop-color:black;stop-opacity:1"
         offset="0.5" />
      <stop
         id="stop5052"
         style="stop-color:black;stop-opacity:0"
         offset="1" />
    </linearGradient>
    <linearGradient
       id="linearGradient2215">
      <stop
         id="stop2223"
         style="stop-color:#aaa;stop-opacity:1"
         offset="0" />
      <stop
         id="stop2219"
         style="stop-color:#646464;stop-opacity:1"
         offset="1" />
    </linearGradient>
    <linearGradient
       id="linearGradient3484">
      <stop
         id="stop3486"
         style="stop-color:#aaa;stop-opacity:1"
         offset="0" />
      <stop
         id="stop3488"
         style="stop-color:#c8c8c8;stop-opacity:1"
         offset="1" />
    </linearGradient>
    <linearGradient
       id="linearGradient7056">
      <stop
         id="stop7064"
         style="stop-color:#f0f0f1;stop-opacity:1"
         offset="0" />
      <stop
         id="stop7060"
         style="stop-color:#ddddde;stop-opacity:1"
         offset="1" />
    </linearGradient>
    <radialGradient
       cx="24"
       cy="42"
       r="21"
       fx="24"
       fy="42"
       id="radialGradient2857"
       xlink:href="#linearGradient6310"
       gradientUnits="userSpaceOnUse"
       gradientTransform="matrix(1.2033333,1.3553329e-7,-3.566665e-8,0.31666662,3.1200015,35.99002)" />
    <radialGradient
       cx="14.237288"
       cy="12.595277"
       r="23.000034"
       fx="14.237288"
       fy="12.595277"
       id="radialGradient2862"
       xlink:href="#linearGradient7056"
       gradientUnits="userSpaceOnUse"
       gradientTransform="matrix(1.5859423,0.8245488,-0.65727217,1.2642013,4.7146015,-11.13762)" />
    <linearGradient
       x1="17.740664"
       y1="24.050003"
       x2="11.217735"
       y2="12.883085"
       id="linearGradient2864"
       xlink:href="#linearGradient3484"
       gradientUnits="userSpaceOnUse"
       gradientTransform="matrix(1.327053,0,0,1.3739592,0.1507286,-5.6987002)" />
    <linearGradient
       x1="28.437729"
       y1="50.295818"
       x2="28.375248"
       y2="40.704182"
       id="linearGradient2868"
       xlink:href="#linearGradient2215"
       gradientUnits="userSpaceOnUse"
       gradientTransform="matrix(1.3302038,0,0,0.83197472,-6.575899,11.435172)" />
    <radialGradient
       cx="605.71429"
       cy="486.64789"
       r="117.14286"
       fx="605.71429"
       fy="486.64789"
       id="radialGradient2871"
       xlink:href="#linearGradient5060"
       gradientUnits="userSpaceOnUse"
       gradientTransform="matrix(-0.05964714,0,0,0.02738236,43.452803,39.250347)" />
    <radialGradient
       cx="605.71429"
       cy="486.64789"
       r="117.14286"
       fx="605.71429"
       fy="486.64789"
       id="radialGradient2874"
       xlink:href="#linearGradient5060"
       gradientUnits="userSpaceOnUse"
       gradientTransform="matrix(0.05964714,0,0,0.02738236,20.54721,39.250347)" />
    <linearGradient
       x1="302.85715"
       y1="366.64789"
       x2="302.85715"
       y2="609.50507"
       id="linearGradient2877"
       xlink:href="#linearGradient5048"
       gradientUnits="userSpaceOnUse"
       gradientTransform="matrix(0.1015542,0,0,0.02738236,-4.70458,39.250347)" />
  </defs>
  <rect
     width="49.036171"
     height="6.6500001"
     x="7.4818921"
     y="49.29002"
     id="rect2723"
     style="display:inline;overflow:visible;visibility:visible;opacity:0.3;fill:url(#linearGradient2877);fill-opacity:1;fill-rule:nonzero;stroke:none;stroke-width:0.665;marker:none" />
  <path
     d="m 56.494171,49.290254 c 0,0 0,6.649631 0,6.649631 3.071675,0.01252 7.425829,-1.489846 7.425829,-3.325242 0,-1.835396 -3.427756,-3.324389 -7.425829,-3.324389 z"
     id="path2725"
     style="display:inline;overflow:visible;visibility:visible;opacity:0.3;fill:url(#radialGradient2874);fill-opacity:1;fill-rule:nonzero;stroke:none;stroke-width:0.665;marker:none" />
  <path
     d="m 7.5058289,49.290254 c 0,0 0,6.649631 0,6.649631 C 4.4341406,55.952406 0.08,54.450039 0.08,52.614643 c 0,-1.835396 3.427769,-3.324389 7.4258289,-3.324389 z"
     id="path2727"
     style="display:inline;overflow:visible;visibility:visible;opacity:0.3;fill:url(#radialGradient2871);fill-opacity:1;fill-rule:nonzero;stroke:none;stroke-width:1.33;marker:none" />
  <path
     d="M 2.0749056,45.964928 H 61.925094 l -1.196688,6.650189 H 3.4046175 Z"
     id="rect6431"
     style="display:inline;fill:url(#linearGradient2868);fill-opacity:1;fill-rule:evenodd;stroke:#59595b;stroke-width:1.32981;stroke-linecap:round;stroke-linejoin:round;stroke-miterlimit:4;stroke-dasharray:none;stroke-dashoffset:0;stroke-opacity:1;enable-background:new" />
  <rect
     width="59.849998"
     height="1.33"
     x="2.0749998"
     y="45.300022"
     id="rect6381"
     style="display:inline;fill:#d2d2d3;fill-opacity:1;fill-rule:evenodd;stroke:none;stroke-width:1.33;enable-background:new" />
  <path
     d="M 61.925045,45.965068 52.8883,10.055022 C 52.674399,9.2050272 51.496495,8.7249784 50.62,8.7249784 H 13.38 c -1.07701,0 -2.700141,0.2811393 -2.944579,1.3300436 L 2.0749553,45.930587"
     id="path6345"
     style="display:inline;overflow:visible;visibility:visible;fill:url(#radialGradient2862);fill-opacity:1;fill-rule:nonzero;stroke:url(#linearGradient2864);stroke-width:1.33;stroke-linecap:round;stroke-linejoin:round;stroke-miterlimit:4;stroke-dasharray:none;stroke-dashoffset:0;stroke-opacity:1;marker:none;enable-background:accumulate" />
  <path
     d="M 60.610263,45.980283 3.38974,45.949762"
     id="path7046"
     style="display:inline;overflow:visible;visibility:visible;opacity:0.4;fill:none;stroke:#ffffff;stroke-width:1.29948;stroke-linecap:round;stroke-linejoin:miter;stroke-miterlimit:4;stroke-dasharray:none;stroke-dashoffset:0;stroke-opacity:1;marker:none;enable-background:accumulate" />
  <rect
     width="53.200001"
     height="3.325"
     rx="1"
     x="5.4000001"
     y="47.96003"
     id="rect6298"
     style="opacity:0.5;fill:#ffffff;fill-opacity:1;stroke:none;stroke-width:1.33"
     ry="1" />
  <rect
     width="55.860001"
     height="5.3200002"
     x="4.0699997"
     y="46.63002"
     id="rect6300"
     style="opacity:0.3;fill:url(#radialGradient2857);fill-opacity:1;stroke:none;stroke-width:1.33" />
  <rect
     width="53.200001"
     height="2.6600001"
     rx="1"
     x="5.4000001"
     y="47.96003"
     id="rect6287"
     style="fill:#282828;fill-opacity:1;stroke:none;stroke-width:1.33"
     ry="1" />
  <path
     d="M 60.595003,40.977521 3.4050001,40.945533"
     id="path6292"
     style="display:inline;overflow:visible;visibility:visible;fill:none;stroke:#adadad;stroke-width:0.665;stroke-linecap:round;stroke-linejoin:miter;stroke-miterlimit:4;stroke-dasharray:none;stroke-dashoffset:0;stroke-opacity:1;marker:none;enable-background:accumulate" />
  <path
     d="M 59.745496,41.657518 4.1215042,41.627527"
     id="path6294"
     style="display:inline;overflow:visible;visibility:visible;opacity:0.5;fill:none;stroke:#ffffff;stroke-width:0.635009;stroke-linecap:round;stroke-linejoin:miter;stroke-miterlimit:4;stroke-dasharray:none;stroke-dashoffset:0;stroke-opacity:1;marker:none;enable-background:accumulate" />
  <g
     transform="matrix(1.5829917,0,0,1.148121,-7.601504,-9.7906642)"
     id="g3638"
     style="fill:#464646;fill-opacity:1"
     inkscape:label="g3638          *********** SKUGGOR">
    <path
       d="m 17.800352,30.032573 c 1.9e-4,1.104675 -0.895273,2.000292 -1.999949,2.000292 -1.104675,0 -2.000138,-0.895617 -1.999949,-2.000292 -1.89e-4,-1.104675 0.895274,-2.000292 1.999949,-2.000292 1.104676,0 2.000139,0.895617 1.999949,2.000292 z"
       id="path3640"
       style="display:inline;fill:#464646;fill-opacity:1;stroke:none;enable-background:new" />
    <path
       d="m 32.800345,39.032573 c 1.89e-4,1.104672 -0.895271,2.000286 -1.999943,2.000286 -1.104671,0 -2.000132,-0.895614 -1.999942,-2.000286 -1.9e-4,-1.104672 0.895271,-2.000286 1.999942,-2.000286 1.104672,0 2.000132,0.895614 1.999943,2.000286 z"
       id="path3642"
       style="display:inline;fill:#464646;fill-opacity:1;stroke:none;enable-background:new" />
    <path
       d="m 32.800468,22.032573 c 1.89e-4,1.104739 -0.895326,2.000407 -2.000064,2.000407 -1.104739,0 -2.000254,-0.895668 -2.000065,-2.000407 -1.89e-4,-1.104739 0.895326,-2.000407 2.000065,-2.000407 1.104738,0 2.000253,0.895668 2.000064,2.000407 z"
       id="path3644"
       style="display:inline;fill:#464646;fill-opacity:1;stroke:none;enable-background:new" />
    <path
       d="m 25.800403,22.032573 c -1.156822,0 -2.24341,0.238655 -3.25,0.65625 l 2.125,3.5 c 0.361575,-0.09376 0.734237,-0.15625 1.125,-0.15625 1.952235,0 3.597923,1.260284 4.21875,3 h 4.125 c -0.229003,-1.288474 -0.725811,-2.482354 -1.46875,-3.5 -0.561079,0.300002 -1.194684,0.5 -1.875,0.5 -2.187001,0 -3.966437,-1.758442 -4,-3.9375 -0.326981,-0.03825 -0.662803,-0.0625 -1,-0.0625 z"
       id="path3646"
       style="display:inline;fill:#464646;fill-opacity:1;stroke:none;enable-background:new" />
    <path
       d="m 20.800403,23.657573 c -1.119628,0.815196 -2.045489,1.899778 -2.65625,3.15625 1.001505,0.727184 1.65625,1.887317 1.65625,3.21875 0,1.468745 -0.787886,2.74193 -1.96875,3.4375 0.585437,1.586235 1.627634,2.956748 2.96875,3.9375 l 2.09375,-3.46875 c -0.965959,-0.825574 -1.59375,-2.036934 -1.59375,-3.40625 0,-1.384982 0.639848,-2.611809 1.625,-3.4375 z"
       id="path3648"
       style="display:inline;fill:#464646;fill-opacity:1;stroke:none;enable-background:new" />
    <path
       d="m 30.269153,31.032573 c -0.173489,1.378272 -0.975312,2.670429 -2.184372,3.373193 -1.011352,0.607656 -2.271288,0.78983 -3.409378,0.470557 -0.697917,1.166667 -1.395833,2.333333 -2.09375,3.5 1.324994,0.553063 2.79191,0.776152 4.21875,0.59375 -0.0073,-1.862092 1.461217,-3.583249 3.298768,-3.876142 0.876997,-0.167523 1.798017,0.01043 2.576232,0.438642 0.837908,-1.159378 1.39715,-2.541394 1.53125,-3.967786 -0.02278,-0.164963 0.04429,-0.419769 -0.03101,-0.532214 -1.302164,0 -2.604327,0 -3.906491,0 z"
       id="path3650"
       style="display:inline;fill:#464646;fill-opacity:1;stroke:none;enable-background:new" />
  </g>
  <g
     transform="matrix(1.5829917,0,0,1.148121,-7.601504,-10.854664)"
     id="g3415"
     style="fill:#ffffff"
     inkscape:label="g3415        *********** HÖGDAGRAR">
    <path
       d="m 17.800352,30.032573 c 1.9e-4,1.104675 -0.895273,2.000292 -1.999949,2.000292 -1.104675,0 -2.000138,-0.895617 -1.999949,-2.000292 -1.89e-4,-1.104675 0.895274,-2.000292 1.999949,-2.000292 1.104676,0 2.000139,0.895617 1.999949,2.000292 z"
       id="path3417"
       style="display:inline;fill:#ffffff;fill-opacity:1;stroke:none;enable-background:new" />
    <path
       d="m 32.800345,39.032573 c 1.89e-4,1.104672 -0.895271,2.000286 -1.999943,2.000286 -1.104671,0 -2.000132,-0.895614 -1.999942,-2.000286 -1.9e-4,-1.104672 0.895271,-2.000286 1.999942,-2.000286 1.104672,0 2.000132,0.895614 1.999943,2.000286 z"
       id="path3419"
       style="display:inline;fill:#ffffff;fill-opacity:1;stroke:none;enable-background:new" />
    <path
       d="m 32.800468,22.032573 c 1.89e-4,1.104739 -0.895326,2.000407 -2.000064,2.000407 -1.104739,0 -2.000254,-0.895668 -2.000065,-2.000407 -1.89e-4,-1.104739 0.895326,-2.000407 2.000065,-2.000407 1.104738,0 2.000253,0.895668 2.000064,2.000407 z"
       id="path3421"
       style="display:inline;fill:#ffffff;fill-opacity:1;stroke:none;enable-background:new" />
    <path
       d="m 25.800403,22.032573 c -1.156822,0 -2.24341,0.238655 -3.25,0.65625 l 2.125,3.5 c 0.361575,-0.09376 0.734237,-0.15625 1.125,-0.15625 1.952235,0 3.597923,1.260284 4.21875,3 h 4.125 c -0.229003,-1.288474 -0.725811,-2.482354 -1.46875,-3.5 -0.561079,0.300002 -1.194684,0.5 -1.875,0.5 -2.187001,0 -3.966437,-1.758442 -4,-3.9375 -0.326981,-0.03825 -0.662803,-0.0625 -1,-0.0625 z"
       id="path3423"
       style="display:inline;fill:#ffffff;fill-opacity:1;stroke:none;enable-background:new" />
    <path
       d="m 20.800403,23.657573 c -1.119628,0.815196 -2.045489,1.899778 -2.65625,3.15625 1.001505,0.727184 1.65625,1.887317 1.65625,3.21875 0,1.468745 -0.787886,2.74193 -1.96875,3.4375 0.585437,1.586235 1.627634,2.956748 2.96875,3.9375 l 2.09375,-3.46875 c -0.965959,-0.825574 -1.59375,-2.036934 -1.59375,-3.40625 0,-1.384982 0.639848,-2.611809 1.625,-3.4375 z"
       id="path3425"
       style="display:inline;fill:#ffffff;fill-opacity:1;stroke:none;enable-background:new" />
    <path
       d="m 30.269153,31.032573 c -0.173489,1.378272 -0.975312,2.670429 -2.184372,3.373193 -1.011352,0.607656 -2.271288,0.78983 -3.409378,0.470557 -0.697917,1.166667 -1.395833,2.333333 -2.09375,3.5 1.324994,0.553063 2.79191,0.776152 4.21875,0.59375 -0.0073,-1.862092 1.461217,-3.583249 3.298768,-3.876142 0.876997,-0.167523 1.798017,0.01043 2.576232,0.438642 0.837908,-1.159378 1.39715,-2.541394 1.53125,-3.967786 -0.02278,-0.164963 0.04429,-0.419769 -0.03101,-0.532214 -1.302164,0 -2.604327,0 -3.906491,0 z"
       id="path3427"
       style="display:inline;fill:#ffffff;fill-opacity:1;stroke:none;enable-background:new" />
  </g>
  <g
     transform="matrix(1.5829917,0,0,1.1399624,-7.601504,-10.120893)"
     id="g3442"
     style="fill:#aaaaaa;fill-opacity:1"
     inkscape:label="g3442        *********** FÄRG">
    <path
       d="m 17.800352,30.032573 c 1.9e-4,1.104675 -0.895273,2.000292 -1.999949,2.000292 -1.104675,0 -2.000138,-0.895617 -1.999949,-2.000292 -1.89e-4,-1.104675 0.895274,-2.000292 1.999949,-2.000292 1.104676,0 2.000139,0.895617 1.999949,2.000292 z"
       id="path2313"
       style="display:inline;fill:#fd6208;fill-opacity:1;stroke:none;enable-background:new" />
    <path
       d="m 32.800345,39.032573 c 1.89e-4,1.104672 -0.895271,2.000286 -1.999943,2.000286 -1.104671,0 -2.000132,-0.895614 -1.999942,-2.000286 -1.9e-4,-1.104672 0.895271,-2.000286 1.999942,-2.000286 1.104672,0 2.000132,0.895614 1.999943,2.000286 z"
       id="path2317"
       style="display:inline;fill:#feb415;fill-opacity:1;stroke:none;enable-background:new" />
    <path
       d="m 32.800468,22.032573 c 1.89e-4,1.104739 -0.895326,2.000407 -2.000064,2.000407 -1.104739,0 -2.000254,-0.895668 -2.000065,-2.000407 -1.89e-4,-1.104739 0.895326,-2.000407 2.000065,-2.000407 1.104738,0 2.000253,0.895668 2.000064,2.000407 z"
       id="path2315"
       style="display:inline;fill:#c70015;fill-opacity:1;stroke:none;enable-background:new" />
    <path
       d="m 25.800403,22.032573 c -1.156822,0 -2.24341,0.238655 -3.25,0.65625 l 2.125,3.5 c 0.361575,-0.09376 0.734237,-0.15625 1.125,-0.15625 1.952235,0 3.597923,1.260284 4.21875,3 h 4.125 c -0.229003,-1.288474 -0.725811,-2.482354 -1.46875,-3.5 -0.561079,0.300002 -1.194684,0.5 -1.875,0.5 -2.187001,0 -3.966437,-1.758442 -4,-3.9375 -0.326981,-0.03825 -0.662803,-0.0625 -1,-0.0625 z"
       id="path6698"
       style="display:inline;fill:#fd6208;fill-opacity:1;stroke:none;enable-background:new" />
    <path
       d="m 20.800403,23.657573 c -1.119628,0.815196 -2.045489,1.899778 -2.65625,3.15625 1.001505,0.727184 1.65625,1.887317 1.65625,3.21875 0,1.468745 -0.787886,2.74193 -1.96875,3.4375 0.585437,1.586235 1.627634,2.956748 2.96875,3.9375 l 2.09375,-3.46875 c -0.965959,-0.825574 -1.59375,-2.036934 -1.59375,-3.40625 0,-1.384982 0.639848,-2.611809 1.625,-3.4375 z"
       id="path6696"
       style="display:inline;fill:#feb415;fill-opacity:1;stroke:none;enable-background:new" />
    <path
       d="m 30.269153,31.032573 c -0.173489,1.378272 -0.975312,2.670429 -2.184372,3.373193 -1.011352,0.607656 -2.271288,0.78983 -3.409378,0.470557 -0.697917,1.166667 -1.395833,2.333333 -2.09375,3.5 1.324994,0.553063 2.79191,0.776152 4.21875,0.59375 -0.0073,-1.862092 1.461217,-3.583249 3.298768,-3.876142 0.876997,-0.167523 1.798017,0.01043 2.576232,0.438642 0.837908,-1.159378 1.39715,-2.541394 1.53125,-3.967786 -0.02278,-0.164963 0.04429,-0.419769 -0.03101,-0.532214 -1.302164,0 -2.604327,0 -3.906491,0 z"
       id="path5773"
       style="display:inline;fill:#c70015;fill-opacity:1;stroke:none;enable-background:new"
       inkscape:label="path5773" />
  </g>
</svg>
