<?xml version="1.0" encoding="UTF-8" standalone="no"?>
<svg
   version="1.1"
   viewBox="0 0 24 24"
   id="svg6110"
   sodipodi:docname="color-select-symbolic24.svg"
   inkscape:version="1.2.2 (b0a8486541, 2022-12-01)"
   width="24"
   height="24"
   xmlns:inkscape="http://www.inkscape.org/namespaces/inkscape"
   xmlns:sodipodi="http://sodipodi.sourceforge.net/DTD/sodipodi-0.dtd"
   xmlns="http://www.w3.org/2000/svg"
   xmlns:svg="http://www.w3.org/2000/svg">
  <defs
     id="defs6114" />
  <sodipodi:namedview
     id="namedview6112"
     pagecolor="#ffffff"
     bordercolor="#999999"
     borderopacity="1"
     inkscape:showpageshadow="0"
     inkscape:pageopacity="0"
     inkscape:pagecheckerboard="0"
     inkscape:deskcolor="#d1d1d1"
     showgrid="false"
     inkscape:zoom="22.627417"
     inkscape:cx="1.3479223"
     inkscape:cy="11.623068"
     inkscape:window-width="2560"
     inkscape:window-height="1358"
     inkscape:window-x="0"
     inkscape:window-y="28"
     inkscape:window-maximized="1"
     inkscape:current-layer="g6108" />
  <g
     transform="translate(-132,-140)"
     id="g6108"
     style="fill:#000000;fill-opacity:1">
    <path
       d="m 153.62108,141.61692 c -0.19464,0.006 -0.37955,0.0862 -0.51563,0.22559 l -0.72948,0.72949 c -0.32238,-0.15433 -0.6769,-0.22965 -1.03419,-0.21972 -0.58434,0.017 -1.13911,0.26079 -1.5468,0.67968 l -2.70703,2.71784 -1.37297,-1.39629 c -0.1413,-0.1461 -0.1864,-0.18431 -0.39343,-0.25848 -0.54137,-0.1407 -0.95046,0.58923 -0.46605,1.05805 l 1.40919,1.40918 -9.21975,9.21975 c -0.53289,0.51373 -0.76373,1.24233 -0.65918,1.9482 l 0.15197,1.0269 -2.91644,2.92245 -0.0135,0.70389 0.63621,-0.0487 3.07544,-2.8644 0.94297,0.1525 c 0.71067,0.10875 1.44647,-0.1215 1.9629,-0.65917 l 9.21975,-9.21975 1.40918,1.40919 c 0.7069,0.73534 1.59945,-0.16887 0.86406,-0.87578 l -1.36752,-1.45963 2.62458,-2.60408 c 0.68809,-0.67315 0.8718,-1.7094 0.45702,-2.5782 l 0.73243,-0.73242 c 0.48794,-0.47701 0.1371,-1.30486 -0.54493,-1.28614 z m -6.46553,5.45292 1.76193,1.83519 -4.82277,4.75739 -3.33324,-0.23091 z"
       color="#000000"
       color-rendering="auto"
       dominant-baseline="auto"
       fill="#808080"
       image-rendering="auto"
       shape-rendering="auto"
       solid-color="#000000"
       style="font-variant-ligatures:normal;font-variant-position:normal;font-variant-caps:normal;font-variant-numeric:normal;font-variant-alternates:normal;font-feature-settings:normal;text-indent:0;text-decoration-line:none;text-decoration-style:solid;text-decoration-color:#000000;text-transform:none;text-orientation:mixed;white-space:normal;shape-padding:0;isolation:auto;mix-blend-mode:normal;fill:#000000;fill-opacity:1;stroke-width:1.5"
       id="path6106"
       sodipodi:nodetypes="ccccccccccccccccccccccccccccccccc" />
  </g>
</svg>
