<?xml version="1.0" encoding="UTF-8" standalone="no"?>
<svg
   viewBox="0 0 24 24"
   version="1.1"
   id="svg18"
   sodipodi:docname="gtk-select-color.svg"
   inkscape:version="1.2.2 (b0a8486541, 2022-12-01)"
   width="24"
   height="24"
   xmlns:inkscape="http://www.inkscape.org/namespaces/inkscape"
   xmlns:sodipodi="http://sodipodi.sourceforge.net/DTD/sodipodi-0.dtd"
   xmlns="http://www.w3.org/2000/svg"
   xmlns:svg="http://www.w3.org/2000/svg">
  <defs
     id="defs22" />
  <sodipodi:namedview
     id="namedview20"
     pagecolor="#ffffff"
     bordercolor="#999999"
     borderopacity="1"
     inkscape:showpageshadow="0"
     inkscape:pageopacity="0"
     inkscape:pagecheckerboard="0"
     inkscape:deskcolor="#d1d1d1"
     showgrid="false"
     inkscape:zoom="34.71875"
     inkscape:cx="14.847885"
     inkscape:cy="13.89739"
     inkscape:window-width="2012"
     inkscape:window-height="1317"
     inkscape:window-x="381"
     inkscape:window-y="28"
     inkscape:window-maximized="0"
     inkscape:current-layer="g16" />
  <g
     transform="matrix(0.5,0,0,0.5,2.0004159,5.99975)"
     id="g16">
    <path
       d="M 6.0895892,15.779632 C 5.8225926,14.834661 4.9466035,14.180682 3.9476159,14.180682 h -5.7254286 c -0.6674917,0 -1.2989838,0.293991 -1.7219786,0.800975 -0.4229947,0.506984 -0.5894926,1.174463 -0.4559943,1.814943 1.0124874,4.874848 3.50245638,9.260711 7.2014103,12.682104 0.4154948,0.383988 0.961488,0.593981 1.523981,0.593981 0.1064987,0 0.2159973,-0.0075 0.322496,-0.0225 0.6719916,-0.0975 1.2614842,-0.490485 1.60198,-1.067967 l 2.888964,-4.910846 C 10.06604,23.250898 9.9535411,22.218931 9.3055492,21.515453 7.8055679,19.882004 6.6865818,17.899066 6.0880893,15.779632"
       style="fill:#268bd2;fill-opacity:1;fill-rule:nonzero;stroke:none;stroke-width:1.49997"
       id="path2" />
    <path
       d="m 25.448348,26.897284 c -0.403495,-0.685478 -1.142986,-1.091965 -1.924476,-1.091965 -0.157498,0 -0.316496,0.0165 -0.475494,0.051 -1.006488,0.215993 -2.032475,0.32549 -3.049462,0.32549 -1.421982,0 -2.827465,-0.203994 -4.177448,-0.607481 -0.214497,-0.0645 -0.431995,-0.0945 -0.647992,-0.0945 -0.77849,0 -1.519481,0.401987 -1.924476,1.090466 l -2.836465,4.823849 c -0.326996,0.557983 -0.388495,1.226962 -0.164998,1.832943 0.221998,0.604481 0.706492,1.082966 1.319984,1.304959 2.687966,0.974969 5.524431,1.468454 8.431395,1.468454 2.40447,0 4.77744,-0.341989 7.052912,-1.015468 0.649492,-0.191994 1.174485,-0.665979 1.424982,-1.28546 0.250497,-0.619481 0.197998,-1.316959 -0.140998,-1.894441 l -2.887464,-4.907847"
       style="fill:#859900;fill-opacity:1;fill-rule:nonzero;stroke:none;stroke-width:1.49997"
       id="path4" />
    <path
       d="m 33.905243,8.2138683 c 0.265496,0.9479704 1.142985,1.6049499 2.143473,1.6049499 h 5.725429 c 0.667491,0 1.298983,-0.2939908 1.720478,-0.800975 0.421495,-0.5069841 0.590993,-1.1729633 0.458994,-1.8134433 -1.093486,-5.312834 -4.039449,-10.1546827 -8.294896,-13.6345739 -0.401995,-0.3284898 -0.907489,-0.5054842 -1.421983,-0.5054842 -0.130498,0 -0.259496,0.0105 -0.389995,0.032999 -0.644992,0.1124965 -1.207485,0.4994844 -1.534481,1.057467 l -2.840964,4.829849 c -0.515994,0.87897258 -0.347996,1.99043784 0.406495,2.6834162 1.936476,1.7774444 3.329958,4.0393738 4.02895,6.5427955"
       style="fill:#ee7616;fill-opacity:1;fill-rule:nonzero;stroke:none;stroke-width:1.49997"
       id="path6" />
    <path
       d="m 27.051828,-10.984032 c -2.275472,-0.673479 -4.646942,-1.015468 -7.052912,-1.015468 -2.906964,0 -5.743429,0.493485 -8.431395,1.468454 -0.614992,0.223493 -1.097986,0.7004782 -1.319984,1.3049593 -0.221997,0.6044811 -0.161998,1.2749602 0.164998,1.8329428 L 13.249,-2.5692947 c 0.404995,0.6884785 1.147486,1.0904659 1.924476,1.0904659 0.215997,0 0.433495,-0.029999 0.647992,-0.094497 1.349983,-0.4034874 2.755466,-0.607481 4.177448,-0.607481 1.016987,0 2.042974,0.1094965 3.049462,0.3254898 0.157498,0.034499 0.317996,0.050998 0.475494,0.050998 0.78149,0 1.520981,-0.4064873 1.924476,-1.0919659 l 2.887464,-4.9078466 c 0.338996,-0.577482 0.391495,-1.2749602 0.140998,-1.8944408 -0.250497,-0.6194807 -0.77549,-1.0934657 -1.424982,-1.2854597"
       style="fill:#dc322f;fill-opacity:1;fill-rule:nonzero;stroke:none;stroke-width:1.49997"
       id="path8" />
    <path
       d="m 41.777144,14.182182 h -5.725428 c -1.000488,0 -1.877977,0.656979 -2.143473,1.60495 -0.698992,2.501921 -2.092474,4.763851 -4.02895,6.542795 -0.754491,0.692979 -0.923989,1.805944 -0.406495,2.683416 l 2.840964,4.829849 c 0.326996,0.557983 0.889489,0.944971 1.534481,1.057467 0.128999,0.0225 0.259497,0.033 0.389995,0.033 0.515994,0 1.019988,-0.175494 1.421983,-0.505484 4.255447,-3.478391 7.20141,-8.32024 8.294896,-13.634574 0.131999,-0.64198 -0.036,-1.307959 -0.458994,-1.813443 -0.421495,-0.506984 -1.052987,-0.800975 -1.720478,-0.800975"
       style="fill:#ffcf38;fill-opacity:1;fill-rule:nonzero;stroke:none;stroke-width:1.49997"
       id="path10" />
    <path
       d="M 6.6970817,-4.9827193 C 6.3565859,-5.5602012 5.7670933,-5.9531889 5.0951016,-6.0506859 c -0.1079986,-0.014999 -0.2159973,-0.022499 -0.322496,-0.022499 -0.5624929,0 -1.1084861,0.2099934 -1.523981,0.5939814 -3.69895386,3.4213931 -6.1904228,7.8057561 -7.2014102,12.6821037 -0.1334983,0.64198 0.0345,1.3079592 0.4559943,1.8149433 0.4214948,0.5069842 1.0544869,0.800975 1.7219785,0.800975 h 5.7254287 c 0.9989875,0 1.8749766,-0.6539796 2.1419733,-1.5989501 C 6.6910817,6.1004344 7.8040679,4.1174963 9.3100491,2.4840474 9.958041,1.7820693 10.07054,0.74860162 9.5875456,-0.07187274 L 6.6985816,-4.9827193"
       style="fill:#3a4f7a;fill-opacity:1;fill-rule:nonzero;stroke:none;stroke-width:1.49997"
       id="path12" />
    <path
       d="M 38.792182,2.3250524 20.426411,7.1159026 c -2.345971,0.6119809 -4.645443,1.5419519 -5.090937,4.0633734 -0.469494,2.663916 1.240485,5.194337 3.815952,5.648823 1.847977,0.32549 3.292459,-0.823474 4.678442,-1.982938 z"
       style="fill:#4d4d4d;stroke:none;stroke-width:1.49997"
       id="path14" />
  </g>
</svg>
