<?xml version="1.0" encoding="UTF-8" standalone="no"?>
<!-- Created with Inkscape (http://www.inkscape.org/) -->

<svg
   version="1.0"
   width="24"
   height="24"
   id="svg2457"
   sodipodi:docname="system-run.svg"
   inkscape:version="1.2.2 (b0a8486541, 2022-12-01)"
   xmlns:inkscape="http://www.inkscape.org/namespaces/inkscape"
   xmlns:sodipodi="http://sodipodi.sourceforge.net/DTD/sodipodi-0.dtd"
   xmlns:xlink="http://www.w3.org/1999/xlink"
   xmlns="http://www.w3.org/2000/svg"
   xmlns:svg="http://www.w3.org/2000/svg">
  <sodipodi:namedview
     id="namedview9569"
     pagecolor="#ffffff"
     bordercolor="#999999"
     borderopacity="1"
     inkscape:showpageshadow="0"
     inkscape:pageopacity="0"
     inkscape:pagecheckerboard="0"
     inkscape:deskcolor="#d1d1d1"
     showgrid="false"
     inkscape:zoom="46.291667"
     inkscape:cx="15.261926"
     inkscape:cy="12.324032"
     inkscape:window-width="1688"
     inkscape:window-height="1317"
     inkscape:window-x="600"
     inkscape:window-y="42"
     inkscape:window-maximized="0"
     inkscape:current-layer="svg2457" />
  <defs
     id="defs2459">
    <linearGradient
       x1="63.9995"
       y1="3.1001"
       x2="63.9995"
       y2="122.8994"
       id="linearGradient17632"
       gradientUnits="userSpaceOnUse">
      <stop
         id="stop17628"
         style="stop-color:#ff0000;stop-opacity:1;"
         offset="0" />
      <stop
         id="stop17630"
         style="stop-color:#ff0000;stop-opacity:1;"
         offset="1" />
    </linearGradient>
    <linearGradient
       id="linearGradient17626">
      <stop
         id="stop17622"
         style="stop-color:#000000;stop-opacity:1;"
         offset="0" />
      <stop
         id="stop17624"
         style="stop-color:#000000;stop-opacity:1;"
         offset="1" />
    </linearGradient>
    <linearGradient
       id="linearGradient13757">
      <stop
         id="stop13753"
         style="stop-color:#000000;stop-opacity:1;"
         offset="0" />
      <stop
         id="stop13755"
         style="stop-color:#000000;stop-opacity:1;"
         offset="1" />
    </linearGradient>
    <linearGradient
       id="linearGradient13751">
      <stop
         id="stop13747"
         style="stop-color:#00d8ff;stop-opacity:1;"
         offset="0" />
      <stop
         id="stop13749"
         style="stop-color:#00d8ff;stop-opacity:1;"
         offset="1" />
    </linearGradient>
    <linearGradient
       x1="63.9995"
       y1="3.1001"
       x2="63.9995"
       y2="122.8994"
       id="linearGradient10827"
       gradientUnits="userSpaceOnUse">
      <stop
         id="stop10823"
         style="stop-color:#00d7ff;stop-opacity:1;"
         offset="0" />
      <stop
         id="stop10825"
         style="stop-color:#00d9ff;stop-opacity:1;"
         offset="1" />
    </linearGradient>
    <linearGradient
       id="linearGradient5128">
      <stop
         id="stop5130"
         style="stop-color:#ffff00;stop-opacity:1;"
         offset="0" />
      <stop
         id="stop5132"
         style="stop-color:#ffff00;stop-opacity:1;"
         offset="1" />
    </linearGradient>
    <linearGradient
       x1="86.132919"
       y1="105.105"
       x2="84.63858"
       y2="20.895"
       id="linearGradient3260"
       xlink:href="#linearGradient5128"
       gradientUnits="userSpaceOnUse"
       gradientTransform="matrix(0.09614231,0,0,0.09614231,1.8468935,1.9430362)" />
    <linearGradient
       id="linearGradient3397">
      <stop
         id="stop3399"
         style="stop-color:#000000;stop-opacity:1;"
         offset="0" />
      <stop
         id="stop3401"
         style="stop-color:#000000;stop-opacity:1;"
         offset="1" />
    </linearGradient>
    <linearGradient
       x1="21"
       y1="0"
       x2="21"
       y2="16.004715"
       id="linearGradient3264"
       xlink:href="#linearGradient3397"
       gradientUnits="userSpaceOnUse"
       gradientTransform="translate(-17.058189,0)" />
    <linearGradient
       x1="63.9995"
       y1="3.1001"
       x2="63.9995"
       y2="122.8994"
       id="linearGradient3309"
       gradientUnits="userSpaceOnUse">
      <stop
         id="stop3311"
         style="stop-color:#ffff00;stop-opacity:1;"
         offset="0" />
      <stop
         id="stop3313"
         style="stop-color:#ffff00;stop-opacity:1;"
         offset="1" />
    </linearGradient>
    <linearGradient
       x1="25"
       y1="0"
       x2="25"
       y2="16.000105"
       id="linearGradient3262"
       xlink:href="#linearGradient3309"
       gradientUnits="userSpaceOnUse"
       gradientTransform="translate(-17.058189,0)" />
    <linearGradient
       x1="25"
       y1="0"
       x2="25"
       y2="16.000105"
       id="linearGradient2967"
       xlink:href="#linearGradient10827"
       gradientUnits="userSpaceOnUse"
       gradientTransform="translate(-17.058189,0)" />
    <linearGradient
       x1="21"
       y1="0"
       x2="21"
       y2="16.004715"
       id="linearGradient2969"
       xlink:href="#linearGradient13757"
       gradientUnits="userSpaceOnUse"
       gradientTransform="translate(-17.058189,0)" />
    <linearGradient
       x1="86.132919"
       y1="105.105"
       x2="84.63858"
       y2="20.895"
       id="linearGradient2971"
       xlink:href="#linearGradient13751"
       gradientUnits="userSpaceOnUse"
       gradientTransform="matrix(0.09614231,0,0,0.09614231,1.8468935,1.9430362)" />
    <linearGradient
       x1="25.030451"
       y1="0.28819904"
       x2="24.795872"
       y2="15.37132"
       id="linearGradient3791"
       xlink:href="#linearGradient17632"
       gradientUnits="userSpaceOnUse"
       gradientTransform="matrix(-0.69602538,0.71801718,-0.71801718,-0.69602538,28.302469,-1.7860371)" />
    <linearGradient
       x1="21"
       y1="0"
       x2="21"
       y2="16.004715"
       id="linearGradient3793"
       xlink:href="#linearGradient17626"
       gradientUnits="userSpaceOnUse"
       gradientTransform="matrix(-0.69602538,0.71801718,-0.71801718,-0.69602538,28.302469,-1.7860371)" />
  </defs>
  <g
     transform="translate(8,7)"
     id="layer1">
    <g
       id="g2479">
      <path
         d="M 6.9375,0.5 C 6.6890831,0.5 6.5,0.68908218 6.5,0.9375 v 1.25 C 5.9460971,2.3297005 5.448836,2.5593783 4.96875,2.84375 L 4.0625,1.9375 c -0.1756569,-0.1756579 -0.449342,-0.1756579 -0.625,0 l -1.5,1.5 c -0.175657,0.1756579 -0.175657,0.4493421 0,0.625 L 2.84375,4.96875 C 2.5593789,5.4488356 2.329701,5.9460968 2.1875,6.5 h -1.25 C 0.68908301,6.5 0.5,6.6890821 0.5,6.9375 v 2.125 c 1e-8,0.2484178 0.189083,0.4375 0.4375,0.4375 h 1.25 c 0.1422009,0.553903 0.371879,1.051164 0.65625,1.53125 L 1.9375,11.9375 c -0.175657,0.175658 -0.175657,0.449342 0,0.625 l 1.5,1.5 c 0.1756579,0.175658 0.449342,0.175658 0.625,0 L 4.96875,13.15625 C 5.4488361,13.440622 5.946097,13.6703 6.5,13.8125 v 1.25 c 1e-7,0.248418 0.189083,0.4375 0.4375,0.4375 h 2.125 C 9.3109176,15.5 9.5,15.310918 9.5,15.0625 v -1.25 c 0.553903,-0.1422 1.051164,-0.371878 1.53125,-0.65625 l 0.90625,0.90625 c 0.175658,0.175658 0.449342,0.175658 0.625,0 l 1.5,-1.5 c 0.175658,-0.175658 0.175658,-0.449342 0,-0.625 L 13.15625,11.03125 C 13.440622,10.551164 13.6703,10.053903 13.8125,9.5 h 1.25 C 15.310918,9.5 15.5,9.3109174 15.5,9.0625 V 6.9375 C 15.5,6.6890822 15.310917,6.5 15.0625,6.5 h -1.25 C 13.6703,5.9460968 13.440622,5.4488356 13.15625,4.96875 L 14.0625,4.0625 c 0.175658,-0.1756579 0.175658,-0.449342 0,-0.625 l -1.5,-1.5 c -0.175658,-0.1756579 -0.449342,-0.1756579 -0.625,0 L 11.03125,2.84375 C 10.551164,2.5593783 10.053903,2.3297005 9.5,2.1875 V 1.2843427 0.9375 C 9.4999996,0.68908218 9.310918,0.5 9.0625,0.5 Z M 8,6 c 1.104,0 2,0.896 2,2 0,1.104 -0.896,2 -2,2 C 6.896,10 6,9.104 6,8 6,6.896 6.896,6 8,6 Z"
         id="path2426"
         style="display:block;overflow:visible;visibility:visible;fill:url(#linearGradient3262);fill-opacity:1;fill-rule:nonzero;stroke:url(#linearGradient3264);stroke-width:0.8;stroke-linecap:butt;stroke-linejoin:round;stroke-miterlimit:4;stroke-dasharray:none;stroke-dashoffset:0;stroke-opacity:1;marker:none;enable-background:accumulate"
         sodipodi:nodetypes="sscccsccccssssccscssccssssccssssccssssccsssscccssssssss" />
      <path
         d="M 8,3.465116 C 5.4994229,3.465116 3.4651163,5.499423 3.4651163,8 3.4651163,10.500577 5.4994229,12.534884 8,12.534884 10.500576,12.534883 12.534884,10.500577 12.534884,8 12.534884,5.499423 10.500576,3.465116 8,3.465116 z M 8,5.55814 c 1.347907,0 2.44186,1.093953 2.44186,2.44186 0,1.347907 -1.093953,2.44186 -2.44186,2.44186 C 6.652093,10.44186 5.5581395,9.347907 5.5581395,8 5.5581395,6.652093 6.652093,5.55814 8,5.55814 z"
         id="path3315"
         style="opacity:0.05;fill:#000000;fill-opacity:1;stroke:none;stroke-width:1;stroke-dasharray:none" />
      <path
         d="M 8.0000001,4 C 5.7943997,4 3.9999999,5.7944001 3.9999999,8.0000008 3.9999999,10.2056 5.7943997,12 8.0000001,12 10.2056,12 12,10.2056 12,8.0000008 12,5.7944001 10.2056,4 8.0000001,4 z"
         id="path28"
         style="fill:none;stroke:url(#linearGradient3260);stroke-width:1;stroke-miterlimit:4;stroke-dasharray:none" />
    </g>
  </g>
  <g
     transform="scale(0.75,0.75)"
     id="g2957">
    <g
       id="g2959">
      <path
         d="m 6.4309572,0.66884762 c -0.2484169,0 -0.4375,0.18908218 -0.4375,0.43749998 v 1.25 c -0.5539029,0.1422005 -1.051164,0.3718783 -1.53125,0.65625 L 3.0125976,4.5184897 c -0.2843711,0.4800856 -0.514049,0.9773468 -0.65625,1.53125 h -1.25 c -0.24841697,0 -0.43749998,0.1890821 -0.43749998,0.4375 v 3.0818031 c 1e-8,0.2484178 0.189083,0.4375002 0.43749998,0.4375002 h 1.25 c 0.1422009,0.553903 0.371879,1.051164 0.65625,1.53125 l 1.5951276,1.319757 0.3610248,0.2987 c 0.4800861,0.284372 0.4708042,0.345202 1.0247072,0.487402 v 1.25 c 1e-7,0.248418 0.189083,0.4375 0.4375,0.4375 l 3.1943682,0.05628 c 0.2484176,0 0.4374996,-0.189082 0.4374996,-0.4375 v -1.25 c 0.553903,-0.1422 0.488339,-0.259313 0.968425,-0.543685 l 2.012435,-1.618457 c 0.284372,-0.480083 0.51405,-0.977344 0.65625,-1.531247 h 1.25 c 0.248418,0 0.4375,-0.1890828 0.4375,-0.4375002 V 6.4872397 c 0,-0.2484178 -0.189083,-0.4375 -0.4375,-0.4375 h -1.25 c -0.1422,-0.5539032 -0.371878,-1.0511644 -0.65625,-1.53125 l -1.44961,-1.5058921 c -0.480086,-0.2843717 -0.977347,-0.5140495 -1.53125,-0.65625 v -1.25 c 0,-0.2484178 -0.1890816,-0.43749998 -0.4374996,-0.43749998 z M 8,5.55814 c 1.104,0 2.44186,1.33786 2.44186,2.44186 0,0.7538706 -0.6914671,1.7020615 -1.1137539,2.049069 C 9.327071,10.04992 8.430732,10.508182 8,10.44186 7.5793796,10.377095 6.5352896,10.688843 5.6819422,8.7692895 5.3654183,8.0572881 5.6290176,7.3643743 5.7125076,7.1441706 5.9986664,6.389431 7.1453528,5.55814 8,5.55814 Z"
         id="path2961"
         style="display:block;overflow:visible;visibility:visible;fill:url(#linearGradient2967);fill-opacity:1;fill-rule:nonzero;stroke:url(#linearGradient2969);stroke-width:1.06666667;stroke-linecap:butt;stroke-linejoin:round;stroke-miterlimit:4;stroke-dasharray:none;stroke-dashoffset:0;stroke-opacity:1;marker:none;enable-background:accumulate"
         sodipodi:nodetypes="ssccccsssscccccsccsccccssssccccssssssssss" />
      <path
         d="M 8,3.465116 C 5.4994229,3.465116 3.4651163,5.499423 3.4651163,8 3.4651163,10.500577 5.4994229,12.534884 8,12.534884 10.500576,12.534883 12.534884,10.500577 12.534884,8 12.534884,5.499423 10.500576,3.465116 8,3.465116 z M 8,5.55814 c 1.347907,0 2.44186,1.093953 2.44186,2.44186 0,1.347907 -1.093953,2.44186 -2.44186,2.44186 C 6.652093,10.44186 5.5581395,9.347907 5.5581395,8 5.5581395,6.652093 6.652093,5.55814 8,5.55814 z"
         id="path2963"
         style="opacity:0.05;fill:#000000;fill-opacity:1;stroke:none" />
      <path
         d="M 8.0000001,4 C 5.7943997,4 3.9999999,5.7944001 3.9999999,8.0000008 3.9999999,10.2056 5.7943997,12 8.0000001,12 9.1112127,12 10.118051,11.54453 10.843628,10.810476 11.558218,10.087537 12,9.0943877 12,8.0000008 12,7.1494506 11.733151,6.3600509 11.278777,5.7111256 10.554894,4.6772928 9.3550501,4 8.0000001,4 Z"
         id="path2965"
         style="fill:none;stroke:url(#linearGradient2971);stroke-width:1;stroke-miterlimit:4;stroke-dasharray:none"
         sodipodi:nodetypes="sssssss" />
    </g>
  </g>
  <g
     transform="matrix(0.75,0,0,0.75,-8,0)"
     id="g3781">
    <g
       transform="translate(10.666667,16.000001)"
       id="g3783">
      <path
         d="m 9.7929968,14.205525 c 0.172886,-0.178385 0.168745,-0.445737 -0.0096,-0.618642 L 8.6737095,12.266588 V 8.9937891 L 9.8467688,7.8711374 C 10.019673,7.6927699 10.015516,7.425399 9.8371688,7.2524938 L 8.7570698,6.1422726 C 8.5787018,5.9693677 8.3113307,5.9735262 8.1384258,6.1518944 L 6.9174265,7.3189965 H 6.2508847 3.6205142 L 2.4956249,6.0721948 C 2.3172541,5.8992926 2.049886,5.9034486 1.8769818,6.0818125 L 0.82407053,7.1295751 c -0.1729022,0.178371 -0.1687473,0.4457383 0.00966,0.6186431 l 1.17891727,1.3203094 0.061872,3.3121954 -1.20772967,1.12265 c -0.172903,0.178372 -0.289329,0.327547 -0.1109247,0.500452 l 1.29633757,1.18822 c 0.1783852,0.172888 0.4457385,0.168746 0.618643,-0.0097 L 3.7660112,13.985663 H 6.9990075 L 8.065359,15.20638 c 0.1783849,0.172888 0.4457377,0.168748 0.6186418,-0.0097 z"
         id="path3785"
         style="display:block;overflow:visible;visibility:visible;fill:url(#linearGradient3791);fill-opacity:1;fill-rule:nonzero;stroke:url(#linearGradient3793);stroke-width:0.8;stroke-linecap:butt;stroke-linejoin:round;stroke-miterlimit:4;stroke-dasharray:none;stroke-dashoffset:0;stroke-opacity:1;marker:none;enable-background:accumulate"
         sodipodi:nodetypes="cccccccccccccccccccccccccc" />
    </g>
  </g>
</svg>
