<?xml version="1.0" encoding="UTF-8" standalone="no"?>
<svg
   version="1.1"
   width="724"
   height="678"
   id="svg64"
   sodipodi:docname="Boo-Hoo.svg"
   inkscape:version="1.2.2 (b0a8486541, 2022-12-01)"
   xmlns:inkscape="http://www.inkscape.org/namespaces/inkscape"
   xmlns:sodipodi="http://sodipodi.sourceforge.net/DTD/sodipodi-0.dtd"
   xmlns="http://www.w3.org/2000/svg"
   xmlns:svg="http://www.w3.org/2000/svg">
  <defs
     id="defs68" />
  <sodipodi:namedview
     id="namedview66"
     pagecolor="#ffffff"
     bordercolor="#999999"
     borderopacity="1"
     inkscape:showpageshadow="0"
     inkscape:pageopacity="0"
     inkscape:pagecheckerboard="0"
     inkscape:deskcolor="#d1d1d1"
     showgrid="false"
     inkscape:zoom="1.4142136"
     inkscape:cx="231.93102"
     inkscape:cy="621.1933"
     inkscape:window-width="2560"
     inkscape:window-height="1358"
     inkscape:window-x="0"
     inkscape:window-y="28"
     inkscape:window-maximized="1"
     inkscape:current-layer="svg64" />
  <path
     d="M0 0 C8.1429229 7.77635391 15.15345977 15.92285298 21.14453125 25.45703125 C21.72775146 26.37838867 21.72775146 26.37838867 22.32275391 27.31835938 C28.79456536 37.7180564 33.59132288 48.73156298 37.14453125 60.45703125 C37.49523682 61.59946289 37.84594238 62.74189453 38.20727539 63.91894531 C39.61602754 69.69171898 39.50842736 75.52902425 39.55078125 81.44140625 C39.5621814 82.69221985 39.57358154 83.94303345 39.58532715 85.23175049 C39.60417483 87.877792 39.61799224 90.52338327 39.625 93.16943359 C39.63799003 97.15268081 39.70630495 101.13442428 39.76953125 105.1171875 C40.03437536 136.97920404 29.54604419 162.09886125 9.14453125 186.45703125 C8.55800781 187.16730469 7.97148438 187.87757813 7.3671875 188.609375 C3.32559994 193.38413037 -0.97473793 197.54623899 -5.85546875 201.45703125 C-6.3551416 201.85792969 -6.85481445 202.25882813 -7.36962891 202.671875 C-27.15041558 218.34304775 -48.97389203 227.65225769 -73.85546875 231.45703125 C-74.92796875 231.64136719 -76.00046875 231.82570313 -77.10546875 232.015625 C-97.46184945 234.41174065 -116.98115191 231.62886339 -136.37890625 225.54296875 C-138.8678887 224.76551131 -141.31761405 224.04269003 -143.85546875 223.45703125 C-143.07236328 224.40449219 -143.07236328 224.40449219 -142.2734375 225.37109375 C-140.24245232 227.83957661 -138.22184352 230.31615663 -136.20703125 232.79785156 C-135.32265497 233.8835129 -134.43476347 234.96632254 -133.54296875 236.04589844 C-106.89594234 268.34352197 -90.16312916 307.35867196 -82.85546875 348.45703125 C-82.64148438 349.62105469 -82.4275 350.78507812 -82.20703125 351.984375 C-72.30594602 414.61950114 -89.59593668 479.21466933 -126.04296875 530.45703125 C-139.14197459 547.94932506 -154.24623986 565.36119037 -171.85546875 578.45703125 C-172.49758301 578.93785156 -173.13969727 579.41867187 -173.80126953 579.9140625 C-185.85849468 588.90978664 -198.10925371 596.99274241 -211.48046875 603.89453125 C-216.112598 606.33785217 -220.21210268 609.13143946 -224.29296875 612.39453125 C-257.29322096 638.71018075 -301.65208691 644.47391941 -342.55859375 641.15673828 C-368.01826651 638.19674967 -392.78827514 629.79013878 -413.82739258 615.078125 C-419.15781412 611.42337735 -424.58812858 608.47865121 -430.41796875 605.70703125 C-487.95330005 577.58576997 -531.53816657 526.56856308 -552.78955078 466.48193359 C-561.48138898 440.87990434 -565.10829229 415.03864708 -565.16796875 388.08203125 C-565.17164459 387.29054688 -565.17532043 386.4990625 -565.17910767 385.68359375 C-565.21553211 370.67438708 -563.98552661 355.82811194 -561.10546875 341.08203125 C-560.93772949 340.21682861 -560.76999023 339.35162598 -560.59716797 338.46020508 C-558.66395901 328.92632336 -555.92355491 319.68110941 -552.85546875 310.45703125 C-552.63697266 309.78961914 -552.41847656 309.12220703 -552.19335938 308.43457031 C-542.1153389 278.15399494 -525.1290487 251.80449842 -504.85546875 227.45703125 C-505.40372314 227.62831543 -505.95197754 227.79959961 -506.5168457 227.97607422 C-543.78060621 239.55673298 -581.64134534 239.43347381 -617.00683594 221.35742188 C-621.43963566 218.94573979 -625.67052047 216.27310607 -629.85546875 213.45703125 C-631.33660156 212.48056641 -631.33660156 212.48056641 -632.84765625 211.484375 C-657.06419142 194.45404742 -677.47116913 167.29367939 -684.39710999 138.18022156 C-684.9216172 135.06403161 -685.02029586 132.09322745 -685.06420898 128.93286133 C-685.0834996 127.6299263 -685.10279022 126.32699127 -685.12266541 124.98457336 C-685.13748849 123.56524673 -685.15125939 122.14590879 -685.1640625 120.7265625 C-685.17063433 120.00340033 -685.17720615 119.28023815 -685.18397713 118.53516197 C-685.21653066 114.6954176 -685.24097294 110.85570016 -685.26049805 107.01586914 C-685.27817661 103.87449329 -685.31278012 100.73403807 -685.36303711 97.59301758 C-685.88321057 64.29771448 -685.88321057 64.29771448 -678.85546875 49.45703125 C-678.19527171 48.00120105 -677.53594882 46.54497415 -676.87744141 45.08837891 C-661.91489544 12.30076062 -633.89619415 -12.51093523 -600.3918457 -25.07836914 C-567.13339048 -37.0360855 -531.23093546 -35.08743933 -498.9765625 -21.0390625 C-487.29302452 -15.43856807 -476.83540093 -8.79084658 -466.85546875 -0.54296875 C-466.08460938 0.08609375 -465.31375 0.71515625 -464.51953125 1.36328125 C-459.80316895 5.33875905 -455.75170239 9.68254822 -451.85546875 14.45703125 C-451.08203125 15.39289062 -450.30859375 16.32875 -449.51171875 17.29296875 C-426.76177556 45.42299607 -417.23442069 81.0424746 -420.56201172 116.89306641 C-422.88435996 137.18366646 -430.08720227 155.02175636 -439.91918945 172.75561523 C-440.59050127 173.97552972 -441.2327568 175.21160734 -441.85546875 176.45703125 C-440.90929687 175.97234375 -439.963125 175.48765625 -438.98828125 174.98828125 C-409.34578949 159.90867989 -379.91484796 150.36173647 -346.85546875 146.45703125 C-345.26025391 146.2559375 -345.26025391 146.2559375 -343.6328125 146.05078125 C-293.4759206 140.73223012 -244.97252488 154.53409062 -200.85546875 177.45703125 C-201.31695312 176.90660156 -201.7784375 176.35617188 -202.25390625 175.7890625 C-223.1723911 149.12419545 -229.96414656 113.40373218 -226.03027344 80.3215332 C-224.67581428 70.3136864 -222.3283841 60.92956383 -218.85546875 51.45703125 C-218.48679687 50.43738281 -218.118125 49.41773437 -217.73828125 48.3671875 C-207.63811979 22.42022099 -188.71431528 -1.07946924 -164.85546875 -15.54296875 C-163.80746094 -16.21328125 -162.75945313 -16.88359375 -161.6796875 -17.57421875 C-110.41571 -48.89885835 -43.50354259 -40.45600896 0 0 Z M-373.546875 279.06640625 C-386.94544296 303.91588066 -386.74017081 337.34488507 -379.0546875 363.97265625 C-376.43393847 371.58734074 -373.3623577 379.39611762 -366.85546875 384.45703125 C-366.19546875 384.45703125 -365.53546875 384.45703125 -364.85546875 384.45703125 C-366.51516574 387.77642522 -370.15950394 388.62062315 -373.41796875 390.08203125 C-374.12888672 390.406875 -374.83980469 390.73171875 -375.57226562 391.06640625 C-377.33076127 391.86894118 -379.09279242 392.66372084 -380.85546875 393.45703125 C-380.85546875 393.78703125 -380.85546875 394.11703125 -380.85546875 394.45703125 C-376.52709757 394.67658631 -373.81578737 394.26071104 -369.98046875 392.26953125 C-365.334235 390.03832486 -360.7020349 388.30136854 -355.79296875 386.76953125 C-355.15697754 386.56755127 -354.52098633 386.36557129 -353.86572266 386.1574707 C-345.02923467 383.45574764 -336.3312373 382.11699632 -327.10546875 381.76953125 C-326.13810791 381.73263184 -325.17074707 381.69573242 -324.17407227 381.65771484 C-305.37666463 381.04562593 -286.98037954 383.77868189 -270.00439453 392.22119141 C-266.09991825 394.12950551 -263.19680464 394.79505893 -258.85546875 394.45703125 C-262.51549072 391.40701294 -267.93398346 387.45703125 -272.85546875 387.45703125 C-272.85546875 386.79703125 -272.85546875 386.13703125 -272.85546875 385.45703125 C-272.15421875 385.29203125 -271.45296875 385.12703125 -270.73046875 384.95703125 C-262.29296212 380.55485388 -259.00461719 370.1080801 -256.25244141 361.59082031 C-248.9515583 337.46980274 -250.03803666 305.96459745 -260.5 282.98046875 C-263.37572414 277.62681516 -266.63825418 272.73363703 -271.85546875 269.45703125 C-276.24576353 268.57098994 -279.95533414 269.06873789 -284.04296875 270.83203125 C-296.65172012 282.6001992 -300.17294997 302.52967222 -300.98120117 319.02270508 C-301.63500719 341.6336685 -299.6908746 363.20392248 -286.85546875 382.45703125 C-287.77328125 382.25207031 -288.69109375 382.04710937 -289.63671875 381.8359375 C-290.86390625 381.56652344 -292.09109375 381.29710937 -293.35546875 381.01953125 C-294.56203125 380.75269531 -295.76859375 380.48585938 -297.01171875 380.2109375 C-304.54526589 378.73332104 -311.75909347 378.26351222 -319.41796875 378.26953125 C-320.37799805 378.26961182 -321.33802734 378.26969238 -322.32714844 378.26977539 C-335.43871897 378.09171439 -335.43871897 378.09171439 -347.85546875 381.45703125 C-347.3965625 380.62042969 -346.93765625 379.78382813 -346.46484375 378.921875 C-332.37063114 352.1843246 -331.56330893 320.09363521 -339.66796875 291.26953125 C-342.49215339 283.0109307 -346.78395932 273.72340052 -354.85546875 269.45703125 C-363.53907567 267.02750224 -369.03309249 272.10288034 -373.546875 279.06640625 Z "
     fill="#02FDFD"
     transform="translate(684.85546875,36.54296875)"
     id="path2" />
  <path
     d="m 0,0 c 8.1429229,7.7763539 15.15346,15.922853 21.144531,25.457031 l 1.178223,1.861328 c 6.471811,10.399697 11.268569,21.413204 14.821777,33.138672 l 1.062744,3.461914 c 1.408753,5.772774 1.301152,11.610079 1.343506,17.522461 l 0.03455,3.790344 c 0.01885,2.646042 0.03267,5.291633 0.03967,7.937684 0.01299,3.983247 0.08131,7.964986 0.144531,11.947756 0.264844,31.86201 -10.223487,56.98167 -30.6249997,81.33984 l -1.7773438,2.15234 c -4.0415876,4.77476 -8.34192543,8.93687 -13.2226562,12.84766 l -1.5141602,1.21484 c -19.7807871,15.67118 -41.6042631,24.98039 -66.4858401,28.78516 l -3.25,0.55859 c -20.35638,2.39612 -39.875682,-0.38676 -59.273442,-6.47265 -2.48898,-0.77746 -4.9387,-1.50028 -7.47656,-2.08594 l 1.58203,1.91406 c 2.03099,2.46849 4.0516,4.94507 6.06641,7.42676 0.88438,1.08566 1.77227,2.16847 2.66406,3.24805 26.64703,32.29762 43.379842,71.31277 50.687502,112.41113 l 0.648438,3.52734 c 9.901085,62.63513 -7.388906,127.2303 -43.83594,178.47266 -13.099,17.4923 -28.20327,34.90416 -45.8125,48 l -1.9458,1.45703 c -12.05722,8.99573 -24.71218,17.41623 -38.0834,24.31802 -4.63213,2.44332 -7.14282,3.8974 -12.4083,8.16245 -33.00025,26.31565 -77.35912,32.07939 -118.26562,28.76221 -25.45968,-2.95999 -50.22969,-11.3666 -71.2688,-26.07862 -5.33042,-3.65474 -10.76074,-6.59947 -16.59058,-9.37109 -57.53533,-28.12126 -101.1202,-79.13847 -122.37158,-139.2251 -8.69184,-25.60203 -12.31874,-51.44328 -12.37842,-78.3999 l -0.0111,-2.39844 c -0.0364,-15.0092 1.19358,-29.85548 4.07364,-44.60156 l 0.5083,-2.62182 c 1.93321,-9.53389 4.67362,-18.7791 7.7417,-28.00318 l 0.66211,-2.02246 c 10.07802,-30.28058 27.06431,-56.63007 47.33789,-80.97754 l -1.66138,0.51904 c -37.26376,11.58066 -75.1245,11.4574 -110.48999,-6.61865 -4.4328,-2.41168 -8.66368,-5.08431 -12.84863,-7.90039 l -2.99219,-1.97266 c -24.21653,-17.03032 -44.62351,-44.19069 -51.54945,-73.30415 -0.52451,-3.11619 -0.62319,-6.08699 -0.6671,-9.24736 l -0.0585,-3.94829 c -0.0148,-1.41932 -0.0286,-2.83866 -0.0414,-4.25801 l -0.0199,-2.1914 c -0.0326,-3.83974 -0.057,-7.67946 -0.0765,-11.51929 -0.0177,-3.14138 -0.0523,-6.28183 -0.10254,-9.422852 -0.52017,-33.295304 -0.52017,-33.295304 6.50757,-48.135987 0.6602,-1.45583 1.31952,-2.912057 1.97803,-4.368652 14.96254,-32.787618 42.98125,-57.599314 76.48559,-70.166748 33.25846,-11.957716 69.16091,-10.00907 101.41529,4.039307 11.68354,5.600494 22.14116,12.2482154 32.12109,20.49609325 l 2.33594,1.90624995 c 4.71636,3.9754778 8.76783,8.319267 12.66406,13.0937498 l 2.34375,2.835938 c 22.74994,28.130027 32.2773,63.749506 28.94971,99.600101 -2.32235,20.2906 -9.52519,38.12869 -19.35718,55.86255 -0.67131,1.21991 -1.31357,2.45599 -1.93628,3.70141 l 2.86719,-1.46875 c 29.64249,-15.0796 59.07343,-24.62654 92.13281,-28.53125 l 3.22266,-0.40625 c 50.15689,-5.31855 98.66029,8.48331 142.77734,31.40625 l -1.39844,-1.66797 c -20.91848,-26.66486 -27.71024,-62.38533 -23.77636,-95.467527 1.35446,-10.007847 3.70189,-19.391969 7.1748,-28.864502 l 1.11719,-3.089844 c 10.10016,-25.946966 29.02396,-49.4466562 52.88281,-63.910156 l 3.17578,-2.03125 C -110.41571,-48.898858 -43.503543,-40.456009 0,0 Z m -469.15625,204.47266 c -7.492,8.74927 -13.99717,17.96404 -19.69922,27.98437 l -1.80469,3.15625 c -9.3195,17.39641 -13.42865,36.4575 -16.19531,55.84375 l -0.58594,3.8125 c -3.08205,25.82282 0.39431,52.61262 8.58594,77.1875 l -1.58203,-1.17187 c -10.51278,-7.43812 -20.45114,-10.426 -33.41797,-8.82813 -8.93513,2.64519 -17.00926,9.33402 -21.9375,17.1875 -10.18164,20.78605 -2.41772,53.67233 4.2461,74.33203 2.36735,6.90548 4.98006,13.7038 7.6914,20.48047 l 0.9292,2.39844 c 11.34659,29.19051 30.44391,56.12254 52.0708,78.60156 l 1.81738,1.8999 c 8.8414,9.19515 17.90123,17.55178 28.18262,25.1001 1.12895,0.84761 2.25785,1.69526 3.38672,2.54297 7.77082,5.75571 16.16849,10.61061 24.55584,15.41524 3.99206,2.32026 5.77905,2.96087 10.05744,5.04179 l 2.5,1.25 3.5,1.75 2.00391,0.91406 c 4.57971,2.13778 7.39733,4.48718 10.99609,8.08594 3.21752,2.21938 6.56942,4.13058 10,6 l 2.32031,1.28125 c 9.48223,4.922 16.876,7.02197 26.51581,9.39127 2.07202,0.58496 3.85059,0.9265 6.16388,1.32748 1.76291,0.37298 3.53592,0.69881 5.3125,1 l 2.86328,0.5 c 43.13376,5.63955 87.26727,0.2117 122.82032,-26.10937 2.46478,-1.96157 4.49097,-3.85743 6.5664,-6.20313 2.80473,-3.01352 5.43447,-4.09382 9.3125,-5.4375 19.11421,-6.70096 35.73237,-21.89663 50.125,-35.75 l 1.75537,-1.67285 c 8.58129,-8.20859 16.1939,-16.77663 23.24463,-26.32715 l 1.44092,-1.92724 c 1.42632,-1.91241 2.83937,-3.83375 4.24658,-5.76026 l 1.31738,-1.7832 c 2.48049,-3.40803 2.60437,-3.3057 4.74338,-7.16454 l 0.25174,-0.36476 c 14.40836,-23.70893 24.886579,-48.49372 33.000001,-75 l 0.660645,-2.15405 c 5.727115,-19.28198 2.867597,-40.84675 -6.527832,-58.35767 -3.159894,-5.42354 -6.906564,-9.6779 -12.132814,-13.23828 l -2.5,-1.73437 c -6.7363,-4.08388 -12.93673,-4.36174 -20.5625,-2.89063 -7.30608,2.06666 -12.46449,7.50418 -16.9375,13.375 0.93912,-2.81735 1.94524,-5.60011 2.96094,-8.39062 15.15416,-42.5556 14.07424,-89.55366 -5.34766,-130.82813 -11.2675,-22.76253 -28.18784,-44.67306 -51.61328,-55.78125 l -3.17187,-1.52344 c -19.38987,-8.83316 -42.67744,-11.41919 -63.03907,-4.01953 -1.26732,0.50363 -2.53049,1.01786 -3.78906,1.54297 l -1.87598,0.77881 c -8.95673,3.84974 -16.60871,9.06549 -24.12402,15.22119 l -2.42969,1.96484 c -5.9707,5.05135 -10.79605,10.86122 -15.57031,17.03516 l -1.75781,2.20313 c -1.43174,1.70699 -1.43174,1.70699 -1.24219,3.79687 h -3 l -0.79687,-1.73047 c -2.19215,-4.13518 -5.27918,-7.63317 -8.20313,-11.26953 l -1.40625,-1.82422 c -13.22994,-16.49897 -35.6523,-28.6049 -56.59375,-31.17578 -30.6857,-1.41503 -56.82611,7.29683 -78.30078,30.01563 z"
     fill="#7f7f7f"
     transform="translate(684.85547,36.542969)"
     id="path4"
     sodipodi:nodetypes="ccccccccccccccccccccccccccccccccccccccccccccccccccccccccccccccccccccccccccccccccccccccccccccccccccccccccccccccccccccccccccccccccccccccc"
     style="display:inline;fill:#9d9d9d;fill-opacity:1" />
  <path
     d="M 0,0 H 1 L 1.4396973,1.5944824 C 9.8859907,34.758941 9.8859907,34.758941 25.488281,64.878906 27.188813,67.264924 28.67276,69.742224 30.1875,72.25 c 3.94386,6.224856 8.608679,11.704408 13.467773,17.22168 1.231332,1.399443 2.448911,2.810957 3.665039,4.223632 C 61.106103,109.45756 77.818499,121.77949 96,132 l 1.854492,1.06201 c 8.763008,4.99921 17.585848,8.84228 27.103758,12.18628 2.31148,0.85102 4.57826,1.7905 6.85425,2.73218 5.19748,2.09403 10.46333,3.64597 15.875,5.08203 l 2.91699,0.78027 c 20.3931,5.37593 40.49945,7.39303 61.52051,7.78223 1.74871,0.0383 3.49741,0.0774 5.24609,0.11719 4.20951,0.0943 7.19621,-0.13835 11.32967,-0.32895 l 2.59614,-0.1329 1.66482,-0.11276 L 234,161 l 1.87671,-0.22778 c 2.85486,-0.35204 5.70774,-0.71829 8.56079,-1.08472 l 2.95117,-0.35742 c 5.4611,-0.71232 10.4266,-1.76943 15.60718,-3.63648 2.80758,-0.97165 5.65057,-1.51759 8.56665,-2.0686 10.42003,-2.15392 20.77627,-5.10217 30.40625,-9.68359 2.10371,-0.97499 4.23075,-1.7655 6.40625,-2.56641 C 321.31245,136.24045 333.72973,129.13252 345,121 l 2.9375,-2.10937 C 372.22334,101.05571 391.16719,79.866042 405,53 l 1.41406,-2.5 C 414.66684,35.318417 419.24767,17.786735 423,1 h 1 c 0.69375,10.907238 -1.26538,20.509871 -4,31 l -0.56738,2.222168 c -2.53868,9.788585 -5.87933,18.852498 -10.46143,27.866699 -0.65457,1.288078 -1.30057,2.58054 -1.93848,3.876953 C 398.4036,83.496503 387.37599,99.895148 375,115 l -1.34961,1.65723 c -6.97941,8.50525 -14.52368,16.41462 -22.27539,24.21777 l -2.60083,2.62891 C 342.82548,149.4237 336.56209,154.77513 330,160 c -1.54259,1.26971 -3.0844,2.54037 -4.625,3.8125 -25.05354,20.02135 -28.36021,20.86969 -44.22764,30.38874 l -14.9388,6.06777 c -8.7797,2.77513 -17.87324,6.58227 -27.1683,8.32262 -2.69839,0.69642 -3.03453,0.63626 -5.02103,1.02477 C 217.62898,212.79012 199.31451,212.46843 183,208 c -1.30393,-0.31951 -2.60865,-0.63581 -3.91406,-0.94922 C 172.02312,205.3014 165.58306,203.07372 159,200 l -3.02051,-1.39575 C 142.81611,192.48117 129.8706,186.42429 118,178 l -2.62891,-1.78906 C 112.88722,174.50838 110.439,172.76618 108,171 l -2.92969,-2.11719 c -5.779691,-4.2502 -11.25777,-8.67333 -16.523435,-13.54687 -2.045344,-1.87595 -4.118957,-3.69119 -6.222656,-5.5 C 70.280459,139.32333 58.649116,127.76461 49,115 48.004439,113.74204 47.006872,112.48566 46.007812,111.23047 21.945893,80.744146 -2.0599538,40.283541 0,0 Z"
     fill="#080808"
     transform="translate(152,436)"
     id="path6"
     sodipodi:nodetypes="ccccccccccccccccccccccccccccccccccccccccccccccccccccccccccc"
     style="display:inline" />
  <path
     d="m 0,0 c 8.0155468,6.7694827 14.298619,15.450345 15.386719,26.128906 0.133832,11.830786 -2.665947,19.754803 -10.3359378,28.703125 -0.4434375,0.572344 -0.886875,1.144688 -1.3437499,1.734375 -3.90186412,4.524502 -8.7140574,7.212126 -13.9062503,10.015625 -0.690696,0.37697 -1.381391,0.753941 -2.093017,1.142334 -10.036994,5.194432 -19.682177,6.646233 -30.906983,6.545166 -1.188596,-0.0083 -2.377192,-0.0166 -3.601806,-0.02515 -17.775267,-0.341202 -31.856682,-5.709994 -44.952881,-18.006104 -3.431072,-3.760748 -5.886547,-7.890116 -8.195313,-12.40625 -0.346191,-0.620119 -0.692391,-1.240239 -1.049071,-1.87915 -2.99226,-6.673611 -1.93174,-17.316618 -0.14624,-24.241944 5.880459,-12.673405 18.0197,-22.6197433 30.757811,-27.753906 2.13487,-0.74072 4.280255,-1.452222 6.4375,-2.125 0.773438,-0.246211 1.546875,-0.492422 2.34375,-0.746094 C -40.229176,-18.371039 -17.482162,-12.851125 0,0 Z"
     fill="#b2825b"
     transform="translate(405.94922,451.16797)"
     id="path8"
     style="display:inline" />
  <path
     d="m 0,0 c 3.2399477,1.8704303 5.9889038,3.8216093 8.375,6.75 3.261562,-1.3887941 4.73894,-2.9061705 6.9375,-5.625 4.658307,-4.2348246 9.507734,-4.0197679 15.5,-4 l 2.70874,0.00537 C 42.214957,-2.6065453 51.83606,-0.37630914 58.4375,5.625 L 60.375,7.75 63,10.125 c 3.560244,3.935007 4.375,6.922768 4.375,12.1875 -1.248582,4.291999 -3.342256,6.111995 -7,8.4375 -3.259974,1.469724 -6.577527,2.674374 -9.978297,3.772123 l -2.606132,0.925767 c -1.697084,0.568676 -3.363018,1.183935 -5.130186,1.662637 -1.815045,0.595081 -3.658432,1.129847 -5.45726,1.772285 C 15.874094,45.42293 -18.347923,44.491982 -38.625,34.75 c -7.508746,-4.508746 -7.508746,-4.508746 -10,-7 -0.577498,-4.496911 -0.479462,-8.041076 1.5625,-12.125 l 2.4375,-2.875 1.402344,-1.710937 C -33.11501,-0.27952407 -14.205595,-6.849879 0,0 Z"
     fill="#fc0606"
     transform="translate(357.625,602.25)"
     id="path12"
     sodipodi:nodetypes="cccccccccccccccccccc" />
  <path
     d="M0 0 C0.33 0 0.66 0 1 0 C1.0272616 2.04159095 1.04651345 4.08328963 1.0625 6.125 C1.07410156 7.26195312 1.08570313 8.39890625 1.09765625 9.5703125 C1.005327 12.8129156 0.61389906 15.81932612 0 19 C-0.99 18.34 -1.98 17.68 -3 17 C-2.25339288 11.27601207 -1.17122859 5.65146223 0 0 Z "
     fill="#1E1E1E"
     transform="translate(575,437)"
     id="path40" />
</svg>
