<?xml version="1.0" encoding="UTF-8"?>
<svg version="1.1" xmlns="http://www.w3.org/2000/svg" width="724" height="678">
<path d="M0 0 C8.1429229 7.77635391 15.15345977 15.92285298 21.14453125 25.45703125 C21.72775146 26.37838867 21.72775146 26.37838867 22.32275391 27.31835938 C28.79456536 37.7180564 33.59132288 48.73156298 37.14453125 60.45703125 C37.49523682 61.59946289 37.84594238 62.74189453 38.20727539 63.91894531 C39.61602754 69.69171898 39.50842736 75.52902425 39.55078125 81.44140625 C39.5621814 82.69221985 39.57358154 83.94303345 39.58532715 85.23175049 C39.60417483 87.877792 39.61799224 90.52338327 39.625 93.16943359 C39.63799003 97.15268081 39.70630495 101.13442428 39.76953125 105.1171875 C40.03437536 136.97920404 29.54604419 162.09886125 9.14453125 186.45703125 C8.55800781 187.16730469 7.97148438 187.87757813 7.3671875 188.609375 C3.32559994 193.38413037 -0.97473793 197.54623899 -5.85546875 201.45703125 C-6.3551416 201.85792969 -6.85481445 202.25882813 -7.36962891 202.671875 C-27.15041558 218.34304775 -48.97389203 227.65225769 -73.85546875 231.45703125 C-74.92796875 231.64136719 -76.00046875 231.82570313 -77.10546875 232.015625 C-97.46184945 234.41174065 -116.98115191 231.62886339 -136.37890625 225.54296875 C-138.8678887 224.76551131 -141.31761405 224.04269003 -143.85546875 223.45703125 C-143.07236328 224.40449219 -143.07236328 224.40449219 -142.2734375 225.37109375 C-140.24245232 227.83957661 -138.22184352 230.31615663 -136.20703125 232.79785156 C-135.32265497 233.8835129 -134.43476347 234.96632254 -133.54296875 236.04589844 C-106.89594234 268.34352197 -90.16312916 307.35867196 -82.85546875 348.45703125 C-82.64148438 349.62105469 -82.4275 350.78507812 -82.20703125 351.984375 C-72.30594602 414.61950114 -89.59593668 479.21466933 -126.04296875 530.45703125 C-139.14197459 547.94932506 -154.24623986 565.36119037 -171.85546875 578.45703125 C-172.49758301 578.93785156 -173.13969727 579.41867187 -173.80126953 579.9140625 C-185.85849468 588.90978664 -198.10925371 596.99274241 -211.48046875 603.89453125 C-216.112598 606.33785217 -220.21210268 609.13143946 -224.29296875 612.39453125 C-257.29322096 638.71018075 -301.65208691 644.47391941 -342.55859375 641.15673828 C-368.01826651 638.19674967 -392.78827514 629.79013878 -413.82739258 615.078125 C-419.15781412 611.42337735 -424.58812858 608.47865121 -430.41796875 605.70703125 C-487.95330005 577.58576997 -531.53816657 526.56856308 -552.78955078 466.48193359 C-561.48138898 440.87990434 -565.10829229 415.03864708 -565.16796875 388.08203125 C-565.17164459 387.29054688 -565.17532043 386.4990625 -565.17910767 385.68359375 C-565.21553211 370.67438708 -563.98552661 355.82811194 -561.10546875 341.08203125 C-560.93772949 340.21682861 -560.76999023 339.35162598 -560.59716797 338.46020508 C-558.66395901 328.92632336 -555.92355491 319.68110941 -552.85546875 310.45703125 C-552.63697266 309.78961914 -552.41847656 309.12220703 -552.19335938 308.43457031 C-542.1153389 278.15399494 -525.1290487 251.80449842 -504.85546875 227.45703125 C-505.40372314 227.62831543 -505.95197754 227.79959961 -506.5168457 227.97607422 C-543.78060621 239.55673298 -581.64134534 239.43347381 -617.00683594 221.35742188 C-621.43963566 218.94573979 -625.67052047 216.27310607 -629.85546875 213.45703125 C-631.33660156 212.48056641 -631.33660156 212.48056641 -632.84765625 211.484375 C-657.06419142 194.45404742 -677.47116913 167.29367939 -684.39710999 138.18022156 C-684.9216172 135.06403161 -685.02029586 132.09322745 -685.06420898 128.93286133 C-685.0834996 127.6299263 -685.10279022 126.32699127 -685.12266541 124.98457336 C-685.13748849 123.56524673 -685.15125939 122.14590879 -685.1640625 120.7265625 C-685.17063433 120.00340033 -685.17720615 119.28023815 -685.18397713 118.53516197 C-685.21653066 114.6954176 -685.24097294 110.85570016 -685.26049805 107.01586914 C-685.27817661 103.87449329 -685.31278012 100.73403807 -685.36303711 97.59301758 C-685.88321057 64.29771448 -685.88321057 64.29771448 -678.85546875 49.45703125 C-678.19527171 48.00120105 -677.53594882 46.54497415 -676.87744141 45.08837891 C-661.91489544 12.30076062 -633.89619415 -12.51093523 -600.3918457 -25.07836914 C-567.13339048 -37.0360855 -531.23093546 -35.08743933 -498.9765625 -21.0390625 C-487.29302452 -15.43856807 -476.83540093 -8.79084658 -466.85546875 -0.54296875 C-466.08460938 0.08609375 -465.31375 0.71515625 -464.51953125 1.36328125 C-459.80316895 5.33875905 -455.75170239 9.68254822 -451.85546875 14.45703125 C-451.08203125 15.39289062 -450.30859375 16.32875 -449.51171875 17.29296875 C-426.76177556 45.42299607 -417.23442069 81.0424746 -420.56201172 116.89306641 C-422.88435996 137.18366646 -430.08720227 155.02175636 -439.91918945 172.75561523 C-440.59050127 173.97552972 -441.2327568 175.21160734 -441.85546875 176.45703125 C-440.90929687 175.97234375 -439.963125 175.48765625 -438.98828125 174.98828125 C-409.34578949 159.90867989 -379.91484796 150.36173647 -346.85546875 146.45703125 C-345.26025391 146.2559375 -345.26025391 146.2559375 -343.6328125 146.05078125 C-293.4759206 140.73223012 -244.97252488 154.53409062 -200.85546875 177.45703125 C-201.31695312 176.90660156 -201.7784375 176.35617188 -202.25390625 175.7890625 C-223.1723911 149.12419545 -229.96414656 113.40373218 -226.03027344 80.3215332 C-224.67581428 70.3136864 -222.3283841 60.92956383 -218.85546875 51.45703125 C-218.48679687 50.43738281 -218.118125 49.41773437 -217.73828125 48.3671875 C-207.63811979 22.42022099 -188.71431528 -1.07946924 -164.85546875 -15.54296875 C-163.80746094 -16.21328125 -162.75945313 -16.88359375 -161.6796875 -17.57421875 C-110.41571 -48.89885835 -43.50354259 -40.45600896 0 0 Z M-373.546875 279.06640625 C-386.94544296 303.91588066 -386.74017081 337.34488507 -379.0546875 363.97265625 C-376.43393847 371.58734074 -373.3623577 379.39611762 -366.85546875 384.45703125 C-366.19546875 384.45703125 -365.53546875 384.45703125 -364.85546875 384.45703125 C-366.51516574 387.77642522 -370.15950394 388.62062315 -373.41796875 390.08203125 C-374.12888672 390.406875 -374.83980469 390.73171875 -375.57226562 391.06640625 C-377.33076127 391.86894118 -379.09279242 392.66372084 -380.85546875 393.45703125 C-380.85546875 393.78703125 -380.85546875 394.11703125 -380.85546875 394.45703125 C-376.52709757 394.67658631 -373.81578737 394.26071104 -369.98046875 392.26953125 C-365.334235 390.03832486 -360.7020349 388.30136854 -355.79296875 386.76953125 C-355.15697754 386.56755127 -354.52098633 386.36557129 -353.86572266 386.1574707 C-345.02923467 383.45574764 -336.3312373 382.11699632 -327.10546875 381.76953125 C-326.13810791 381.73263184 -325.17074707 381.69573242 -324.17407227 381.65771484 C-305.37666463 381.04562593 -286.98037954 383.77868189 -270.00439453 392.22119141 C-266.09991825 394.12950551 -263.19680464 394.79505893 -258.85546875 394.45703125 C-262.51549072 391.40701294 -267.93398346 387.45703125 -272.85546875 387.45703125 C-272.85546875 386.79703125 -272.85546875 386.13703125 -272.85546875 385.45703125 C-272.15421875 385.29203125 -271.45296875 385.12703125 -270.73046875 384.95703125 C-262.29296212 380.55485388 -259.00461719 370.1080801 -256.25244141 361.59082031 C-248.9515583 337.46980274 -250.03803666 305.96459745 -260.5 282.98046875 C-263.37572414 277.62681516 -266.63825418 272.73363703 -271.85546875 269.45703125 C-276.24576353 268.57098994 -279.95533414 269.06873789 -284.04296875 270.83203125 C-296.65172012 282.6001992 -300.17294997 302.52967222 -300.98120117 319.02270508 C-301.63500719 341.6336685 -299.6908746 363.20392248 -286.85546875 382.45703125 C-287.77328125 382.25207031 -288.69109375 382.04710937 -289.63671875 381.8359375 C-290.86390625 381.56652344 -292.09109375 381.29710937 -293.35546875 381.01953125 C-294.56203125 380.75269531 -295.76859375 380.48585938 -297.01171875 380.2109375 C-304.54526589 378.73332104 -311.75909347 378.26351222 -319.41796875 378.26953125 C-320.37799805 378.26961182 -321.33802734 378.26969238 -322.32714844 378.26977539 C-335.43871897 378.09171439 -335.43871897 378.09171439 -347.85546875 381.45703125 C-347.3965625 380.62042969 -346.93765625 379.78382813 -346.46484375 378.921875 C-332.37063114 352.1843246 -331.56330893 320.09363521 -339.66796875 291.26953125 C-342.49215339 283.0109307 -346.78395932 273.72340052 -354.85546875 269.45703125 C-363.53907567 267.02750224 -369.03309249 272.10288034 -373.546875 279.06640625 Z " fill="#02FDFD" transform="translate(684.85546875,36.54296875)"/>
<path d="M0 0 C8.1429229 7.77635391 15.15345977 15.92285298 21.14453125 25.45703125 C21.72775146 26.37838867 21.72775146 26.37838867 22.32275391 27.31835938 C28.79456536 37.7180564 33.59132288 48.73156298 37.14453125 60.45703125 C37.49523682 61.59946289 37.84594238 62.74189453 38.20727539 63.91894531 C39.61602754 69.69171898 39.50842736 75.52902425 39.55078125 81.44140625 C39.5621814 82.69221985 39.57358154 83.94303345 39.58532715 85.23175049 C39.60417483 87.877792 39.61799224 90.52338327 39.625 93.16943359 C39.63799003 97.15268081 39.70630495 101.13442428 39.76953125 105.1171875 C40.03437536 136.97920404 29.54604419 162.09886125 9.14453125 186.45703125 C8.55800781 187.16730469 7.97148438 187.87757813 7.3671875 188.609375 C3.32559994 193.38413037 -0.97473793 197.54623899 -5.85546875 201.45703125 C-6.3551416 201.85792969 -6.85481445 202.25882813 -7.36962891 202.671875 C-27.15041558 218.34304775 -48.97389203 227.65225769 -73.85546875 231.45703125 C-74.92796875 231.64136719 -76.00046875 231.82570313 -77.10546875 232.015625 C-97.46184945 234.41174065 -116.98115191 231.62886339 -136.37890625 225.54296875 C-138.8678887 224.76551131 -141.31761405 224.04269003 -143.85546875 223.45703125 C-143.07236328 224.40449219 -143.07236328 224.40449219 -142.2734375 225.37109375 C-140.24245232 227.83957661 -138.22184352 230.31615663 -136.20703125 232.79785156 C-135.32265497 233.8835129 -134.43476347 234.96632254 -133.54296875 236.04589844 C-106.89594234 268.34352197 -90.16312916 307.35867196 -82.85546875 348.45703125 C-82.64148438 349.62105469 -82.4275 350.78507812 -82.20703125 351.984375 C-72.30594602 414.61950114 -89.59593668 479.21466933 -126.04296875 530.45703125 C-139.14197459 547.94932506 -154.24623986 565.36119037 -171.85546875 578.45703125 C-172.49758301 578.93785156 -173.13969727 579.41867187 -173.80126953 579.9140625 C-185.85849468 588.90978664 -198.10925371 596.99274241 -211.48046875 603.89453125 C-216.112598 606.33785217 -220.21210268 609.13143946 -224.29296875 612.39453125 C-257.29322096 638.71018075 -301.65208691 644.47391941 -342.55859375 641.15673828 C-368.01826651 638.19674967 -392.78827514 629.79013878 -413.82739258 615.078125 C-419.15781412 611.42337735 -424.58812858 608.47865121 -430.41796875 605.70703125 C-487.95330005 577.58576997 -531.53816657 526.56856308 -552.78955078 466.48193359 C-561.48138898 440.87990434 -565.10829229 415.03864708 -565.16796875 388.08203125 C-565.17164459 387.29054688 -565.17532043 386.4990625 -565.17910767 385.68359375 C-565.21553211 370.67438708 -563.98552661 355.82811194 -561.10546875 341.08203125 C-560.93772949 340.21682861 -560.76999023 339.35162598 -560.59716797 338.46020508 C-558.66395901 328.92632336 -555.92355491 319.68110941 -552.85546875 310.45703125 C-552.63697266 309.78961914 -552.41847656 309.12220703 -552.19335938 308.43457031 C-542.1153389 278.15399494 -525.1290487 251.80449842 -504.85546875 227.45703125 C-505.40372314 227.62831543 -505.95197754 227.79959961 -506.5168457 227.97607422 C-543.78060621 239.55673298 -581.64134534 239.43347381 -617.00683594 221.35742188 C-621.43963566 218.94573979 -625.67052047 216.27310607 -629.85546875 213.45703125 C-631.33660156 212.48056641 -631.33660156 212.48056641 -632.84765625 211.484375 C-657.06419142 194.45404742 -677.47116913 167.29367939 -684.39710999 138.18022156 C-684.9216172 135.06403161 -685.02029586 132.09322745 -685.06420898 128.93286133 C-685.0834996 127.6299263 -685.10279022 126.32699127 -685.12266541 124.98457336 C-685.13748849 123.56524673 -685.15125939 122.14590879 -685.1640625 120.7265625 C-685.17063433 120.00340033 -685.17720615 119.28023815 -685.18397713 118.53516197 C-685.21653066 114.6954176 -685.24097294 110.85570016 -685.26049805 107.01586914 C-685.27817661 103.87449329 -685.31278012 100.73403807 -685.36303711 97.59301758 C-685.88321057 64.29771448 -685.88321057 64.29771448 -678.85546875 49.45703125 C-678.19527171 48.00120105 -677.53594882 46.54497415 -676.87744141 45.08837891 C-661.91489544 12.30076062 -633.89619415 -12.51093523 -600.3918457 -25.07836914 C-567.13339048 -37.0360855 -531.23093546 -35.08743933 -498.9765625 -21.0390625 C-487.29302452 -15.43856807 -476.83540093 -8.79084658 -466.85546875 -0.54296875 C-466.08460938 0.08609375 -465.31375 0.71515625 -464.51953125 1.36328125 C-459.80316895 5.33875905 -455.75170239 9.68254822 -451.85546875 14.45703125 C-451.08203125 15.39289062 -450.30859375 16.32875 -449.51171875 17.29296875 C-426.76177556 45.42299607 -417.23442069 81.0424746 -420.56201172 116.89306641 C-422.88435996 137.18366646 -430.08720227 155.02175636 -439.91918945 172.75561523 C-440.59050127 173.97552972 -441.2327568 175.21160734 -441.85546875 176.45703125 C-440.90929687 175.97234375 -439.963125 175.48765625 -438.98828125 174.98828125 C-409.34578949 159.90867989 -379.91484796 150.36173647 -346.85546875 146.45703125 C-345.26025391 146.2559375 -345.26025391 146.2559375 -343.6328125 146.05078125 C-293.4759206 140.73223012 -244.97252488 154.53409062 -200.85546875 177.45703125 C-201.31695312 176.90660156 -201.7784375 176.35617188 -202.25390625 175.7890625 C-223.1723911 149.12419545 -229.96414656 113.40373218 -226.03027344 80.3215332 C-224.67581428 70.3136864 -222.3283841 60.92956383 -218.85546875 51.45703125 C-218.48679687 50.43738281 -218.118125 49.41773437 -217.73828125 48.3671875 C-207.63811979 22.42022099 -188.71431528 -1.07946924 -164.85546875 -15.54296875 C-163.80746094 -16.21328125 -162.75945313 -16.88359375 -161.6796875 -17.57421875 C-110.41571 -48.89885835 -43.50354259 -40.45600896 0 0 Z M-469.15625 204.47265625 C-476.64824523 213.22192884 -483.15342443 222.43670231 -488.85546875 232.45703125 C-489.74878906 234.019375 -489.74878906 234.019375 -490.66015625 235.61328125 C-499.97965979 253.00968787 -504.08881097 272.07077725 -506.85546875 291.45703125 C-507.04882812 292.71515625 -507.2421875 293.97328125 -507.44140625 295.26953125 C-510.52346409 321.0923541 -507.04709586 347.88214992 -498.85546875 372.45703125 C-499.63857422 371.87695312 -499.63857422 371.87695312 -500.4375 371.28515625 C-510.95027784 363.84704373 -520.88864189 360.85915618 -533.85546875 362.45703125 C-542.79060091 365.10222044 -550.86472849 371.79104896 -555.79296875 379.64453125 C-565.97460746 400.43057568 -558.21068553 433.31686363 -551.546875 453.9765625 C-549.17951933 460.88203726 -546.56681128 467.68036458 -543.85546875 474.45703125 C-543.54883301 475.24851562 -543.24219727 476.04 -542.92626953 476.85546875 C-531.57967995 506.04597774 -512.48236038 532.97801103 -490.85546875 555.45703125 C-489.95586426 556.39748291 -489.95586426 556.39748291 -489.03808594 557.35693359 C-480.19668604 566.55207848 -471.13685799 574.90870681 -460.85546875 582.45703125 C-459.72652355 583.30463562 -458.59761732 584.15229191 -457.46875 585 C-449.69792791 590.75571244 -441.56703688 595.7188059 -433.1796875 600.5234375 C-429.85546875 602.45703125 -429.85546875 602.45703125 -428.85546875 603.45703125 C-426.85588511 603.49783908 -424.85501621 603.49957481 -422.85546875 603.45703125 C-422.85546875 604.11703125 -422.85546875 604.77703125 -422.85546875 605.45703125 C-422.03046875 605.86953125 -421.20546875 606.28203125 -420.35546875 606.70703125 C-419.20046875 607.28453125 -418.04546875 607.86203125 -416.85546875 608.45703125 C-415.86353516 608.90949219 -415.86353516 608.90949219 -414.8515625 609.37109375 C-410.27185488 611.50886998 -407.45423019 613.85826981 -403.85546875 617.45703125 C-400.63795041 619.67641434 -397.28605371 621.58761104 -393.85546875 623.45703125 C-393.08976563 623.87984375 -392.3240625 624.30265625 -391.53515625 624.73828125 C-382.5378038 629.25142267 -372.63374236 631.39925826 -362.92749023 633.87207031 C-360.85546875 634.45703125 -360.85546875 634.45703125 -358.85546875 635.45703125 C-357.09255968 635.83001036 -355.31955063 636.15583591 -353.54296875 636.45703125 C-352.59808594 636.62203125 -351.65320313 636.78703125 -350.6796875 636.95703125 C-307.5459272 642.59658316 -263.41242341 637.16872575 -227.859375 610.84765625 C-225.39459237 608.88608671 -223.36840478 606.99023291 -221.29296875 604.64453125 C-218.48823509 601.63100849 -215.85849758 600.55071325 -211.98046875 599.20703125 C-192.86626094 592.50607334 -176.24809543 577.31040471 -161.85546875 563.45703125 C-161.27619629 562.90499023 -160.69692383 562.35294922 -160.10009766 561.78417969 C-151.51881353 553.57558723 -143.90620344 545.0075483 -136.85546875 535.45703125 C-136.37996582 534.82104004 -135.90446289 534.18504883 -135.41455078 533.52978516 C-133.98822674 531.61737674 -132.57518082 529.69603571 -131.16796875 527.76953125 C-130.73323242 527.18107422 -130.29849609 526.59261719 -129.85058594 525.98632812 C-127.37009596 522.57830056 -127.37009596 522.57830056 -126.85546875 518.45703125 C-126.19546875 518.45703125 -125.53546875 518.45703125 -124.85546875 518.45703125 C-110.44710835 494.74809738 -99.96889115 469.96331423 -91.85546875 443.45703125 C-91.63745605 442.74619385 -91.41944336 442.03535645 -91.19482422 441.30297852 C-85.46770923 422.02100406 -88.32722713 400.45622703 -97.72265625 382.9453125 C-100.88255177 377.52176653 -104.62922478 373.26740996 -109.85546875 369.70703125 C-110.68046875 369.1346875 -111.50546875 368.56234375 -112.35546875 367.97265625 C-119.09176549 363.88877635 -125.29220128 363.61091863 -132.91796875 365.08203125 C-140.22404874 367.14869133 -145.38245966 372.58620682 -149.85546875 378.45703125 C-148.916353 375.639684 -147.91023252 372.85691672 -146.89453125 370.06640625 C-131.74037271 327.51081093 -132.82029285 280.51274772 -152.2421875 239.23828125 C-163.50968563 216.4757489 -180.43003279 194.56522185 -203.85546875 183.45703125 C-204.9021875 182.95429688 -205.94890625 182.4515625 -207.02734375 181.93359375 C-226.41720847 173.10043316 -249.70477682 170.51439737 -270.06640625 177.9140625 C-271.33372892 178.41769226 -272.59689651 178.93191639 -273.85546875 179.45703125 C-274.47454102 179.71403809 -275.09361328 179.97104492 -275.73144531 180.23583984 C-284.68818099 184.08558191 -292.34015704 189.30132721 -299.85546875 195.45703125 C-300.65726562 196.10542969 -301.4590625 196.75382812 -302.28515625 197.421875 C-308.25586391 202.47321764 -313.08120696 208.28308628 -317.85546875 214.45703125 C-318.43554688 215.1840625 -319.015625 215.91109375 -319.61328125 216.66015625 C-321.04501939 218.36715023 -321.04501939 218.36715023 -320.85546875 220.45703125 C-321.84546875 220.45703125 -322.83546875 220.45703125 -323.85546875 220.45703125 C-324.1184375 219.88597656 -324.38140625 219.31492188 -324.65234375 218.7265625 C-326.84449096 214.59137572 -329.93151686 211.09338668 -332.85546875 207.45703125 C-333.31953125 206.85503906 -333.78359375 206.25304687 -334.26171875 205.6328125 C-347.4916638 189.13384033 -369.914017 177.02791269 -390.85546875 174.45703125 C-421.54117107 173.04199939 -447.68157524 181.75385676 -469.15625 204.47265625 Z " fill="#7F7F7F" transform="translate(684.85546875,36.54296875)"/>
<path d="M0 0 C0.33 0 0.66 0 1 0 C1.1451001 0.5261792 1.2902002 1.0523584 1.43969727 1.59448242 C9.88599074 34.75894145 9.88599074 34.75894145 25.48828125 64.87890625 C27.1888133 67.26492409 28.6727599 69.74222363 30.1875 72.25 C34.13135978 78.47485595 38.79617897 83.95440795 43.65527344 89.47167969 C44.88660512 90.87112347 46.10418351 92.28263741 47.3203125 93.6953125 C61.10610332 109.45756078 77.8184989 121.77948793 96 132 C96.91797363 132.5256958 96.91797363 132.5256958 97.85449219 133.06201172 C106.61750492 138.06121598 115.44034455 141.90429309 124.95825195 145.24829102 C127.26973103 146.09930669 129.53650682 147.03879419 131.8125 147.98046875 C137.00997849 150.0744952 142.27582984 151.62643691 147.6875 153.0625 C148.65010742 153.31999023 149.61271484 153.57748047 150.60449219 153.84277344 C170.99759048 159.21870212 191.10393785 161.23579615 212.125 161.625 C213.87371405 161.66333332 215.62241234 161.70239285 217.37109375 161.7421875 C221.58059567 161.83644718 225.79018421 161.92105392 230 162 C230 162.33 230 162.66 230 163 C231.65 163 233.3 163 235 163 C234.67 162.34 234.34 161.68 234 161 C234.61931396 160.92483154 235.23862793 160.84966309 235.87670898 160.7722168 C238.7315735 160.42018159 241.58444884 160.05393021 244.4375 159.6875 C245.41138672 159.56955078 246.38527344 159.45160156 247.38867188 159.33007812 C252.84977377 158.61776049 257.81527254 157.56065036 262.99584961 155.69360352 C265.80342858 154.72194657 268.64642461 154.17601302 271.5625 153.625 C281.98252681 151.47107671 292.33877301 148.52283187 301.96875 143.94140625 C304.07245534 142.96641974 306.19949735 142.17591279 308.375 141.375 C321.31245184 136.2404488 333.72973249 129.13252258 345 121 C346.4540625 119.95585938 346.4540625 119.95585938 347.9375 118.890625 C372.2233424 101.05570949 391.16718693 79.86604156 405 53 C405.46664063 52.175 405.93328125 51.35 406.4140625 50.5 C414.6668419 35.31841651 419.24767109 17.78673458 423 1 C423.33 1 423.66 1 424 1 C424.69374662 11.90723846 422.7346159 21.50987066 420 32 C419.81276367 32.73331543 419.62552734 33.46663086 419.43261719 34.22216797 C416.89394267 44.01075322 413.5532929 53.07466649 408.97119141 62.08886719 C408.31662145 63.37694502 407.67061709 64.66940717 407.03271484 65.96582031 C398.4036004 83.49650274 387.37598572 99.89514787 375 115 C374.55462891 115.54688477 374.10925781 116.09376953 373.65039062 116.65722656 C366.67098268 125.16247749 359.12670999 133.07184516 351.375 140.875 C350.51672607 141.74253906 349.65845215 142.61007812 348.77416992 143.50390625 C342.82547773 149.42370205 336.5620893 154.77513238 330 160 C328.4574071 161.26970887 326.91559866 162.54037216 325.375 163.8125 C282.15175049 198 282.15175049 198 266 198 C266 198.66 266 199.32 266 200 C257.15031603 203.95411412 248.45944902 206.4417934 238.94140625 208.3515625 C236.08506796 208.85572732 236.08506796 208.85572732 234 210 C217.30108765 212.40025434 199.31451083 212.46842663 183 208 C181.69606977 207.68048733 180.39134719 207.36419459 179.0859375 207.05078125 C172.02311833 205.30140171 165.58305707 203.07371597 159 200 C158.00323242 199.53940186 157.00646484 199.07880371 155.97949219 198.60424805 C142.81611095 192.48117419 129.87059686 186.42429455 118 178 C117.13246094 177.40960937 116.26492188 176.81921875 115.37109375 176.2109375 C112.88722155 174.50837721 110.43900401 172.76617532 108 171 C106.54980469 169.95199219 106.54980469 169.95199219 105.0703125 168.8828125 C99.29061938 164.6326056 93.81253979 160.20947831 88.546875 155.3359375 C86.50153144 153.45999356 84.42791776 151.64475499 82.32421875 149.8359375 C70.28045872 139.32333089 58.64911577 127.76460518 49 115 C48.00443909 113.74203524 47.00687162 112.48565708 46.0078125 111.23046875 C21.94589347 80.74414647 -2.05995381 40.28354112 0 0 Z " fill="#080808" transform="translate(152,436)"/>
<path d="M0 0 C8.01554675 6.76948268 14.29861889 15.45034479 15.38671875 26.12890625 C15.52055117 37.95969188 12.72077151 45.88370928 5.05078125 54.83203125 C4.60734375 55.404375 4.16390625 55.97671875 3.70703125 56.56640625 C-0.19483282 61.09090821 -5.00702609 63.77853172 -10.19921875 66.58203125 C-10.88991455 66.95900146 -11.58061035 67.33597168 -12.29223633 67.72436523 C-22.32922995 72.91879685 -31.97441256 74.37059827 -43.19921875 74.26953125 C-44.38781494 74.26123291 -45.57641113 74.25293457 -46.80102539 74.24438477 C-64.5762925 73.90318318 -78.65770671 68.53439143 -91.75390625 56.23828125 C-95.1849783 52.47753323 -97.64045286 48.34816453 -99.94921875 43.83203125 C-100.2954126 43.21191162 -100.64160645 42.59179199 -100.99829102 41.95288086 C-103.99054555 35.27926979 -102.93003449 24.63626316 -101.14453125 17.7109375 C-95.26407112 5.03753204 -83.12483029 -4.90880628 -70.38671875 -10.04296875 C-68.25184861 -10.78368888 -66.10646411 -11.49519147 -63.94921875 -12.16796875 C-63.17578125 -12.41417969 -62.40234375 -12.66039062 -61.60546875 -12.9140625 C-40.22917619 -18.37103859 -17.48216166 -12.85112546 0 0 Z " fill="#B2825B" transform="translate(405.94921875,451.16796875)"/>
<path d="M0 0 C0.33 0 0.66 0 1 0 C1.69374662 10.90723846 -0.2653841 20.50987066 -3 31 C-3.18723633 31.73331543 -3.37447266 32.46663086 -3.56738281 33.22216797 C-6.10605733 43.01075322 -9.4467071 52.07466649 -14.02880859 61.08886719 C-14.68337855 62.37694502 -15.32938291 63.66940717 -15.96728516 64.96582031 C-24.5963996 82.49650274 -35.62401428 98.89514787 -48 114 C-48.44537109 114.54688477 -48.89074219 115.09376953 -49.34960938 115.65722656 C-56.32901732 124.16247749 -63.87329001 132.07184516 -71.625 139.875 C-72.48327393 140.74253906 -73.34154785 141.61007812 -74.22583008 142.50390625 C-80.17452227 148.42370205 -86.4379107 153.77513238 -93 159 C-94.5425929 160.26970887 -96.08440134 161.54037216 -97.625 162.8125 C-140.84824951 197 -140.84824951 197 -157 197 C-157 197.66 -157 198.32 -157 199 C-165.84968397 202.95411412 -174.54055098 205.4417934 -184.05859375 207.3515625 C-186.91493204 207.85572732 -186.91493204 207.85572732 -189 209 C-205.68389032 211.39809512 -223.70295393 211.49249598 -240 207 C-241.40966757 206.63482707 -242.81984899 206.27163352 -244.23046875 205.91015625 C-247.83093127 204.97743671 -251.41783962 204.00097247 -255 203 C-254.67 202.01 -254.34 201.02 -254 200 C-249.82949992 200.59263984 -246.12903292 201.59524971 -242.16796875 203.0078125 C-234.23428253 205.49376834 -226.53852788 205.76373589 -218.3125 205.875 C-217.56299072 205.88991486 -216.81348145 205.90482971 -216.04125977 205.92019653 C-197.64583746 206.28091513 -182.22893061 204.63304883 -165 198 C-163.53820312 197.45279297 -163.53820312 197.45279297 -162.046875 196.89453125 C-157.50263433 195.05125482 -153.74739616 193.21267411 -151 189 C-150.45591051 183.84815268 -151.0939199 180.15096662 -154.3125 176.0625 C-155.96522776 174.79412753 -157.62960219 173.54056056 -159.3125 172.3125 C-159.869375 171.879375 -160.42625 171.44625 -161 171 C-161 170.34 -161 169.68 -161 169 C-161.58007812 168.80664062 -162.16015625 168.61328125 -162.7578125 168.4140625 C-163.53898437 168.15367187 -164.32015625 167.89328125 -165.125 167.625 C-165.95644531 167.35042969 -166.78789062 167.07585937 -167.64453125 166.79296875 C-169.37919219 166.208995 -171.10028605 165.58433638 -172.8125 164.9375 C-176.98270296 163.71096972 -181.18650014 163.15511929 -185.48828125 162.5625 C-186.31714844 162.376875 -187.14601563 162.19125 -188 162 C-188.33 161.34 -188.66 160.68 -189 160 C-188.07102905 159.88724731 -188.07102905 159.88724731 -187.12329102 159.7722168 C-184.2684265 159.42018159 -181.41555116 159.05393021 -178.5625 158.6875 C-177.10166992 158.51057617 -177.10166992 158.51057617 -175.61132812 158.33007812 C-170.15022623 157.61776049 -165.18472746 156.56065036 -160.00415039 154.69360352 C-157.19657142 153.72194657 -154.35357539 153.17601302 -151.4375 152.625 C-141.01747319 150.47107671 -130.66122699 147.52283187 -121.03125 142.94140625 C-118.92754466 141.96641974 -116.80050265 141.17591279 -114.625 140.375 C-101.68754816 135.2404488 -89.27026751 128.13252258 -78 120 C-77.030625 119.30390625 -76.06125 118.6078125 -75.0625 117.890625 C-50.7766576 100.05570949 -31.83281307 78.86604156 -18 52 C-17.53335938 51.175 -17.06671875 50.35 -16.5859375 49.5 C-8.3331581 34.31841651 -3.75232891 16.78673458 0 0 Z " fill="#090909" transform="translate(575,437)"/>
<path d="M0 0 C3.23994766 1.87043031 5.98890383 3.82160925 8.375 6.75 C11.63656201 5.36120585 13.11394038 3.84382945 15.3125 1.125 C19.97080705 -3.10982459 24.82023381 -2.89476787 30.8125 -2.875 C31.70638428 -2.87322754 32.60026855 -2.87145508 33.52124023 -2.86962891 C42.21495698 -2.60654532 51.83605995 -0.37630914 58.4375 5.625 C59.076875 6.32625 59.71625 7.0275 60.375 7.75 C61.24125 8.53375 62.1075 9.3175 63 10.125 C66.56024438 14.06000694 67.375 17.04776755 67.375 22.3125 C66.12641836 26.60449939 64.03274359 28.42449492 60.375 30.75 C57.11502604 32.21972363 53.77576989 33.33975149 50.375 34.4375 C49.4984375 34.73205078 48.621875 35.02660156 47.71875 35.33007812 C46.0216665 35.89875445 44.32218288 36.46032993 42.62011719 37.01391602 C40.80507231 37.60899652 39.00195281 38.240374 37.203125 38.8828125 C15.87409361 45.42292986 -18.34792321 44.49198241 -38.625 34.75 C-46.13374636 30.24125364 -46.13374636 30.24125364 -48.625 27.75 C-49.20249798 23.25308948 -49.10446191 19.70892382 -47.0625 15.625 C-46.258125 14.67625 -45.45375 13.7275 -44.625 12.75 C-44.16222656 12.18539062 -43.69945312 11.62078125 -43.22265625 11.0390625 C-33.11501017 -0.27952407 -14.20559526 -6.84987902 0 0 Z " fill="#FC0606" transform="translate(357.625,602.25)"/>
<path d="M0 0 C5.98587871 0.41281922 9.0655396 1.38139571 14 5 C15.2684375 5.4640625 15.2684375 5.4640625 16.5625 5.9375 C19 7 19 7 21.1875 9.25 C25.03376083 13.01078836 29.29507849 15.43615871 34 18 C34.76570313 18.4228125 35.53140625 18.845625 36.3203125 19.28125 C45.31766495 23.79439142 55.22172639 25.94222701 64.92797852 28.41503906 C67 29 67 29 69 30 C70.76290907 30.37297911 72.53591812 30.69880466 74.3125 31 C75.25738281 31.165 76.20226562 31.33 77.17578125 31.5 C114.16821557 36.3366002 152.92606115 33.33722967 185.828125 14.734375 C188.51868623 13.26318142 191.12792224 12.05813391 194 11 C194 12.32 194 13.64 194 15 C176.65909639 24.90587888 158.70426937 31.57931059 139 35 C137.99598145 35.17660156 136.99196289 35.35320313 135.95751953 35.53515625 C126.47987095 37.05483648 117.19794822 37.40009857 107.625 37.375 C106.44695801 37.37418427 106.44695801 37.37418427 105.24511719 37.37335205 C73.93870762 37.27421086 42.02090271 30.11258914 16 12 C14.39808001 10.91334727 12.79400197 9.82986722 11.1875 8.75 C10.46949219 8.26402344 9.75148438 7.77804687 9.01171875 7.27734375 C6.81105269 5.82535988 6.81105269 5.82535988 3.5 4.3125 C1 3 1 3 0 0 Z " fill="#535353" transform="translate(257,641)"/>
<path d="M0 0 C0 0.66 0 1.32 0 2 C0.99 2.495 0.99 2.495 2 3 C-6.84968397 6.95411412 -15.54055098 9.4417934 -25.05859375 11.3515625 C-27.91493204 11.85572732 -27.91493204 11.85572732 -30 13 C-46.68389032 15.39809512 -64.70295393 15.49249598 -81 11 C-82.40966757 10.63482707 -83.81984899 10.27163352 -85.23046875 9.91015625 C-88.83093127 8.97743671 -92.41783962 8.00097247 -96 7 C-95.67 6.01 -95.34 5.02 -95 4 C-90.82949992 4.59263984 -87.12903292 5.59524971 -83.16796875 7.0078125 C-75.23428253 9.49376834 -67.53852788 9.76373589 -59.3125 9.875 C-58.56299072 9.88991486 -57.81348145 9.90482971 -57.04125977 9.92019653 C-37.02614521 10.31267592 -18.08371724 0 0 0 Z " fill="#232323" transform="translate(416,633)"/>
<path d="M0 0 C0 3.93235469 -1.54945341 5.02964049 -4 8 C-4.33 8.99 -4.66 9.98 -5 11 C-15.47151115 19.43820802 -27.69684574 26.30096763 -39.625 32.4375 C-45.19736217 35.35471436 -49.97883567 38.85400229 -54.77587891 42.88842773 C-56.12758338 43.99803908 -57.55927362 45.00871304 -59 46 C-59.99 45.67 -60.98 45.34 -62 45 C-60.56047553 41.51162854 -58.83604769 39.84192137 -55.8125 37.625 C-52.91643363 35.47482036 -50.22974316 33.30371924 -47.625 30.8125 C-44.91450895 28.44698054 -42.54912021 27.38511597 -39.125 26.3125 C-25.39379588 21.76686787 -9.88829866 10.4937047 0 0 Z " fill="#7A7A7A" transform="translate(513,608)"/>
<path d="M0 0 C5.98587871 0.41281922 9.0655396 1.38139571 14 5 C15.2684375 5.4640625 15.2684375 5.4640625 16.5625 5.9375 C19 7 19 7 21.1875 9.25 C29.57031683 17.44653201 41.66491944 22.41622986 52.90625 25.2265625 C55.24257298 26.08960718 56.38860367 27.13036707 58 29 C42.4397554 27.90033607 28.64887293 20.80460763 16 12 C14.39808001 10.91334727 12.79400197 9.82986722 11.1875 8.75 C10.46949219 8.26402344 9.75148438 7.77804687 9.01171875 7.27734375 C6.81105269 5.82535988 6.81105269 5.82535988 3.5 4.3125 C1 3 1 3 0 0 Z " fill="#494949" transform="translate(257,641)"/>
<path d="M0 0 C1.82159602 0.22806499 3.63390076 0.53257414 5.4375 0.875 C6.42621094 1.05804687 7.41492188 1.24109375 8.43359375 1.4296875 C11 2 11 2 13 3 C22.79392574 5.21005661 32.76185577 5.60960503 42.75 6.125 C44.33336675 6.21163093 45.91670054 6.29886653 47.5 6.38671875 C51.33298986 6.59810327 55.16632971 6.80135431 59 7 C59 7.33 59 7.66 59 8 C50.42 8 41.84 8 33 8 C33 8.33 33 8.66 33 9 C26.78217102 9.20821829 21.20096349 8.47115426 15.125 7.1875 C14.2474707 7.00735352 13.36994141 6.82720703 12.46582031 6.64160156 C6.53241923 5.39675507 0.75567688 3.91855896 -5 2 C-4.360625 1.855625 -3.72125 1.71125 -3.0625 1.5625 C-1.02454854 1.18992819 -1.02454854 1.18992819 0 0 Z " fill="#7B7B7B" transform="translate(313,668)"/>
<path d="M0 0 C0 0.66 0 1.32 0 2 C0.66 2.33 1.32 2.66 2 3 C-9.602353 8.18403007 -21.45902626 10.98278723 -34 13 C-34 12.67 -34 12.34 -34 12 C-36.64 11.67 -39.28 11.34 -42 11 C-42 10.67 -42 10.34 -42 10 C-40.90945313 9.92523437 -39.81890625 9.85046875 -38.6953125 9.7734375 C-25.89867176 8.72016893 -11.77816243 0 0 0 Z " fill="#747474" transform="translate(416,633)"/>
<path d="M0 0 C5.98587871 0.41281922 9.0655396 1.38139571 14 5 C15.2684375 5.4640625 15.2684375 5.4640625 16.5625 5.9375 C19.81079403 7.35342304 21.67789344 9.35537864 24 12 C24.33 12.99 24.66 13.98 25 15 C19.10740472 13.94775084 15.64998144 12.28171757 11.02734375 8.51953125 C8.9485507 6.96143781 6.91677235 5.89941005 4.5625 4.8125 C1 3 1 3 0 0 Z " fill="#313131" transform="translate(257,641)"/>
<path d="M0 0 C15.84 0 31.68 0 48 0 C48 0.33 48 0.66 48 1 C43.12350992 2.94924707 38.72207456 3.26603667 33.5390625 3.1953125 C32.74849457 3.1924826 31.95792664 3.18965271 31.1434021 3.18673706 C28.63710916 3.17560955 26.13118355 3.15051926 23.625 3.125 C21.91797394 3.11496058 20.21094223 3.10583641 18.50390625 3.09765625 C14.3357976 3.07569463 10.16796092 3.04121671 6 3 C6 2.34 6 1.68 6 1 C4.02 1 2.04 1 0 1 C0 0.67 0 0.34 0 0 Z " fill="#464646" transform="translate(340,675)"/>
<path d="M0 0 C-3.62620371 2.41746914 -7.18495238 3.15210829 -11.375 4.0625 C-12.17341309 4.2387793 -12.97182617 4.41505859 -13.79443359 4.59667969 C-20.52322413 6.02134657 -27.11914597 6.75686028 -34 7 C-34.66 6.01 -35.32 5.02 -36 4 C-34.49373047 3.83564453 -34.49373047 3.83564453 -32.95703125 3.66796875 C-26.16418817 2.89076131 -19.57924755 2.00003026 -12.9375 0.3125 C-8.16161549 -0.87553097 -4.76321256 -1.21849624 0 0 Z " fill="#636363" transform="translate(417,670)"/>
<path d="M0 0 C0 0.33 0 0.66 0 1 C-1.98 1.33 -3.96 1.66 -6 2 C-3.69 2.33 -1.38 2.66 1 3 C1 3.33 1 3.66 1 4 C-3.62 4 -8.24 4 -13 4 C-13 3.67 -13 3.34 -13 3 C-24.88 2.67 -36.76 2.34 -49 2 C-49 1.67 -49 1.34 -49 1 C-43.3074856 0.8563114 -37.6149403 0.71393981 -31.92236328 0.57275391 C-29.98843511 0.52460766 -28.05451564 0.47611037 -26.12060547 0.42724609 C-23.33042618 0.3568088 -20.54021735 0.28766124 -17.75 0.21875 C-16.89446533 0.19687622 -16.03893066 0.17500244 -15.1574707 0.15246582 C-10.10314562 0.02909879 -5.05584206 -0.02038646 0 0 Z " fill="#B1B1B1" transform="translate(393,596)"/>
<path d="M0 0 C3.45000896 0.98571685 6.02511489 2.01726648 9 4.0625 C12.13933105 6.08998464 14.31887825 6.64941698 18 7 C16.375 8.625 16.375 8.625 14 10 C9.00734156 8.97877441 4.49510762 6.35023393 0 4 C0 2.68 0 1.36 0 0 Z " fill="#727272" transform="translate(244,633)"/>
<path d="M0 0 C0 0.66 0 1.32 0 2 C-0.66 2 -1.32 2 -2 2 C-2 2.66 -2 3.32 -2 4 C-8.25172386 6.86964374 -13.09647445 8.51137226 -20 8 C-18.7233984 5.44679681 -17.90007922 5.41037912 -15.25390625 4.4921875 C-14.49916016 4.22792969 -13.74441406 3.96367188 -12.96679688 3.69140625 C-12.17337891 3.42199219 -11.37996094 3.15257812 -10.5625 2.875 C-9.77294922 2.59785156 -8.98339844 2.32070313 -8.16992188 2.03515625 C-2.29002463 0 -2.29002463 0 0 0 Z " fill="#3A3A3A" transform="translate(433,662)"/>
<path d="M0 0 C-2.5843218 2.5843218 -4.89375577 3.10401163 -8.375 4.1875 C-9.51710938 4.55230469 -10.65921875 4.91710937 -11.8359375 5.29296875 C-14.93009479 5.98437921 -16.10787985 6.0128522 -19 5 C-20.41366158 4.79104637 -21.83060623 4.60309594 -23.25 4.4375 C-24.4875 4.293125 -25.725 4.14875 -27 4 C-27 3.67 -27 3.34 -27 3 C-25.72382813 2.86722656 -24.44765625 2.73445312 -23.1328125 2.59765625 C-21.46352004 2.41947335 -19.79425036 2.24107686 -18.125 2.0625 C-17.28324219 1.97548828 -16.44148438 1.88847656 -15.57421875 1.79882812 C-14.36572266 1.66831055 -14.36572266 1.66831055 -13.1328125 1.53515625 C-12.38918457 1.456604 -11.64555664 1.37805176 -10.87939453 1.29711914 C-2.39416476 -0.04433638 -2.39416476 -0.04433638 0 0 Z " fill="#656565" transform="translate(401,640)"/>
<path d="M0 0 C0.33 0 0.66 0 1 0 C1.0272616 2.04159095 1.04651345 4.08328963 1.0625 6.125 C1.07410156 7.26195312 1.08570313 8.39890625 1.09765625 9.5703125 C1.005327 12.8129156 0.61389906 15.81932612 0 19 C-0.99 18.34 -1.98 17.68 -3 17 C-2.25339288 11.27601207 -1.17122859 5.65146223 0 0 Z " fill="#1E1E1E" transform="translate(575,437)"/>
<path d="M0 0 C1.74965358 -0.05429959 3.49979787 -0.09292823 5.25 -0.125 C6.22453125 -0.14820313 7.1990625 -0.17140625 8.203125 -0.1953125 C11.0196498 0.00137219 12.60949036 0.55431084 15 2 C15 2.33 15 2.66 15 3 C10.71 3 6.42 3 2 3 C2 2.34 2 1.68 2 1 C1.34 0.67 0.68 0.34 0 0 Z " fill="#4F4F4F" transform="translate(324,672)"/>
<path d="M0 0 C0.66 0.33 1.32 0.66 2 1 C2 1.99 2 2.98 2 4 C-0.88834003 6.10770759 -2.38462395 7 -6 7 C-5.8125 5.1875 -5.8125 5.1875 -5 3 C-2.5625 1.1875 -2.5625 1.1875 0 0 Z " fill="#717171" transform="translate(483,630)"/>
<path d="M0 0 C0 0.33 0 0.66 0 1 C-1.98 1.33 -3.96 1.66 -6 2 C-3.69 2.33 -1.38 2.66 1 3 C1 3.33 1 3.66 1 4 C-3.62 4 -8.24 4 -13 4 C-13 3.01 -13 2.02 -13 1 C-8.59085217 -0.10228696 -4.51617599 -0.07654536 0 0 Z " fill="#8E8E8E" transform="translate(393,596)"/>
<path d="M0 0 C4.6175429 -0.32215416 7.33874929 0.07099943 11 3 C11.8125 5.1875 11.8125 5.1875 12 7 C7.39104317 5.68315519 3.85859765 3.84801255 0 1 C0 0.67 0 0.34 0 0 Z " fill="#525252" transform="translate(278,655)"/>
<path d="M0 0 C-1 3 -1 3 -3.375 4.75 C-6 6 -6 6 -9 5 C-8 2 -8 2 -5.625 0.25 C-3 -1 -3 -1 0 0 Z " fill="#474747" transform="translate(452,653)"/>
<path d="M0 0 C1 3 1 3 0 6 C-2.5625 7.1875 -2.5625 7.1875 -5 8 C-5 6.68 -5 5.36 -5 4 C-2.5 1.75 -2.5 1.75 0 0 Z " fill="#757575" transform="translate(457,646)"/>
<path d="M0 0 C4.19469571 0.59924224 8.00999834 1.57499941 12 3 C9 5 9 5 6.51953125 4.7578125 C5.62621094 4.54898438 4.73289062 4.34015625 3.8125 4.125 C2.91144531 3.92132812 2.01039063 3.71765625 1.08203125 3.5078125 C0.39496094 3.34023438 -0.29210937 3.17265625 -1 3 C-0.67 2.01 -0.34 1.02 0 0 Z " fill="#5B5B5B" transform="translate(321,637)"/>
<path d="M0 0 C1.43861294 0.08746284 2.87597508 0.19565348 4.3125 0.3125 C5.11300781 0.37050781 5.91351563 0.42851563 6.73828125 0.48828125 C9.36272334 1.08206694 10.30820672 1.95780294 12 4 C3.42857143 3.28571429 3.42857143 3.28571429 0 0 Z " fill="#212121" transform="translate(303,666)"/>
<path d="M0 0 C0.33 1.32 0.66 2.64 1 4 C-0.32 4.99 -1.64 5.98 -3 7 C-3.66 6.34 -4.32 5.68 -5 5 C-3.35 3.35 -1.7 1.7 0 0 Z " fill="#838383" transform="translate(489,626)"/>
<path d="M0 0 C4.29 0 8.58 0 13 0 C13.33 0.99 13.66 1.98 14 3 C9.38 2.34 4.76 1.68 0 1 C0 0.67 0 0.34 0 0 Z " fill="#6A6A6A" transform="translate(384,416)"/>
<path d="M0 0 C0 0.66 0 1.32 0 2 C0.66 2.33 1.32 2.66 2 3 C-0.31 3.33 -2.62 3.66 -5 4 C-4.67 3.01 -4.34 2.02 -4 1 C-2 0 -2 0 0 0 Z " fill="#606060" transform="translate(416,633)"/>
</svg>
