<?xml version="1.0" encoding="UTF-8" standalone="no"?>
<svg
   version="1.1"
   viewBox="0 0 16 16"
   id="svg6110"
   sodipodi:docname="\Yaru\scalable\actions\color-select-symbolic(16-moddad).svg"
   inkscape:version="1.2.2 (b0a8486541, 2022-12-01)"
   xmlns:inkscape="http://www.inkscape.org/namespaces/inkscape"
   xmlns:sodipodi="http://sodipodi.sourceforge.net/DTD/sodipodi-0.dtd"
   xmlns="http://www.w3.org/2000/svg"
   xmlns:svg="http://www.w3.org/2000/svg">
  <defs
     id="defs6114" />
  <sodipodi:namedview
     id="namedview6112"
     pagecolor="#ffffff"
     bordercolor="#999999"
     borderopacity="1"
     inkscape:showpageshadow="0"
     inkscape:pageopacity="0"
     inkscape:pagecheckerboard="0"
     inkscape:deskcolor="#d1d1d1"
     showgrid="false"
     inkscape:zoom="32"
     inkscape:cx="4.859375"
     inkscape:cy="11.4375"
     inkscape:window-width="2560"
     inkscape:window-height="1358"
     inkscape:window-x="0"
     inkscape:window-y="28"
     inkscape:window-maximized="1"
     inkscape:current-layer="g6108" />
  <g
     transform="translate(-132 -140)"
     id="g6108"
     style="fill:#000000;fill-opacity:1">
    <path
       d="m 146.49,141 c -0.12976,0.004 -0.25303,0.0575 -0.34375,0.15039 l -0.48632,0.48633 c -0.21492,-0.10289 -0.45127,-0.1531 -0.68946,-0.14648 -0.38956,0.0113 -0.75941,0.17386 -1.0312,0.45312 l -1.80469,1.81189 -0.91531,-0.93086 c -0.0942,-0.0974 -0.12427,-0.12287 -0.26229,-0.17232 -0.36091,-0.0938 -0.63364,0.39282 -0.3107,0.70537 l 0.93946,0.93945 -6.1465,6.1465 c -0.35526,0.34249 -0.50915,0.82822 -0.43945,1.2988 l 0.10131,0.6846 -1.94429,1.9483 -0.009,0.46926 0.42414,-0.0325 2.05029,-1.9096 0.62865,0.10167 c 0.47378,0.0725 0.96431,-0.081 1.3086,-0.43945 l 6.1465,-6.1465 0.93945,0.93946 c 0.47127,0.49023 1.0663,-0.11258 0.57604,-0.58385 l -0.91168,-0.97309 1.74972,-1.73605 c 0.45873,-0.44877 0.5812,-1.1396 0.30468,-1.7188 l 0.48829,-0.48828 c 0.32529,-0.31801 0.0914,-0.86991 -0.36329,-0.85743 z m -4.31035,3.63528 1.17462,1.22346 -3.21518,3.17159 -2.22216,-0.15394 z"
       color="#000000"
       color-rendering="auto"
       dominant-baseline="auto"
       fill="#808080"
       image-rendering="auto"
       shape-rendering="auto"
       solid-color="#000000"
       style="font-variant-ligatures:normal;font-variant-position:normal;font-variant-caps:normal;font-variant-numeric:normal;font-variant-alternates:normal;font-feature-settings:normal;text-indent:0;text-decoration-line:none;text-decoration-style:solid;text-decoration-color:#000000;text-transform:none;text-orientation:mixed;white-space:normal;shape-padding:0;isolation:auto;mix-blend-mode:normal;fill:#000000;fill-opacity:1"
       id="path6106"
       sodipodi:nodetypes="ccccccccccccccccccccccccccccccccc" />
  </g>
</svg>
