<?xml version="1.0" encoding="UTF-8" standalone="no"?>
<svg
   height="22"
   width="22"
   version="1.1"
   id="svg122"
   sodipodi:docname="koiourpaint.svg"
   inkscape:version="1.2.2 (b0a8486541, 2022-12-01)"
   xmlns:inkscape="http://www.inkscape.org/namespaces/inkscape"
   xmlns:sodipodi="http://sodipodi.sourceforge.net/DTD/sodipodi-0.dtd"
   xmlns="http://www.w3.org/2000/svg"
   xmlns:svg="http://www.w3.org/2000/svg">
  <defs
     id="defs126" />
  <sodipodi:namedview
     id="namedview124"
     pagecolor="#ffffff"
     bordercolor="#999999"
     borderopacity="1"
     inkscape:showpageshadow="0"
     inkscape:pageopacity="0"
     inkscape:pagecheckerboard="0"
     inkscape:deskcolor="#d1d1d1"
     showgrid="false"
     inkscape:zoom="11.572917"
     inkscape:cx="11.881188"
     inkscape:cy="15.985599"
     inkscape:window-width="2560"
     inkscape:window-height="1358"
     inkscape:window-x="0"
     inkscape:window-y="28"
     inkscape:window-maximized="1"
     inkscape:current-layer="svg122" />
  <linearGradient
     id="a"
     gradientTransform="matrix(0.32883626,0,0,0.32738791,40.523505,-199.85699)"
     gradientUnits="userSpaceOnUse"
     x1="-87"
     x2="-87"
     y1="616"
     y2="672">
    <stop
       offset="0"
       stop-color="#d4ba94"
       id="stop2" />
    <stop
       offset="1"
       stop-color="#997657"
       id="stop4" />
  </linearGradient>
  <linearGradient
     id="i"
     gradientTransform="matrix(0,0.32737874,-0.32883626,0,368.26111,-130.1852)"
     gradientUnits="userSpaceOnUse"
     x1="410"
     x2="421"
     y1="1080.4"
     y2="1080.4">
    <stop
       offset="0"
       stop-color="#e4720c"
       id="stop7" />
    <stop
       offset="1"
       stop-color="#f1d23b"
       id="stop9" />
  </linearGradient>
  <linearGradient
     id="b"
     gradientTransform="matrix(0.32883626,0,0,0.32737874,-123.89324,-347.92772)"
     gradientUnits="userSpaceOnUse"
     x1="415"
     x2="415"
     y1="1068.4"
     y2="1079.4">
    <stop
       offset="0"
       stop-color="#884d2c"
       id="stop12" />
    <stop
       offset="1"
       stop-color="#ffa92d"
       id="stop14" />
  </linearGradient>
  <linearGradient
     id="j"
     gradientTransform="matrix(0.32883626,0,0,0.32737874,-123.67324,-347.81175)"
     gradientUnits="userSpaceOnUse"
     x1="424"
     x2="424"
     y1="1074.4"
     y2="1086.4">
    <stop
       offset="0"
       stop-color="#884d2c"
       id="stop17" />
    <stop
       offset="1"
       stop-color="#b7bf31"
       id="stop19" />
  </linearGradient>
  <linearGradient
     id="e"
     gradientTransform="matrix(0.32883626,0,0,0.32737874,-123.91158,-199.58612)"
     gradientUnits="userSpaceOnUse"
     x1="409"
     x2="409"
     y1="629"
     y2="642">
    <stop
       offset="0"
       stop-color="#ffa92d"
       id="stop22" />
    <stop
       offset="1"
       stop-color="#ffe5e1"
       id="stop24" />
  </linearGradient>
  <linearGradient
     id="l"
     gradientTransform="matrix(0.32883626,0,0,0.32737874,-123.67324,-347.55006)"
     gradientUnits="userSpaceOnUse"
     x1="424"
     x2="424"
     y1="1092.4"
     y2="1101.4">
    <stop
       offset="0"
       stop-color="#7ceca4"
       id="stop27" />
    <stop
       offset="1"
       stop-color="#e1f2ff"
       id="stop29" />
  </linearGradient>
  <linearGradient
     id="g"
     gradientTransform="matrix(0.32883626,0,0,0.32737874,-123.55408,-199.58658)"
     gradientUnits="userSpaceOnUse"
     x1="433.29999"
     x2="433.29999"
     y1="632"
     y2="643.95001">
    <stop
       offset="0"
       stop-color="#377d50"
       id="stop32" />
    <stop
       offset="1"
       stop-color="#3b85b5"
       id="stop34" />
  </linearGradient>
  <linearGradient
     id="k"
     gradientTransform="matrix(0.32883626,0,0,0.32737874,-123.67324,-199.58612)"
     gradientUnits="userSpaceOnUse"
     x1="425"
     x2="425"
     y1="632"
     y2="640">
    <stop
       offset="0"
       stop-color="#b7bf31"
       id="stop37" />
    <stop
       offset="1"
       stop-color="#54d883"
       id="stop39" />
  </linearGradient>
  <linearGradient
     id="f"
     gradientTransform="matrix(0.32883626,0,0,0.32737874,-123.55408,-199.31477)"
     gradientUnits="userSpaceOnUse"
     x1="432"
     x2="432"
     y1="647"
     y2="662">
    <stop
       offset="0"
       stop-color="#375a7d"
       id="stop42" />
    <stop
       offset="1"
       stop-color="#7cbcec"
       id="stop44" />
  </linearGradient>
  <linearGradient
     id="d"
     gradientTransform="matrix(0.32883626,0,0,0.32737874,-123.89324,-347.94422)"
     gradientUnits="userSpaceOnUse"
     x1="401"
     x2="401"
     y1="1075.4"
     y2="1086.4">
    <stop
       offset="0"
       stop-color="#ac0808"
       id="stop47" />
    <stop
       offset="1"
       stop-color="#e4720c"
       id="stop49" />
  </linearGradient>
  <linearGradient
     id="h"
     gradientTransform="matrix(0.32883626,0,0,0.32737874,-123.89324,-199.85196)"
     gradientUnits="userSpaceOnUse"
     x1="407"
     x2="407"
     y1="636"
     y2="622">
    <stop
       offset="0"
       stop-color="#ffa92d"
       id="stop52" />
    <stop
       offset="1"
       stop-color="#e05e4c"
       id="stop54" />
  </linearGradient>
  <linearGradient
     id="c"
     gradientTransform="matrix(0.32883626,0,0,0.32737874,-123.89324,-199.85196)"
     gradientUnits="userSpaceOnUse"
     x1="393"
     x2="393"
     y1="623"
     y2="632">
    <stop
       offset="0"
       stop-color="#913bb5"
       id="stop57" />
    <stop
       offset="1"
       stop-color="#bf4231"
       id="stop59" />
  </linearGradient>
  <path
     d="M 8.9365073,2.2916323 7.1031716,2.7499663 5.269836,3.6666341 2.9781661,5.958304 v 1.3750014 l 0.3167093,0.9505842 c 1.6486264,1.8603774 5.2415069,3.3476714 3.8261712,4.7575054 -0.7965842,0.792919 -1.1233763,1.806753 -1.1252092,2.86917 9.144e-4,0.05133 0.00371,0.102204 0.00646,0.153542 -0.00234,0.05775 -0.00646,0.115954 -0.00646,0.174167 l 0.015125,0.0092 c 0.1764579,2.212379 2.0304185,3.918755 4.2592966,3.919215 0.121,0 0.242917,-0.0059 0.363459,-0.01697 4.936257,-0.193872 8.838512,-4.231793 8.844469,-9.149716 0,-0.153542 -0.0041,-0.306626 -0.01141,-0.458334 H 19.019899 V 9.166641 L 18.56152,7.7916383 17.186517,5.4999698 15.353181,3.6666341 12.144844,2.2916323 Z M 10.270259,13.946147 a 1.9731275,1.9644192 0 0 1 1.974045,1.964877 1.9731275,1.9644192 0 0 1 -1.974045,1.963961 1.9731275,1.9644192 0 0 1 -1.9731267,-1.963961 1.9731275,1.9644192 0 0 1 1.9731267,-1.964877 z"
     fill="url(#a)"
     id="path62"
     style="fill:url(#a);stroke-width:0.458334" />
  <path
     d="M 6.1865031,2.7925906 A 9.1964702,9.1964702 0 0 0 3.7060004,4.5828434 l 2.8655041,0.385 z"
     fill="#432b4d"
     id="path64"
     style="stroke-width:0.458334" />
  <path
     d="M 8.9365073,1.9341318 C 7.9753809,2.0752988 7.0481716,2.3667992 6.1865031,2.7925906 v 1.7902528 l 3.1955055,0.5674171 z"
     fill="#4d2f2b"
     id="path66"
     style="stroke-width:0.458334" />
  <path
     d="M 10.271176,1.8332985 C 9.8215508,1.8337626 9.3755915,1.8699643 8.9365073,1.9341314 V 4.5833013 L 12.253471,5.0691355 11.686511,1.9414648 A 9.3119703,9.3119702 0 0 0 10.271176,1.8332985 Z"
     fill="#813c33"
     id="path68"
     style="stroke-width:0.458334" />
  <path
     d="m 11.686511,1.9414652 v 2.6418361 l 3.37792,0.5669592 -0.627917,-2.3173356 A 9.1547617,9.1547617 0 0 0 11.686511,1.9414652 Z"
     fill="url(#b)"
     id="path70"
     style="fill:url(#b);stroke-width:0.458334" />
  <path
     d="m 14.436514,2.8329249 v 1.7499185 l 1.587211,0.5472514 0.817209,-0.5472514 a 9.2207617,9.2207617 0 0 0 -2.40442,-1.7499185 z"
     fill="#7c8133"
     id="path72"
     style="stroke-width:0.458334" />
  <path
     d="M 2.5335824,6.4624711 C 2.3177073,8.8054739 7.0852966,10.5806 7.4226309,12.187978 7.743923,10.568225 2.7719161,8.8018068 2.5335824,6.4624711 Z"
     fill="#6c5548"
     id="path74"
     style="stroke-width:0.458334" />
  <path
     d="M 3.6950004,4.5947605 C 3.5721716,4.7198855 3.4520833,4.8477605 3.3356675,4.9806776 1.9597483,6.3510961 2.519374,7.5377225 3.6042504,8.6033489 3.1321661,8.0625146 3.7142504,8.0730554 4.0231675,8.3805975 4.3522518,8.7078489 4.3522518,9.0355568 4.6813346,8.7083068 5.009961,8.3805975 3.6950004,7.7265554 3.6950004,7.072054 Z"
     fill="#2b3c4d"
     id="path76"
     style="stroke-width:0.458334" />
  <path
     d="m 3.7105846,4.5833013 a 9.2322203,9.2326781 0 0 0 -0.0165,0.015125 v 0.1819592 c 0,0.32725 -0.6577092,0.6545014 -0.6577092,0.9817514 0,0.32725 0.6577092,0.6549592 0.6577092,1.3099171 L 3.7426634,6.735179 C 4.0579976,5.8505948 5.7144161,7.5418475 6.1865004,7.072054 L 6.4706661,6.4349711 6.6448333,4.5833013 Z"
     fill="url(#c)"
     id="path78"
     style="fill:url(#c);stroke-width:0.458334" />
  <path
     d="M 8.6078823,7.3333054 C 8.9365073,7.006054 8.298048,6.0893869 7.9689651,6.4166369 c -0.3286263,0.3277092 0,0.9822092 -0.6572513,0.9822092 -0.6572514,0 -0.2850829,-0.8185828 0,-0.9822092 0.2805,-0.1613329 0.242,-0.573375 0.00963,-0.6911671 -0.232375,-0.1177963 -0.6586264,0.059579 -0.6586264,0.6132513 0,0.473 -0.4762093,0.732875 -0.4762093,0.732875 V 4.5833013 h 2.7500042 l 0.5270842,3.3779212 z"
     fill="url(#d)"
     id="path80"
     style="fill:url(#d);stroke-width:0.458334" />
  <path
     d="m 8.6083401,7.3333054 c 0,0 -0.9863342,0.5729171 -0.9863342,2.6189199 H 8.9369665 V 8.6427646 c 0,-0.9822092 0.9863343,-1.3094592 0.9863343,-1.3094592 H 8.6078823 Z"
     fill="#ffafa5"
     id="path82"
     style="stroke-width:0.458334" />
  <path
     d="m 8.9365073,7.3333054 v 1.3094592 c 0,0.3272514 -0.6577093,0.3272514 -0.9863343,0.6549593 -0.165,0.163625 -0.3290842,0.32725 -0.3290842,0.6545014 0,0.2892077 0.3290842,0.6549597 0.6577092,0.6549597 0.6577093,0 0.6577093,-0.523877 1.5743778,-0.523877 H 11.686511 V 7.3333054 Z"
     fill="url(#e)"
     id="path84"
     style="fill:url(#e);stroke-width:0.458334" />
  <path
     d="m 16.548517,11.972561 0.638001,1.523961 v 0.319 c 0,0.982209 -0.986335,2.619377 -1.31496,2.947087 -0.302958,0.301584 0.510126,0.879085 0.896959,0.711332 0.116875,-0.115953 0.229167,-0.2365 0.339167,-0.358873 0.245667,-0.336877 0.491336,-0.763584 0.737001,-1.008336 0.03988,-0.03942 0.09488,-0.07745 0.143,-0.116875 a 9.1006781,9.1006781 0 0 0 1.302586,-3.156545 z"
     fill="url(#f)"
     id="path86"
     style="fill:url(#f);stroke-width:0.458334" />
  <path
     d="m 17.186518,10.08285 -0.587584,1.314044 0.587584,1.435959 h 2.103753 a 9.1524696,9.1524696 0 0 0 0.142084,-2.750003 z"
     fill="#2b3c4d"
     id="path88"
     style="stroke-width:0.458334" />
  <path
     d="m 17.186518,7.3328461 -0.931793,2.5877542 0.931793,1.1444597 c 0,0.654501 0.425333,0.559167 0.658167,0.32725 0.328625,-0.32725 0.657252,-1.30946 1.314961,-1.30946 h 0.272709 A 9.0685946,9.0685946 0 0 0 18.70727,7.3328461 Z"
     fill="url(#g)"
     id="path90"
     style="fill:url(#g);stroke-width:0.458334" />
  <g
     fill="#6c5548"
     id="g96"
     transform="matrix(0.45833391,0,0,0.45833391,-0.23017101,-3.7124859e-5)">
    <path
       d="m 42.99,23.647 c -0.202,10.565 -8.64,19.182 -19.287,19.6 a 8.722,8.722 0 0 1 -0.792,0.039 c -4.863,0 -8.908,-3.724 -9.293,-8.55 l -0.034,-0.022 c 0.003,0.112 0.007,0.223 0.013,0.334 -0.004,0.126 -0.013,0.252 -0.013,0.38 l 0.034,0.022 c 0.385,4.826 4.43,8.548 9.293,8.55 0.265,0 0.529,-0.015 0.792,-0.039 10.769,-0.423 19.284,-9.23 19.297,-19.96 0,-0.12 -0.008,-0.236 -0.01,-0.354 z"
       id="path92" />
    <path
       d="m 22.911,29.747 a 4.305,4.286 0 0 0 -4.305,4.286 4.305,4.286 0 0 0 0.019,0.355 4.305,4.286 0 0 1 4.286,-3.927 4.305,4.286 0 0 1 4.287,3.93 4.305,4.286 0 0 0 0.018,-0.358 4.305,4.286 0 0 0 -4.305,-4.286 z"
       id="path94" />
  </g>
  <ellipse
     cx="18.105019"
     cy="13.749979"
     fill="#7cbcec"
     rx="0.4601672"
     ry="0.45833391"
     id="ellipse98"
     style="stroke-width:0.458334" />
  <path
     d="m 8.9365073,4.5833013 v 2.7500041 h 1.6440437 c 0.657709,0 0.657709,0.32725 0.657709,0.6549592 0,0.3277079 -0.328625,0.851125 -0.328625,1.1783764 0,0.32725 0.44825,0.916667 0.776876,0.916667 L 12.435886,7.3333054 11.686511,4.5833013 Z"
     fill="url(#h)"
     id="path100"
     style="fill:url(#h);stroke-width:0.458334" />
  <path
     d="m 14.436514,4.5833013 0.688877,3.4590462 -3.43888,-0.7090421 V 4.5833013 Z"
     fill="url(#i)"
     id="path102"
     style="fill:url(#i);stroke-width:0.458334" />
  <path
     d="M 14.436514,4.5828434 V 7.3328461 L 17.57152,7.7178475 17.186518,4.9614276 C 17.073315,4.8330989 16.961017,4.7047605 16.840934,4.5828434 Z"
     fill="url(#j)"
     id="path104"
     style="fill:url(#j);stroke-width:0.458334" />
  <path
     d="M 17.186518,4.9614276 V 7.3328461 H 18.70727 A 9.1588867,9.1588867 0 0 0 17.186518,4.9614276 Z"
     fill="#2b4d37"
     id="path106"
     style="stroke-width:0.458334" />
  <path
     d="m 11.686511,7.3333054 h 2.750003 l 0.465667,3.1955046 -3.21567,-0.445502 z"
     fill="#f7e385"
     id="path108"
     style="stroke-width:0.458334" />
  <path
     d="m 14.436514,7.3333054 v 2.7500026 h 2.750004 V 9.166641 c 0,-0.6549592 1.196252,-0.03575 1.196252,-0.5238764 0,-0.32725 -0.53946,-0.3694171 -0.65771,-0.6545 -0.08387,-0.2016671 0.32771,-0.6549592 0,-0.6549592 z"
     fill="url(#k)"
     id="path110"
     style="fill:url(#k);stroke-width:0.458334" />
  <ellipse
     cx="15.20331"
     cy="6.0499692"
     fill="#ffa92d"
     rx="0.32862541"
     ry="0.32725039"
     id="ellipse112"
     style="stroke-width:0.458334" />
  <path
     d="m 13.659638,8.4465975 c -0.328625,0 -0.657708,0.3272514 -0.328625,0.6549593 0.328625,0.3272513 0.328625,0.9817512 -0.329083,0.9817512 h -1.315419 c 0,0 0.986793,0.327709 0.986793,0.982209 0,0.65496 -0.806668,0.754877 -0.803,1.591795 0.0027,0.80896 0.779167,0.567417 1.037209,1.121085 0.166833,0.3575 -0.234667,0.621042 0.130625,0.984501 0.12375,0.0793 0.887792,0.121454 1.165084,-0.154459 0.623334,-0.620585 0.233751,-0.923542 0.233751,-1.578502 l 0.9515,-1.452918 -0.951959,-1.494169 V 9.7556003 c 0,-0.3272514 -0.447792,-1.3094607 -0.776876,-1.3094607 z"
     fill="#ecfde3"
     id="path114"
     style="stroke-width:0.458334" />
  <path
     d="m 14.436514,10.083308 v 2.946171 c 0,-0.327251 2.750004,-0.327251 2.750004,0.655418 v -3.601589 z"
     fill="url(#l)"
     id="path116"
     style="fill:url(#l);stroke-width:0.458334" />
  <ellipse
     cx="13.559263"
     cy="11.779144"
     fill="#986f34"
     rx="0.32862541"
     ry="0.4908756"
     id="ellipse118"
     style="stroke-width:0.458334" />
  <ellipse
     cx="12.737011"
     cy="5.4083037"
     fill="#d7e04c"
     rx="0.49316728"
     ry="0.32725039"
     id="ellipse120"
     style="stroke-width:0.458334" />
</svg>
