<?xml version="1.0" encoding="UTF-8" standalone="no"?>
<svg
   version="1.1"
   viewBox="0 0 16 16"
   id="svg380"
   sodipodi:docname="preferences-system-notifications-symbolic-READ.svg"
   inkscape:version="1.2.2 (b0a8486541, 2022-12-01)"
   xmlns:inkscape="http://www.inkscape.org/namespaces/inkscape"
   xmlns:sodipodi="http://sodipodi.sourceforge.net/DTD/sodipodi-0.dtd"
   xmlns="http://www.w3.org/2000/svg"
   xmlns:svg="http://www.w3.org/2000/svg">
  <defs
     id="defs384" />
  <sodipodi:namedview
     id="namedview382"
     pagecolor="#ffffff"
     bordercolor="#999999"
     borderopacity="1"
     inkscape:showpageshadow="0"
     inkscape:pageopacity="0"
     inkscape:pagecheckerboard="0"
     inkscape:deskcolor="#d1d1d1"
     showgrid="false"
     inkscape:zoom="49.099727"
     inkscape:cx="6.3747808"
     inkscape:cy="9.582538"
     inkscape:window-width="1772"
     inkscape:window-height="1317"
     inkscape:window-x="45"
     inkscape:window-y="58"
     inkscape:window-maximized="0"
     inkscape:current-layer="svg380" />
  <path
     d="m8 1c-1.5265 0-2.5439 0.78113-3.0723 1.8379-0.52838 1.0568-0.67496 2.3531-0.80078 3.6113s-0.22877 2.4862-0.5332 3.3164c-0.15221 0.41511-0.3471 0.71969-0.58789 0.91797-0.24078 0.19829-0.53587 0.31641-1.0059 0.31641v1h12v-1c-0.46991 0-0.76502-0.11812-1.0059-0.31641-0.24078-0.19829-0.43565-0.50286-0.58789-0.91797-0.30442-0.83022-0.40738-2.0582-0.5332-3.3164s-0.27241-2.5546-0.80078-3.6113c-0.52838-1.0568-1.5457-1.8379-3.0723-1.8379zm0 1c1.2235 0 1.7686 0.46684 2.1777 1.2852 0.40914 0.81824 0.57506 2.0219 0.69922 3.2637 0.12418 1.2418 0.2087 2.516 0.5918 3.5605 0.12675 0.34569 0.36923 0.60918 0.58789 0.89062h-8.1133c0.21864-0.28149 0.46112-0.54497 0.58789-0.89062 0.3831-1.0448 0.4676-2.3189 0.5918-3.5605 0.12418-1.2418 0.2901-2.4454 0.69922-3.2637 0.40914-0.81824 0.95433-1.2852 2.1777-1.2852zm-2 11c0.01251 1.1086 0.91483 2 2.0234 2 1.1087 0 2.0109-0.89138 2.0234-2z"
     fill="#808080"
     style="font-feature-settings:normal;font-variant-alternates:normal;font-variant-caps:normal;font-variant-east-asian:normal;font-variant-ligatures:normal;font-variant-numeric:normal;font-variant-position:normal;font-variation-settings:normal;inline-size:0;isolation:auto;mix-blend-mode:normal;shape-margin:0;shape-padding:0;text-decoration-color:#000000;text-decoration-line:none;text-decoration-style:solid;text-indent:0;text-orientation:mixed;text-transform:none;white-space:normal;fill:#000000"
     id="path378" />
</svg>
