<?xml version="1.0" encoding="UTF-8" standalone="no"?>
<svg
   version="1.1"
   viewBox="0 0 16 16"
   id="svg380"
   sodipodi:docname="preferences-system-notifications-symbolic-UNREAD.svg"
   inkscape:version="1.2.2 (b0a8486541, 2022-12-01)"
   xmlns:inkscape="http://www.inkscape.org/namespaces/inkscape"
   xmlns:sodipodi="http://sodipodi.sourceforge.net/DTD/sodipodi-0.dtd"
   xmlns="http://www.w3.org/2000/svg"
   xmlns:svg="http://www.w3.org/2000/svg">
  <defs
     id="defs384">
    <clipPath
       clipPathUnits="userSpaceOnUse"
       id="clipPath1527">
      <g
         inkscape:label="Clip"
         id="use1529">
        <rect
           style="font-variation-settings:normal;opacity:1;vector-effect:none;fill:#37f537;fill-opacity:1;fill-rule:evenodd;stroke:#00f400;stroke-width:1.92306;stroke-linecap:butt;stroke-linejoin:miter;stroke-miterlimit:4;stroke-dasharray:none;stroke-dashoffset:0;stroke-opacity:1;-inkscape-stroke:none;stop-color:#000000;stop-opacity:1"
           id="rect1596"
           width="3.0653949"
           height="4.9816132"
           x="5.8276343"
           y="4.1415997"
           ry="0.091172792"
           rx="0.054784868" />
      </g>
    </clipPath>
  </defs>
  <sodipodi:namedview
     id="namedview382"
     pagecolor="#ffffff"
     bordercolor="#999999"
     borderopacity="1"
     inkscape:showpageshadow="0"
     inkscape:pageopacity="0"
     inkscape:pagecheckerboard="0"
     inkscape:deskcolor="#d1d1d1"
     showgrid="false"
     inkscape:zoom="69.4375"
     inkscape:cx="7.6975698"
     inkscape:cy="6.6174617"
     inkscape:window-width="1772"
     inkscape:window-height="1317"
     inkscape:window-x="569"
     inkscape:window-y="37"
     inkscape:window-maximized="0"
     inkscape:current-layer="svg380" />
  <path
     style="fill:#00d400;fill-opacity:1;stroke:#00f400;stroke-width:0;stroke-dasharray:none;stroke-opacity:1;opacity:0.31"
     d="M 9.6359352,2.0456351 C 8.6751741,1.4284029 6.7488311,1.401041 6.0963481,2.2492943 5.3276009,3.2486956 4.6550515,4.6263579 4.5699827,7.6519085 4.5432733,9.6335401 3.3102222,11.013074 3.7942543,11.186713 5.0039548,11.620675 12.044926,11.446159 12.331284,11.330472 12.901155,11.100246 11.969107,9.5717664 11.518333,8.795637 11.163793,5.0151089 10.829646,3.266327 9.6359352,2.0456351 Z"
     id="path1594"
     sodipodi:nodetypes="cscsscc" />
  <path
     d="m8 1c-1.5265 0-2.5439 0.78113-3.0723 1.8379-0.52838 1.0568-0.67496 2.3531-0.80078 3.6113s-0.22877 2.4862-0.5332 3.3164c-0.15221 0.41511-0.3471 0.71969-0.58789 0.91797-0.24078 0.19829-0.53587 0.31641-1.0059 0.31641v1h12v-1c-0.46991 0-0.76502-0.11812-1.0059-0.31641-0.24078-0.19829-0.43565-0.50286-0.58789-0.91797-0.30442-0.83022-0.40738-2.0582-0.5332-3.3164s-0.27241-2.5546-0.80078-3.6113c-0.52838-1.0568-1.5457-1.8379-3.0723-1.8379zm0 1c1.2235 0 1.7686 0.46684 2.1777 1.2852 0.40914 0.81824 0.57506 2.0219 0.69922 3.2637 0.12418 1.2418 0.2087 2.516 0.5918 3.5605 0.12675 0.34569 0.36923 0.60918 0.58789 0.89062h-8.1133c0.21864-0.28149 0.46112-0.54497 0.58789-0.89062 0.3831-1.0448 0.4676-2.3189 0.5918-3.5605 0.12418-1.2418 0.2901-2.4454 0.69922-3.2637 0.40914-0.81824 0.95433-1.2852 2.1777-1.2852zm-2 11c0.01251 1.1086 0.91483 2 2.0234 2 1.1087 0 2.0109-0.89138 2.0234-2z"
     fill="#808080"
     style="font-feature-settings:normal;font-variant-alternates:normal;font-variant-caps:normal;font-variant-east-asian:normal;font-variant-ligatures:normal;font-variant-numeric:normal;font-variant-position:normal;font-variation-settings:normal;inline-size:0;isolation:auto;mix-blend-mode:normal;shape-margin:0;shape-padding:0;text-decoration-color:#000000;text-decoration-line:none;text-decoration-style:solid;text-indent:0;text-orientation:mixed;text-transform:none;white-space:normal;fill:#000000"
     id="path378" />
</svg>
