<?xml version="1.0" encoding="UTF-8"?>
<svg width="16" height="16" version="1.1" xmlns="http://www.w3.org/2000/svg" xmlns:cc="http://creativecommons.org/ns#" xmlns:dc="http://purl.org/dc/elements/1.1/" xmlns:rdf="http://www.w3.org/1999/02/22-rdf-syntax-ns#"><metadata><rdf:RDF><cc:Work rdf:about=""><dc:format>image/svg+xml</dc:format><dc:type rdf:resource="http://purl.org/dc/dcmitype/StillImage"/></cc:Work></rdf:RDF></metadata><path d="m8.5 0c-3.05 0-5.5 2.68-5.5 6v4c0 3.32 2.45 6 5.5 6 0.55494 0 1.0897-0.090703 1.5938-0.25586a4 4 0 0 1-1.0371-2.0898l-1.0566 1.0566v-5.6211l-2.4297 2.041-0.64062-0.76172 2.8203-2.3691-2.8203-2.3691 0.64062-0.76172 2.4297 2.041v-5.6211l4.2402 4.2402-2.9395 2.4707 1.7793 1.4961a4 4 0 0 1 2.9199-0.36523v-3.1309c0-3.32-2.45-6-5.5-6zm0.5 3.7109v3.2383l1.7598-1.4785-1.7598-1.7598zm0 5.3398v3.2383l0.080078-0.080078a4 4 0 0 1 1.168-2.1094l-1.248-1.0488z" fill="#5c616c"/><path d="m16 13.002a3 3 0 0 1-6 0 3 3 0 1 1 6 0z" color="#bebebe" enable-background="new" fill="#0f0" overflow="visible" style="isolation:auto;mix-blend-mode:normal"/></svg>
