<?xml version="1.0" encoding="UTF-8" standalone="no"?>
<svg
   viewBox="0 0 32 32"
   version="1.1"
   id="svg12"
   sodipodi:docname="32application-x-python-bytecode.svg"
   inkscape:version="1.2.2 (b0a8486541, 2022-12-01)"
   width="32"
   height="32"
   xmlns:inkscape="http://www.inkscape.org/namespaces/inkscape"
   xmlns:sodipodi="http://sodipodi.sourceforge.net/DTD/sodipodi-0.dtd"
   xmlns="http://www.w3.org/2000/svg"
   xmlns:svg="http://www.w3.org/2000/svg">
  <defs
     id="defs16" />
  <sodipodi:namedview
     id="namedview14"
     pagecolor="#ffffff"
     bordercolor="#999999"
     borderopacity="1"
     inkscape:showpageshadow="0"
     inkscape:pageopacity="0"
     inkscape:pagecheckerboard="0"
     inkscape:deskcolor="#d1d1d1"
     showgrid="false"
     inkscape:zoom="23.145833"
     inkscape:cx="14.084608"
     inkscape:cy="23.265527"
     inkscape:window-width="2560"
     inkscape:window-height="1357"
     inkscape:window-x="0"
     inkscape:window-y="28"
     inkscape:window-maximized="1"
     inkscape:current-layer="svg12" />
  <path
     d="m 5.33344,0.66682 c -0.685993,0 -1.33332,0.6473269 -1.33332,1.33332 v 27.99972 c 0,0.647327 0.685993,1.33332 1.33332,1.33332 h 21.33312 c 0.647327,0 1.33332,-0.685993 1.33332,-1.33332 V 9.3334 L 19.3333,0.66682 Z"
     style="fill:#bcd35f;fill-opacity:1;stroke-width:0.66666"
     id="path2" />
  <path
     d="m 19.3333,8.00008 0.042,0.042 0.103999,-0.042 z m 1.33332,1.33332 7.33326,7.33326 V 9.3334 Z"
     style="fill-opacity:0.196;stroke-width:0.66666"
     id="path4" />
  <path
     d="m 19.3333,0.66682 8.66658,8.66658 h -7.33326 c -0.647327,0 -1.33332,-0.685993 -1.33332,-1.33332 z"
     style="fill:#ffffff;fill-opacity:0.392;stroke-width:0.66666"
     id="path6" />
  <path
     d="m 19.3333,13.33336 v 3.99996 h -5.99994 v 6.6666 h 5.99994 v -3.3333 H 16 v -0.66666 h 5.99994 v -6.6666 z m -2.66664,7.99992 h 1.33332 v 1.33332 h -1.33332 z"
     style="fill:#ffe680;fill-opacity:1;fill-rule:evenodd;stroke:none;stroke-width:0.66666"
     id="path8" />
  <path
     d="m 12.6667,10.00006 v 3.3333 H 16 v 0.66666 h -5.99994 v 6.6666 h 2.66664 v -3.99996 h 5.99994 v -6.6666 z m 1.33332,1.33332 h 1.33332 v 1.33332 h -1.33332 z"
     style="fill:#baa20a;fill-opacity:1;stroke:none;stroke-width:0.66666"
     id="path10" />
</svg>
