<?xml version="1.0" encoding="UTF-8" standalone="no"?>
<!-- Created with Inkscape (http://www.inkscape.org/) -->

<svg
   version="1.1"
   id="svg3955"
   width="64"
   height="64"
   viewBox="0 0 64 64"
   sodipodi:docname="application-javascript.svg"
   inkscape:version="1.2.2 (b0a8486541, 2022-12-01)"
   xml:space="preserve"
   xmlns:inkscape="http://www.inkscape.org/namespaces/inkscape"
   xmlns:sodipodi="http://sodipodi.sourceforge.net/DTD/sodipodi-0.dtd"
   xmlns="http://www.w3.org/2000/svg"
   xmlns:svg="http://www.w3.org/2000/svg"><defs
     id="defs3959"><style
       id="style2">
      .cls-1 {
        fill: rgba(235, 235, 235, 0);
      }

      .cls-1, .cls-2 {
        isolation: isolate;
        opacity: .99;
      }

      .cls-3 {
        fill: #fdd83c;
      }

      .cls-4 {
        fill: #f7df1e;
      }

      .cls-2 {
        fill: rgba(235, 235, 235, .92);
      }

      .cls-5 {
        fill: #d4b830;
      }
    </style><style
       id="style327">
      .cls-1 {
        fill-rule: evenodd;
      }

      .cls-1, .cls-2 {
        fill: #007acc;
      }
    </style></defs><sodipodi:namedview
     id="namedview3957"
     pagecolor="#ffffff"
     bordercolor="#999999"
     borderopacity="1"
     inkscape:showpageshadow="0"
     inkscape:pageopacity="0"
     inkscape:pagecheckerboard="0"
     inkscape:deskcolor="#d1d1d1"
     showgrid="true"
     inkscape:zoom="4"
     inkscape:cx="49.375"
     inkscape:cy="85.375"
     inkscape:window-width="1648"
     inkscape:window-height="1316"
     inkscape:window-x="150"
     inkscape:window-y="28"
     inkscape:window-maximized="0"
     inkscape:current-layer="layer1"><inkscape:grid
       type="xygrid"
       id="grid1581" /></sodipodi:namedview><g
     inkscape:groupmode="layer"
     id="layer1"
     inkscape:label="Image 2"
     style="display:inline"><path
       id="rect1980"
       style="display:inline;opacity:1;fill:#ffffff;fill-opacity:1;fill-rule:evenodd;stroke:#000000;stroke-width:0;stroke-dasharray:none;stop-color:#000000;stop-opacity:1"
       d="m 8.5,0.64170361 h 35 L 55.504485,12.5 V 63.239543 H 8.5 Z"
       sodipodi:nodetypes="cccccc"
       inkscape:label="rect1980__Dokument_bg-colour" /></g><g
     inkscape:groupmode="layer"
     inkscape:label="Image"
     id="g3961"
     style="display:inline"><g
       id="g2372"
       style="display:inline"
       transform="matrix(0.5,0,0,0.5,22.504374,-7.0026715)"><g
         id="g2364"
         style="display:none;stroke:#000000;stroke-opacity:1"
         inkscape:label="g2364__Textraderna"
         transform="translate(-2.0054702,14.007669)"
         sodipodi:insensitive="true"><path
           style="display:inline;fill:none;stroke:#000000;stroke-width:2;stroke-linecap:butt;stroke-linejoin:miter;stroke-dasharray:none;stroke-opacity:1"
           d="m 15.005793,27.002183 h 33.000754 v 0.510948 -0.415125"
           id="path5727" /><path
           style="display:inline;fill:none;stroke:#000000;stroke-width:2;stroke-linecap:butt;stroke-linejoin:miter;stroke-dasharray:none;stroke-opacity:1"
           d="m 15.005793,21.002183 h 33.000754 v 0.510948 -0.415125"
           id="path2328" /><path
           style="display:inline;fill:none;stroke:#000000;stroke-width:2;stroke-linecap:butt;stroke-linejoin:miter;stroke-dasharray:none;stroke-opacity:1"
           d="m 15.005793,33.002183 h 33.000754 v 0.510948 -0.415125"
           id="path2330" /></g><g
         id="g2359"
         style="display:none"
         transform="translate(-2.0054702,14.007669)"
         inkscape:label="g2359__Vita_vertikala_masker"
         sodipodi:insensitive="true"><path
           style="display:inline;fill:none;stroke:#ffffff;stroke-width:2;stroke-linecap:butt;stroke-linejoin:miter;stroke-dasharray:none;stroke-opacity:1"
           d="m 22.00617,18.27383 v 10.235107 h -0.510948 0.415125"
           id="path2332" /><path
           style="display:inline;fill:none;stroke:#ffffff;stroke-width:2.00001;stroke-linecap:butt;stroke-linejoin:miter;stroke-dasharray:none;stroke-opacity:1"
           d="m 30.00617,18.148567 v 4.758753 h -0.510948 0.415125"
           id="path2334" /><path
           style="display:inline;fill:none;stroke:#ffffff;stroke-width:2;stroke-linecap:butt;stroke-linejoin:miter;stroke-dasharray:none;stroke-opacity:1"
           d="m 20.00617,30.452261 v 4.30238 h -0.510948 0.415125"
           id="path2336" /><path
           style="display:inline;fill:none;stroke:#ffffff;stroke-width:2;stroke-linecap:butt;stroke-linejoin:miter;stroke-dasharray:none;stroke-opacity:1"
           d="m 31.998358,24.796959 v 3.691236 h -0.510948 0.415125"
           id="path2338" /><path
           style="display:inline;fill:none;stroke:#ffffff;stroke-width:2;stroke-linecap:butt;stroke-linejoin:miter;stroke-dasharray:none;stroke-opacity:1"
           d="m 41.998358,24.796959 v 3.691236 h -0.510948 0.415125"
           id="path2340" /><path
           style="display:inline;fill:none;stroke:#ffffff;stroke-width:2.00001;stroke-linecap:butt;stroke-linejoin:miter;stroke-dasharray:none;stroke-opacity:1"
           d="m 38.00617,18.148567 v 4.758753 h -0.510948 0.415125"
           id="path2342" /><path
           style="display:inline;fill:none;stroke:#ffffff;stroke-width:2.00001;stroke-linecap:butt;stroke-linejoin:miter;stroke-dasharray:none;stroke-opacity:1"
           d="m 44.00617,18.148567 v 4.758753 h -0.510948 0.415125"
           id="path2344" /><path
           style="display:inline;fill:none;stroke:#ffffff;stroke-width:2;stroke-linecap:butt;stroke-linejoin:miter;stroke-dasharray:none;stroke-opacity:1"
           d="m 36.00617,30.452261 v 4.30238 h -0.510948 0.415125"
           id="path2346" /><path
           style="display:inline;fill:none;stroke:#ffffff;stroke-width:2;stroke-linecap:butt;stroke-linejoin:miter;stroke-dasharray:none;stroke-opacity:1"
           d="m 44.00617,30.452261 v 4.30238 h -0.510948 0.415125"
           id="path2348" /></g><g
         id="g342"
         style="display:inline;stroke:#000000;stroke-opacity:1"
         inkscape:label="g342__Diagonalt_veck"><path
           style="display:inline;fill:none;stroke:#000000;stroke-width:2;stroke-linecap:butt;stroke-linejoin:miter;stroke-dasharray:none;stroke-opacity:1"
           d="m 46.999618,21.009995 h 0.99819 v 0.09561"
           id="path2368"
           sodipodi:nodetypes="ccc" /><path
           style="display:inline;fill:none;stroke:#000000;stroke-width:2;stroke-linecap:butt;stroke-linejoin:miter;stroke-dasharray:none;stroke-opacity:1"
           d="m 48.999618,23.009995 h 0.99819 v 0.09561"
           id="path329"
           sodipodi:nodetypes="ccc" /><path
           style="display:inline;fill:none;stroke:#000000;stroke-width:2;stroke-linecap:butt;stroke-linejoin:miter;stroke-dasharray:none;stroke-opacity:1"
           d="m 50.999618,25.009995 h 0.99819 v 0.09561"
           id="path331"
           sodipodi:nodetypes="ccc" /><path
           style="display:inline;fill:none;stroke:#000000;stroke-width:2;stroke-linecap:butt;stroke-linejoin:miter;stroke-dasharray:none;stroke-opacity:1"
           d="m 44.999618,19.009995 h 0.99819 v 0.09561"
           id="path333"
           sodipodi:nodetypes="ccc" /><path
           style="display:inline;fill:none;stroke:#000000;stroke-width:2;stroke-linecap:butt;stroke-linejoin:miter;stroke-dasharray:none;stroke-opacity:1"
           d="m 42.999618,17.009995 h 0.99819 v 0.09561"
           id="path335"
           sodipodi:nodetypes="ccc" /></g><g
         id="g2319"
         style="display:inline;stroke:#000000;stroke-opacity:1"
         inkscape:label="g342__Diagonalt_veck"
         transform="translate(10,10)"><path
           style="display:inline;fill:none;stroke:#000000;stroke-width:2;stroke-linecap:butt;stroke-linejoin:miter;stroke-dasharray:none;stroke-opacity:1"
           d="m 52.999618,27.009995 h 0.99819 v 0.09561"
           id="path2323"
           sodipodi:nodetypes="ccc" /><path
           style="display:inline;fill:none;stroke:#000000;stroke-width:2;stroke-linecap:butt;stroke-linejoin:miter;stroke-dasharray:none;stroke-opacity:1"
           d="m 50.999618,25.009995 h 0.99819 v 0.09561"
           id="path2313"
           sodipodi:nodetypes="ccc" /><path
           style="display:inline;fill:none;stroke:#000000;stroke-width:2;stroke-linecap:butt;stroke-linejoin:miter;stroke-dasharray:none;stroke-opacity:1"
           d="m 48.999618,23.009995 h 0.99819 v 0.09561"
           id="path2311"
           sodipodi:nodetypes="ccc" /><path
           style="display:inline;fill:none;stroke:#000000;stroke-width:2;stroke-linecap:butt;stroke-linejoin:miter;stroke-dasharray:none;stroke-opacity:1"
           d="m 46.999618,21.009995 h 0.99819 v 0.09561"
           id="path2309"
           sodipodi:nodetypes="ccc" /><path
           style="display:inline;fill:none;stroke:#000000;stroke-width:2;stroke-linecap:butt;stroke-linejoin:miter;stroke-dasharray:none;stroke-opacity:1"
           d="m 44.999618,19.009995 h 0.99819 v 0.09561"
           id="path2315"
           sodipodi:nodetypes="ccc" /><path
           style="display:inline;fill:none;stroke:#000000;stroke-width:2;stroke-linecap:butt;stroke-linejoin:miter;stroke-dasharray:none;stroke-opacity:1"
           d="m 42.999618,17.009995 h 0.99819 v 0.09561"
           id="path2317"
           sodipodi:nodetypes="ccc" /></g></g></g><g
     inkscape:groupmode="layer"
     id="layer2"
     inkscape:label="Image 1"
     style="display:inline"><path
       id="rect4394"
       style="display:inline;opacity:1;fill:none;fill-rule:evenodd;stroke:#000000;stroke-width:1;stroke-dasharray:none;stroke-opacity:1;stop-color:#000000;stop-opacity:1"
       d="M 8.5,0.5051471 H 43.507406 L 43.500506,12.496404 55.50904,12.488804 55.5,63.5 h -47 z"
       sodipodi:nodetypes="ccccccc"
       inkscape:label="rect4394__Dokument_kontur" /><g
       id="g12"
       transform="matrix(0.10290137,0,0,0.10290137,6.4203668,-10.029418)"
       inkscape:label="JS"><path
         class="cls-4"
         d="M 25.09,262.66 H 472.12 V 709.69 H 25.09 Z"
         id="path6" /><path
         d="m 142.63,636.23 34.21,-20.7 c 6.6,11.7 12.6,21.6 27,21.6 14.4,0 22.51,-5.4 22.51,-26.4 V 467.89 h 42.01 v 143.43 c 0,43.51 -25.5,63.32 -62.71,63.32 -33.61,0 -53.11,-17.4 -63.02,-38.41"
         id="path8" /><path
         d="m 291.18,631.72 34.21,-19.8 c 9,14.71 20.71,25.51 41.41,25.51 17.41,0 28.51,-8.7 28.51,-20.71 0,-14.4 -11.4,-19.51 -30.61,-27.9 l -10.5,-4.5 c -30.31,-12.9 -50.41,-29.1 -50.41,-63.31 0,-31.51 24.01,-55.51 61.52,-55.51 26.71,0 45.91,9.3 59.71,33.61 l -32.71,21 c -7.2,-12.9 -15,-18 -27,-18 -12,0 -20.11,7.8 -20.11,18 0,12.6 7.8,17.71 25.8,25.51 l 10.5,4.5 c 35.71,15.3 55.81,30.91 55.81,66.01 0,37.81 -29.71,58.51 -69.62,58.51 -39.91,0 -64.22,-18.6 -76.52,-42.91"
         id="path10" /></g><g
       id="g343"
       transform="matrix(0.12499978,0,0,0.12499978,8.9679876,17.042818)"
       inkscape:label="TS"><rect
         style="font-variation-settings:normal;opacity:1;fill:#fefefe;fill-opacity:1;fill-rule:evenodd;stroke:#000000;stroke-width:0;stroke-linecap:butt;stroke-linejoin:miter;stroke-miterlimit:4;stroke-dasharray:none;stroke-dashoffset:0;stroke-opacity:1;stop-color:#000000;stop-opacity:1"
         id="rect643"
         width="102.53771"
         height="70.040024"
         x="20.306816"
         y="49.860813" /><path
         class="cls-1"
         d="m 1.2974874e-4,0.004005 c 0,0 127.18524025126,-0.004 127.99347025126,-0.004 0.026,42.66644 -0.0369,85.33295 0.002,127.999385 L 0.00528475,128 c 0,0 0.0105,-127.989215 -0.005400001,-127.995825 z M 71.14679,68.094665 V 57.594295 H 25.59922 v 10.50037 H 41.862256 V 114.83623 H 54.809947 V 68.094665 h 16.342997 z m 5.160621,45.503675 c 2.085163,1.06373 4.557834,1.85996 7.405713,2.39493 2.85402,0.53498 5.85568,0.79624 9.0111,0.79624 3.15542,0 6.0033,-0.29237 8.771206,-0.8771 2.76792,-0.58474 5.19753,-1.54893 7.28884,-2.89258 2.08516,-1.34365 3.73976,-3.09786 4.95765,-5.26885 1.21787,-2.17099 1.82682,-4.85206 1.82682,-8.043235 0,-2.31406 -0.35061,-4.34198 -1.04566,-6.08997 -0.69505,-1.74177 -1.69765,-3.2907 -3.01395,-4.653 -1.31015,-1.3561 -2.88478,-2.57533 -4.71775,-3.65149 -1.83298,-1.07617 -3.89969,-2.09635 -6.20013,-3.05432 -1.685356,-0.69048 -3.198476,-1.36231 -4.539376,-2.01547 -1.34091,-0.65317 -2.47883,-1.31877 -3.41377,-1.99682 -0.93493,-0.67804 -1.66074,-1.39963 -2.16512,-2.15854 -0.51053,-0.75891 -0.76271,-1.61736 -0.76271,-2.57533 0,-0.8771 0.22758,-1.66712 0.68275,-2.37627 0.45517,-0.70293 1.09486,-1.31255 1.92524,-1.81641 0.83037,-0.50387 1.84527,-0.89577 3.05085,-1.1757 1.20558,-0.27992 2.54033,-0.41677 4.01656,-0.41677 1.070246,0 2.202026,0.0809 3.395306,0.23638 1.19327,0.16173 2.38655,0.40434 3.59213,0.74025 1.20558,0.32969 2.37425,0.75269 3.51218,1.25656 1.13792,0.50386 2.18972,1.0886 3.14927,1.75421 v -11.93733 c -1.956,-0.74647 -4.09037,-1.3001 -6.40311,-1.65468 -2.31274,-0.36079 -4.96994,-0.54119 -7.971586,-0.54119 -3.00165,0 -5.94179,0.32347 -8.6728,0.97663 -2.73101,0.65317 -5.12987,1.66712 -7.20888,3.05432 -2.079013,1.38719 -3.71516,3.14762 -4.920736,5.2875 -1.205581,2.13989 -1.808375,4.70277 -1.808375,7.68244 0,3.80701 1.101015,7.05416 3.315348,9.74146 2.208178,2.6873 5.560433,4.96404 10.056753,6.82399 1.76532,0.7216 3.41376,1.42452 4.93919,2.11501 1.52543,0.69048 2.84173,1.41208 3.95505,2.15232 1.11331,0.74648 1.986736,1.55515 2.632586,2.43226 0.64584,0.8771 0.9657,1.87862 0.9657,2.992115 0,0.82734 -0.20299,1.59247 -0.6028,2.29539 -0.39981,0.70293 -1.00875,1.31876 -1.826816,1.83508 -0.81807,0.5163 -1.83297,0.92686 -3.05086,1.21923 -1.21788,0.29237 -2.6449,0.44166 -4.27489,0.44166 -2.78636,0 -5.54198,-0.4852 -8.27298,-1.4556 -2.731013,-0.97042 -5.259044,-2.42604 -7.590244,-4.37309 v 12.77089 z"
         id="path333-3"
         style="display:inline;stroke-width:0.618566"
         inkscape:label="path333"
         sodipodi:nodetypes="cccccccccccccccccsscssccscsscscsssccscccsssssccscssssssscccc" /></g></g></svg>
