<?xml version="1.0" encoding="UTF-8" standalone="no"?>
<!-- Created with Inkscape (http://www.inkscape.org/) -->

<svg
   version="1.1"
   id="svg3955"
   width="64"
   height="64"
   viewBox="0 0 64 64"
   sodipodi:docname="application-x-java-archive.svg"
   inkscape:version="1.2.2 (b0a8486541, 2022-12-01)"
   xmlns:inkscape="http://www.inkscape.org/namespaces/inkscape"
   xmlns:sodipodi="http://sodipodi.sourceforge.net/DTD/sodipodi-0.dtd"
   xmlns:xlink="http://www.w3.org/1999/xlink"
   xmlns="http://www.w3.org/2000/svg"
   xmlns:svg="http://www.w3.org/2000/svg">
  <defs
     id="defs3959">
    <linearGradient
       id="linearGradient1447">
      <stop
         id="stop1443"
         style="stop-color:#5e5e5e;stop-opacity:1;"
         offset="0" />
      <stop
         id="stop1445"
         style="stop-color:#c6c6c6"
         offset="1" />
    </linearGradient>
    <radialGradient
       id="radialGradient4086"
       cx="62.625"
       cy="4.625"
       r="10.625"
       gradientTransform="matrix(1,0,0,0.34118,0,3.0471)"
       gradientUnits="userSpaceOnUse">
      <stop
         id="stop8840"
         offset="0" />
      <stop
         id="stop8842"
         style="stop-opacity:0"
         offset="1" />
    </radialGradient>
    <linearGradient
       id="linearGradient4094"
       x1="34.875999"
       x2="38.154999"
       y1="22.978001"
       y2="23.945"
       gradientTransform="translate(-1,-1)"
       gradientUnits="userSpaceOnUse">
      <stop
         id="stop4090"
         style="stop-color:#7f7f7f;stop-opacity:1;"
         offset="0" />
      <stop
         id="stop4092"
         style="stop-color:#e7e7e3;stop-opacity:1;"
         offset="1" />
    </linearGradient>
    <linearGradient
       id="linearGradient4102"
       x1="34.463001"
       x2="39.780998"
       y1="24.868"
       y2="27.549"
       gradientTransform="translate(-1,-1)"
       gradientUnits="userSpaceOnUse"
       xlink:href="#linearGradient1447" />
    <linearGradient
       id="linearGradient3584">
      <stop
         id="stop3586"
         style="stop-color:#5f5f5f"
         offset="0" />
      <stop
         id="stop3588"
         style="stop-color:#c6c6c6"
         offset="1" />
    </linearGradient>
    <radialGradient
       id="radialGradient4111"
       cx="-6.4537001"
       cy="29.205999"
       r="32"
       gradientTransform="matrix(0,0.47619,-0.494,0,32.286,26.955)"
       gradientUnits="userSpaceOnUse">
      <stop
         id="stop3491"
         style="stop-color:#f5f5f5;stop-opacity:1;"
         offset="0" />
      <stop
         id="stop3497"
         style="stop-color:#dededb;stop-opacity:1;"
         offset="0.5" />
      <stop
         id="stop3493"
         style="stop-color:#707070;stop-opacity:1;"
         offset="1" />
    </radialGradient>
    <linearGradient
       id="linearGradient4113"
       x1="117.3"
       x2="53.303001"
       y1="55.030998"
       y2="2.3599"
       gradientTransform="matrix(0.33333,0,0,0.33786,-5.4339,15.066)"
       gradientUnits="userSpaceOnUse"
       xlink:href="#linearGradient3584" />
    <linearGradient
       id="linearGradient4067"
       x1="5.6835999"
       x2="35.033001"
       y1="16.365999"
       y2="16.365999"
       gradientUnits="userSpaceOnUse"
       spreadMethod="reflect">
      <stop
         id="stop3528"
         style="stop-color:#d1d1d1"
         offset="0" />
      <stop
         id="stop3530"
         style="stop-color:#959594"
         offset="1" />
    </linearGradient>
    <radialGradient
       id="radialGradient4107"
       cx="8.4375"
       cy="32.535"
       r="26.406"
       gradientTransform="matrix(0.37791,0,0,0.11821,19.791,17.658)"
       gradientUnits="userSpaceOnUse">
      <stop
         id="stop3740"
         style="stop-color:#8b6a35"
         offset="0" />
      <stop
         id="stop3742"
         style="stop-color:#754d0d"
         offset=".60331" />
      <stop
         id="stop3744"
         style="stop-color:#483816"
         offset="1" />
    </radialGradient>
    <linearGradient
       id="linearGradient4071"
       x1="87.050003"
       x2="87.050003"
       y1="53.75"
       y2="41.73"
       gradientTransform="matrix(0.33333,0,0,0.33786,-5.4339,14.704)"
       gradientUnits="userSpaceOnUse">
      <stop
         id="stop3597"
         style="stop-color:#fff"
         offset="0" />
      <stop
         id="stop3599"
         style="stop-color:#fff;stop-opacity:0"
         offset="1" />
    </linearGradient>
    <linearGradient
       id="linearGradient4073"
       x1="-1.9371001"
       x2="-1.9371001"
       y1="-0.72359997"
       y2="31.827"
       gradientUnits="userSpaceOnUse">
      <stop
         id="stop3668"
         style="stop-color:#fff"
         offset="0" />
      <stop
         id="stop3670"
         style="stop-color:#fff;stop-opacity:0"
         offset="1" />
    </linearGradient>
  </defs>
  <sodipodi:namedview
     id="namedview3957"
     pagecolor="#ffffff"
     bordercolor="#999999"
     borderopacity="1"
     inkscape:showpageshadow="0"
     inkscape:pageopacity="0"
     inkscape:pagecheckerboard="0"
     inkscape:deskcolor="#d1d1d1"
     showgrid="true"
     inkscape:zoom="16"
     inkscape:cx="26.1875"
     inkscape:cy="63.78125"
     inkscape:window-width="1981"
     inkscape:window-height="1316"
     inkscape:window-x="2"
     inkscape:window-y="67"
     inkscape:window-maximized="0"
     inkscape:current-layer="layer1">
    <inkscape:grid
       type="xygrid"
       id="grid1581" />
  </sodipodi:namedview>
  <g
     inkscape:groupmode="layer"
     id="layer3"
     inkscape:label="Bg-layer">
    <path
       id="path6005"
       style="display:inline;opacity:1;fill:#e5c370;fill-opacity:1;fill-rule:evenodd;stroke:#000000;stroke-width:0;stroke-dasharray:none;stroke-opacity:1;stop-color:#000000;stop-opacity:1"
       d="m 8.5,0.64170361 h 35 L 55.504485,12.5 V 63.239543 H 8.5 Z"
       sodipodi:nodetypes="cccccc"
       inkscape:label="rect1980__Dokument_bg-colour" />
    <g
       id="g593"
       transform="matrix(0.9999975,0,0,0.9999975,15.882903,-39.10163)"
       inkscape:label="JAR-flag"
       style="display:inline">
      <path
         style="display:inline;fill:#1ea531;fill-opacity:1;stroke-width:1.31451"
         d="m -7.0689325,86.304759 c 0,0 0.0091,14.099131 0.0091,15.999991 1.8753706,0 44.0062195,7.2e-4 46.4206605,7.2e-4 V 86.304759 Z"
         id="path26"
         sodipodi:nodetypes="ccccc" />
      <path
         d="m 9.9431674,96.176353 c -7.9e-6,0.500783 -0.073729,0.973741 -0.2211463,1.418876 -0.1351519,0.44514 -0.3685836,0.834635 -0.7002964,1.168487 -0.3194392,0.333855 -0.7371594,0.600936 -1.2531621,0.801248 -0.5160132,0.189184 -1.1425929,0.283775 -1.8797431,0.283775 -0.7740145,0 -1.4190243,-0.08903 -1.9350296,-0.267082 -0.5160092,-0.178055 -0.9521583,-0.39506 -1.3084486,-0.651014 l 0.8661561,-1.635882 c 0.3071458,0.178057 0.6450086,0.350549 1.0135869,0.517473 0.38086,0.166928 0.7678659,0.250391 1.1610178,0.25039 0.5897194,10e-7 1.0627262,-0.139104 1.4190218,-0.417317 0.3685718,-0.289337 0.5528603,-0.817938 0.5528656,-1.585803 V 91.001626 H 3.8432168 v -1.702652 h 6.0999506 v 6.877379"
         id="path28"
         style="line-height:125%;letter-spacing:0;word-spacing:0;display:inline;fill:#ffffff;stroke-width:1.25281" />
      <path
         d="m 17.701715,99.631735 -0.534437,-2.387052 h -3.040761 l -0.516008,2.387052 h -2.358893 c 0.54058,-2.036503 1.087301,-3.889388 1.640168,-5.558658 0.552864,-1.680388 1.0873,-3.271754 1.60331,-4.774103 h 2.469467 c 0.540573,1.513478 1.07501,3.121536 1.60331,4.824181 0.540572,1.691527 1.062722,3.527718 1.566453,5.50858 h -2.432609 m -2.027174,-8.329641 c -0.122868,0.389503 -0.239579,0.762307 -0.350148,1.118409 -0.09829,0.344988 -0.196578,0.68997 -0.294862,1.034945 -0.08601,0.333859 -0.172006,0.673276 -0.258004,1.018253 -0.07371,0.344986 -0.147433,0.701097 -0.221146,1.06833 h 2.229891 c -0.07371,-0.367233 -0.147436,-0.723344 -0.221146,-1.06833 -0.07372,-0.344977 -0.159722,-0.684394 -0.258004,-1.018253 -0.08601,-0.344975 -0.184293,-0.689957 -0.294862,-1.034945 -0.09829,-0.356102 -0.208864,-0.728906 -0.331719,-1.118409"
         id="path30"
         style="line-height:125%;letter-spacing:0;word-spacing:0;display:inline;fill:#ffffff;stroke-width:1.25281" />
      <path
         d="m 24.243958,89.182126 c 0.651149,1e-5 1.240871,0.06678 1.76917,0.200312 0.528288,0.133552 0.982866,0.339427 1.363735,0.617628 0.380856,0.27822 0.669574,0.634331 0.866156,1.068331 0.208853,0.422889 0.313283,0.923668 0.313291,1.50234 -8e-6,0.600942 -0.135152,1.146235 -0.405435,1.635881 -0.270297,0.489657 -0.718732,0.862459 -1.345306,1.118409 0.208854,0.289343 0.43,0.612069 0.663438,0.968174 0.233425,0.344985 0.460715,0.712224 0.681868,1.101716 0.221138,0.378369 0.429999,0.762301 0.626581,1.151794 0.208852,0.378368 0.386998,0.740042 0.534437,1.085024 H 26.934571 C 26.651989,98.964029 26.32027,98.324144 25.939412,97.712078 25.57083,97.088888 25.171539,96.460132 24.741537,95.825807 H 23.56209 v 3.805928 H 21.295341 V 89.449208 c 0.221145,-0.04451 0.46072,-0.08345 0.718726,-0.116848 0.270288,-0.0445 0.540577,-0.07233 0.810869,-0.08346 0.270288,-0.02225 0.528291,-0.03894 0.774012,-0.05008 0.245715,-0.01109 0.460719,-0.01668 0.64501,-0.01669 m 2.008745,3.371918 c -5e-6,-0.545286 -0.184294,-0.94591 -0.552866,-1.201872 -0.368581,-0.255945 -0.853874,-0.383923 -1.455879,-0.383931 -0.08601,8e-6 -0.190435,0.0056 -0.313291,0.01669 -0.122867,8e-6 -0.245721,0.01109 -0.368577,0.03339 v 3.104836 h 0.497579 c 0.774008,6e-6 1.333016,-0.133536 1.677026,-0.400624 0.344,-0.278205 0.516003,-0.6677 0.516008,-1.168487"
         id="path32"
         style="line-height:125%;letter-spacing:0;word-spacing:0;display:inline;fill:#ffffff;stroke-width:1.25281" />
    </g>
    <path
       style="display:inline;fill:none;stroke:#f0e1bc;stroke-width:3.33471;stroke-linecap:butt;stroke-linejoin:miter;stroke-dasharray:none;stroke-opacity:1"
       d="m 43.819748,10.620065 c 1.776818,0.02161 6.248641,0.01514 7.474979,0.02231 L 45.515884,4.8738549 c 0.0072,1.6603177 -0.0143,3.4907448 -0.0129,6.0343921"
       id="path2348"
       sodipodi:nodetypes="cccc"
       inkscape:label="rect1980__Dokument_&quot;baksida&quot;" />
  </g>
  <g
     inkscape:groupmode="layer"
     id="layer1"
     inkscape:label="Cuppa"
     style="display:inline"
     transform="translate(0.26298523,-4.3715744)">
    <g
       id="layer1-3"
       transform="matrix(1.380183,0,0,1.380183,-1.6312647,2.6801777)">
      <path
         id="path2845"
         transform="matrix(1.1294,0,0,1.1034,-47.729,26.897)"
         d="m 73.25,4.625 a 10.625,3.625 0 1 1 -21.25,0 10.625,3.625 0 1 1 21.25,0 z"
         style="display:inline;opacity:0.3;fill:url(#radialGradient4086);fill-rule:evenodd" />
      <path
         id="path4023"
         d="m 32.049,29.476 c 3.268384,-0.808024 6.2362,-4.0598 6.2362,-5.8758 0,-0.27604 -0.08887,-0.5585 -0.21211,-0.77769 -0.15458,-0.26099 -0.32161,-0.43403 -0.5515,-0.60486 -1.0525,-0.75396 -1.742628,-0.63657 -4.3271,-0.63657 -8.473717,0.960474 -3.231274,8.373367 -2.271865,8.139941 z m 0.71879,-5.849 c 0,0 1.7866,0.0059 2.5801,0.0059 0,1.6917 -2.5693,2.4962 -2.5693,2.4962 L 32.76773,23.627 Z"
         style="display:inline;fill:url(#linearGradient4094);stroke:url(#linearGradient4102);stroke-width:0.99112"
         sodipodi:nodetypes="cscccccccccc" />
      <path
         id="path3674"
         d="m 23,15.51 c -5.5764,0 -10.141,1.6257 -10.479,3.6742 h -0.02083 v 0.24284 2.0694 0.15837 c 0.07516,6.5473 4.7505,11.836 10.5,11.836 5.7493,0 10.425,-5.2884 10.5,-11.836 6.1e-4,-0.05333 0,-0.10488 0,-0.15837 V 19.42704 19.1842 H 33.47934 C 33.14144,17.1356 28.57664,15.51 23.00034,15.51 Z"
         style="display:inline;fill:url(#radialGradient4111);stroke:url(#linearGradient4113);stroke-linecap:square;stroke-linejoin:round" />
      <path
         id="path3678"
         transform="matrix(0.30629,0,0,0.16999,21.218,16.868)"
         d="m 35.033,16.366 a 29.2815,14.64125 0 1 1 -58.563,0 29.2815,14.64125 0 1 1 58.563,0 z"
         style="display:inline;fill:url(#linearGradient4067)" />
      <path
         id="path3680"
         d="m 22.979,18.441 c -4.1545,0 -7.6472,0.78624 -8.6647,1.8506 1.0225,1.0624 4.5154,1.843 8.6647,1.843 4.1484,0 7.6414,-0.78098 8.6647,-1.843 C 30.6256,19.2275 27.1329,18.441 22.979,18.441 Z"
         style="display:inline;fill:url(#radialGradient4107)" />
      <path
         id="path3682"
         d="m 31.357,27.448 c -1.7392,2.4068 -4.7827,4.0015 -8.2499,4.0015 -3.4603,0 -6.4986,-1.5921 -8.2395,-3.991 1.3394,3.1705 4.524,5.4058 8.2395,5.4058 3.7204,0 6.9136,-2.2392 8.2499,-5.4163 z"
         style="display:inline;opacity:0.3;fill:url(#linearGradient4071)" />
      <path
         id="path3684"
         transform="matrix(0.32448,0,0,0.2091,21.134,16.248)"
         d="m 35.033,16.366 a 29.2815,14.64125 0 1 1 -58.563,0 29.2815,14.64125 0 1 1 58.563,0 z"
         style="display:inline;opacity:0.6;fill:none;stroke:url(#linearGradient4073);stroke-width:3.9315;stroke-linecap:square;stroke-linejoin:round" />
    </g>
  </g>
  <g
     inkscape:groupmode="layer"
     inkscape:label="Image"
     id="g3961"
     style="display:inline"
     sodipodi:insensitive="true">
    <g
       id="g2372"
       style="display:inline"
       transform="matrix(0.5,0,0,0.5,22.504374,-7.0026715)"
       sodipodi:insensitive="true">
      <g
         id="g2364"
         style="display:none;stroke:#000000;stroke-opacity:1"
         inkscape:label="g2364__Textraderna"
         transform="translate(-2.0054702,14.007669)"
         sodipodi:insensitive="true">
        <path
           style="display:inline;fill:none;stroke:#000000;stroke-width:2;stroke-linecap:butt;stroke-linejoin:miter;stroke-dasharray:none;stroke-opacity:1"
           d="m 15.005793,27.002183 h 33.000754 v 0.510948 -0.415125"
           id="path5727" />
        <path
           style="display:inline;fill:none;stroke:#000000;stroke-width:2;stroke-linecap:butt;stroke-linejoin:miter;stroke-dasharray:none;stroke-opacity:1"
           d="m 15.005793,21.002183 h 33.000754 v 0.510948 -0.415125"
           id="path2328" />
        <path
           style="display:inline;fill:none;stroke:#000000;stroke-width:2;stroke-linecap:butt;stroke-linejoin:miter;stroke-dasharray:none;stroke-opacity:1"
           d="m 15.005793,33.002183 h 33.000754 v 0.510948 -0.415125"
           id="path2330" />
      </g>
      <g
         id="g342"
         style="display:inline;stroke:#000000;stroke-opacity:1"
         inkscape:label="g342__Diagonalt_veck"
         sodipodi:insensitive="true">
        <path
           style="display:inline;fill:none;stroke:#000000;stroke-width:2;stroke-linecap:butt;stroke-linejoin:miter;stroke-dasharray:none;stroke-opacity:1"
           d="m 46.999618,21.009995 h 0.99819 v 0.09561"
           id="path2368"
           sodipodi:nodetypes="ccc" />
        <path
           style="display:inline;fill:none;stroke:#000000;stroke-width:2;stroke-linecap:butt;stroke-linejoin:miter;stroke-dasharray:none;stroke-opacity:1"
           d="m 48.999618,23.009995 h 0.99819 v 0.09561"
           id="path329"
           sodipodi:nodetypes="ccc" />
        <path
           style="display:inline;fill:none;stroke:#000000;stroke-width:2;stroke-linecap:butt;stroke-linejoin:miter;stroke-dasharray:none;stroke-opacity:1"
           d="m 50.999618,25.009995 h 0.99819 v 0.09561"
           id="path331"
           sodipodi:nodetypes="ccc" />
        <path
           style="display:inline;fill:none;stroke:#000000;stroke-width:2;stroke-linecap:butt;stroke-linejoin:miter;stroke-dasharray:none;stroke-opacity:1"
           d="m 44.999618,19.009995 h 0.99819 v 0.09561"
           id="path333"
           sodipodi:nodetypes="ccc" />
        <path
           style="display:inline;fill:none;stroke:#000000;stroke-width:2;stroke-linecap:butt;stroke-linejoin:miter;stroke-dasharray:none;stroke-opacity:1"
           d="m 42.999618,17.009995 h 0.99819 v 0.09561"
           id="path335"
           sodipodi:nodetypes="ccc" />
      </g>
      <g
         id="g2319"
         style="display:inline;stroke:#000000;stroke-opacity:1"
         inkscape:label="g342__Diagonalt_veck"
         transform="translate(10,10)"
         sodipodi:insensitive="true">
        <path
           style="display:inline;fill:none;stroke:#000000;stroke-width:2;stroke-linecap:butt;stroke-linejoin:miter;stroke-dasharray:none;stroke-opacity:1"
           d="m 52.999618,27.009995 h 0.99819 v 0.09561"
           id="path2323"
           sodipodi:nodetypes="ccc" />
        <path
           style="display:inline;fill:none;stroke:#000000;stroke-width:2;stroke-linecap:butt;stroke-linejoin:miter;stroke-dasharray:none;stroke-opacity:1"
           d="m 50.999618,25.009995 h 0.99819 v 0.09561"
           id="path2313"
           sodipodi:nodetypes="ccc" />
        <path
           style="display:inline;fill:none;stroke:#000000;stroke-width:2;stroke-linecap:butt;stroke-linejoin:miter;stroke-dasharray:none;stroke-opacity:1"
           d="m 48.999618,23.009995 h 0.99819 v 0.09561"
           id="path2311"
           sodipodi:nodetypes="ccc" />
        <path
           style="display:inline;fill:none;stroke:#000000;stroke-width:2;stroke-linecap:butt;stroke-linejoin:miter;stroke-dasharray:none;stroke-opacity:1"
           d="m 46.999618,21.009995 h 0.99819 v 0.09561"
           id="path2309"
           sodipodi:nodetypes="ccc" />
        <path
           style="display:inline;fill:none;stroke:#000000;stroke-width:2;stroke-linecap:butt;stroke-linejoin:miter;stroke-dasharray:none;stroke-opacity:1"
           d="m 44.999618,19.009995 h 0.99819 v 0.09561"
           id="path2315"
           sodipodi:nodetypes="ccc" />
        <path
           style="display:inline;fill:none;stroke:#000000;stroke-width:2;stroke-linecap:butt;stroke-linejoin:miter;stroke-dasharray:none;stroke-opacity:1"
           d="m 42.999618,17.009995 h 0.99819 v 0.09561"
           id="path2317"
           sodipodi:nodetypes="ccc" />
      </g>
    </g>
  </g>
  <g
     inkscape:groupmode="layer"
     id="layer2"
     inkscape:label="Image 1"
     style="display:inline"
     sodipodi:insensitive="true">
    <path
       id="rect4394"
       style="display:inline;opacity:1;fill:none;fill-rule:evenodd;stroke:#000000;stroke-width:1;stroke-dasharray:none;stroke-opacity:1;stop-color:#000000;stop-opacity:1"
       d="M 8.5,0.5051471 H 43.507406 L 43.500506,12.496404 55.50904,12.488804 55.5,63.5 h -47 z"
       sodipodi:nodetypes="ccccccc"
       inkscape:label="rect4394__Dokument_kontur"
       sodipodi:insensitive="true" />
  </g>
</svg>
