<?xml version="1.0" encoding="UTF-8" standalone="no"?>
<!-- Created with Inkscape (http://www.inkscape.org/) -->

<svg
   version="1.1"
   id="svg3955"
   width="64"
   height="64"
   viewBox="0 0 64 64"
   sodipodi:docname="application-x-theme.svg"
   inkscape:version="1.2.2 (b0a8486541, 2022-12-01)"
   xml:space="preserve"
   xmlns:inkscape="http://www.inkscape.org/namespaces/inkscape"
   xmlns:sodipodi="http://sodipodi.sourceforge.net/DTD/sodipodi-0.dtd"
   xmlns:xlink="http://www.w3.org/1999/xlink"
   xmlns="http://www.w3.org/2000/svg"
   xmlns:svg="http://www.w3.org/2000/svg"><defs
     id="defs3959"><linearGradient
       inkscape:collect="always"
       id="linearGradient1067"><stop
         style="stop-color:#41eeff;stop-opacity:1;"
         offset="0"
         id="stop1063" /><stop
         style="stop-color:#fb41ff;stop-opacity:1;"
         offset="1"
         id="stop1065" /></linearGradient><linearGradient
       inkscape:collect="always"
       xlink:href="#linearGradient1067"
       id="linearGradient1069"
       x1="-2.219929"
       y1="64.472412"
       x2="58.298805"
       y2="64.472412"
       gradientUnits="userSpaceOnUse" /></defs><sodipodi:namedview
     id="namedview3957"
     pagecolor="#ffffff"
     bordercolor="#999999"
     borderopacity="1"
     inkscape:showpageshadow="0"
     inkscape:pageopacity="0"
     inkscape:pagecheckerboard="0"
     inkscape:deskcolor="#d1d1d1"
     showgrid="false"
     inkscape:zoom="8.0000001"
     inkscape:cx="48.1875"
     inkscape:cy="51.5"
     inkscape:window-width="1808"
     inkscape:window-height="1355"
     inkscape:window-x="791"
     inkscape:window-y="28"
     inkscape:window-maximized="0"
     inkscape:current-layer="layer1" /><path
     id="rect1980"
     style="display:inline;opacity:1;fill:#f5f5f5;fill-opacity:1;fill-rule:evenodd;stroke:#000000;stroke-width:0;stroke-dasharray:none;stop-color:#000000;stop-opacity:1"
     d="M 7.759101,0.635305 H 43.701796 L 56.173759,13.139642 V 63.233144 H 7.759101 Z"
     sodipodi:nodetypes="cccccc"
     inkscape:label="rect1980__Dokument_bg-colour"
     sodipodi:insensitive="true" /><g
     inkscape:groupmode="layer"
     id="layer1"
     inkscape:label="Image 2"
     style="display:inline"
     transform="matrix(0.5,0,0,0.5,16.002688,16.003199)"
     sodipodi:insensitive="true"><rect
       style="font-variation-settings:normal;display:inline;opacity:1;fill:#ba8855;fill-opacity:1;fill-rule:evenodd;stroke:none;stroke-width:0;stroke-linecap:butt;stroke-linejoin:miter;stroke-miterlimit:4;stroke-dasharray:none;stroke-dashoffset:0;stroke-opacity:1;stop-color:#000000;stop-opacity:1"
       id="rect1018"
       width="7.6017723"
       height="17.500698"
       x="26.193676"
       y="10.603073"
       inkscape:label="handtaget"
       transform="matrix(2,0,0,2,-32.005376,-32.006398)" /><rect
       style="font-variation-settings:normal;display:inline;opacity:1;fill:url(#linearGradient1069);fill-opacity:1;fill-rule:evenodd;stroke:none;stroke-width:0;stroke-linecap:butt;stroke-linejoin:miter;stroke-miterlimit:4;stroke-dasharray:none;stroke-dashoffset:0;stroke-opacity:1;stop-color:#000000;stop-opacity:1"
       id="rect1038"
       width="60.518734"
       height="18.98085"
       x="-2.219929"
       y="54.981987"
       inkscape:label="rullen" /><path
       d="m -7.9627933,62.14101 h 2.651352 v -2.255846 c 0,-2.145984 0.871577,-4.08689 2.285142,-5.500456 1.4135659,-1.406241 3.35447298,-2.285142 5.500455,-2.285142 H 53.780003 c 2.145984,0 4.08689,0.871576 5.500456,2.285142 1.413566,1.413566 2.285143,3.354472 2.285143,5.500456 v 2.57811 h 1.062006 c 1.127923,0 2.153307,-0.461423 2.900373,-1.208489 0.747066,-0.747066 1.208489,-1.772451 1.208489,-2.900374 v -11.89446 c 0,-1.127923 -0.461423,-2.153308 -1.208489,-2.900374 -0.747066,-0.747066 -1.77245,-1.208489 -2.900373,-1.208489 H 41.892866 c -0.900873,0 -1.215812,0.0073 -1.523427,0.0073 -3.566874,0.0586 -7.551226,0.124512 -10.664001,-2.131334 -1.069329,-0.769039 -1.918934,-1.750479 -2.534164,-2.958968 -0.593258,-1.157219 -0.952143,-2.519516 -1.06933,-4.094213 0,-0.04394 -0.0074,-0.08789 -0.0074,-0.131836 v 0 -6.013147 h -3.142071 c -1.376944,0 -2.629377,-0.563961 -3.530251,-1.464835 -0.908198,-0.908198 -1.464835,-2.153308 -1.464835,-3.530253 V -7.8195402 c 0,-1.376947 0.563962,-2.6293788 1.464835,-3.5302498 0.908198,-0.9082 2.153307,-1.464839 3.530251,-1.464839 h 9.77045 c 1.376945,0 2.629379,0.563959 3.530253,1.464839 0.908198,0.908191 1.464836,2.1533028 1.464836,3.5302498 V 22.033826 c 0,1.376945 -0.563962,2.629379 -1.464836,3.530252 -0.908198,0.908198 -2.153308,1.464835 -3.530253,1.464835 h -2.951642 v 5.976527 c 0.08064,1.025384 0.315015,1.882313 0.673899,2.592758 0.344237,0.681148 0.820307,1.223137 1.413566,1.655264 2.131335,1.545401 5.471159,1.494132 8.452099,1.442862 0.747065,-0.01465 1.479483,-0.02197 1.582021,-0.02197 h 20.734742 c 2.145983,0 4.086889,0.871577 5.500456,2.285143 1.413565,1.413561 2.285142,3.361792 2.285142,5.500451 v 11.894463 c 0,2.145984 -0.878901,4.086891 -2.285142,5.500456 -1.413567,1.406242 -3.354473,2.285143 -5.500456,2.285143 h -1.062006 v 3.259258 c 0,2.145983 -0.871577,4.08689 -2.285143,5.500456 -1.413566,1.413566 -3.354472,2.285143 -5.500456,2.285143 H 2.4741557 c -2.14598202,0 -4.0868891,-0.871577 -5.500455,-2.285143 -1.413565,-1.406242 -2.285142,-3.354473 -2.285142,-5.500456 v -3.581522 h -2.651352 z M 2.4741557,73.515455 H 53.780003 c 1.127923,0 2.153308,-0.461423 2.900374,-1.208489 0.747066,-0.747066 1.208489,-1.772451 1.208489,-2.900374 v -9.514104 c 0,-1.127923 -0.461423,-2.153308 -1.208489,-2.900373 -0.747066,-0.747066 -1.772451,-1.20849 -2.900374,-1.20849 H 2.4741557 c -1.127923,0 -2.15330702,0.461424 -2.90037202,1.20849 -0.74706608,0.747065 -1.20848908,1.77245 -1.20848908,2.900373 v 9.50678 c 0,1.127923 0.461423,2.153308 1.20848908,2.900374 0.747065,0.747065 1.77244902,1.215813 2.90037202,1.215813 z M 22.959872,23.359502 h 9.763127 c 0.358885,0 0.695797,-0.146484 0.937494,-0.388182 0.241698,-0.241697 0.388182,-0.571286 0.388182,-0.937494 V -7.8195142 c 0,-0.358888 -0.146484,-0.695793 -0.388182,-0.937494 -0.241697,-0.241701 -0.571286,-0.388182 -0.937494,-0.388182 h -9.763127 c -0.358883,0 -0.695796,0.146481 -0.937492,0.388182 -0.241698,0.241701 -0.388182,0.571286 -0.388182,0.937494 V 22.033826 c 0,0.358885 0.146484,0.695797 0.388182,0.937494 0.241696,0.241698 0.578609,0.388182 0.937492,0.388182 z"
       id="path250"
       style="stroke-width:0.732418" /></g><g
     inkscape:groupmode="layer"
     inkscape:label="Image"
     id="g3961"
     style="display:inline"
     transform="matrix(0.5,0,0,0.5,16.002688,16.003199)"
     sodipodi:insensitive="true"><g
       id="g2372"
       style="display:inline"
       transform="matrix(2,0,0,2,-28.005188,-60.034534)"><g
         id="g342"
         style="display:inline;stroke:#000000;stroke-opacity:1"
         inkscape:label="g342__Diagonalt_veck"><path
           style="display:inline;fill:none;stroke:#000000;stroke-width:2;stroke-linecap:butt;stroke-linejoin:miter;stroke-dasharray:none;stroke-opacity:1"
           d="m 46.999618,21.009995 h 0.99819 v 0.09561"
           id="path2368"
           sodipodi:nodetypes="ccc" /><path
           style="display:inline;fill:none;stroke:#000000;stroke-width:2;stroke-linecap:butt;stroke-linejoin:miter;stroke-dasharray:none;stroke-opacity:1"
           d="m 48.999618,23.009995 h 0.99819 v 0.09561"
           id="path329"
           sodipodi:nodetypes="ccc" /><path
           style="display:inline;fill:none;stroke:#000000;stroke-width:2;stroke-linecap:butt;stroke-linejoin:miter;stroke-dasharray:none;stroke-opacity:1"
           d="m 50.999618,25.009995 h 0.99819 v 0.09561"
           id="path331"
           sodipodi:nodetypes="ccc" /><path
           style="display:inline;fill:none;stroke:#000000;stroke-width:2;stroke-linecap:butt;stroke-linejoin:miter;stroke-dasharray:none;stroke-opacity:1"
           d="m 44.999618,19.009995 h 0.99819 v 0.09561"
           id="path333"
           sodipodi:nodetypes="ccc" /><path
           style="display:inline;fill:none;stroke:#000000;stroke-width:2;stroke-linecap:butt;stroke-linejoin:miter;stroke-dasharray:none;stroke-opacity:1"
           d="m 42.999618,17.009995 h 0.99819 v 0.09561"
           id="path335"
           sodipodi:nodetypes="ccc" /></g></g></g><g
     inkscape:groupmode="layer"
     id="layer2"
     inkscape:label="Image 1"
     style="display:inline"
     transform="matrix(0.5,0,0,0.5,16.002688,16.003199)"
     sodipodi:insensitive="true"><path
       id="rect4394"
       style="display:inline;opacity:1;fill:none;fill-rule:evenodd;stroke:#000000;stroke-width:4.00004;stroke-opacity:1;stop-color:#000000;stop-opacity:1"
       d="m -16.012704,-30.0089 h 72.011388 l -0.0138,23.982512 24.017068,-0.0152 V 93.996104 h -96.014656 z"
       sodipodi:nodetypes="ccccccc"
       inkscape:label="rect4394__Dokument_kontur" /></g></svg>
