<?xml version="1.0" encoding="UTF-8" standalone="no"?>
<svg
   height="64"
   viewBox="0 0 64 64"
   width="64"
   version="1.1"
   id="svg10"
   sodipodi:docname="inode-chardevice.svg"
   inkscape:version="1.2.2 (b0a8486541, 2022-12-01)"
   xml:space="preserve"
   xmlns:inkscape="http://www.inkscape.org/namespaces/inkscape"
   xmlns:sodipodi="http://sodipodi.sourceforge.net/DTD/sodipodi-0.dtd"
   xmlns="http://www.w3.org/2000/svg"
   xmlns:svg="http://www.w3.org/2000/svg"><defs
     id="defs14"><inkscape:perspective
       sodipodi:type="inkscape:persp3d"
       inkscape:vp_x="2.145402 : 3.29219 : 1"
       inkscape:vp_y="0 : 1292.1954 : 0"
       inkscape:vp_z="148.14119 : -5.6186 : 1"
       inkscape:persp3d-origin="73.025383 : -33.185435 : 1"
       id="perspective2019" /></defs><sodipodi:namedview
     id="namedview12"
     pagecolor="#ffffff"
     bordercolor="#999999"
     borderopacity="1"
     inkscape:showpageshadow="0"
     inkscape:pageopacity="0"
     inkscape:pagecheckerboard="0"
     inkscape:deskcolor="#d1d1d1"
     showgrid="false"
     inkscape:zoom="6.1374657"
     inkscape:cx="40.163157"
     inkscape:cy="42.93303"
     inkscape:window-width="1976"
     inkscape:window-height="1326"
     inkscape:window-x="781"
     inkscape:window-y="28"
     inkscape:window-maximized="0"
     inkscape:current-layer="svg10" /><path
     d="M 4.9592602,7.4912495 H 46.541991 c 17.035428,16.7207825 0.220981,0.29875 16.933523,16.6907765 V 39.811582 L 46.595823,56.508751 H 4.9592602 c -2.49459,0 -4.50124997,-1.98496 -4.50124997,-4.452575 V 11.943829 c 0,-2.4654415 2.00665997,-4.4525795 4.50124997,-4.4525795 z"
     fill="#f6f5f4"
     id="path2"
     style="display:inline;stroke:#000000;stroke-width:0.9825;stroke-dasharray:none;stroke-opacity:1"
     sodipodi:nodetypes="sccccssss" /><g
     id="g3274"
     transform="matrix(0.40289658,0,0,0.40289658,10.336185,13.449053)"
     style="display:inline"><g
       id="g8900"><path
         style="display:inline;fill:#68b6ff;fill-opacity:1;stroke:#68b6ff;stroke-width:1px;stroke-linecap:butt;stroke-linejoin:miter;stroke-opacity:1"
         d="m 7.3268453,22.798727 38.8607317,-0.09062 2.208217,1.424256 1.068149,1.462281 -0.334907,2.013197 -2.195836,12.88284 -1.09304,0.963784 -1.912323,0.980456 L 9.0618112,42.70229 7.1375347,41.882912 5.6923487,40.114629 3.0949877,26.467011 4.2654388,24.141333 5.5351459,23.129575 Z"
         id="path3276"
         transform="matrix(2.240029,0,0,2.240029,-16.813234,-25.481373)"
         inkscape:label="path3276 --- BLUE" /></g><path
       style="fill:#ffffff;fill-opacity:0.0490196;stroke:#000000;stroke-width:4;stroke-linecap:butt;stroke-linejoin:round;stroke-miterlimit:4;stroke-dasharray:none;stroke-dashoffset:0;stroke-opacity:1"
       d="M 0.388033,25.46483 H 83.71638 c 5.54,0 10.89802,4.53327 10,10 l -4,24.35027 c -0.89802,5.46673 -4.46,10 -10,10 H 4.388033 c -5.54,0 -9.101984,-4.53327 -10,-10 l -4,-24.35027 c -0.898016,-5.46673 4.46,-10 10,-10 z"
       id="rect3131"
       inkscape:connector-curvature="0"
       sodipodi:nodetypes="sssssssss" /><path
       style="fill:#000000;fill-opacity:1;stroke:none;stroke-width:1.21"
       d="m 10.149611,38.76991 c 0,3.007189 -2.4378112,5.445 -5.445,5.445 -3.0071888,0 -5.445,-2.437811 -5.445,-5.445 0,-3.007189 2.4378112,-5.445 5.445,-5.445 3.0071888,0 5.445,2.437811 5.445,5.445 z"
       id="path3134"
       inkscape:connector-curvature="0" /><path
       inkscape:connector-curvature="0"
       id="path3137"
       d="m 28.823411,38.76991 c 0,3.007189 -2.437811,5.445 -5.445,5.445 -3.007189,0 -5.445,-2.437811 -5.445,-5.445 0,-3.007189 2.437811,-5.445 5.445,-5.445 3.007189,0 5.445,2.437811 5.445,5.445 z"
       style="fill:#000000;fill-opacity:1;stroke:none;stroke-width:1.21" /><path
       style="fill:#000000;fill-opacity:1;stroke:none;stroke-width:1.21"
       d="m 47.497206,38.76991 c 0,3.007189 -2.437811,5.445 -5.445002,5.445 -3.007189,0 -5.445,-2.437811 -5.445,-5.445 0,-3.007189 2.437811,-5.445 5.445,-5.445 3.007191,0 5.445002,2.437811 5.445002,5.445 z"
       id="path3139"
       inkscape:connector-curvature="0" /><path
       inkscape:connector-curvature="0"
       id="path3141"
       d="m 66.171005,38.76991 c 0,3.007189 -2.437811,5.445 -5.445,5.445 -3.007189,0 -5.445,-2.437811 -5.445,-5.445 0,-3.007189 2.437811,-5.445 5.445,-5.445 3.007189,0 5.445,2.437811 5.445,5.445 z"
       style="fill:#000000;fill-opacity:1;stroke:none;stroke-width:1.21" /><path
       style="fill:#000000;fill-opacity:1;stroke:none;stroke-width:1.21"
       d="m 84.84481,38.76991 c 0,3.007189 -2.437811,5.445 -5.445,5.445 -3.007187,0 -5.445004,-2.437811 -5.445004,-5.445 0,-3.007189 2.437816,-5.445 5.445004,-5.445 3.007189,0 5.445,2.437811 5.445,5.445 z"
       id="path3143"
       inkscape:connector-curvature="0" /><path
       style="fill:#000000;fill-opacity:1;stroke:none;stroke-width:1.21"
       d="m 19.486517,56.51002 c 0,3.007189 -2.437811,5.445 -5.445,5.445 -3.007189,0 -5.445,-2.437811 -5.445,-5.445 0,-3.007189 2.437811,-5.445 5.445,-5.445 3.007189,0 5.445,2.437811 5.445,5.445 z"
       id="path3147"
       inkscape:connector-curvature="0" /><path
       inkscape:connector-curvature="0"
       id="path3149"
       d="m 38.160312,56.51002 c 0,3.007189 -2.437811,5.445 -5.445002,5.445 -3.007189,0 -5.445,-2.437811 -5.445,-5.445 0,-3.007189 2.437811,-5.445 5.445,-5.445 3.007191,0 5.445002,2.437811 5.445002,5.445 z"
       style="fill:#000000;fill-opacity:1;stroke:none;stroke-width:1.21" /><path
       style="fill:#000000;fill-opacity:1;stroke:none;stroke-width:1.21"
       d="m 56.834116,56.51002 c 0,3.007189 -2.437811,5.445 -5.445,5.445 -3.007189,0 -5.445,-2.437811 -5.445,-5.445 0,-3.007189 2.437811,-5.445 5.445,-5.445 3.007189,0 5.445,2.437811 5.445,5.445 z"
       id="path3151"
       inkscape:connector-curvature="0" /><path
       inkscape:connector-curvature="0"
       id="path3153"
       d="m 75.507902,56.51002 c 0,3.007189 -2.437811,5.445 -5.445,5.445 -3.007189,0 -5.445,-2.437811 -5.445,-5.445 0,-3.007189 2.437811,-5.445 5.445,-5.445 3.007189,0 5.445,2.437811 5.445,5.445 z"
       style="fill:#000000;fill-opacity:1;stroke:none;stroke-width:1.21" /></g><g
     fill="#deddda"
     id="g8"
     transform="matrix(0.5714298,0,0,0.5677282,-4.1046758,-8.8173175)"
     style="display:inline"><path
       d="M 118.06653,58.020744 H 96.719906 c -4.301912,0 -7.762392,-3.46427 -7.762392,-7.762392 V 29.033061 Z m 0,0"
       id="path852"
       style="display:inline;stroke:#000000;stroke-width:0.970169;stroke-dasharray:none;stroke-opacity:1" /><path
       d="M 118.06653,85.770599 H 96.719906 c -4.301912,0 -7.762392,3.46427 -7.762392,7.762392 v 21.225269 z m 0,0"
       id="path550"
       style="display:inline;stroke:#000000;stroke-width:0.970169;stroke-dasharray:none;stroke-opacity:1" /></g></svg>
