<?xml version="1.0" encoding="UTF-8" standalone="no"?>
<svg
   height="64"
   viewBox="0 0 64 64"
   width="64"
   version="1.1"
   id="svg10"
   sodipodi:docname="inode-symlink.svg"
   inkscape:version="1.2.2 (b0a8486541, 2022-12-01)"
   xmlns:inkscape="http://www.inkscape.org/namespaces/inkscape"
   xmlns:sodipodi="http://sodipodi.sourceforge.net/DTD/sodipodi-0.dtd"
   xmlns="http://www.w3.org/2000/svg"
   xmlns:svg="http://www.w3.org/2000/svg">
  <defs
     id="defs14" />
  <sodipodi:namedview
     id="namedview12"
     pagecolor="#ffffff"
     bordercolor="#999999"
     borderopacity="1"
     inkscape:showpageshadow="0"
     inkscape:pageopacity="0"
     inkscape:pagecheckerboard="0"
     inkscape:deskcolor="#d1d1d1"
     showgrid="false"
     inkscape:zoom="6.1374658"
     inkscape:cx="20.122312"
     inkscape:cy="77.882308"
     inkscape:window-width="1714"
     inkscape:window-height="1355"
     inkscape:window-x="666"
     inkscape:window-y="139"
     inkscape:window-maximized="0"
     inkscape:current-layer="svg10" />
  <path
     d="M 4.9747135,7.499899 H 46.557444 c 17.035429,16.720782 0.220982,0.298749 16.933524,16.690775 V 39.82023 L 46.611277,56.517399 H 4.9747135 c -2.49459,0 -4.50125098,-1.98496 -4.50125098,-4.452575 V 11.952478 c 0,-2.465442 2.00666098,-4.452579 4.50125098,-4.452579 z"
     fill="#f6f5f4"
     id="path2"
     style="display:inline;stroke:#000000;stroke-width:0.9825;stroke-dasharray:none;stroke-opacity:1"
     sodipodi:nodetypes="sccccssss" />
  <g
     fill="#deddda"
     id="g8"
     transform="matrix(0.5714298,0,0,0.5677282,-4.0892235,-8.808669)">
    <path
       d="m 119.29433,85.11033 h -22 c -4.433594,0 -8,3.570312 -8,8 v 21.87497 z m 0,0"
       id="path4"
       style="display:inline;stroke:#000000;stroke-width:0.999867;stroke-dasharray:none;stroke-opacity:1" />
    <path
       d="M 119.37649,58.650989 H 97.376446 c -4.433594,0 -8,-3.570312 -8,-8 v -21.875 z m 0,0"
       id="path852"
       style="display:inline;stroke:#000000;stroke-width:0.999867;stroke-dasharray:none;stroke-opacity:1" />
  </g>
  <path
     d="m 21.23165,21.045567 c -2.709283,0 -4.89008,2.166671 -4.89008,4.858404 v 12.955742 c 0,2.691732 2.180797,4.858403 4.89008,4.858403 h 13.040214 c 2.709283,0 4.89008,-2.166671 4.89008,-4.858403 v -6.477871 c 0,-0.895136 -0.729055,-1.619468 -1.630027,-1.619468 -0.900972,0 -1.630026,0.724332 -1.630026,1.619468 v 6.477871 c 0,0.898298 -0.725872,1.619467 -1.630027,1.619467 H 21.23165 c -0.904155,0 -1.630027,-0.721169 -1.630027,-1.619467 V 25.903971 c 0,-0.898299 0.725872,-1.619468 1.630027,-1.619468 h 6.520107 c 0.900972,0 1.630027,-0.724332 1.630027,-1.619468 0,-0.895136 -0.729055,-1.619468 -1.630027,-1.619468 z m 11.410187,-3.238935 c -0.900972,0 -1.630027,0.724332 -1.630027,1.619468 0,0.895135 0.729055,1.619467 1.630027,1.619467 h 4.211964 l -8.624497,8.568629 c -0.639913,0.632605 -0.639913,1.660587 0,2.293192 0.63673,0.632604 1.66823,0.632604 2.304959,0 l 8.627681,-8.571792 v 4.187842 c 0,0.895136 0.729055,1.619468 1.630027,1.619468 0.900972,0 1.630027,-0.724332 1.630027,-1.619468 V 19.4261 c 0,-0.142336 -0.0191,-0.281509 -0.0573,-0.417519 -0.0382,-0.139173 -0.09233,-0.268857 -0.162368,-0.392215 -0.07004,-0.123358 -0.159183,-0.234064 -0.257876,-0.33528 -0.02547,-0.01898 -0.05094,-0.03796 -0.07641,-0.05693 -0.08914,-0.08224 -0.191018,-0.151825 -0.296079,-0.20876 -0.06049,-0.03163 -0.124162,-0.05693 -0.187835,-0.07908 -0.08277,-0.03479 -0.168733,-0.0601 -0.254692,-0.07908 -0.06686,-0.01581 -0.130529,-0.02214 -0.197386,-0.02847 -0.04775,-0.01581 -0.09233,-0.01581 -0.14008,-0.01897 z m 0,0"
     id="path6"
     style="fill:#2d2d2d;fill-opacity:1;stroke-width:0.8125;stroke-dasharray:none" />
</svg>
