<?xml version="1.0" encoding="UTF-8" standalone="no"?>
<!-- Created with Inkscape (http://www.inkscape.org/) -->

<svg
   version="1.1"
   id="svg3955"
   width="64"
   height="64"
   viewBox="0 0 64 64"
   sodipodi:docname="text-html.svg"
   inkscape:version="1.2.2 (b0a8486541, 2022-12-01)"
   xmlns:inkscape="http://www.inkscape.org/namespaces/inkscape"
   xmlns:sodipodi="http://sodipodi.sourceforge.net/DTD/sodipodi-0.dtd"
   xmlns="http://www.w3.org/2000/svg"
   xmlns:svg="http://www.w3.org/2000/svg">
  <defs
     id="defs3959" />
  <sodipodi:namedview
     id="namedview3957"
     pagecolor="#ffffff"
     bordercolor="#999999"
     borderopacity="1"
     inkscape:showpageshadow="0"
     inkscape:pageopacity="0"
     inkscape:pagecheckerboard="0"
     inkscape:deskcolor="#d1d1d1"
     showgrid="false"
     inkscape:zoom="8"
     inkscape:cx="26.6875"
     inkscape:cy="52.875"
     inkscape:window-width="2263"
     inkscape:window-height="1341"
     inkscape:window-x="88"
     inkscape:window-y="29"
     inkscape:window-maximized="0"
     inkscape:current-layer="layer1" />
  <g
     inkscape:groupmode="layer"
     id="layer1"
     inkscape:label="Image 2"
     style="display:inline"
     transform="matrix(0.5,0,0,0.5,16.002688,16.003199)">
    <path
       id="rect1980"
       style="display:inline;opacity:1;fill:#ffffff;fill-opacity:1;fill-rule:evenodd;stroke:#000000;stroke-width:0;stroke-dasharray:none;stop-color:#000000;stop-opacity:1"
       d="m -16.487174,-30.735788 h 71.88539 L 80.342142,-5.727114 V 94.45989 h -96.829316 z"
       sodipodi:nodetypes="cccccc"
       inkscape:label="rect1980__Dokument_bg-colour" />
    <g
       transform="matrix(4.4,0,0,4.4,-2696.3642,-792.57024)"
       fill="#808080"
       id="g627">
      <path
         d="m 617.14,181.62 c -0.26735,0.11903 -0.52697,0.25472 -0.77734,0.40625 -0.0854,1.2421 -0.11186,2.4668 -0.0625,3.6602 0.21136,-0.1141 0.44824,-0.18554 0.70312,-0.18554 0.10137,0 0.20085,0.0118 0.29688,0.0312 -0.0491,-1.2588 -0.0291,-2.5564 0.082,-3.8926 z m 6.1621,0.20703 c -0.0169,0.75686 -0.0849,1.5034 -0.20313,2.2383 0.12973,-0.037 0.26348,-0.0645 0.4043,-0.0645 0.21405,0 0.41639,0.0486 0.60156,0.13086 0.0849,-0.54825 0.13966,-1.1037 0.17578,-1.6641 -0.30773,-0.24046 -0.63504,-0.45475 -0.97851,-0.64062 z m -9.3125,2.6035 c -0.17399,0.29 -0.32673,0.59222 -0.45703,0.9043 0.60759,0.42109 1.2256,0.84164 1.8691,1.2539 -0.82208,0.3399 -1.6136,0.76021 -2.3887,1.2305 -0.004,0.0592 -0.007,0.11845 -0.01,0.17773 0.003,0.31507 0.027,0.62959 0.0723,0.94141 0.82021,-0.52963 1.6745,-0.97098 2.5586,-1.3418 -0.0822,-0.18436 -0.13093,-0.38616 -0.13086,-0.59961 -1.6e-4,-0.4774 0.23271,-0.90117 0.58594,-1.1758 -0.71749,-0.45476 -1.4155,-0.9214 -2.0996,-1.3906 z m 12.182,0.26758 c -0.4567,0.0202 -0.9247,0.0298 -1.375,0.0566 0.12829,0.21999 0.20712,0.47136 0.20703,0.74219 3e-5,0.0847 -0.0116,0.16708 -0.0254,0.24805 0.52881,-0.0302 1.0803,-0.0433 1.6211,-0.0645 -0.11727,-0.33792 -0.26026,-0.66636 -0.42773,-0.98242 z m -4.0703,0.28516 c -1.4669,0.16701 -2.8862,0.41422 -4.25,0.7832 0.29865,0.20618 0.51671,0.51806 0.60546,0.87891 1.166,-0.29432 2.3816,-0.50085 3.6406,-0.64844 -0.057,-0.15726 -0.0938,-0.32409 -0.0937,-0.5 -6e-5,-0.1809 0.0376,-0.35266 0.0977,-0.51367 z m 0.40039,1.6172 c -0.15229,0.4736 -0.32269,0.93962 -0.51172,1.3984 0.005,-4e-5 0.009,-0.002 0.0137,-0.002 0.35106,0 0.67262,0.12684 0.92969,0.33203 0.17948,-0.44115 0.34443,-0.88804 0.49219,-1.3438 -0.35367,-0.0188 -0.67535,-0.15995 -0.92383,-0.38476 z m -4.0215,0.62695 c -0.0553,0.34908 -0.23156,0.6569 -0.48633,0.88281 0.81971,0.44481 1.6609,0.8579 2.5254,1.2285 0.0372,-0.35232 0.19235,-0.6709 0.4336,-0.90821 -0.8428,-0.36186 -1.6669,-0.76442 -2.4727,-1.2031 z m -0.89062,1.1426 c -0.1809,0.0778 -0.37807,0.12304 -0.58594,0.12304 -0.15664,0 -0.30473,-0.0327 -0.44727,-0.0781 0.13402,0.82273 0.32528,1.6156 0.56641,2.3789 0.24868,-0.1823 0.55204,-0.29297 0.88086,-0.29297 0.0267,0 0.0518,0.006 0.0781,0.008 -0.21384,-0.67907 -0.36692,-1.3995 -0.49218,-2.1387 z m 5.9004,0.99218 c 0.004,0.0437 0.0137,0.0862 0.0137,0.13086 1.1e-4,0.31252 -0.0987,0.60281 -0.26562,0.84375 1.0055,0.29283 2.0383,0.50474 3.0957,0.62891 0.14779,-0.31071 0.27248,-0.63189 0.37304,-0.96094 -1.0957,-0.11262 -2.1683,-0.33539 -3.2168,-0.64258 z m -2.9551,0.43165 c -0.48076,0.41864 -1.0092,0.77559 -1.5703,1.0664 0.25934,0.21882 0.44486,0.51872 0.50976,0.86328 0.55912,-0.29554 1.0978,-0.65159 1.5957,-1.0723 -0.2666,-0.21473 -0.46351,-0.51205 -0.53516,-0.85742 z m -4.0039,1.9473 c -0.14486,0.0365 -0.29311,0.0879 -0.43554,0.11719 -0.64334,0.13227 -1.2284,0.19061 -1.7656,0.22265 0.24026,0.33426 0.50953,0.64667 0.80469,0.9336 0.3743,-0.044 0.75587,-0.0923 1.1621,-0.17578 0.13332,-0.0274 0.27446,-0.077 0.41015,-0.10938 -0.12504,-0.21791 -0.20321,-0.4653 -0.20312,-0.73242 -3e-5,-0.0874 0.0127,-0.17244 0.0273,-0.25586 z m 2.6172,1.207 c -0.22057,0.26289 -0.52394,0.45269 -0.87305,0.51758 0.23556,0.40242 0.9888,1.7921 1.275,2.1619 l 0.79101,-0.61328 c -0.25879,-0.3344 -0.9831,-1.694 -1.193,-2.0662 z"
         color="#000000"
         color-rendering="auto"
         dominant-baseline="auto"
         fill-rule="evenodd"
         image-rendering="auto"
         opacity="0.5"
         shape-rendering="auto"
         solid-color="#000000"
         style="font-variant-ligatures:normal;font-variant-position:normal;font-variant-caps:normal;font-variant-numeric:normal;font-variant-alternates:normal;font-feature-settings:normal;text-indent:0;text-decoration-line:none;text-decoration-style:solid;text-decoration-color:#000000;text-transform:none;text-orientation:mixed;white-space:normal;shape-padding:0;display:inline;opacity:1;isolation:auto;mix-blend-mode:normal;fill:#9ade00"
         id="path623" />
      <path
         d="m 620,180 a 8,8 0 0 0 -8,8 8,8 0 0 0 8,8 8,8 0 0 0 8,-8 8,8 0 0 0 -8,-8 z m 0,1 a 7,7 0 0 1 7,7 7,7 0 0 1 -7,7 7,7 0 0 1 -7,-7 7,7 0 0 1 7,-7 z m 3.5,3.5039 a 1,0.99575 0 0 0 -1,0.99609 1,0.99575 0 0 0 1,0.99609 1,0.99575 0 0 0 1,-0.99609 1,0.99575 0 0 0 -1,-0.99609 z m -6.5,1.5 a 1,0.99575 0 0 0 -1,0.99609 1,0.99575 0 0 0 1,0.99609 1,0.99575 0 0 0 1,-0.99609 1,0.99575 0 0 0 -1,-0.99609 z m 5,2.4961 a 1,0.99575 0 0 0 -1,0.99609 1,0.99575 0 0 0 1,0.9961 1,0.99575 0 0 0 1,-0.9961 1,0.99575 0 0 0 -1,-0.99609 z m -4,2.5039 a 1,0.99575 0 0 0 -1,0.99609 1,0.99575 0 0 0 1,0.99609 1,0.99575 0 0 0 1,-0.99609 1,0.99575 0 0 0 -1,-0.99609 z"
         id="path625"
         style="display:inline;fill:#19aeff" />
    </g>
  </g>
  <g
     inkscape:groupmode="layer"
     inkscape:label="Image"
     id="g3961"
     style="display:inline"
     transform="matrix(0.5,0,0,0.5,16.002688,16.003199)">
    <g
       id="g2372"
       style="display:inline"
       transform="matrix(2,0,0,2,-28.005188,-60.034534)">
      <g
         id="g342"
         style="display:inline;stroke:#000000;stroke-opacity:1"
         inkscape:label="g342__Diagonalt_veck">
        <path
           style="display:inline;fill:none;stroke:#000000;stroke-width:2;stroke-linecap:butt;stroke-linejoin:miter;stroke-dasharray:none;stroke-opacity:1"
           d="m 46.999618,21.009995 h 0.99819 v 0.09561"
           id="path2368"
           sodipodi:nodetypes="ccc" />
        <path
           style="display:inline;fill:none;stroke:#000000;stroke-width:2;stroke-linecap:butt;stroke-linejoin:miter;stroke-dasharray:none;stroke-opacity:1"
           d="m 48.999618,23.009995 h 0.99819 v 0.09561"
           id="path329"
           sodipodi:nodetypes="ccc" />
        <path
           style="display:inline;fill:none;stroke:#000000;stroke-width:2;stroke-linecap:butt;stroke-linejoin:miter;stroke-dasharray:none;stroke-opacity:1"
           d="m 50.999618,25.009995 h 0.99819 v 0.09561"
           id="path331"
           sodipodi:nodetypes="ccc" />
        <path
           style="display:inline;fill:none;stroke:#000000;stroke-width:2;stroke-linecap:butt;stroke-linejoin:miter;stroke-dasharray:none;stroke-opacity:1"
           d="m 44.999618,19.009995 h 0.99819 v 0.09561"
           id="path333"
           sodipodi:nodetypes="ccc" />
        <path
           style="display:inline;fill:none;stroke:#000000;stroke-width:2;stroke-linecap:butt;stroke-linejoin:miter;stroke-dasharray:none;stroke-opacity:1"
           d="m 42.999618,17.009995 h 0.99819 v 0.09561"
           id="path335"
           sodipodi:nodetypes="ccc" />
      </g>
    </g>
  </g>
  <g
     inkscape:groupmode="layer"
     id="layer2"
     inkscape:label="Image 1"
     style="display:inline"
     transform="matrix(0.5,0,0,0.5,16.002688,16.003199)">
    <path
       id="rect4394"
       style="display:inline;opacity:1;fill:none;fill-rule:evenodd;stroke:#000000;stroke-width:4.00004;stroke-opacity:1;stop-color:#000000;stop-opacity:1"
       d="m -16.012704,-30.0089 h 72.011388 l -0.0138,23.982512 24.017068,-0.0152 V 93.996104 h -96.014656 z"
       sodipodi:nodetypes="ccccccc"
       inkscape:label="rect4394__Dokument_kontur" />
  </g>
</svg>
