<?xml version="1.0" encoding="UTF-8" standalone="no"?>
<svg
   width="64"
   viewBox="0 0 64 64"
   height="64"
   version="1.1"
   id="svg14"
   sodipodi:docname="text-x-python.svg"
   inkscape:version="1.2.2 (b0a8486541, 2022-12-01)"
   xmlns:inkscape="http://www.inkscape.org/namespaces/inkscape"
   xmlns:sodipodi="http://sodipodi.sourceforge.net/DTD/sodipodi-0.dtd"
   xmlns="http://www.w3.org/2000/svg"
   xmlns:svg="http://www.w3.org/2000/svg">
  <defs
     id="defs18" />
  <sodipodi:namedview
     id="namedview16"
     pagecolor="#ffffff"
     bordercolor="#999999"
     borderopacity="1"
     inkscape:showpageshadow="0"
     inkscape:pageopacity="0"
     inkscape:pagecheckerboard="0"
     inkscape:deskcolor="#d1d1d1"
     showgrid="true"
     inkscape:zoom="8.1832881"
     inkscape:cx="31.099968"
     inkscape:cy="23.645752"
     inkscape:window-width="1676"
     inkscape:window-height="1317"
     inkscape:window-x="409"
     inkscape:window-y="28"
     inkscape:window-maximized="0"
     inkscape:current-layer="svg14">
    <inkscape:grid
       type="xygrid"
       id="grid17892"
       originx="9.0434785"
       originy="15.95" />
  </sodipodi:namedview>
  <path
     style="fill:#a3cdf8;fill-opacity:1;stroke-width:1.3913"
     d="m 9.7391304,0.05 c -1.431055,0 -2.7826086,1.351553 -2.7826086,2.782609 v 58.434783 c 0,1.351552 1.431055,2.782608 2.7826086,2.782608 H 54.26087 c 1.351554,0 2.782608,-1.431056 2.782608,-2.782608 V 18.136957 L 38.956522,0.05 Z"
     id="path2" />
  <path
     style="fill-opacity:0.196;stroke-width:1.3913"
     d="m 38.956522,15.354348 0.08696,0.08696 0.217392,-0.08696 z m 2.782608,2.782609 15.304348,15.304347 V 18.136957 Z"
     id="path4" />
  <path
     style="fill:#ffffff;fill-opacity:0.392;stroke-width:1.3913"
     d="M 38.956522,0.05 57.043478,18.136957 H 41.73913 c -1.351554,0 -2.782608,-1.431055 -2.782608,-2.782609 z"
     id="path6" />
  <g
     transform="matrix(2.0869774,0,0,2.0869774,-0.34815,-1.445987)"
     id="g12">
    <path
       style="fill:#8391ff;fill-opacity:1;stroke-width:0.66666"
       d="m 15.643825,10.05006 c -0.540951,0.0025 -1.067336,0.04527 -1.521888,0.124999 -1.339048,0.234507 -1.626126,0.303117 -1.626126,1.208321 v 1.99998 h 3.335644 v 0.66666 h -3.335644 -1.334258 c -0.919644,0 -1.520184,0.561759 -1.772061,1.604151 -0.290537,1.194822 -0.303424,1.939881 0,3.187468 0.224932,0.928655 0.852417,1.874981 1.772061,1.874981 h 0.667129 v -1.99998 c 0,-1.035356 0.928273,-1.99998 2.001387,-1.99998 h 3.335644 c 0.879812,0 1.334257,-0.457429 1.334257,-1.33332 v -3.3333 c 0,-0.850094 -0.350446,-1.733105 -1.209171,-1.874981 -0.543585,-0.0897 -1.106025,-0.127491 -1.646974,-0.124999 z m -1.146628,1.33332 c 0.368445,0 0.667129,0.298474 0.667129,0.66666 0,0.368186 -0.298684,0.66666 -0.667129,0.66666 -0.368445,0 -0.667128,-0.298474 -0.667128,-0.66666 0,-0.368186 0.298683,-0.66666 0.667128,-0.66666 z"
       id="path8" />
    <path
       style="fill:#ffdf16;fill-opacity:1;stroke-width:0.66666"
       d="m 15.356175,24.049805 c 0.540951,-0.0025 1.067337,-0.04527 1.521888,-0.124999 1.339049,-0.234508 1.626126,-0.303117 1.626126,-1.208321 v -1.99998 h -3.335644 v -0.66666 h 3.335644 1.334258 c 0.919644,0 1.520184,-0.561759 1.772061,-1.604151 0.290538,-1.194822 0.303425,-1.939881 0,-3.187468 -0.224932,-0.928655 -0.852417,-1.874981 -1.772061,-1.874981 h -0.667129 v 1.99998 c 0,1.035356 -0.928272,1.99998 -2.001386,1.99998 h -3.335645 c -0.879812,0 -1.334257,0.457428 -1.334257,1.33332 v 3.3333 c 0,0.850094 0.350446,1.733104 1.209171,1.874981 0.543586,0.0897 1.106025,0.127491 1.646974,0.124999 z m 1.146628,-1.33332 c -0.368445,0 -0.667129,-0.298474 -0.667129,-0.66666 0,-0.368187 0.298684,-0.66666 0.667129,-0.66666 0.368445,0 0.667129,0.298473 0.667129,0.66666 0,0.368186 -0.298684,0.66666 -0.667129,0.66666 z"
       id="path10" />
  </g>
</svg>
