<?xml version="1.0" encoding="UTF-8" standalone="no"?>
<svg
   version="1.1"
   viewBox="0 0 64 64"
   id="svg10"
   sodipodi:docname="text-x-arduino.svg"
   inkscape:version="1.2.2 (b0a8486541, 2022-12-01)"
   width="64"
   height="64"
   xmlns:inkscape="http://www.inkscape.org/namespaces/inkscape"
   xmlns:sodipodi="http://sodipodi.sourceforge.net/DTD/sodipodi-0.dtd"
   xmlns="http://www.w3.org/2000/svg"
   xmlns:svg="http://www.w3.org/2000/svg">
  <defs
     id="defs14">
    <linearGradient
       id="linearGradient12880"
       inkscape:swatch="solid">
      <stop
         style="stop-color:#000000;stop-opacity:1;"
         offset="0"
         id="stop12878" />
    </linearGradient>
    <linearGradient
       id="linearGradient3909"
       inkscape:swatch="solid">
      <stop
         style="stop-color:#274e90;stop-opacity:1;"
         offset="0"
         id="stop3907" />
    </linearGradient>
    <linearGradient
       id="linearGradient3890"
       inkscape:swatch="solid">
      <stop
         style="stop-color:#1a405c;stop-opacity:0.56862748;"
         offset="0"
         id="stop3888" />
    </linearGradient>
  </defs>
  <sodipodi:namedview
     id="namedview12"
     pagecolor="#ffffff"
     bordercolor="#999999"
     borderopacity="1"
     inkscape:showpageshadow="0"
     inkscape:pageopacity="0"
     inkscape:pagecheckerboard="0"
     inkscape:deskcolor="#d1d1d1"
     showgrid="false"
     inkscape:zoom="8.01"
     inkscape:cx="23.220974"
     inkscape:cy="44.382022"
     inkscape:window-width="1272"
     inkscape:window-height="1355"
     inkscape:window-x="420"
     inkscape:window-y="132"
     inkscape:window-maximized="0"
     inkscape:current-layer="svg10" />
  <path
     d="m 8.4171349,1.1000352 c -0.3129564,0 -0.3171142,-0.00463 -0.3171142,0.3407425 V 62.580365 c 0,0.326919 -0.00222,0.319587 0.3492764,0.319587 H 55.569942 c 0.320781,0 0.330058,3.29e-4 0.330058,-0.333966 V 18.565228 L 38.638896,1.1000352 Z"
     style="display:inline;fill:#e5f1f2;fill-opacity:1;stroke:#000000;stroke-width:0.2;stroke-dasharray:none;stroke-opacity:1"
     id="path2"
     sodipodi:nodetypes="ccssssccc"
     inkscape:label="path2__DOC-BLANK" />
  <path
     d="M 41.964965,18.570762 55.906632,32.676161 V 18.570762 Z"
     style="display:inline;fill:#000000;fill-opacity:0.1441022;fill-rule:nonzero;stroke:none;stroke-width:1"
     id="path4-6"
     inkscape:label="path4__FLIK-SKUGGA"
     sodipodi:nodetypes="cccc" />
  <path
     d="M 38.638896,1.1000352 55.9,18.565228 H 38.646012 l -0.0071,5.5e-4 z"
     style="fill:#ffffff;fill-opacity:0.492688;stroke-width:0.999995"
     id="path6"
     inkscape:label="path6__FLIK-VIT"
     sodipodi:nodetypes="ccccc" />
  <g
     inkscape:groupmode="layer"
     id="layer1"
     inkscape:label="LOGO">
    <path
       d="m 46.5,33.856148 c 0,-3.577 -3.218,-6.5 -7.128,-6.5 v 0 c -0.367,0 -0.733,0.038 -1.1,0.077 v 0 c -3.055,0.423 -5.091,2.5 -6.272,4.077 v 0 c -1.14,-1.577 -3.218,-3.692 -6.272,-4.077 v 0 c -0.367,-0.038 -0.733,-0.077 -1.1,-0.077 v 0 c -3.951,0 -7.128,2.923 -7.128,6.5 v 0 c 0,3.577 3.218,6.5 7.128,6.5 v 0 c 0.367,0 0.733,-0.038 1.1,-0.077 v 0 c 3.055,-0.423 5.091,-2.5 6.272,-4.077 v 0 c 1.14,1.615 3.177,3.692 6.272,4.077 v 0 c 0.367,0.038 0.733,0.077 1.1,0.077 v 0 c 3.91,0 7.128,-2.885 7.128,-6.5 z m -21.1,4.154 c -0.244,0.038 -0.489,0.038 -0.774,0.038 v 0 c -2.607,0 -4.684,-1.885 -4.684,-4.192 v 0 c 0,-2.308 2.118,-4.192 4.684,-4.192 v 0 c 0.244,0 0.489,0.038 0.774,0.038 v 0 c 2.892,0.385 4.643,3.077 5.254,4.154 v 0 c -0.611,1.077 -2.362,3.769 -5.254,4.154 z m 7.942,-4.154 c 0.611,-1.077 2.362,-3.769 5.254,-4.154 v 0 c 0.244,-0.038 0.489,-0.038 0.774,-0.038 v 0 c 2.607,0 4.684,1.885 4.684,4.192 v 0 c 0,2.308 -2.118,4.192 -4.684,4.192 v 0 c -0.244,0 -0.489,0 -0.774,-0.038 v 0 c -2.892,-0.385 -4.643,-3.077 -5.254,-4.154 z"
       style="display:inline;fill:#0099ab;fill-opacity:1"
       id="path8-6" />
    <path
       d="m 22.3,33.156149 v 0 1.4 h 5.4 v 0 -1.4 0 z"
       style="display:inline;fill:#0099ab;fill-opacity:1;stroke-width:0.374241"
       id="path10" />
    <path
       d="m 36.2,33.156148 v 1.4 0 h 2.1 v 0 2.1 0 h 1.4 v -2.1 h 2.1 v -1.4 h -2.1 v -2.1 h -1.4 v 2.1 z"
       style="display:inline;fill:#0099ab;fill-opacity:1;stroke-width:0.285714"
       id="path12" />
  </g>
</svg>
