<?xml version="1.0" encoding="UTF-8" standalone="no"?>
<svg
   viewBox="0 0 64 64"
   version="1.1"
   id="svg3609"
   sodipodi:docname="text-x-chdr.svg"
   inkscape:version="1.2.2 (b0a8486541, 2022-12-01)"
   width="64"
   height="64"
   xmlns:inkscape="http://www.inkscape.org/namespaces/inkscape"
   xmlns:sodipodi="http://sodipodi.sourceforge.net/DTD/sodipodi-0.dtd"
   xmlns="http://www.w3.org/2000/svg"
   xmlns:svg="http://www.w3.org/2000/svg">
  <defs
     id="defs3613" />
  <sodipodi:namedview
     id="namedview3611"
     pagecolor="#ffffff"
     bordercolor="#999999"
     borderopacity="1"
     inkscape:showpageshadow="0"
     inkscape:pageopacity="0"
     inkscape:pagecheckerboard="0"
     inkscape:deskcolor="#d1d1d1"
     showgrid="false"
     inkscape:zoom="8"
     inkscape:cx="22.875"
     inkscape:cy="20.9375"
     inkscape:window-width="2021"
     inkscape:window-height="1317"
     inkscape:window-x="97"
     inkscape:window-y="28"
     inkscape:window-maximized="0"
     inkscape:current-layer="svg3609" />
  <path
     d="M 8.0061824,0.0029255 C 7.9368714,33.305084 8.0056094,33.378354 8.0243584,64.033023 H 55.970777 c 0.0116,-5.733157 -1.62e-4,-0.01081 -1.62e-4,-46.04747 L 37.988693,-0.0330225 c -28.8712686,0.05927 -0.172454,4.68e-4 -29.9825106,0.03595 z"
     style="fill:#f2f2f2;stroke:none;stroke-width:0.300001;stroke-dasharray:none;stroke-opacity:1"
     id="path3599"
     sodipodi:nodetypes="cccccc" />
  <path
     d="m 42.018867,17.989557 14,14.014446 V 17.989557 Z"
     style="fill:#000000;fill-opacity:0.196;stroke-width:1"
     id="path3601" />
  <path
     d="m 38.018867,-0.0290185 17.984,18.0185755 h -15.226 c -1.346,0 -2.756,-1.427472 -2.756,-2.774861 z"
     style="fill:#ffffff;fill-opacity:0.964505;stroke-width:1"
     id="path3603" />
  <path
     d="m 8.0062128,32.47366 c -0.06938,33.302158 -7.546e-4,0.609193 0.018194,31.559363 H 56.019029 c 0.01161,-5.733157 -1.62e-4,-16.43352 -1.62e-4,-31.564922 -47.513875,0 -1.327786,0.0056 -48.0126546,0.0056 z"
     style="fill:#ffff00;stroke-width:1"
     id="path403"
     sodipodi:nodetypes="ccccc" />
  <g
     transform="matrix(1.2071736,0,0,1.1299808,34.876775,16.251692)"
     style="fill:#888888;stroke-width:0.499742"
     id="g3607">
    <path
       d="M 11.819189,39.263202 H 8.3848901 v -8.331447 c 0,-1.463815 -0.2053799,-1.997609 -0.5638258,-2.563373 -0.349727,-0.57642 -1.1974033,-0.958116 -2.1099873,-0.958116 -0.6917038,0 -1.2942805,0.222818 -1.6110693,0.449511 -0.3603835,0.257693 -0.562857,0.546387 -0.7895499,0.990085 -0.2266928,0.443698 -0.3875091,0.991055 -0.4814801,1.643039 -0.093971,0.651984 -0.1685664,1.52388 -0.1685664,2.237866 v 6.532435 H -0.7748573 V 17.222651 h 3.4352686 v 9.148122 c 0.4630734,-0.82152 1.1082761,-1.411502 1.8261368,-1.770917 0.7178607,-0.368134 1.5374425,-0.5367 2.4432452,-0.5367 0.7837372,0 1.2758738,0.09785 1.9094513,0.324539 0.6422964,0.217005 1.1896524,0.561888 1.6430384,1.03368 0.453385,0.471793 0.803112,1.076307 1.048212,1.813543 0.245099,0.727549 0.289663,1.600413 0.289663,2.620531 z"
       id="path3605"
       style="stroke-width:0.49974" />
  </g>
  <path
     id="rect1032"
     style="display:inline;opacity:1;fill:none;fill-rule:evenodd;stroke:#000000;stroke-width:0.300001;stop-color:#000000;stop-opacity:1"
     inkscape:label="rect1032"
     d="M 8.3004186,0.2803685 38.150689,0.2828685 55.718201,17.81471 V 63.864078 L 8.3004186,63.728118 Z"
     sodipodi:nodetypes="cccccc" />
</svg>
