<?xml version="1.0" encoding="UTF-8" standalone="no"?>
<svg
   viewBox="0 0 64 64"
   version="1.1"
   id="svg3609"
   sodipodi:docname="text-x-processing.svg"
   inkscape:version="1.2.2 (b0a8486541, 2022-12-01)"
   width="64"
   height="64"
   xmlns:inkscape="http://www.inkscape.org/namespaces/inkscape"
   xmlns:sodipodi="http://sodipodi.sourceforge.net/DTD/sodipodi-0.dtd"
   xmlns="http://www.w3.org/2000/svg"
   xmlns:svg="http://www.w3.org/2000/svg">
  <defs
     id="defs3613" />
  <sodipodi:namedview
     id="namedview3611"
     pagecolor="#ffffff"
     bordercolor="#999999"
     borderopacity="1"
     inkscape:showpageshadow="0"
     inkscape:pageopacity="0"
     inkscape:pagecheckerboard="0"
     inkscape:deskcolor="#d1d1d1"
     showgrid="true"
     inkscape:zoom="5.6568543"
     inkscape:cx="-6.8942911"
     inkscape:cy="8.4852813"
     inkscape:window-width="1835"
     inkscape:window-height="1317"
     inkscape:window-x="29"
     inkscape:window-y="54"
     inkscape:window-maximized="0"
     inkscape:current-layer="svg3609">
    <inkscape:grid
       type="xygrid"
       id="grid9196" />
  </sodipodi:namedview>
  <path
     d="m 55.778024,0.10025843 c 0,34.04716657 -0.0028,34.14140257 0.0052,63.68774557 l -47.5387887,0.02346 c -0.011494,-5.704602 1.603e-4,-0.01076 1.603e-4,-45.818126 L 26.06492,0.10246697 c 28.620267,0 0.176429,-0.002207 29.713104,-0.002207 z"
     style="display:inline;fill:#efefef;fill-opacity:1;stroke:none;stroke-width:0.297904;stroke-dasharray:none;stroke-opacity:1"
     id="path3599"
     sodipodi:nodetypes="ccccccc"
     inkscape:label="Bakgrund" />
  <g
     id="g6696"
     transform="matrix(0.84380534,0,0,0.84721537,13.089759,-45.235053)"
     style="display:inline"
     inkscape:label="Loggan">
    <path
       d="m 24.693823,93.264714 c 16.901409,0 16.901409,-22.535212 0,-22.535212"
       stroke="#0468ff"
       stroke-width="8.4507px"
       fill="none"
       id="path6169" />
    <path
       d="M 24.693823,76.363305 7.7924145,98.898517"
       stroke="#1f34ab"
       stroke-width="8.4507px"
       fill="none"
       id="path6171" />
    <path
       d="M 7.7924145,81.997108 13.426217,93.264714"
       stroke="#85aeff"
       stroke-width="8.4507px"
       fill="none"
       id="path6173" />
  </g>
  <path
     d="M 22.256776,17.810745 8.3825725,31.755392 V 17.810745 Z"
     style="fill:#000000;fill-opacity:0.196;stroke-width:0.993015"
     id="path3601"
     inkscape:label="Skuggan" />
  <path
     d="M 25.736335,0.66464273 8.608545,17.735083 h 16.987323 c 0.146389,0 0.138542,2.25e-4 0.138542,-0.142707 z"
     style="fill:#ffffff;fill-opacity:0.964505;stroke:#000000;stroke-width:0.488488;stroke-dasharray:none;stroke-opacity:1"
     id="path3603"
     inkscape:label="Hundöra"
     sodipodi:nodetypes="ccscc" />
  <path
     d="m 55.623332,55.55982 c 0.06832,8.40429 7.44e-4,0.153737 -0.0179,7.964471 H 8.337043 c -0.011433,-1.446848 1.593e-4,-4.147243 1.593e-4,-7.965873 46.7949007,0 1.3076941,0.0014 47.2861297,0.0014 z"
     style="fill:#ffc00f;fill-opacity:1;stroke:#ffffff;stroke-width:0;stroke-dasharray:none;stroke-opacity:0"
     id="path403"
     sodipodi:nodetypes="ccccc"
     inkscape:label="Botten-fält" />
  <path
     d="m 55.623332,47.603768 c 0.06832,8.406337 7.44e-4,0.153769 -0.0179,7.966408 H 8.337043 c -0.011433,-1.447197 1.593e-4,-4.14825 1.593e-4,-7.96781 46.7949007,0 1.3076941,0.0014 47.2861297,0.0014 z"
     style="display:inline;fill:#c0fff8;fill-opacity:1;stroke:#000000;stroke-width:0.199;stroke-dasharray:none;stroke-opacity:1"
     id="path1792"
     sodipodi:nodetypes="ccccc"
     inkscape:label="Botten-fält" />
  <path
     d="m 55.679469,55.372181 c 0.06144,8.30537 6.22e-4,0.15185 -0.02465,7.85774 L 8.2821368,55.805638 c -0.010248,-1.429766 0.00367,-4.093104 0.00682,-7.861918 46.8981762,7.349919 1.3105791,0.206773 47.3904902,7.428453 z"
     style="display:inline;fill:#9b3fad;fill-opacity:1;stroke:#ffffff;stroke-width:0;stroke-dasharray:none;stroke-opacity:0"
     id="path1790"
     sodipodi:nodetypes="ccccc"
     inkscape:label="Botten-fält" />
  <path
     id="rect1032"
     style="display:inline;opacity:1;fill:none;fill-rule:evenodd;stroke:#000000;stroke-width:0.744761;stroke-dasharray:none;stop-color:#000000;stop-opacity:1"
     inkscape:label="rect1032 Outline"
     d="M 55.626319,0.3767607 25.868761,0.37924824 8.3557995,17.823532 v 45.819374 l 47.2705195,-0.01412 z"
     sodipodi:nodetypes="cccccc" />
</svg>
