<?xml version="1.0" encoding="UTF-8" standalone="no"?>
<svg
   version="1.1"
   viewBox="0 0 22 22"
   id="svg10"
   sodipodi:docname="text-x-common-lisp.svg"
   inkscape:version="1.2.2 (b0a8486541, 2022-12-01)"
   width="22"
   height="22"
   xmlns:inkscape="http://www.inkscape.org/namespaces/inkscape"
   xmlns:sodipodi="http://sodipodi.sourceforge.net/DTD/sodipodi-0.dtd"
   xmlns="http://www.w3.org/2000/svg"
   xmlns:svg="http://www.w3.org/2000/svg">
  <defs
     id="defs14">
    <linearGradient
       id="linearGradient12880"
       inkscape:swatch="solid">
      <stop
         style="stop-color:#000000;stop-opacity:1;"
         offset="0"
         id="stop12878" />
    </linearGradient>
    <linearGradient
       id="linearGradient3909"
       inkscape:swatch="solid">
      <stop
         style="stop-color:#274e90;stop-opacity:1;"
         offset="0"
         id="stop3907" />
    </linearGradient>
    <linearGradient
       id="linearGradient3890"
       inkscape:swatch="solid">
      <stop
         style="stop-color:#1a405c;stop-opacity:0.56862748;"
         offset="0"
         id="stop3888" />
    </linearGradient>
  </defs>
  <sodipodi:namedview
     id="namedview12"
     pagecolor="#ffffff"
     bordercolor="#999999"
     borderopacity="1"
     inkscape:showpageshadow="0"
     inkscape:pageopacity="0"
     inkscape:pagecheckerboard="0"
     inkscape:deskcolor="#d1d1d1"
     showgrid="false"
     inkscape:zoom="11.313709"
     inkscape:cx="2.5190678"
     inkscape:cy="30.317202"
     inkscape:window-width="2560"
     inkscape:window-height="1358"
     inkscape:window-x="0"
     inkscape:window-y="28"
     inkscape:window-maximized="1"
     inkscape:current-layer="svg10" />
  <path
     d="m 2.9131789,0.51282993 c -0.1073164,0 -0.1087422,-0.00156 -0.1087422,0.1156448 V 21.378709 c 0,0.110953 -7.628e-4,0.108465 0.119771,0.108465 H 19.082425 c 0.109999,0 0.11318,1.11e-4 0.11318,-0.113345 V 6.4403618 L 13.276573,0.51282993 Z"
     style="display:inline;fill:#d8f1fc;fill-opacity:1;stroke:#000000;stroke-width:0.2;stroke-dasharray:none;stroke-opacity:1"
     id="path2"
     sodipodi:nodetypes="ccssssccc" />
  <path
     d="m 14.187193,6.4403618 5.008412,5.0156042 V 6.4403618 Z"
     style="opacity:0.99;fill-opacity:0.196;fill-rule:evenodd;stroke-width:1"
     id="path4" />
  <path
     d="m 13.276573,0.51282993 5.919032,5.92753187 h -5.008412 c -0.442106,0 -0.91062,-0.4691867 -0.91062,-0.9119274 z"
     style="fill:#ffffff;fill-opacity:0.392;stroke-width:1"
     id="path6" />
  <path
     d="m 10.317056,5.9843981 c -1.1315833,0 -2.0488966,0.9186309 -2.0488966,2.051838 0,0.3777256 0.3057733,0.683946 0.6829655,0.683946 0.3771838,0 0.6829658,-0.3062112 0.6829658,-0.683946 0,-0.3777338 0.305772,-0.683946 0.6829653,-0.683946 0.377193,0 0.682965,0.3062122 0.682965,0.683946 v 0.683946 L 6.3526696,16.764754 c -0.088522,0.153232 -0.1333417,0.327921 -0.1333967,0.504935 -1.666e-4,0.566581 0.4586793,1.026056 1.0244478,1.025919 0.3690287,-1.01e-4 0.7169319,-0.195129 0.891042,-0.520984 L 11.00003,12.412487 v 3.831147 c 0,1.133207 0.917314,2.051838 2.048897,2.051838 1.131582,0 2.048895,-0.918631 2.048895,-2.051838 0,-0.377726 -0.305772,-0.683946 -0.682965,-0.683946 -0.377192,0 -0.682966,0.306211 -0.682966,0.683946 0,0.377734 -0.305772,0.683946 -0.682964,0.683946 -0.377184,0 -0.682966,-0.306212 -0.682966,-0.683946 V 8.0362819 c 0,-1.1332071 -0.917313,-2.051838 -2.048895,-2.051838 z"
     style="fill:#9b3131;fill-opacity:1;stroke-width:1"
     id="path8" />
</svg>
