<?xml version="1.0" encoding="UTF-8" standalone="no"?>
<svg
   height="60"
   width="60"
   version="1.1"
   id="svg629"
   sodipodi:docname="koiourpaint.svg"
   inkscape:version="1.2.2 (b0a8486541, 2022-12-01)"
   xmlns:inkscape="http://www.inkscape.org/namespaces/inkscape"
   xmlns:sodipodi="http://sodipodi.sourceforge.net/DTD/sodipodi-0.dtd"
   xmlns="http://www.w3.org/2000/svg"
   xmlns:svg="http://www.w3.org/2000/svg">
  <defs
     id="defs633" />
  <sodipodi:namedview
     id="namedview631"
     pagecolor="#ffffff"
     bordercolor="#999999"
     borderopacity="1"
     inkscape:showpageshadow="0"
     inkscape:pageopacity="0"
     inkscape:pagecheckerboard="0"
     inkscape:deskcolor="#d1d1d1"
     showgrid="false"
     inkscape:zoom="11.313708"
     inkscape:cx="33.543378"
     inkscape:cy="36.681164"
     inkscape:window-width="2560"
     inkscape:window-height="1358"
     inkscape:window-x="0"
     inkscape:window-y="28"
     inkscape:window-maximized="1"
     inkscape:current-layer="svg629" />
  <linearGradient
     id="a"
     gradientTransform="matrix(0.896825,0,0,0.892875,110.51855,-545.06375)"
     gradientUnits="userSpaceOnUse"
     x1="-87"
     x2="-87"
     y1="616"
     y2="672">
    <stop
       offset="0"
       stop-color="#d4ba94"
       id="stop509" />
    <stop
       offset="1"
       stop-color="#997657"
       id="stop511" />
  </linearGradient>
  <linearGradient
     id="i"
     gradientTransform="matrix(0,0.89285,-0.896825,0,1004.3473,-355.05)"
     gradientUnits="userSpaceOnUse"
     x1="410"
     x2="421"
     y1="1080.4"
     y2="1080.4">
    <stop
       offset="0"
       stop-color="#e4720c"
       id="stop514" />
    <stop
       offset="1"
       stop-color="#f1d23b"
       id="stop516" />
  </linearGradient>
  <linearGradient
     id="b"
     gradientTransform="matrix(0.896825,0,0,0.89285,-337.8902,-948.8925)"
     gradientUnits="userSpaceOnUse"
     x1="415"
     x2="415"
     y1="1068.4"
     y2="1079.4">
    <stop
       offset="0"
       stop-color="#884d2c"
       id="stop519" />
    <stop
       offset="1"
       stop-color="#ffa92d"
       id="stop521" />
  </linearGradient>
  <linearGradient
     id="j"
     gradientTransform="matrix(0.896825,0,0,0.89285,-337.2902,-948.57625)"
     gradientUnits="userSpaceOnUse"
     x1="424"
     x2="424"
     y1="1074.4"
     y2="1086.4">
    <stop
       offset="0"
       stop-color="#884d2c"
       id="stop524" />
    <stop
       offset="1"
       stop-color="#b7bf31"
       id="stop526" />
  </linearGradient>
  <linearGradient
     id="e"
     gradientTransform="matrix(0.896825,0,0,0.89285,-337.9402,-544.325)"
     gradientUnits="userSpaceOnUse"
     x1="409"
     x2="409"
     y1="629"
     y2="642">
    <stop
       offset="0"
       stop-color="#ffa92d"
       id="stop529" />
    <stop
       offset="1"
       stop-color="#ffe5e1"
       id="stop531" />
  </linearGradient>
  <linearGradient
     id="l"
     gradientTransform="matrix(0.896825,0,0,0.89285,-337.2902,-947.8625)"
     gradientUnits="userSpaceOnUse"
     x1="424"
     x2="424"
     y1="1092.4"
     y2="1101.4">
    <stop
       offset="0"
       stop-color="#7ceca4"
       id="stop534" />
    <stop
       offset="1"
       stop-color="#e1f2ff"
       id="stop536" />
  </linearGradient>
  <linearGradient
     id="g"
     gradientTransform="matrix(0.896825,0,0,0.89285,-336.9652,-544.32625)"
     gradientUnits="userSpaceOnUse"
     x1="433.29999"
     x2="433.29999"
     y1="632"
     y2="643.95001">
    <stop
       offset="0"
       stop-color="#377d50"
       id="stop539" />
    <stop
       offset="1"
       stop-color="#3b85b5"
       id="stop541" />
  </linearGradient>
  <linearGradient
     id="k"
     gradientTransform="matrix(0.896825,0,0,0.89285,-337.2902,-544.325)"
     gradientUnits="userSpaceOnUse"
     x1="425"
     x2="425"
     y1="632"
     y2="640">
    <stop
       offset="0"
       stop-color="#b7bf31"
       id="stop544" />
    <stop
       offset="1"
       stop-color="#54d883"
       id="stop546" />
  </linearGradient>
  <linearGradient
     id="f"
     gradientTransform="matrix(0.896825,0,0,0.89285,-336.9652,-543.585)"
     gradientUnits="userSpaceOnUse"
     x1="432"
     x2="432"
     y1="647"
     y2="662">
    <stop
       offset="0"
       stop-color="#375a7d"
       id="stop549" />
    <stop
       offset="1"
       stop-color="#7cbcec"
       id="stop551" />
  </linearGradient>
  <linearGradient
     id="d"
     gradientTransform="matrix(0.896825,0,0,0.89285,-337.8902,-948.9375)"
     gradientUnits="userSpaceOnUse"
     x1="401"
     x2="401"
     y1="1075.4"
     y2="1086.4">
    <stop
       offset="0"
       stop-color="#ac0808"
       id="stop554" />
    <stop
       offset="1"
       stop-color="#e4720c"
       id="stop556" />
  </linearGradient>
  <linearGradient
     id="h"
     gradientTransform="matrix(0.896825,0,0,0.89285,-337.8902,-545.05)"
     gradientUnits="userSpaceOnUse"
     x1="407"
     x2="407"
     y1="636"
     y2="622">
    <stop
       offset="0"
       stop-color="#ffa92d"
       id="stop559" />
    <stop
       offset="1"
       stop-color="#e05e4c"
       id="stop561" />
  </linearGradient>
  <linearGradient
     id="c"
     gradientTransform="matrix(0.896825,0,0,0.89285,-337.8902,-545.05)"
     gradientUnits="userSpaceOnUse"
     x1="393"
     x2="393"
     y1="623"
     y2="632">
    <stop
       offset="0"
       stop-color="#913bb5"
       id="stop564" />
    <stop
       offset="1"
       stop-color="#bf4231"
       id="stop566" />
  </linearGradient>
  <path
     d="m 24.372299,6.25 -5,1.25 -5,2.5 -6.2499998,6.25 V 20 l 0.86375,2.5925 c 4.4962498,5.07375 14.2949998,9.13 10.4349998,12.975 -2.1725,2.1625 -3.06375,4.9275 -3.06875,7.825 0.0025,0.14 0.01,0.27875 0.0175,0.41875 -0.0062,0.1575 -0.0175,0.31625 -0.0175,0.475 l 0.04125,0.025 c 0.48125,6.03375 5.5375,10.6875 11.61625,10.68875 0.33,0 0.6625,-0.01625 0.99125,-0.04625 C 42.463549,54.425 53.106049,43.4125 53.122299,30 c 0,-0.41875 -0.01125,-0.83625 -0.03125,-1.25 h -1.21875 V 25 l -1.25,-3.75 -3.75,-6.25 -5,-5 -8.75,-3.75 z m 3.6375,31.785 a 5.38125,5.3575 0 0 1 5.38375,5.35875 5.38125,5.3575 0 0 1 -5.38375,5.35625 5.38125,5.3575 0 0 1 -5.38125,-5.35625 5.38125,5.3575 0 0 1 5.38125,-5.35875 z"
     fill="url(#a)"
     id="path569"
     style="fill:url(#a);stroke-width:1.25" />
  <path
     d="m 16.872299,7.61625 a 25.08125,25.08125 0 0 0 -6.765,4.8825 l 7.815,1.05 z"
     fill="#432b4d"
     id="path571"
     style="stroke-width:1.25" />
  <path
     d="m 24.372299,5.275 c -2.62125,0.385 -5.15,1.18 -7.5,2.34125 v 4.8825 l 8.715,1.5475 z"
     fill="#4d2f2b"
     id="path573"
     style="stroke-width:1.25" />
  <path
     d="m 28.012299,5 c -1.22625,0.00125 -2.4425,0.1 -3.64,0.275 V 12.5 l 9.04625,1.325 -1.54625,-8.53 A 25.39625,25.39625 0 0 0 28.012299,5 Z"
     fill="#813c33"
     id="path575"
     style="stroke-width:1.25" />
  <path
     d="M 31.872299,5.295 V 12.5 l 9.2125,1.54625 -1.7125,-6.32 a 24.9675,24.9675 0 0 0 -7.5,-2.43125 z"
     fill="url(#b)"
     id="path577"
     style="fill:url(#b);stroke-width:1.25" />
  <path
     d="m 39.372299,7.72625 v 4.7725 l 4.32875,1.4925 2.22875,-1.4925 a 25.1475,25.1475 0 0 0 -6.5575,-4.7725 z"
     fill="#7c8133"
     id="path579"
     style="stroke-width:1.25" />
  <path
     d="M 6.9097992,17.625 C 6.3210492,24.015 19.323549,28.85625 20.243549,33.24 21.119799,28.8225 7.5597992,24.005 6.9097992,17.625 Z"
     fill="#6c5548"
     id="path581"
     style="stroke-width:1.25" />
  <path
     d="m 10.077299,12.53125 c -0.3349998,0.34125 -0.6624998,0.69 -0.9799998,1.0525 -3.7525,3.7375 -2.22625,6.97375 0.7325,9.88 -1.2875,-1.475 0.2999998,-1.44625 1.1424998,-0.6075 0.8975,0.8925 0.8975,1.78625 1.795,0.89375 0.89625,-0.89375 -2.69,-2.6775 -2.69,-4.4625 z"
     fill="#2b3c4d"
     id="path583"
     style="stroke-width:1.25" />
  <path
     d="m 10.119799,12.5 a 25.17875,25.18 0 0 0 -0.045,0.04125 v 0.49625 c 0,0.8925 -1.7937498,1.785 -1.7937498,2.6775 0,0.8925 1.7937498,1.78625 1.7937498,3.5725 l 0.1325,-0.91875 c 0.86,-2.4125 5.3775,2.2 6.665,0.91875 l 0.775,-1.7375 0.475,-5.05 z"
     fill="url(#c)"
     id="path585"
     style="fill:url(#c);stroke-width:1.25" />
  <path
     d="m 23.476049,20 c 0.89625,-0.8925 -0.845,-3.3925 -1.7425,-2.5 -0.89625,0.89375 0,2.67875 -1.7925,2.67875 -1.7925,0 -0.7775,-2.2325 0,-2.67875 0.765,-0.44 0.66,-1.56375 0.02625,-1.885 -0.63375,-0.32125 -1.79625,0.1625 -1.79625,1.6725 0,1.29 -1.29875,1.99875 -1.29875,1.99875 V 12.5 h 7.5 l 1.4375,9.2125 z"
     fill="url(#d)"
     id="path587"
     style="fill:url(#d);stroke-width:1.25" />
  <path
     d="m 23.477299,20 c 0,0 -2.69,1.5625 -2.69,7.1425 h 3.58625 v -3.57125 c 0,-2.67875 2.69,-3.57125 2.69,-3.57125 h -3.5875 z"
     fill="#ffafa5"
     id="path589"
     style="stroke-width:1.25" />
  <path
     d="m 24.372299,20 v 3.57125 c 0,0.8925 -1.79375,0.8925 -2.69,1.78625 -0.45,0.44625 -0.8975,0.8925 -0.8975,1.785 0,0.78875 0.8975,1.78625 1.79375,1.78625 1.79375,0 1.79375,-1.42875 4.29375,-1.42875 h 5 V 20 Z"
     fill="url(#e)"
     id="path591"
     style="fill:url(#e);stroke-width:1.25" />
  <path
     d="m 45.132299,32.6525 1.74,4.15625 v 0.87 c 0,2.67875 -2.69,7.14375 -3.58625,8.0375 -0.82625,0.8225 1.39125,2.3975 2.44625,1.94 0.31875,-0.31625 0.625,-0.645 0.925,-0.97875 0.67,-0.91875 1.34,-2.0825 2.01,-2.75 0.10875,-0.1075 0.25875,-0.21125 0.39,-0.31875 A 24.82,24.82 0 0 0 52.609799,35 Z"
     fill="url(#f)"
     id="path593"
     style="fill:url(#f);stroke-width:1.25" />
  <path
     d="m 46.872299,27.49875 -1.6025,3.58375 1.6025,3.91625 h 5.7375 a 24.96125,24.96125 0 0 0 0.3875,-7.5 z"
     fill="#2b3c4d"
     id="path595"
     style="stroke-width:1.25" />
  <path
     d="m 46.872299,19.99875 -2.54125,7.0575 2.54125,3.12125 c 0,1.785 1.16,1.525 1.795,0.8925 0.89625,-0.8925 1.7925,-3.57125 3.58625,-3.57125 h 0.74375 a 24.7325,24.7325 0 0 0 -1.9775,-7.5 z"
     fill="url(#g)"
     id="path597"
     style="fill:url(#g);stroke-width:1.25" />
  <g
     fill="#6c5548"
     id="g603"
     transform="matrix(1.25,0,0,1.25,-0.62770077,0)">
    <path
       d="m 42.99,23.647 c -0.202,10.565 -8.64,19.182 -19.287,19.6 a 8.722,8.722 0 0 1 -0.792,0.039 c -4.863,0 -8.908,-3.724 -9.293,-8.55 l -0.034,-0.022 c 0.003,0.112 0.007,0.223 0.013,0.334 -0.004,0.126 -0.013,0.252 -0.013,0.38 l 0.034,0.022 c 0.385,4.826 4.43,8.548 9.293,8.55 0.265,0 0.529,-0.015 0.792,-0.039 10.769,-0.423 19.284,-9.23 19.297,-19.96 0,-0.12 -0.008,-0.236 -0.01,-0.354 z"
       id="path599" />
    <path
       d="m 22.911,29.747 a 4.305,4.286 0 0 0 -4.305,4.286 4.305,4.286 0 0 0 0.019,0.355 4.305,4.286 0 0 1 4.286,-3.927 4.305,4.286 0 0 1 4.287,3.93 4.305,4.286 0 0 0 0.018,-0.358 4.305,4.286 0 0 0 -4.305,-4.286 z"
       id="path601" />
  </g>
  <ellipse
     cx="49.377304"
     cy="37.5"
     fill="#7cbcec"
     rx="1.2549999"
     ry="1.25"
     id="ellipse605"
     style="stroke-width:1.25" />
  <path
     d="M 24.372299,12.5 V 20 h 4.48375 c 1.79375,0 1.79375,0.8925 1.79375,1.78625 0,0.89375 -0.89625,2.32125 -0.89625,3.21375 0,0.8925 1.2225,2.5 2.11875,2.5 l 2.04375,-7.5 -2.04375,-7.5 z"
     fill="url(#h)"
     id="path607"
     style="fill:url(#h);stroke-width:1.25" />
  <path
     d="m 39.372299,12.5 1.87875,9.43375 L 31.872299,20 v -7.5 z"
     fill="url(#i)"
     id="path609"
     style="fill:url(#i);stroke-width:1.25" />
  <path
     d="m 39.372299,12.49875 v 7.5 l 8.55,1.05 -1.05,-7.5175 c -0.30875,-0.35 -0.615,-0.7 -0.9425,-1.0325 z"
     fill="url(#j)"
     id="path611"
     style="fill:url(#j);stroke-width:1.25" />
  <path
     d="m 46.872299,13.53125 v 6.4675 h 4.1475 a 24.97875,24.97875 0 0 0 -4.1475,-6.4675 z"
     fill="#2b4d37"
     id="path613"
     style="stroke-width:1.25" />
  <path
     d="m 31.872299,20 h 7.5 l 1.27,8.715 -8.77,-1.215 z"
     fill="#f7e385"
     id="path615"
     style="stroke-width:1.25" />
  <path
     d="m 39.372299,20 v 7.5 h 7.5 V 25 c 0,-1.78625 3.2625,-0.0975 3.2625,-1.42875 0,-0.8925 -1.47125,-1.0075 -1.79375,-1.785 -0.22875,-0.55 0.89375,-1.78625 0,-1.78625 z"
     fill="url(#k)"
     id="path617"
     style="fill:url(#k);stroke-width:1.25" />
  <ellipse
     cx="41.463551"
     cy="16.5"
     fill="#ffa92d"
     rx="0.89625001"
     ry="0.89249998"
     id="ellipse619"
     style="stroke-width:1.25" />
  <path
     d="m 37.253549,23.03625 c -0.89625,0 -1.79375,0.8925 -0.89625,1.78625 0.89625,0.8925 0.89625,2.6775 -0.8975,2.6775 h -3.5875 c 0,0 2.69125,0.89375 2.69125,2.67875 0,1.78625 -2.2,2.05875 -2.19,4.34125 0.0075,2.20625 2.125,1.5475 2.82875,3.0575 0.455,0.975 -0.64,1.69375 0.35625,2.685 0.3375,0.21625 2.42125,0.33125 3.1775,-0.42125 1.7,-1.6925 0.6375,-2.51875 0.6375,-4.305 l 2.595,-3.9625 -2.59625,-4.075 v -0.8925 c 0,-0.8925 -1.22125,-3.57125 -2.11875,-3.57125 z"
     fill="#ecfde3"
     id="path621"
     style="stroke-width:1.25" />
  <path
     d="m 39.372299,27.5 v 8.035 c 0,-0.8925 7.5,-0.8925 7.5,1.7875 V 27.5 Z"
     fill="url(#l)"
     id="path623"
     style="fill:url(#l);stroke-width:1.25" />
  <ellipse
     cx="36.979801"
     cy="32.125004"
     fill="#986f34"
     rx="0.89625001"
     ry="1.33875"
     id="ellipse625"
     style="stroke-width:1.25" />
  <ellipse
     cx="34.737301"
     cy="14.75"
     fill="#d7e04c"
     rx="1.345"
     ry="0.89249998"
     id="ellipse627"
     style="stroke-width:1.25" />
</svg>
