<?xml version="1.0" encoding="UTF-8" standalone="no"?>
<!-- Svg Vector Icons : http://www.onlinewebfonts.com/icon -->

<svg
   version="1.1"
   x="0px"
   y="0px"
   viewBox="0 0 32 32"
   enable-background="new 0 0 256 256"
   xml:space="preserve"
   id="svg48"
   sodipodi:docname="application-kml.svg"
   width="32"
   height="32"
   inkscape:version="1.2.2 (b0a8486541, 2022-12-01)"
   xmlns:inkscape="http://www.inkscape.org/namespaces/inkscape"
   xmlns:sodipodi="http://sodipodi.sourceforge.net/DTD/sodipodi-0.dtd"
   xmlns="http://www.w3.org/2000/svg"
   xmlns:svg="http://www.w3.org/2000/svg"><defs
   id="defs52" /><sodipodi:namedview
   id="namedview50"
   pagecolor="#ffffff"
   bordercolor="#999999"
   borderopacity="1"
   inkscape:showpageshadow="0"
   inkscape:pageopacity="0"
   inkscape:pagecheckerboard="0"
   inkscape:deskcolor="#d1d1d1"
   showgrid="false"
   inkscape:zoom="4.0000001"
   inkscape:cx="24.999999"
   inkscape:cy="33.874999"
   inkscape:window-width="1839"
   inkscape:window-height="1326"
   inkscape:window-x="687"
   inkscape:window-y="40"
   inkscape:window-maximized="0"
   inkscape:current-layer="g46" />
<metadata
   id="metadata2"> Svg Vector Icons : http://www.onlinewebfonts.com/icon </metadata>
<g
   id="g46"
   style="display:inline"><g
     id="g8"
     transform="matrix(0.1356507,0,0,0.1356507,-1.3569466,-1.342942)"
     style="display:inline"><path
       style="fill:#ffffff;fill-opacity:1;stroke:#000000;stroke-width:1px;stroke-linecap:butt;stroke-linejoin:miter;stroke-opacity:1"
       d="M 19.588131,1.9541197 19.356872,121.65994 108.70774,121.60539 108.58195,31.933454 83.010683,1.9496378 Z"
       id="path293"
       sodipodi:nodetypes="cccccc"
       transform="matrix(1.8429687,0,0,1.8429687,10.05,9.9000005)" /><path
       fill="#000000"
       d="m 126.6,37.6 c 31,-0.1 56.9,25.3 56.9,57 -0.1,30.9 -25.5,57 -57.4,56.8 C 94.9,151.2 69.7,125 69.8,94.3 69.9,63.2 95.5,37.5 126.6,37.6 Z M 76.2,79 c 0.2,0.1 0.4,0.3 0.6,0.4 0.6,-0.3 1.2,-0.6 1.7,-1 1.1,-0.9 2.2,-1.9 3.3,-2.8 6.7,-5.6 14,-7.2 22,-3.1 2.7,1.4 5.4,2.8 8,4.5 11.2,7.4 22.1,15.2 33.5,22.3 9,5.7 18.8,9.7 29.3,11.7 1.6,0.3 2.4,-0.1 2.7,-1.6 0.4,-2 0.7,-4 1.2,-5.9 0.4,-1.3 -0.1,-1.8 -1.2,-2 -5.6,-1.3 -10.7,-3.8 -15.2,-7.3 -8.2,-6.4 -16.1,-13.1 -24,-19.7 -5.5,-4.6 -10.7,-9.6 -16.2,-14.3 -7.4,-6.3 -16.1,-7.5 -25.4,-5.6 -2.3,0.5 -5,1 -6.6,2.4 -5.5,5 -9.9,11 -12.5,18.1 -0.5,1.2 -0.8,2.6 -1.2,3.9 z m 93.9,45.2 c -0.2,-0.2 -0.4,-0.5 -0.6,-0.7 -0.7,0.2 -1.3,0.3 -2,0.5 -7.2,2 -14.4,3.7 -21.8,3.3 -6.4,-0.3 -12.8,-1.2 -19.1,-2.4 -10.9,-2.1 -21,-6.6 -31.2,-10.8 -3.2,-1.3 -6.7,-2.5 -10.2,-2.7 -4.6,-0.3 -7.1,4.3 -4.9,8.3 5.2,9.3 12.5,16.5 21.9,21.5 0.7,0.4 1.6,0.6 2.9,1 -0.2,-1.3 -0.4,-1.9 -0.5,-2.6 -1.3,-5 0.8,-7 5.9,-6 0.7,0.1 1.4,0.3 2.1,0.5 12.2,3.2 24.6,4.6 37.2,2.7 6.7,-1 13.2,-2.3 17.4,-8.5 0.7,-1.3 1.8,-2.7 2.9,-4.1 z M 111.5,44.1 c 0,0.3 0.1,0.6 0.1,0.9 0.5,0.1 1.1,0.2 1.6,0.3 2.7,0.1 5.5,0.2 8.2,0.4 10,0.6 18.9,4.2 25.7,11.6 5.3,5.7 9.8,12.3 14.7,18.3 2.2,2.7 4.6,5.2 7.3,7.4 2,1.7 4.4,1.4 6,0.1 1.8,-1.5 2.1,-2.9 1.2,-5.7 -3.3,-9.8 -9.1,-17.9 -17.2,-24.1 -11.8,-9.1 -25.2,-12.9 -40,-10.9 -2.5,0.4 -5,1.1 -7.6,1.7 z"
       id="path6"
       inkscape:label="--- GLOB"
       style="display:inline;fill:#51baf9;fill-opacity:1" /></g><g
     id="g10"
     transform="matrix(0.1356507,0,0,0.1356507,-1.3569466,-1.342942)"
     style="display:inline"><path
       fill="#000000"
       d="M 213.50572,66.492559 C 213.50572,65.392559 213.2,64.4 212.5,63.5 L 167,11.5 v 0 c -0.3,-0.3 -0.6,-0.6 -0.9,-0.8 -0.1,-0.1 -0.2,-0.1 -0.3,-0.2 -0.3,-0.2 -0.6,-0.3 -0.9,-0.4 -0.1,0 -0.2,0 -0.2,-0.1 -0.3,-0.1 -0.7,-0.1 -1.1,-0.1 h -112 c -5.1,0 -9.2,4.1 -9.2,9.2 v 217.5 c 0,5.1 4.1,9.2 9.2,9.2 h 152.7 c 5.1,0 9.2,-4.1 9.2,-9.2 V 67 c 0.009,-0.160078 0.006,-0.307441 0.006,-0.507441 z M 87.2,229.6 75.5,209 l -4.1,5.1 v 15.6 H 60.6 V 181.8 H 71.3 V 203 h 0.2 c 1.1,-1.9 2.2,-3.6 3.3,-5.3 L 85.7,181.8 H 99 l -15.9,20.4 16.7,27.5 z m 58.3,0 -0.7,-18.4 c -0.2,-5.8 -0.4,-12.7 -0.4,-19.7 h -0.2 c -1.5,6.1 -3.5,12.9 -5.3,18.6 l -5.9,18.7 h -8.5 l -5.1,-18.6 c -1.6,-5.6 -3.2,-12.5 -4.3,-18.7 H 115 c -0.3,6.5 -0.5,13.9 -0.8,19.8 l -0.8,18.2 h -10 l 3.1,-47.9 h 14.4 l 4.7,16 c 1.5,5.5 3,11.5 4,17.1 h 0.2 c 1.3,-5.5 3,-11.9 4.6,-17.2 l 5.1,-15.9 h 14.2 l 2.6,47.9 h -10.8 z m 48.8,0 h -29.9 v -47.9 h 10.9 v 38.8 h 19 z M 47.10341,14.52614 158.8,14.499923 V 66.5 c 0,2.6 2.1,4.6 4.6,4.6 h 45.48033 l 0.006,95.9 H 47.094429 Z"
       id="path4"
       style="display:inline;fill:#804d00;stroke-width:1;stroke-dasharray:none"
       sodipodi:nodetypes="cccsccccssssssscsccccccccccccccccccccccccccccccccccccccccccccccccssccccc" /></g><path
     style="fill:#ffffff;fill-opacity:1;stroke:#ffffff;stroke-width:0.237503px;stroke-linecap:butt;stroke-linejoin:miter;stroke-opacity:1"
     d="M 20.899718,0.85792801 V 7.595729 h 5.893015 z"
     id="path1072" /></g>
</svg>
