<?xml version="1.0" encoding="UTF-8" standalone="no"?>
<!-- Created with Inkscape (http://www.inkscape.org/) -->

<svg
   version="1.1"
   id="svg3955"
   width="32"
   height="32"
   viewBox="0 0 32 32"
   sodipodi:docname="application-x-perl 32.svg"
   inkscape:version="1.2.2 (b0a8486541, 2022-12-01)"
   xmlns:inkscape="http://www.inkscape.org/namespaces/inkscape"
   xmlns:sodipodi="http://sodipodi.sourceforge.net/DTD/sodipodi-0.dtd"
   xmlns="http://www.w3.org/2000/svg"
   xmlns:svg="http://www.w3.org/2000/svg">
  <defs
     id="defs3959" />
  <sodipodi:namedview
     id="namedview3957"
     pagecolor="#ffffff"
     bordercolor="#999999"
     borderopacity="1"
     inkscape:showpageshadow="0"
     inkscape:pageopacity="0"
     inkscape:pagecheckerboard="0"
     inkscape:deskcolor="#d1d1d1"
     showgrid="false"
     inkscape:zoom="7.9999996"
     inkscape:cx="28.375001"
     inkscape:cy="14.250001"
     inkscape:window-width="1855"
     inkscape:window-height="1317"
     inkscape:window-x="485"
     inkscape:window-y="59"
     inkscape:window-maximized="0"
     inkscape:current-layer="layer1" />
  <g
     id="g1028"
     transform="matrix(-1,0,0,1,64.010753,0)">
    <g
       inkscape:groupmode="layer"
       id="layer1"
       inkscape:label="Image 2"
       style="display:inline">
      <path
         id="rect1980"
         style="display:inline;opacity:1;fill:#fff4de;fill-opacity:1;fill-rule:evenodd;stroke:#000000;stroke-width:0;stroke-dasharray:none;stop-color:#000000;stop-opacity:1"
         d="m 35.890328,0.3176525 h 17.971347 l 6.235982,6.252169 V 31.616572 H 35.890328 Z"
         sodipodi:nodetypes="cccccc"
         inkscape:label="rect1980__Dokument_bg-colour" />
    </g>
    <path
       fill="#005a7d"
       d="m 45.873902,6.0689335 a 11.813968,11.813968 0 0 1 4.9231,0.981672 c 5.976261,2.605264 8.709761,9.5624595 6.104498,15.5401945 -2.205078,5.022227 -7.57848,7.86517 -12.971044,6.861387 -0.229941,-0.732201 -0.417137,-1.536625 -0.417137,-2.413646 q 0,-0.185721 0.0099,-0.375864 c 0,0 -0.421559,-0.719673 -0.754311,-1.656388 -0.41161,-1.158918 -0.194197,-2.435756 0.518474,-3.44617 0.04164,-0.05454 0.08328,-0.116445 0.127868,-0.179826 4.196058,0 6.271794,-3.804718 6.797268,-6.117764 0.217413,-0.951455 0.394291,-1.046527 0.988674,-1.046527 1.098117,0 1.891488,-0.454723 1.891488,-0.454723 1.008941,0.462092 1.461084,0.273423 1.324373,-0.208938 0.440352,-0.04864 0.430402,-0.546847 0.162506,-1.004519 -0.333857,-0.575958 -1.01889,-0.965827 -1.839529,-0.965827 h -0.438879 c -0.905393,0 -1.092589,-0.473517 -2.026725,-0.372917 -0.145556,0.0129 -0.280794,0.03758 -0.404608,0.06928 -0.259053,-0.298113 -0.552744,-0.423402 -0.909816,-0.398712 -0.05454,0.0074 -0.08918,0.05601 -0.07923,0.107969 l 0.0866,0.40166 c 0.03021,0.148135 -0.01032,0.30364 -0.117919,0.404239 -0.75431,0.705301 -1.186556,1.908807 -1.670022,2.995501 -0.786001,1.600744 -2.681542,3.824615 -5.72163,0.971723 -2.13727,-2.006827 -3.428847,-3.679428 -5.552118,-3.843409 a 11.806598,11.806598 0 0 1 9.968174,-5.8483925 m 5.01375,5.8082265 c 0.310642,0 0.621652,0.250577 0.515157,0.294797 -0.02285,0.01032 -0.06338,0.01732 -0.109443,0.02174 -0.03317,0.200093 -0.200093,0.353755 -0.40903,0.353755 -0.207095,0 -0.372181,-0.153662 -0.40424,-0.353755 -0.04606,-0.0044 -0.08623,-0.01142 -0.109443,-0.02174 -0.106495,-0.04422 0.204515,-0.294797 0.516999,-0.294797 M 39.85858,23.228297 c 0.252051,0.0059 0.479044,0.165823 0.555691,0.41161 v 0.0029 c 0.375866,1.210508 1.109909,2.774034 1.109909,2.774034 0,0 0.729621,1.292314 1.141231,2.739028 a 11.791858,11.791858 0 0 1 -1.302633,-0.46062 11.791858,11.791858 0 0 1 -2.34621,-1.367118 7.369911,7.369911 0 0 1 0.392816,-0.693877 c 0,0 0.242101,-1.075271 0.7053,-2.24856 A 12.160354,12.160354 0 0 1 39.917539,23.79831 l -0.0044,-0.0129 c -0.01289,-0.02874 -0.04422,-0.03869 -0.07886,-0.03869 h -0.0029 a 18.056283,18.056283 0 0 1 -0.795951,0.110549 c -0.08954,0.0074 -0.182774,0.01475 -0.276371,0.02469 -0.113866,0.01 -0.224783,0.0199 -0.339754,0.02726 -0.02726,1.088168 -0.499679,2.128799 -0.619072,2.376797 a 11.791858,11.791858 0 0 1 -2.170462,-2.928065 c 0.84017,0.09655 1.868273,0.129342 3.078781,0.0085 a 6.264425,6.264425 0 0 1 0.290742,-0.02726 q 0.376235,-0.04495 0.749889,-0.105022 a 0.7369911,0.7369911 0 0 1 0.109443,-0.0059"
       id="path4"
       style="fill:#0a00ff;fill-opacity:1;stroke-width:0.368495"
       inkscape:label="path4___Kamelen" />
    <g
       inkscape:groupmode="layer"
       inkscape:label="Image"
       id="g3961"
       style="display:inline">
      <g
         id="g2372"
         style="display:inline"
         transform="matrix(0.5,0,0,0.5,33.010824,-7.0070337)">
        <g
           id="g342"
           style="display:inline;stroke:#000000;stroke-opacity:1"
           inkscape:label="g342__Diagonalt_veck">
          <path
             style="display:inline;fill:none;stroke:#000000;stroke-width:2;stroke-linecap:butt;stroke-linejoin:miter;stroke-dasharray:none;stroke-opacity:1"
             d="m 46.999618,21.009995 h 0.99819 v 0.09561"
             id="path2368"
             sodipodi:nodetypes="ccc" />
          <path
             style="display:inline;fill:none;stroke:#000000;stroke-width:2;stroke-linecap:butt;stroke-linejoin:miter;stroke-dasharray:none;stroke-opacity:1"
             d="m 48.999618,23.009995 h 0.99819 v 0.09561"
             id="path329"
             sodipodi:nodetypes="ccc" />
          <path
             style="display:inline;fill:none;stroke:#000000;stroke-width:2;stroke-linecap:butt;stroke-linejoin:miter;stroke-dasharray:none;stroke-opacity:1"
             d="m 50.999618,25.009995 h 0.99819 v 0.09561"
             id="path331"
             sodipodi:nodetypes="ccc" />
          <path
             style="display:inline;fill:none;stroke:#000000;stroke-width:2;stroke-linecap:butt;stroke-linejoin:miter;stroke-dasharray:none;stroke-opacity:1"
             d="m 44.999618,19.009995 h 0.99819 v 0.09561"
             id="path333"
             sodipodi:nodetypes="ccc" />
          <path
             style="display:inline;fill:none;stroke:#000000;stroke-width:2;stroke-linecap:butt;stroke-linejoin:miter;stroke-dasharray:none;stroke-opacity:1"
             d="m 42.999618,17.009995 h 0.99819 v 0.09561"
             id="path335"
             sodipodi:nodetypes="ccc" />
        </g>
      </g>
    </g>
    <g
       inkscape:groupmode="layer"
       id="layer2"
       inkscape:label="Image 1"
       style="display:inline">
      <path
         id="rect4394"
         style="display:inline;opacity:1;fill:none;fill-rule:evenodd;stroke:#000000;stroke-width:1.00001;stroke-opacity:1;stop-color:#000000;stop-opacity:1"
         d="m 36.008946,0.4993745 h 18.002846 l -0.0035,5.995628 6.004267,-0.0038 V 31.500625 H 36.008946 Z"
         sodipodi:nodetypes="ccccccc"
         inkscape:label="rect4394__Dokument_kontur" />
    </g>
  </g>
</svg>
