<?xml version="1.0" encoding="UTF-8" standalone="no"?>
<!-- Created with Inkscape (http://www.inkscape.org/) -->

<svg
   version="1.1"
   id="svg3955"
   width="32"
   height="32"
   viewBox="0 0 32 32"
   sodipodi:docname="application-x-theme.svg"
   inkscape:version="1.2.2 (b0a8486541, 2022-12-01)"
   xml:space="preserve"
   xmlns:inkscape="http://www.inkscape.org/namespaces/inkscape"
   xmlns:sodipodi="http://sodipodi.sourceforge.net/DTD/sodipodi-0.dtd"
   xmlns:xlink="http://www.w3.org/1999/xlink"
   xmlns="http://www.w3.org/2000/svg"
   xmlns:svg="http://www.w3.org/2000/svg"><defs
     id="defs3959"><linearGradient
       inkscape:collect="always"
       id="linearGradient1067"><stop
         style="stop-color:#41eeff;stop-opacity:1;"
         offset="0"
         id="stop1063" /><stop
         style="stop-color:#fb41ff;stop-opacity:1;"
         offset="1"
         id="stop1065" /></linearGradient><linearGradient
       inkscape:collect="always"
       xlink:href="#linearGradient1067"
       id="linearGradient1069"
       x1="-2.219929"
       y1="64.472412"
       x2="58.298805"
       y2="64.472412"
       gradientUnits="userSpaceOnUse"
       gradientTransform="matrix(0.5,0,0,0.5,-16.002688,-16.003199)" /></defs><sodipodi:namedview
     id="namedview3957"
     pagecolor="#ffffff"
     bordercolor="#999999"
     borderopacity="1"
     inkscape:showpageshadow="0"
     inkscape:pageopacity="0"
     inkscape:pagecheckerboard="0"
     inkscape:deskcolor="#d1d1d1"
     showgrid="false"
     inkscape:zoom="8.0000001"
     inkscape:cx="23.4375"
     inkscape:cy="40.625"
     inkscape:window-width="1808"
     inkscape:window-height="1355"
     inkscape:window-x="617"
     inkscape:window-y="28"
     inkscape:window-maximized="0"
     inkscape:current-layer="layer1" /><path
     id="rect1980"
     style="display:inline;opacity:1;fill:#f5f5f5;fill-opacity:1;fill-rule:evenodd;stroke:#000000;stroke-width:0;stroke-dasharray:none;stop-color:#000000;stop-opacity:1"
     d="m 3.87955,0.317652 h 17.971348 l 6.235981,6.252169 V 31.616572 H 3.87955 Z"
     sodipodi:nodetypes="cccccc"
     inkscape:label="rect1980__Dokument_bg-colour" /><g
     inkscape:groupmode="layer"
     id="layer1"
     inkscape:label="Image 2"
     style="display:inline"
     transform="matrix(0.5,0,0,0.5,16.002688,16.003199)"><rect
       style="font-variation-settings:normal;display:inline;opacity:1;fill:#ba8855;fill-opacity:1;fill-rule:evenodd;stroke:none;stroke-width:0;stroke-linecap:butt;stroke-linejoin:miter;stroke-miterlimit:4;stroke-dasharray:none;stroke-dashoffset:0;stroke-opacity:1;stop-color:#000000;stop-opacity:1"
       id="rect1018"
       width="7.6017723"
       height="17.500698"
       x="-5.8117008"
       y="-21.403324"
       inkscape:label="handtaget" /><rect
       style="font-variation-settings:normal;display:inline;opacity:1;fill:url(#linearGradient1069);fill-opacity:1;fill-rule:evenodd;stroke:none;stroke-width:0;stroke-linecap:butt;stroke-linejoin:miter;stroke-miterlimit:4;stroke-dasharray:none;stroke-dashoffset:0;stroke-opacity:1;stop-color:#000000;stop-opacity:1"
       id="rect1038"
       width="30.259367"
       height="9.4904251"
       x="-17.112652"
       y="11.487793"
       inkscape:label="rullen" /><path
       d="m -19.984085,15.067306 h 1.325676 v -1.127923 c 0,-1.072992 0.435789,-2.043445 1.142571,-2.750228 0.706783,-0.70312 1.677237,-1.142571 2.750228,-1.142571 h 25.652923 c 1.072992,0 2.043445,0.435788 2.750228,1.142571 0.706783,0.706783 1.142572,1.677236 1.142572,2.750228 v 1.289055 h 0.531003 c 0.563961,0 1.076653,-0.230712 1.450186,-0.604244 0.373533,-0.373533 0.604245,-0.886226 0.604245,-1.450187 V 7.226776 c 0,-0.563961 -0.230712,-1.076654 -0.604245,-1.450187 C 16.387769,5.403057 15.875077,5.172345 15.311116,5.172345 H 4.943745 c -0.450437,0 -0.607906,0.0037 -0.761714,0.0037 -1.783437,0.0293 -3.775613,0.06226 -5.332,-1.065667 C -1.684634,3.725858 -2.109436,3.235139 -2.417051,2.630894 -2.71368,2.052284 -2.893123,1.371136 -2.951716,0.583787 c 0,-0.02197 -0.0037,-0.04395 -0.0037,-0.06592 v 0 -3.006574 h -1.571036 c -0.688472,0 -1.314688,-0.281981 -1.765125,-0.732418 -0.454099,-0.454099 -0.732418,-1.076654 -0.732418,-1.765126 v -14.926718 c 0,-0.688474 0.281981,-1.31469 0.732418,-1.765125 0.454099,-0.4541 1.076653,-0.732419 1.765125,-0.732419 h 4.885225 c 0.688473,0 1.31469,0.281979 1.765127,0.732419 0.454099,0.454096 0.732418,1.076651 0.732418,1.765125 v 14.926683 c 0,0.688472 -0.281981,1.314689 -0.732418,1.765126 -0.454099,0.454099 -1.076654,0.732417 -1.765127,0.732417 h -1.475821 v 2.988264 c 0.04032,0.512692 0.157508,0.941156 0.33695,1.296379 0.172118,0.340574 0.410153,0.611568 0.706783,0.827632 1.065667,0.7727 2.735579,0.747066 4.226049,0.721431 0.373533,-0.0073 0.739742,-0.01098 0.791011,-0.01098 h 10.367371 c 1.072991,0 2.043444,0.435788 2.750228,1.142571 0.706782,0.706781 1.142571,1.680896 1.142571,2.750226 v 5.947231 c 0,1.072992 -0.439451,2.043446 -1.142571,2.750228 -0.706784,0.703121 -1.677237,1.142572 -2.750228,1.142572 h -0.531003 v 1.629629 c 0,1.072991 -0.435789,2.043445 -1.142572,2.750228 -0.706783,0.706783 -1.677236,1.142571 -2.750228,1.142571 H -14.76561 c -1.072991,0 -2.043445,-0.435788 -2.750228,-1.142571 -0.706782,-0.703121 -1.142571,-1.677237 -1.142571,-2.750228 v -1.790761 h -1.325676 z m 5.218475,5.687222 h 25.652923 c 0.563962,0 1.076654,-0.230711 1.450187,-0.604244 0.373533,-0.373533 0.604245,-0.886226 0.604245,-1.450187 v -4.757052 c 0,-0.563962 -0.230712,-1.076654 -0.604245,-1.450187 -0.373533,-0.373532 -0.886225,-0.604245 -1.450187,-0.604245 H -14.76561 c -0.563962,0 -1.076654,0.230713 -1.450186,0.604245 -0.373533,0.373533 -0.604245,0.886225 -0.604245,1.450187 v 4.75339 c 0,0.563961 0.230712,1.076654 0.604245,1.450187 0.373532,0.373533 0.886224,0.607906 1.450186,0.607906 z M -4.522752,-4.323448 h 4.881563 c 0.179443,0 0.347899,-0.07324 0.468747,-0.194091 0.120849,-0.120849 0.194091,-0.285643 0.194091,-0.468747 v -14.92667 c 0,-0.179444 -0.07324,-0.347897 -0.194091,-0.468747 -0.120848,-0.120851 -0.285643,-0.194091 -0.468747,-0.194091 h -4.881563 c -0.179442,0 -0.347898,0.07324 -0.468746,0.194091 -0.120849,0.12085 -0.194091,0.285643 -0.194091,0.468747 v 14.92667 c 0,0.179442 0.07324,0.347898 0.194091,0.468747 0.120848,0.120849 0.289304,0.194091 0.468746,0.194091 z"
       id="path250"
       style="stroke-width:0.366209" /></g><g
     inkscape:groupmode="layer"
     inkscape:label="Image"
     id="g3961"
     style="display:inline"
     transform="matrix(0.5,0,0,0.5,16.002688,16.003199)"><g
       id="g2372"
       style="display:inline"
       transform="translate(-30.005282,-46.020466)"><g
         id="g342"
         style="display:inline;stroke:#000000;stroke-opacity:1"
         inkscape:label="g342__Diagonalt_veck"><path
           style="display:inline;fill:none;stroke:#000000;stroke-width:2;stroke-linecap:butt;stroke-linejoin:miter;stroke-dasharray:none;stroke-opacity:1"
           d="m 46.999618,21.009995 h 0.99819 v 0.09561"
           id="path2368"
           sodipodi:nodetypes="ccc" /><path
           style="display:inline;fill:none;stroke:#000000;stroke-width:2;stroke-linecap:butt;stroke-linejoin:miter;stroke-dasharray:none;stroke-opacity:1"
           d="m 48.999618,23.009995 h 0.99819 v 0.09561"
           id="path329"
           sodipodi:nodetypes="ccc" /><path
           style="display:inline;fill:none;stroke:#000000;stroke-width:2;stroke-linecap:butt;stroke-linejoin:miter;stroke-dasharray:none;stroke-opacity:1"
           d="m 50.999618,25.009995 h 0.99819 v 0.09561"
           id="path331"
           sodipodi:nodetypes="ccc" /><path
           style="display:inline;fill:none;stroke:#000000;stroke-width:2;stroke-linecap:butt;stroke-linejoin:miter;stroke-dasharray:none;stroke-opacity:1"
           d="m 44.999618,19.009995 h 0.99819 v 0.09561"
           id="path333"
           sodipodi:nodetypes="ccc" /><path
           style="display:inline;fill:none;stroke:#000000;stroke-width:2;stroke-linecap:butt;stroke-linejoin:miter;stroke-dasharray:none;stroke-opacity:1"
           d="m 42.999618,17.009995 h 0.99819 v 0.09561"
           id="path335"
           sodipodi:nodetypes="ccc" /></g></g></g><g
     inkscape:groupmode="layer"
     id="layer2"
     inkscape:label="Image 1"
     style="display:inline"
     transform="matrix(0.5,0,0,0.5,16.002688,16.003199)"><path
       id="rect4394"
       style="display:inline;opacity:1;fill:none;fill-rule:evenodd;stroke:#000000;stroke-width:2.00002;stroke-opacity:1;stop-color:#000000;stop-opacity:1"
       d="m -24.00904,-31.007649 h 36.005694 l -0.0069,11.991256 12.008534,-0.0076 V 30.994853 H -24.00904 Z"
       sodipodi:nodetypes="ccccccc"
       inkscape:label="rect4394__Dokument_kontur" /></g></svg>
