<?xml version="1.0" encoding="UTF-8" standalone="no"?>
<!-- Created with Inkscape (http://www.inkscape.org/) -->

<svg
   version="1.1"
   id="svg2"
   width="32"
   height="32"
   viewBox="0 0 32 32"
   sodipodi:docname="application-gpx+xml.svg"
   inkscape:version="1.2.2 (b0a8486541, 2022-12-01)"
   xmlns:inkscape="http://www.inkscape.org/namespaces/inkscape"
   xmlns:sodipodi="http://sodipodi.sourceforge.net/DTD/sodipodi-0.dtd"
   xmlns="http://www.w3.org/2000/svg"
   xmlns:svg="http://www.w3.org/2000/svg">
  <defs
     id="defs6">
    <inkscape:path-effect
       effect="spiro"
       id="path-effect5717"
       is_visible="true"
       lpeversion="1" />
    <inkscape:path-effect
       effect="spiro"
       id="path-effect5711"
       is_visible="true"
       lpeversion="1" />
    <inkscape:path-effect
       effect="spiro"
       id="path-effect5705"
       is_visible="true"
       lpeversion="1" />
    <inkscape:path-effect
       effect="spiro"
       id="path-effect5699"
       is_visible="true"
       lpeversion="1" />
    <inkscape:path-effect
       effect="spiro"
       id="path-effect5693"
       is_visible="true"
       lpeversion="1" />
    <inkscape:path-effect
       effect="spiro"
       id="path-effect5687"
       is_visible="true"
       lpeversion="1" />
    <inkscape:path-effect
       effect="spiro"
       id="path-effect5681"
       is_visible="true"
       lpeversion="1" />
    <inkscape:path-effect
       effect="spiro"
       id="path-effect5675"
       is_visible="true"
       lpeversion="1" />
    <inkscape:path-effect
       effect="spiro"
       id="path-effect5669"
       is_visible="true"
       lpeversion="1" />
    <inkscape:path-effect
       effect="spiro"
       id="path-effect5663"
       is_visible="true"
       lpeversion="1" />
    <inkscape:path-effect
       effect="spiro"
       id="path-effect5657"
       is_visible="true"
       lpeversion="1" />
    <inkscape:path-effect
       effect="spiro"
       id="path-effect5651"
       is_visible="true"
       lpeversion="1" />
    <inkscape:path-effect
       effect="spiro"
       id="path-effect5639"
       is_visible="true"
       lpeversion="1" />
    <inkscape:path-effect
       effect="spiro"
       id="path-effect5633"
       is_visible="true"
       lpeversion="1" />
    <inkscape:path-effect
       effect="spiro"
       id="path-effect5627"
       is_visible="true"
       lpeversion="1" />
    <inkscape:path-effect
       effect="spiro"
       id="path-effect5621"
       is_visible="true"
       lpeversion="1" />
    <inkscape:path-effect
       effect="spiro"
       id="path-effect2878"
       is_visible="true"
       lpeversion="1" />
    <inkscape:path-effect
       effect="spiro"
       id="path-effect2874"
       is_visible="true"
       lpeversion="1" />
  </defs>
  <sodipodi:namedview
     id="namedview4"
     pagecolor="#ffffff"
     bordercolor="#999999"
     borderopacity="1"
     inkscape:showpageshadow="0"
     inkscape:pageopacity="0"
     inkscape:pagecheckerboard="0"
     inkscape:deskcolor="#d1d1d1"
     showgrid="false"
     inkscape:zoom="7.9999999"
     inkscape:cx="23.5625"
     inkscape:cy="44.9375"
     inkscape:window-width="1814"
     inkscape:window-height="1326"
     inkscape:window-x="738"
     inkscape:window-y="28"
     inkscape:window-maximized="0"
     inkscape:current-layer="g8" />
  <g
     inkscape:groupmode="layer"
     inkscape:label="Image"
     id="g8">
    <path
       style="fill:#fff194;fill-opacity:1;stroke:#000000;stroke-width:0.969595;stroke-linecap:butt;stroke-linejoin:miter;stroke-dasharray:none;stroke-opacity:1"
       d="M 5.6556131,0.4978625 H 30.029227 l -0.02529,0.0512 -3.732657,7.648638 3.812007,7.8842595 -3.866741,8.365067 3.724728,7.055111 H 5.6097781 l -3.787673,-7.057376 3.711983,-8.44637 -3.801838,-7.8202395 z"
       id="path851"
       sodipodi:nodetypes="cccccccccccc" />
    <g
       id="g5819"
       transform="matrix(0.16159899,0,0,0.16159899,-0.26487388,-0.1646845)">
      <path
         style="fill:#fffae0;fill-opacity:1;stroke:#000000;stroke-width:1px;stroke-linecap:butt;stroke-linejoin:miter;stroke-opacity:1"
         d="M 15.131254,52.001884 161.40523,51.750371 185.17403,100.61572 38.55604,99.805408 Z"
         id="path5719"
         sodipodi:nodetypes="ccccc" />
      <path
         style="fill:#fffae0;fill-opacity:1;stroke:#000000;stroke-width:1px;stroke-linecap:butt;stroke-linejoin:miter;stroke-opacity:1"
         d="m 15.738703,152.16778 145.507967,0.0531 21.2915,41.26501 -144.514753,-0.11509 z"
         id="path5815"
         sodipodi:nodetypes="ccccc" />
    </g>
    <g
       id="g5742"
       style="display:inline"
       transform="matrix(0.16159899,0,0,0.16159899,-0.43627588,-0.9074255)">
      <ellipse
         style="fill:#469654;fill-opacity:1;fill-rule:evenodd;stroke-width:1.03132"
         id="path2413"
         cx="61.776726"
         cy="30.331432"
         rx="15.038967"
         ry="10.866327" />
      <path
         style="fill:#b50000;stroke:#b50000;stroke-width:0.5;stroke-linecap:butt;stroke-linejoin:miter;stroke-dasharray:none;stroke-opacity:1"
         d="m 125.82008,42.664437 c -0.59917,0.103859 -1.17389,0.346293 -1.66642,0.702952 -0.63829,0.462205 -1.12544,1.100925 -1.56767,1.753214 -0.41448,0.61137 -0.79854,1.243838 -1.13778,1.899954 -0.26107,0.504943 -0.49642,1.026233 -0.64762,1.574196 -0.15121,0.547962 -0.21659,1.125186 -0.13529,1.687785 0.10882,0.75305 0.48489,1.462212 1.03643,1.986355 0.44664,0.424451 1.00053,0.726975 1.58492,0.922273 0.42259,0.141226 0.86579,0.228546 1.31135,0.225893 0.44555,-0.0027 0.89391,-0.0974 1.28875,-0.303853 0.71612,-0.374445 1.19593,-1.073069 1.63644,-1.750552 0.6157,-0.946914 1.2141,-1.908643 1.6992,-2.92865 0.22151,-0.465753 0.41977,-0.945241 0.54163,-1.44638 0.12186,-0.501139 0.16575,-1.026229 0.0777,-1.534399 -0.0985,-0.568376 -0.36199,-1.103868 -0.73305,-1.54553 -0.39381,-0.468741 -0.90939,-0.834287 -1.48205,-1.050782 -0.57265,-0.216495 -1.20111,-0.283452 -1.80653,-0.192473 z"
         id="path2876"
         inkscape:path-effect="#path-effect2878"
         inkscape:original-d="m 125.82008,42.664437 c -0.74076,0.01786 -2.20641,1.231088 -1.66642,0.702952 0.3678,-0.359707 -1.00924,1.133713 -1.56767,1.753214 -0.55843,0.619502 -0.80139,1.255333 -1.13778,1.899954 -0.33638,0.644622 -0.89468,2.368008 -0.78291,3.261981 0.12738,1.018842 0.51292,1.429406 1.03643,1.986355 0.61974,0.659337 1.0397,0.829231 1.58492,0.922273 0.8907,0.152003 1.92225,0.0045 2.6001,-0.07796 0.67784,-0.08249 1.1718,-1.067204 1.63644,-1.750552 0.85921,-1.263636 0.89439,-1.672415 1.6992,-2.92865 0.71928,-1.122735 0.81562,-2.031336 0.61932,-2.980779 -0.14565,-0.70449 -0.11891,-0.870675 -0.73305,-1.54553 -0.62214,-0.683654 -2.04899,-1.273148 -3.28858,-1.243255 z"
         sodipodi:nodetypes="sssssssssssss" />
      <ellipse
         style="fill:#ff0000;fill-opacity:1;fill-rule:evenodd;stroke-width:1.02626"
         id="circle5613"
         cx="133.46082"
         cy="86.344597"
         rx="14.976113"
         ry="10.804942" />
      <ellipse
         style="fill:#fd0303;fill-opacity:1;fill-rule:evenodd;stroke-width:1.03332"
         id="circle5615"
         cx="62.075996"
         cy="131.67329"
         rx="14.961363"
         ry="10.965016" />
      <path
         style="fill:#b50000;stroke:#b50000;stroke-width:0.5;stroke-linecap:butt;stroke-linejoin:miter;stroke-dasharray:none;stroke-opacity:1"
         d="m 139.94258,31.018308 c -0.58069,-0.180533 -1.20274,-0.226566 -1.80368,-0.133477 -0.77878,0.120638 -1.50344,0.467262 -2.19429,0.846438 -0.64751,0.355388 -1.27755,0.74342 -1.87846,1.172925 -0.46246,0.330544 -0.90946,0.687364 -1.29371,1.106259 -0.38426,0.418894 -0.70544,0.902941 -0.8894,1.440794 -0.24623,0.719928 -0.23457,1.52255 0.0176,2.24042 0.20421,0.581332 0.55944,1.102991 0.99067,1.54309 0.31184,0.318251 0.66659,0.59791 1.06442,0.798544 0.39784,0.200634 0.84012,0.320569 1.28567,0.316678 0.80807,-0.0071 1.55349,-0.410352 2.25429,-0.812734 0.97951,-0.562407 1.95035,-1.145891 2.8469,-1.832866 0.40938,-0.313685 0.80433,-0.650186 1.14113,-1.040769 0.3368,-0.390582 0.61511,-0.838012 0.76824,-1.330497 0.17128,-0.550833 0.18069,-1.147567 0.0516,-1.709784 -0.13701,-0.596688 -0.42942,-1.15699 -0.84055,-1.610615 -0.41113,-0.453626 -0.94007,-0.799561 -1.52045,-0.994406 z"
         id="path5617"
         inkscape:path-effect="#path-effect5621"
         inkscape:original-d="m 139.94258,31.018308 c -0.66755,-0.321595 -2.525,0.09064 -1.80368,-0.133477 0.49129,-0.152634 -1.41494,0.549393 -2.19429,0.846438 -0.77936,0.297043 -1.28532,0.752354 -1.87846,1.172925 -0.59314,0.420569 -1.8753,1.700335 -2.18311,2.547053 -0.3508,0.964989 -0.19466,1.506121 0.0176,2.24042 0.25128,0.869288 0.54772,1.211861 0.99067,1.54309 0.72363,0.541119 1.7091,0.879824 2.35009,1.115222 0.64099,0.235399 1.52934,-0.416124 2.25429,-0.812734 1.34057,-0.733406 1.55813,-1.081264 2.8469,-1.832866 1.15182,-0.671726 1.65154,-1.436656 1.90937,-2.371266 0.19131,-0.693483 0.29083,-0.829237 0.0516,-1.709784 -0.24234,-0.892028 -1.24392,-2.066867 -2.361,-2.605021 z"
         sodipodi:nodetypes="sssssssssssss" />
      <path
         style="fill:#b50000;stroke:#b50000;stroke-width:0.5;stroke-linecap:butt;stroke-linejoin:miter;stroke-dasharray:none;stroke-opacity:1"
         d="m 119.85327,61.835943 c -0.35257,0.495464 -0.59025,1.072164 -0.68915,1.672174 -0.12817,0.777572 -0.0247,1.574183 0.12015,2.348813 0.13581,0.726034 0.30808,1.445644 0.52883,2.15051 0.16989,0.542461 0.36957,1.078426 0.64779,1.574129 0.27821,0.495703 0.638,0.951788 1.0917,1.294258 0.60728,0.458404 1.37354,0.697544 2.13425,0.681747 0.61602,-0.01279 1.22243,-0.187687 1.77504,-0.460218 0.39961,-0.197075 0.77593,-0.446959 1.09059,-0.762413 0.31466,-0.315453 0.56651,-0.698302 0.70172,-1.122852 0.24523,-0.769999 0.0944,-1.603998 -0.0694,-2.395322 -0.229,-1.106028 -0.48073,-2.210395 -0.85396,-3.276434 -0.17042,-0.486772 -0.36702,-0.966943 -0.63313,-1.40873 -0.26611,-0.441787 -0.60447,-0.845712 -1.02467,-1.144754 -0.46998,-0.334473 -1.03404,-0.52946 -1.60848,-0.582082 -0.60966,-0.05585 -1.2332,0.04731 -1.7924,0.296524 -0.55919,0.249218 -1.05278,0.643941 -1.41886,1.13465 z"
         id="path5623"
         inkscape:path-effect="#path-effect5627"
         inkscape:original-d="m 119.85327,61.835943 c -0.51369,0.534019 -0.70109,2.427406 -0.68915,1.672174 0.008,-0.514388 0.0809,1.515694 0.12015,2.348813 0.0393,0.83312 0.31414,1.455815 0.52883,2.15051 0.21469,0.694696 1.03094,2.311945 1.73949,2.868387 0.80753,0.634166 1.37037,0.654507 2.13425,0.681747 0.9043,0.03225 1.32222,-0.142609 1.77504,-0.460218 0.73975,-0.518864 1.3688,-1.349612 1.79231,-1.885265 0.4235,-0.535654 0.0814,-1.582853 -0.0694,-2.395322 -0.27891,-1.502407 -0.54161,-1.817572 -0.85396,-3.276434 -0.27915,-1.303832 -0.85016,-2.017123 -1.6578,-2.553484 -0.59928,-0.397983 -0.69724,-0.534862 -1.60848,-0.582082 -0.92313,-0.04784 -2.35167,0.537547 -3.21126,1.431174 z"
         sodipodi:nodetypes="sssssssssssss" />
      <path
         style="fill:#b50000;stroke:#b50000;stroke-width:0.5;stroke-linecap:butt;stroke-linejoin:miter;stroke-dasharray:none;stroke-opacity:1"
         d="m 105.64062,182.15894 c 0.43036,0.42963 0.95983,0.75938 1.53524,0.95611 0.74568,0.25495 1.54843,0.28464 2.33635,0.2698 0.73849,-0.0139 1.47668,-0.0649 2.20834,-0.16604 0.56308,-0.0779 1.12468,-0.1862 1.65956,-0.37864 0.53488,-0.19244 1.04417,-0.47188 1.45693,-0.86272 0.55249,-0.52314 0.91502,-1.23933 1.0252,-1.99218 0.0892,-0.60966 0.017,-1.23664 -0.16044,-1.8267 -0.1283,-0.42669 -0.31254,-0.83914 -0.57163,-1.20162 -0.2591,-0.36248 -0.59504,-0.67416 -0.9914,-0.87769 -0.71887,-0.36915 -1.56632,-0.35831 -2.37384,-0.32754 -1.12866,0.043 -2.25945,0.10871 -3.37252,0.30056 -0.50825,0.0876 -1.01432,0.20211 -1.49402,0.39153 -0.4797,0.18941 -0.93401,0.45634 -1.2984,0.82132 -0.40757,0.40822 -0.69312,0.93228 -0.83998,1.49012 -0.15587,0.59204 -0.15721,1.22406 -0.004,1.81675 0.15334,0.5927 0.46104,1.14476 0.88448,1.58692 z"
         id="path5629"
         inkscape:path-effect="#path-effect5633"
         inkscape:original-d="m 105.64062,182.15894 c 0.44175,0.59491 2.2781,1.09274 1.53524,0.95611 -0.50599,-0.0929 1.5082,0.17078 2.33635,0.2698 0.82815,0.099 1.48772,-0.0691 2.20834,-0.16604 0.72064,-0.0969 2.45057,-0.63455 3.11649,-1.24136 0.75895,-0.69158 0.87205,-1.24331 1.0252,-1.99218 0.18125,-0.88653 0.0779,-1.3276 -0.16044,-1.8267 -0.38943,-0.81534 -1.10476,-1.57308 -1.56303,-2.07931 -0.45827,-0.50623 -1.54762,-0.34195 -2.37384,-0.32754 -1.52783,0.0267 -1.8821,0.23368 -3.37252,0.30056 -1.33204,0.0598 -2.12991,0.50499 -2.79242,1.21285 -0.49157,0.52524 -0.64276,0.59923 -0.83998,1.49012 -0.19975,0.90253 0.14139,2.40818 0.88062,3.40367 z"
         sodipodi:nodetypes="sssssssssssss" />
      <path
         style="fill:#b50000;stroke:#b50000;stroke-width:0.5;stroke-linecap:butt;stroke-linejoin:miter;stroke-dasharray:none;stroke-opacity:1"
         d="m 132.23116,169.42055 c -0.58069,-0.18052 -1.20274,-0.22655 -1.80368,-0.13345 -0.77878,0.12065 -1.50344,0.46728 -2.19428,0.84647 -0.6475,0.3554 -1.27754,0.74344 -1.87844,1.17296 -0.46245,0.33055 -0.90944,0.68738 -1.29369,1.10628 -0.38425,0.4189 -0.70542,0.90295 -0.88938,1.4408 -0.24623,0.71993 -0.23457,1.52255 0.0176,2.24042 0.20421,0.58133 0.55946,1.10299 0.9907,1.54308 0.31184,0.31824 0.6666,0.59789 1.06443,0.79852 0.39783,0.20063 0.84012,0.32056 1.28566,0.31667 0.80808,-0.007 1.55349,-0.41036 2.25429,-0.81275 0.9795,-0.56242 1.95034,-1.14592 2.84688,-1.83292 0.40937,-0.31369 0.80431,-0.6502 1.14111,-1.04079 0.33679,-0.39058 0.61509,-0.83802 0.76822,-1.3305 0.17127,-0.55083 0.18069,-1.14756 0.0516,-1.70978 -0.13701,-0.59669 -0.42942,-1.15699 -0.84056,-1.61061 -0.41114,-0.45362 -0.94008,-0.79955 -1.52047,-0.99438 z"
         id="path5635"
         inkscape:path-effect="#path-effect5639"
         inkscape:original-d="m 132.23116,169.42055 c -0.66756,-0.32159 -2.525,0.0907 -1.80368,-0.13345 0.49123,-0.15277 -1.41493,0.54943 -2.19428,0.84647 -0.77934,0.29709 -1.28531,0.75237 -1.87844,1.17296 -0.59313,0.42057 -1.87528,1.70036 -2.18307,2.54708 -0.35079,0.965 -0.19464,1.50612 0.0176,2.24042 0.25135,0.86927 0.54774,1.21185 0.9907,1.54308 0.72364,0.54111 1.7091,0.87979 2.35009,1.11519 0.641,0.23538 1.52933,-0.41616 2.25429,-0.81275 1.34056,-0.73343 1.55812,-1.0813 2.84688,-1.83292 1.15181,-0.67174 1.65151,-1.43668 1.90933,-2.37129 0.1913,-0.69349 0.29082,-0.82924 0.0516,-1.70978 -0.24239,-0.89202 -1.24394,-2.06686 -2.36103,-2.60499 z"
         sodipodi:nodetypes="sssssssssssss" />
      <path
         style="fill:#b50000;stroke:#b50000;stroke-width:0.5;stroke-linecap:butt;stroke-linejoin:miter;stroke-dasharray:none;stroke-opacity:1"
         d="m 143.76943,154.83638 c -0.59304,0.1345 -1.15454,0.40614 -1.6281,0.78762 -0.61371,0.49438 -1.06741,1.15728 -1.47555,1.83143 -0.38253,0.63185 -0.73359,1.28321 -1.03867,1.95589 -0.23479,0.51769 -0.44304,1.05038 -0.5659,1.60538 -0.12287,0.55501 -0.15851,1.13483 -0.0484,1.69251 0.14735,0.74647 0.55935,1.43538 1.13709,1.9305 0.46786,0.40095 1.03656,0.67462 1.63021,0.83964 0.42928,0.11933 0.87639,0.18377 1.32122,0.15823 0.44483,-0.0255 0.88773,-0.14319 1.27145,-0.36965 0.69594,-0.41073 1.13924,-1.13307 1.54437,-1.83229 0.56625,-0.97729 1.11444,-1.96849 1.5465,-3.01207 0.19729,-0.47652 0.37066,-0.96556 0.46662,-1.47229 0.096,-0.50674 0.11283,-1.03339 -0.001,-1.53637 -0.12756,-0.56257 -0.41821,-1.08381 -0.81147,-1.50583 -0.41737,-0.44789 -0.95105,-0.78647 -1.53407,-0.97326 -0.58303,-0.1868 -1.2141,-0.22138 -1.81404,-0.0994 z"
         id="path5647"
         inkscape:path-effect="#path-effect5651"
         inkscape:original-d="m 143.76943,154.83638 c -0.73886,0.0559 -2.14025,1.3428 -1.6281,0.78762 0.34873,-0.37821 -0.94966,1.18407 -1.47555,1.83143 -0.52584,0.64739 -0.73585,1.29484 -1.03867,1.95589 -0.30283,0.66105 -0.77186,2.41085 -0.61432,3.29789 0.17954,1.01096 0.58567,1.40118 1.13709,1.9305 0.65276,0.62666 1.08093,0.77473 1.63021,0.83964 0.89733,0.10604 1.91994,-0.0942 2.59267,-0.21142 0.6727,-0.11721 1.11542,-1.126 1.54437,-1.83229 0.79317,-1.30611 0.80729,-1.71616 1.5465,-3.01207 0.66067,-1.1582 0.71021,-2.07056 0.4654,-3.00866 -0.18165,-0.69608 -0.16348,-0.86342 -0.81147,-1.50583 -0.65647,-0.65077 -2.1117,-1.16622 -3.34811,-1.07268 z"
         sodipodi:nodetypes="sssssssssssss" />
      <path
         style="fill:#b50000;stroke:#b50000;stroke-width:0.5;stroke-linecap:butt;stroke-linejoin:miter;stroke-dasharray:none;stroke-opacity:1"
         d="m 140.57991,102.19954 c -0.13874,0.59206 -0.14047,1.21578 -0.005,1.8086 0.17556,0.76826 0.57257,1.46657 0.9997,2.12884 0.40033,0.62073 0.83202,1.2217 1.303,1.79069 0.36246,0.43789 0.75004,0.8585 1.19509,1.21213 0.44505,0.35363 0.95063,0.63973 1.50016,0.78514 0.73556,0.19463 1.53534,0.12615 2.23355,-0.17622 0.56541,-0.24486 1.06061,-0.63614 1.46907,-1.09746 0.29537,-0.33359 0.5492,-0.70726 0.72116,-1.1183 0.17196,-0.41104 0.26027,-0.86071 0.22484,-1.30486 -0.0643,-0.80555 -0.51932,-1.52054 -0.97031,-2.19109 -0.63035,-0.93722 -1.28112,-1.86431 -2.02986,-2.70996 -0.34189,-0.38614 -0.70551,-0.75627 -1.11896,-1.06457 -0.41345,-0.308295 -0.87947,-0.554215 -1.38156,-0.672092 -0.56158,-0.131843 -1.15748,-0.09898 -1.70915,0.0696 -0.58549,0.178915 -1.12368,0.510272 -1.54705,0.952492 -0.42337,0.44222 -0.73098,0.99433 -0.88424,1.58705 z"
         id="path5653"
         inkscape:path-effect="#path-effect5657"
         inkscape:original-d="m 140.57991,102.19954 c -0.27352,0.68864 0.26921,2.51224 -0.005,1.8086 -0.18717,-0.47919 0.64823,1.37247 0.9997,2.12884 0.35152,0.75635 0.84148,1.22882 1.303,1.79069 0.46152,0.56187 1.82887,1.75019 2.69525,1.99727 0.98742,0.28159 1.51613,0.0875 2.23355,-0.17622 0.84929,-0.31226 1.17004,-0.63216 1.46907,-1.09746 0.48851,-0.76014 0.75658,-1.7671 0.946,-2.42316 0.18942,-0.65604 -0.52338,-1.49603 -0.97031,-2.19109 -0.82649,-1.28527 -1.18889,-1.47765 -2.02986,-2.70996 -0.75161,-1.10136 -1.55,-1.545662 -2.50052,-1.736662 -0.70529,-0.141722 -0.84775,-0.231377 -1.70915,0.0696 -0.87262,0.30494 -1.97359,1.387162 -2.43129,2.539542 z"
         sodipodi:nodetypes="sssssssssssss" />
      <path
         style="fill:#b50000;stroke:#b50000;stroke-width:0.5;stroke-linecap:butt;stroke-linejoin:miter;stroke-dasharray:none;stroke-opacity:1"
         d="m 149.92184,117.01894 c -0.46057,0.39708 -0.82893,0.90044 -1.06808,1.45955 -0.30992,0.72456 -0.39948,1.52285 -0.44352,2.30968 -0.0413,0.73747 -0.0456,1.4774 6.6e-4,2.21458 0.0356,0.56732 0.10169,1.13544 0.25365,1.6832 0.15196,0.54775 0.39259,1.07648 0.75151,1.51728 0.48042,0.59002 1.16753,1.00502 1.91006,1.17111 0.6013,0.1345 1.23192,0.10927 1.83358,-0.0236 0.43508,-0.0961 0.86013,-0.249 1.24095,-0.48031 0.38082,-0.2313 0.71671,-0.54303 0.94928,-0.92308 0.4218,-0.68929 0.47428,-1.53519 0.5039,-2.34275 0.0414,-1.12873 0.0603,-2.26126 -0.0479,-3.38555 -0.0494,-0.51337 -0.12581,-1.02657 -0.27887,-1.51908 -0.15306,-0.49251 -0.38531,-0.96548 -0.72206,-1.35611 -0.37664,-0.43691 -0.87792,-0.7608 -1.42324,-0.94891 -0.57875,-0.19964 -1.2089,-0.24818 -1.81139,-0.13952 -0.6025,0.10865 -1.17599,0.37426 -1.64854,0.76349 z"
         id="path5659"
         inkscape:path-effect="#path-effect5663"
         inkscape:original-d="m 149.92184,117.01894 c -0.62623,0.39609 -1.2598,2.19013 -1.06808,1.45955 0.13045,-0.49764 -0.28294,1.49124 -0.44352,2.30968 -0.16054,0.81845 -0.0422,1.48873 6.6e-4,2.21458 0.0428,0.72585 0.44977,2.49111 1.00516,3.20048 0.63297,0.80847 1.17472,0.96247 1.91006,1.17111 0.87052,0.24695 1.31807,0.17686 1.83358,-0.0236 0.84215,-0.32745 1.65119,-0.9842 2.19023,-1.40339 0.53904,-0.41918 0.45657,-1.51776 0.5039,-2.34275 0.0875,-1.52556 -0.0925,-1.89429 -0.0479,-3.38555 0.0399,-1.33278 -0.34453,-2.16167 -1.00093,-2.87519 -0.48707,-0.52943 -0.54956,-0.68572 -1.42324,-0.94891 -0.88509,-0.26659 -2.41201,-0.0388 -3.45993,0.62397 z"
         sodipodi:nodetypes="sssssssssssss" />
      <path
         style="fill:#b50000;stroke:#b50000;stroke-width:0.5;stroke-linecap:butt;stroke-linejoin:miter;stroke-dasharray:none;stroke-opacity:1"
         d="m 148.54891,136.63415 c -0.49571,0.35223 -0.90956,0.81893 -1.19998,1.3532 -0.37637,0.69238 -0.54023,1.47878 -0.65771,2.25804 -0.11011,0.73037 -0.18366,1.46665 -0.20658,2.20492 -0.0176,0.56817 -0.005,1.13998 0.095,1.69955 0.10003,0.55958 0.29012,1.10851 0.60622,1.58096 0.4231,0.63239 1.06836,1.10986 1.79209,1.34471 0.58607,0.19018 1.21629,0.22408 1.82774,0.1481 0.44216,-0.055 0.87966,-0.16742 1.28046,-0.36207 0.40079,-0.19465 0.76438,-0.47358 1.03149,-0.8302 0.48445,-0.64679 0.61586,-1.48406 0.72092,-2.28531 0.14685,-1.1199 0.27166,-2.24569 0.26915,-3.37517 -0.001,-0.51574 -0.0292,-1.03385 -0.13548,-1.53852 -0.10631,-0.50467 -0.29329,-0.9973 -0.592,-1.41773 -0.3341,-0.47024 -0.80287,-0.83962 -1.32819,-1.07793 -0.55753,-0.25293 -1.18037,-0.36022 -1.79039,-0.30842 -0.61002,0.0518 -1.20585,0.26257 -1.71275,0.60588 z"
         id="path5665"
         inkscape:path-effect="#path-effect5669"
         inkscape:original-d="m 148.54891,136.63415 c -0.66055,0.33575 -1.45923,2.06264 -1.19998,1.3532 0.17645,-0.48325 -0.42124,1.45822 -0.65771,2.25804 -0.23642,0.79984 -0.18128,1.47825 -0.20658,2.20492 -0.0253,0.72668 0.21468,2.52227 0.70125,3.28051 0.55454,0.86415 1.0795,1.06817 1.79209,1.34471 0.84356,0.32742 1.29574,0.29943 1.82774,0.1481 0.8691,-0.24721 1.73604,-0.82536 2.31195,-1.19227 0.57589,-0.3669 0.59659,-1.46837 0.72092,-2.28531 0.22984,-1.51068 0.0852,-1.89464 0.26915,-3.37517 0.16442,-1.32321 -0.14073,-2.18444 -0.72748,-2.95625 -0.43539,-0.57268 -0.48298,-0.73413 -1.32819,-1.07793 -0.85626,-0.34825 -2.3978,-0.26439 -3.50314,0.29746 z"
         sodipodi:nodetypes="sssssssssssss" />
      <path
         style="fill:#b50000;stroke:#b50000;stroke-width:0.5;stroke-linecap:butt;stroke-linejoin:miter;stroke-dasharray:none;stroke-opacity:1"
         d="m 84.739719,178.3853 c 0.29343,0.53264 0.70991,0.99699 1.207604,1.34642 0.644968,0.45283 1.407569,0.70525 2.168357,0.91078 0.713063,0.19263 1.436157,0.34963 2.167003,0.45655 0.562456,0.0823 1.131981,0.13492 1.699308,0.0993 0.567327,-0.0356 1.134349,-0.16188 1.639749,-0.42207 0.676491,-0.34827 1.224401,-0.9349 1.54021,-1.62714 0.255742,-0.56058 0.361263,-1.18282 0.355471,-1.79895 -0.0042,-0.44554 -0.06606,-0.89301 -0.21376,-1.31338 -0.147699,-0.42037 -0.383375,-0.81338 -0.707225,-1.1194 -0.587361,-0.55502 -1.404201,-0.78099 -2.188253,-0.9767 -1.09586,-0.27354 -2.200091,-0.52586 -3.322496,-0.6521 -0.512512,-0.0576 -1.030434,-0.0888 -1.543931,-0.0408 -0.513498,0.0481 -1.02423,0.17769 -1.475968,0.42654 -0.505258,0.27833 -0.925659,0.70194 -1.222296,1.19667 -0.314824,0.52506 -0.49241,1.13162 -0.510478,1.74356 -0.01807,0.61195 0.123423,1.22793 0.406721,1.77065 z"
         id="path5671"
         inkscape:path-effect="#path-effect5675"
         inkscape:original-d="m 84.739719,178.3853 c 0.258272,0.69452 1.882868,1.68482 1.207604,1.34642 -0.459992,-0.23035 1.4007,0.58468 2.168357,0.91078 0.767665,0.32608 1.447945,0.34864 2.167003,0.45655 0.71907,0.10793 2.530308,0.0742 3.339057,-0.32276 0.921737,-0.45243 1.184248,-0.95071 1.54021,-1.62714 0.421346,-0.80078 0.44513,-1.25318 0.355471,-1.79895 -0.146543,-0.8916 -0.622113,-1.8188 -0.920985,-2.43278 -0.298872,-0.61396 -1.390807,-0.76007 -2.188253,-0.9767 -1.474636,-0.40052 -1.872579,-0.30058 -3.322496,-0.6521 -1.295851,-0.31414 -2.186235,-0.10917 -3.019899,0.38579 -0.61857,0.36727 -0.784398,0.39616 -1.222296,1.19667 -0.443575,0.81098 -0.535963,2.35203 -0.103757,3.51421 z"
         sodipodi:nodetypes="sssssssssssss" />
      <path
         style="fill:#b50000;stroke:#b50000;stroke-width:0.5;stroke-linecap:butt;stroke-linejoin:miter;stroke-dasharray:none;stroke-opacity:1"
         d="m 66.663687,167.40677 c 0.02971,0.60738 0.199947,1.20745 0.493608,1.73995 0.380567,0.69008 0.954824,1.25179 1.548056,1.77056 0.556014,0.48622 1.136697,0.94483 1.746335,1.36185 0.469176,0.32094 0.957725,0.61834 1.483048,0.83551 0.525322,0.21717 1.090197,0.35274 1.658517,0.34095 0.76071,-0.0158 1.510588,-0.30219 2.098324,-0.7854 0.475951,-0.39131 0.844024,-0.90399 1.109408,-1.46007 0.191906,-0.40211 0.332837,-0.83129 0.384759,-1.27382 0.05192,-0.44252 0.01279,-0.89911 -0.143759,-1.31626 -0.283935,-0.75658 -0.918541,-1.31834 -1.536986,-1.8385 -0.864392,-0.72702 -1.745622,-1.43865 -2.698548,-2.045 -0.435126,-0.27687 -0.886725,-0.53236 -1.36917,-0.71468 -0.482445,-0.18231 -0.998209,-0.29017 -1.513339,-0.265 -0.57616,0.0282 -1.139887,0.2241 -1.62366,0.53829 -0.513434,0.33346 -0.93936,0.80039 -1.224345,1.34224 -0.284985,0.54184 -0.428391,1.15737 -0.412227,1.76937 z"
         id="path5677"
         inkscape:path-effect="#path-effect5681"
         inkscape:original-d="m 66.663687,167.40677 c -0.07299,0.73738 0.95164,2.34055 0.493608,1.73995 -0.312093,-0.40896 1.001605,1.14045 1.548056,1.77056 0.546466,0.63008 1.147727,0.9491 1.746335,1.36185 0.598594,0.41279 2.24064,1.17791 3.141565,1.17646 1.026783,-0.002 1.481459,-0.33403 2.098324,-0.7854 0.730223,-0.53439 0.95027,-0.93037 1.109408,-1.46007 0.25992,-0.86538 0.23987,-1.90723 0.241,-2.59008 0.0011,-0.68284 -0.9157,-1.29365 -1.536986,-1.8385 -1.14891,-1.00746 -1.550317,-1.09243 -2.698548,-2.045 -1.026234,-0.85133 -1.916168,-1.05822 -2.882509,-0.97968 -0.717021,0.0583 -0.878684,0.0114 -1.62366,0.53829 -0.754674,0.53378 -1.514466,1.87769 -1.636572,3.11161 z"
         sodipodi:nodetypes="sssssssssssss"
         inkscape:transform-center-x="1.210838"
         inkscape:transform-center-y="0.67513075" />
      <path
         style="fill:#b50000;stroke:#b50000;stroke-width:0.5;stroke-linecap:butt;stroke-linejoin:miter;stroke-dasharray:none;stroke-opacity:1"
         d="m 65.178099,158.06361 c 0.365757,-0.48581 0.618837,-1.05592 0.733823,-1.65305 0.149014,-0.77385 0.06703,-1.57296 -0.05701,-2.3512 -0.116256,-0.72941 -0.269138,-1.45338 -0.470878,-2.16392 -0.15526,-0.54683 -0.340465,-1.08797 -0.605266,-1.59097 -0.264801,-0.503 -0.612208,-0.96859 -1.056543,-1.32312 -0.594751,-0.47455 -1.354309,-0.73418 -2.115168,-0.73884 -0.616145,-0.004 -1.227044,0.15475 -1.78676,0.41237 -0.404748,0.18629 -0.787618,0.42602 -1.110609,0.73294 -0.322991,0.30693 -0.584988,0.6829 -0.731534,1.10367 -0.265789,0.76315 -0.137504,1.60089 0.005,2.39634 0.199174,1.11178 0.421183,2.2225 0.765638,3.29817 0.157286,0.49118 0.340911,0.97646 0.595056,1.42524 0.254144,0.44877 0.581533,0.86165 0.993545,1.17187 0.460825,0.34698 1.019443,0.55704 1.592264,0.62507 0.607943,0.0722 1.234028,-0.0142 1.799714,-0.24828 0.565685,-0.23411 1.069705,-0.61543 1.44883,-1.09613 z"
         id="path5683"
         inkscape:path-effect="#path-effect5687"
         inkscape:original-d="m 65.178099,158.06361 c 0.527969,-0.51991 0.766047,-2.40768 0.733823,-1.65305 -0.02178,0.51399 -0.04016,-1.51731 -0.05701,-2.3512 -0.01688,-0.83386 -0.274886,-1.46373 -0.470878,-2.16392 -0.195955,-0.70023 -0.968459,-2.33881 -1.661809,-2.91409 -0.790196,-0.65564 -1.352294,-0.69108 -2.115168,-0.73884 -0.903102,-0.0565 -1.325566,0.10709 -1.78676,0.41237 -0.753419,0.49881 -1.404566,1.31236 -1.842143,1.83661 -0.437718,0.5241 -0.123882,1.5801 0.005,2.39634 0.238446,1.50934 0.492586,1.83145 0.765638,3.29817 0.24406,1.31085 0.795661,2.03922 1.588601,2.59711 0.588376,0.41393 0.682624,0.55338 1.592264,0.62507 0.921514,0.0726 2.365265,-0.47419 3.248544,-1.34441 z"
         sodipodi:nodetypes="sssssssssssss" />
      <path
         style="fill:#b50000;stroke:#b50000;stroke-width:0.5;stroke-linecap:butt;stroke-linejoin:miter;stroke-dasharray:none;stroke-opacity:1"
         d="m 69.999055,106.31561 c -0.598966,0.10504 -1.173201,0.34861 -1.665033,0.70623 -0.637378,0.46345 -1.123284,1.10312 -1.564222,1.75628 -0.413278,0.61219 -0.79608,1.24542 -1.13402,1.9022 -0.260076,0.50546 -0.494393,1.02721 -0.644525,1.57546 -0.150133,0.54826 -0.214377,1.12561 -0.131977,1.68805 0.110295,0.75284 0.487759,1.46126 1.040332,1.98432 0.447476,0.42358 1.001965,0.72502 1.586738,0.91916 0.422865,0.14039 0.866244,0.22683 1.31179,0.2233 0.445547,-0.004 0.893715,-0.0992 1.28815,-0.3064 0.715383,-0.37585 1.193829,-1.07541 1.633012,-1.75376 0.613841,-0.94812 1.210322,-1.91103 1.693416,-2.93199 0.220591,-0.46619 0.417913,-0.94607 0.538795,-1.44745 0.120882,-0.50137 0.16374,-1.02655 0.07468,-1.53455 -0.09961,-0.56818 -0.364161,-1.10314 -0.736093,-1.54407 -0.394739,-0.46796 -0.911035,-0.83249 -1.48412,-1.04786 -0.573084,-0.21536 -1.201674,-0.28108 -1.806911,-0.18891 z"
         id="path5689"
         inkscape:path-effect="#path-effect5693"
         inkscape:original-d="m 69.999055,106.31561 c -0.740745,0.0194 -2.203983,1.23541 -1.665033,0.70623 0.366958,-0.36055 -1.006989,1.13569 -1.564222,1.75628 -0.557202,0.62061 -0.798946,1.25689 -1.13402,1.9022 -0.335124,0.64529 -0.890024,2.36977 -0.776502,3.26351 0.129379,1.01861 0.515732,1.4284 1.040332,1.98432 0.621074,0.65807 1.041361,0.82715 1.586738,0.91916 0.89099,0.15025 1.922259,7.3e-4 2.59994,-0.0831 0.677679,-0.0838 1.169692,-1.06951 1.633012,-1.75376 0.856715,-1.26531 0.891086,-1.67418 1.693416,-2.93199 0.717043,-1.12416 0.811623,-2.03293 0.613473,-2.982 -0.147044,-0.70419 -0.120629,-0.87042 -0.736093,-1.54407 -0.62352,-0.68241 -2.051508,-1.26911 -3.291031,-1.23677 z"
         sodipodi:nodetypes="sssssssssssss"
         inkscape:transform-center-x="-0.33450858"
         inkscape:transform-center-y="-0.002806715" />
      <path
         style="fill:#b50000;stroke:#b50000;stroke-width:0.5;stroke-linecap:butt;stroke-linejoin:miter;stroke-dasharray:none;stroke-opacity:1"
         d="m 82.656272,92.277962 c -0.607885,0.01647 -1.211528,0.173595 -1.750301,0.455586 -0.698212,0.365441 -1.272298,0.927321 -1.803871,1.509108 -0.498221,0.545285 -0.96937,1.115834 -1.399574,1.716237 -0.331086,0.462072 -0.639067,0.944025 -0.867634,1.464492 -0.228567,0.520466 -0.376412,1.082253 -0.377005,1.650697 -7.94e-4,0.760872 0.269201,1.516808 0.739489,2.114938 0.380842,0.48437 0.885381,0.86353 1.435543,1.14097 0.397837,0.20063 0.823845,0.35088 1.265135,0.41243 0.441289,0.0616 0.898618,0.0324 1.319082,-0.11505 0.762594,-0.26739 1.33804,-0.88961 1.871553,-1.49658 0.745678,-0.84835 1.476355,-1.71385 2.103326,-2.653335 0.286289,-0.42899 0.551555,-0.874917 0.744339,-1.353276 0.192785,-0.47836 0.311855,-0.991653 0.297914,-1.50721 -0.01559,-0.576636 -0.199202,-1.144498 -0.502778,-1.635002 -0.322189,-0.520579 -0.779738,-0.956578 -1.315244,-1.253297 -0.535506,-0.296719 -1.14777,-0.453495 -1.75998,-0.450658 z"
         id="path5695"
         inkscape:path-effect="#path-effect5699"
         inkscape:original-d="m 82.656272,92.277962 c -0.735634,-0.08901 -2.360734,0.900421 -1.750301,0.455586 0.415666,-0.303111 -1.162004,0.976511 -1.803871,1.509108 -0.64183,0.532599 -0.973882,1.126766 -1.399574,1.716237 -0.425746,0.589458 -1.226461,2.214444 -1.244639,3.115189 -0.02072,1.026578 0.301671,1.488398 0.739489,2.114938 0.518342,0.7417 0.909444,0.97032 1.435543,1.14097 0.859511,0.27871 1.90155,0.2814 2.584217,0.29738 0.682657,0.016 1.313297,-0.88729 1.871553,-1.49658 1.032263,-1.12667 1.125956,-1.526123 2.103326,-2.653335 0.87348,-1.007432 1.099716,-1.892644 1.042253,-2.860486 -0.04266,-0.718118 0.0078,-0.878713 -0.502778,-1.635002 -0.517218,-0.766108 -1.84425,-1.555008 -3.075224,-1.703955 z"
         sodipodi:nodetypes="sssssssssssss" />
      <path
         style="fill:#b50000;stroke:#b50000;stroke-width:0.5;stroke-linecap:butt;stroke-linejoin:miter;stroke-dasharray:none;stroke-opacity:1"
         d="m 87.397679,76.358781 c -0.49327,0.355638 -0.903896,0.825166 -1.190636,1.361425 -0.371595,0.694954 -0.530048,1.482467 -0.642156,2.262516 -0.105075,0.731111 -0.173554,1.467876 -0.191386,2.206284 -0.01372,0.568278 0.0028,1.139991 0.106727,1.698861 0.103885,0.55887 0.297751,1.106481 0.617092,1.576746 0.427445,0.629459 1.075975,1.102485 1.801299,1.332338 0.587369,0.186136 1.217804,0.215691 1.82872,0.135496 0.44177,-0.05799 0.878486,-0.173473 1.277931,-0.370877 0.399444,-0.197404 0.761103,-0.478833 1.025752,-0.837281 0.479991,-0.650114 0.605621,-1.488274 0.705167,-2.290227 0.139135,-1.120881 0.256212,-2.247507 0.245928,-3.376943 -0.0047,-0.515722 -0.0363,-1.033619 -0.146074,-1.537545 C 92.726269,78.015648 92.535901,77.524317 92.2343,77.105953 91.896966,76.638022 91.425668,76.271881 90.898721,76.037188 90.339466,75.788106 89.7159,75.685103 89.10625,75.741102 c -0.609649,0.056 -1.204017,0.270874 -1.708538,0.617669 z"
         id="path5701"
         inkscape:path-effect="#path-effect5705"
         inkscape:original-d="m 87.397679,76.358781 c -0.658231,0.340288 -1.444992,2.072628 -1.190636,1.361425 0.173088,-0.48445 -0.411187,1.461081 -0.642156,2.262516 -0.230938,0.801432 -0.171129,1.479455 -0.191386,2.206284 -0.02031,0.726844 0.232044,2.520736 0.723819,3.275607 0.560473,0.860322 1.086826,1.060706 1.801299,1.332338 0.845827,0.321505 1.297781,0.290457 1.82872,0.135496 0.867373,-0.253188 1.730323,-0.837296 2.303683,-1.208158 0.573359,-0.370863 0.586466,-1.47245 0.705167,-2.290227 0.219447,-1.512227 0.07214,-1.895177 0.245928,-3.376943 0.155268,-1.324308 -0.155763,-2.183406 -0.747817,-2.951166 -0.439315,-0.569668 -0.488018,-0.73079 -1.335579,-1.068765 -0.858636,-0.342344 -2.399563,-0.247849 -3.501009,0.321583 z"
         sodipodi:nodetypes="sssssssssssss" />
      <path
         style="fill:#b50000;stroke:#b50000;stroke-width:0.5;stroke-linecap:butt;stroke-linejoin:miter;stroke-dasharray:none;stroke-opacity:1"
         d="m 80.305713,60.667403 c -0.252337,0.553281 -0.376467,1.16456 -0.359923,1.772442 0.02144,0.787772 0.273885,1.55037 0.562893,2.283527 0.270876,0.687161 0.576344,1.361105 0.926621,2.01139 0.269573,0.500458 0.567158,0.988897 0.934236,1.422926 0.367078,0.434029 0.806746,0.813706 1.317101,1.064036 0.683121,0.335073 1.480807,0.424735 2.224751,0.265127 0.602448,-0.129251 1.16475,-0.415847 1.655729,-0.788123 0.355041,-0.269203 0.677211,-0.585848 0.926422,-0.955196 0.249212,-0.369348 0.423976,-0.792972 0.476318,-1.235448 0.09493,-0.802513 -0.211109,-1.59285 -0.521879,-2.338813 -0.43436,-1.042623 -0.890737,-2.079306 -1.459137,-3.055345 -0.259542,-0.445679 -0.543536,-0.879917 -0.888514,-1.2633 -0.344978,-0.383382 -0.753728,-0.715902 -1.222962,-0.929937 -0.524827,-0.239393 -1.115608,-0.324004 -1.689618,-0.266861 -0.609205,0.06065 -1.201917,0.28005 -1.703778,0.630684 -0.501861,0.350634 -0.911748,0.831714 -1.178239,1.382887 z"
         id="path5707"
         inkscape:path-effect="#path-effect5711"
         inkscape:original-d="m 80.305713,60.667403 c -0.403241,0.621661 -0.228586,2.516256 -0.359923,1.772442 -0.08961,-0.506577 0.366544,1.472916 0.562893,2.283527 0.196377,0.810593 0.584183,1.369965 0.926621,2.01139 0.342404,0.641464 1.450212,2.074811 2.251337,2.486962 0.913038,0.469731 1.46954,0.383077 2.224751,0.265127 0.894025,-0.139683 1.271257,-0.390529 1.655729,-0.788123 0.628067,-0.649594 1.088371,-1.584466 1.40274,-2.190644 0.314369,-0.606178 -0.219911,-1.569614 -0.521879,-2.338813 -0.558449,-1.422364 -0.876099,-1.682066 -1.459137,-3.055345 -0.52111,-1.227334 -1.216854,-1.81956 -2.111476,-2.193237 -0.663813,-0.277255 -0.785933,-0.393097 -1.689618,-0.266861 -0.915474,0.12793 -2.207269,0.973292 -2.882017,2.013571 z"
         sodipodi:nodetypes="sssssssssssss"
         inkscape:transform-center-x="1.2637478"
         inkscape:transform-center-y="1.4056107" />
      <path
         style="fill:#b50000;stroke:#b50000;stroke-width:0.5;stroke-linecap:butt;stroke-linejoin:miter;stroke-dasharray:none;stroke-opacity:1"
         d="m 68.789459,46.449166 c -0.131849,0.593641 -0.126238,1.217371 0.01627,1.808544 0.184681,0.766118 0.590091,1.459607 1.025147,2.116699 0.407763,0.615869 0.846614,1.211622 1.324381,1.774919 0.367688,0.433512 0.76028,0.849446 1.20954,1.197717 0.44926,0.34827 0.95823,0.62829 1.509465,0.767098 0.73784,0.185797 1.536744,0.107734 2.231279,-0.202989 0.562436,-0.251624 1.052905,-0.648817 1.455802,-1.114996 0.291346,-0.337108 0.540681,-0.71379 0.707697,-1.126864 0.167016,-0.413074 0.249931,-0.863768 0.209179,-1.307461 -0.07391,-0.804721 -0.537512,-1.514206 -0.996517,-2.179302 -0.641546,-0.929597 -1.303395,-1.848808 -2.062217,-2.68542 -0.346493,-0.382013 -0.714526,-0.747755 -1.131643,-1.051078 -0.417118,-0.303323 -0.886046,-0.543641 -1.389515,-0.65549 -0.563118,-0.125101 -1.158585,-0.08509 -1.708188,0.09009 -0.583302,0.185924 -1.117479,0.523709 -1.535519,0.970981 -0.418039,0.447271 -0.719004,1.003027 -0.865139,1.597546 z"
         id="path5713"
         inkscape:path-effect="#path-effect5717"
         inkscape:original-d="m 68.789459,46.449166 c -0.26525,0.691887 0.299309,2.508826 0.01627,1.808544 -0.192929,-0.476896 0.664629,1.364588 1.025147,2.116699 0.360539,0.752088 0.856122,1.218658 1.324381,1.774919 0.468231,0.556302 1.849721,1.728144 2.719005,1.964815 0.990721,0.269737 1.517066,0.06933 2.231279,-0.202989 0.845479,-0.322421 1.162348,-0.646185 1.455802,-1.114996 0.479362,-0.765931 0.735341,-1.776052 0.916876,-2.434325 0.181536,-0.658274 -0.541293,-1.489648 -0.996517,-2.179302 -0.84184,-1.275261 -1.206524,-1.463283 -2.062217,-2.68542 -0.764787,-1.092247 -1.568414,-1.52696 -2.521158,-1.706568 -0.706938,-0.133255 -0.850466,-0.22119 -1.708188,0.09009 -0.868904,0.315382 -1.956822,1.410738 -2.400658,2.568527 z"
         sodipodi:nodetypes="sssssssssssss"
         inkscape:transform-center-x="-0.116453"
         inkscape:transform-center-y="0.19855065" />
    </g>
    <text
       xml:space="preserve"
       style="font-style:normal;font-variant:normal;font-weight:bold;font-stretch:normal;font-size:7.15215px;font-family:sans-serif;-inkscape-font-specification:'sans-serif Bold';fill:#060605;fill-opacity:1;fill-rule:evenodd;stroke:#090000;stroke-width:0.134104;stroke-linecap:round;stroke-linejoin:round;stroke-opacity:1"
       x="10.412331"
       y="20.483345"
       id="text480"
       transform="matrix(0.81440279,-0.61376723,0.8343437,0.59909812,0,0)"><tspan
         sodipodi:role="line"
         id="tspan478"
         x="10.412331"
         y="20.483345"
         style="stroke-width:0.134104">+</tspan></text>
  </g>
</svg>
