<?xml version="1.0" encoding="UTF-8" standalone="no"?>
<svg
   height="32"
   viewBox="0 0 32 32"
   width="32"
   version="1.1"
   id="svg10"
   sodipodi:docname="inode-symlink.svg"
   inkscape:version="1.2.2 (b0a8486541, 2022-12-01)"
   xmlns:inkscape="http://www.inkscape.org/namespaces/inkscape"
   xmlns:sodipodi="http://sodipodi.sourceforge.net/DTD/sodipodi-0.dtd"
   xmlns="http://www.w3.org/2000/svg"
   xmlns:svg="http://www.w3.org/2000/svg">
  <defs
     id="defs14" />
  <sodipodi:namedview
     id="namedview12"
     pagecolor="#ffffff"
     bordercolor="#999999"
     borderopacity="1"
     inkscape:showpageshadow="0"
     inkscape:pageopacity="0"
     inkscape:pagecheckerboard="0"
     inkscape:deskcolor="#d1d1d1"
     showgrid="false"
     inkscape:zoom="16"
     inkscape:cx="10.71875"
     inkscape:cy="25.25"
     inkscape:window-width="1714"
     inkscape:window-height="1355"
     inkscape:window-x="666"
     inkscape:window-y="139"
     inkscape:window-maximized="0"
     inkscape:current-layer="svg10" />
  <path
     d="M 2.4973573,3.7499495 H 23.288722 c 8.517714,8.3603905 0.110491,0.149374 8.466762,8.3453865 v 7.814778 l -8.439846,8.348585 H 2.4973573 c -1.247295,0 -2.25062604,-0.99248 -2.25062604,-2.226288 V 5.9762385 c 0,-1.232721 1.00333104,-2.226289 2.25062604,-2.226289 z"
     fill="#f6f5f4"
     id="path2"
     style="display:inline;stroke:#000000;stroke-width:0.49125;stroke-dasharray:none;stroke-opacity:1"
     sodipodi:nodetypes="sccccssss" />
  <g
     fill="#deddda"
     id="g8"
     transform="matrix(0.2857149,0,0,0.2838641,-2.0346117,-4.4043345)">
    <path
       d="m 119.29433,85.11033 h -22 c -4.433594,0 -8,3.570312 -8,8 v 21.87497 z m 0,0"
       id="path4"
       style="display:inline;stroke:#000000;stroke-width:0.999867;stroke-dasharray:none;stroke-opacity:1" />
    <path
       d="M 119.37649,58.650989 H 97.376446 c -4.433594,0 -8,-3.570312 -8,-8 v -21.875 z m 0,0"
       id="path852"
       style="display:inline;stroke:#000000;stroke-width:0.999867;stroke-dasharray:none;stroke-opacity:1" />
  </g>
  <path
     d="m 10.625825,10.522783 c -1.3546417,0 -2.4450397,1.083335 -2.4450397,2.429202 v 6.477871 c 0,1.345866 1.090398,2.429201 2.4450397,2.429201 h 6.520107 c 1.354641,0 2.44504,-1.083335 2.44504,-2.429201 V 16.19092 c 0,-0.447568 -0.364528,-0.809734 -0.815014,-0.809734 -0.450486,0 -0.815013,0.362166 -0.815013,0.809734 v 3.238936 c 0,0.449149 -0.362936,0.809733 -0.815013,0.809733 h -6.520107 c -0.452078,0 -0.8150137,-0.360584 -0.8150137,-0.809733 v -6.477871 c 0,-0.44915 0.3629357,-0.809734 0.8150137,-0.809734 h 3.260053 c 0.450486,0 0.815014,-0.362166 0.815014,-0.809734 0,-0.447568 -0.364528,-0.809734 -0.815014,-0.809734 z m 5.705093,-1.6194675 c -0.450486,0 -0.815013,0.362166 -0.815013,0.809734 0,0.4475675 0.364527,0.8097335 0.815013,0.8097335 H 18.4369 l -4.312248,4.284314 c -0.319957,0.316303 -0.319957,0.830294 0,1.146596 0.318365,0.316302 0.834115,0.316302 1.152479,0 l 4.313841,-4.285896 v 2.093921 c 0,0.447568 0.364527,0.809734 0.815013,0.809734 0.450486,0 0.815014,-0.362166 0.815014,-0.809734 V 9.7130495 c 0,-0.07117 -0.0095,-0.140754 -0.02865,-0.208759 -0.0191,-0.06959 -0.04616,-0.134429 -0.08118,-0.196108 -0.03502,-0.06168 -0.07959,-0.117032 -0.128938,-0.16764 -0.01273,-0.0095 -0.02547,-0.01898 -0.0382,-0.02847 -0.04457,-0.04112 -0.09551,-0.07591 -0.14804,-0.10438 -0.03025,-0.01581 -0.06208,-0.02847 -0.09392,-0.03954 -0.04139,-0.0174 -0.08437,-0.03005 -0.127346,-0.03954 -0.03343,-0.0079 -0.06526,-0.01107 -0.09869,-0.01423 -0.02388,-0.0079 -0.04617,-0.0079 -0.07004,-0.0095 z m 0,0"
     id="path6"
     style="fill:#2d2d2d;fill-opacity:1;stroke-width:0.40625;stroke-dasharray:none" />
</svg>
