<?xml version="1.0" encoding="UTF-8" standalone="no"?>
<svg
   height="32"
   viewBox="0 0 32 32"
   width="32"
   version="1.1"
   id="svg10"
   sodipodi:docname="inode-symlink.svg"
   inkscape:version="1.2.2 (b0a8486541, 2022-12-01)"
   xmlns:inkscape="http://www.inkscape.org/namespaces/inkscape"
   xmlns:sodipodi="http://sodipodi.sourceforge.net/DTD/sodipodi-0.dtd"
   xmlns="http://www.w3.org/2000/svg"
   xmlns:svg="http://www.w3.org/2000/svg">
  <defs
     id="defs14">
    <inkscape:perspective
       sodipodi:type="inkscape:persp3d"
       inkscape:vp_x="2.145402 : -28.70781 : 1"
       inkscape:vp_y="0 : 1292.1954 : 0"
       inkscape:vp_z="148.14119 : -37.6186 : 1"
       inkscape:persp3d-origin="73.025383 : -65.185435 : 1"
       id="perspective2019" />
  </defs>
  <sodipodi:namedview
     id="namedview12"
     pagecolor="#ffffff"
     bordercolor="#999999"
     borderopacity="1"
     inkscape:showpageshadow="0"
     inkscape:pageopacity="0"
     inkscape:pagecheckerboard="0"
     inkscape:deskcolor="#d1d1d1"
     showgrid="false"
     inkscape:zoom="2.1699218"
     inkscape:cx="-113.36814"
     inkscape:cy="135.25833"
     inkscape:window-width="2560"
     inkscape:window-height="1358"
     inkscape:window-x="0"
     inkscape:window-y="28"
     inkscape:window-maximized="1"
     inkscape:current-layer="svg10" />
  <path
     d="M 2.4796301,3.7456245 H 23.270995 c 8.517714,8.3603915 0.110491,0.149375 8.466762,8.3453885 v 7.814778 l -8.439846,8.348585 H 2.4796301 c -1.247295,0 -2.25062498,-0.99248 -2.25062498,-2.226288 V 5.9719145 c 0,-1.232721 1.00332998,-2.22629 2.25062498,-2.22629 z"
     fill="#f6f5f4"
     id="path2"
     style="display:inline;stroke:#000000;stroke-width:0.49125;stroke-dasharray:none;stroke-opacity:1"
     sodipodi:nodetypes="sccccssss" />
  <g
     fill="#deddda"
     id="g8"
     transform="matrix(0.2857149,0,0,0.2838641,-2.0523379,-4.4086595)">
    <path
       d="M 118.06653,58.020744 H 96.719906 c -4.301912,0 -7.762392,-3.46427 -7.762392,-7.762392 V 29.033061 Z m 0,0"
       id="path852"
       style="display:inline;stroke:#000000;stroke-width:0.970169;stroke-dasharray:none;stroke-opacity:1" />
    <path
       d="M 118.06653,85.770599 H 96.719906 c -4.301912,0 -7.762392,3.46427 -7.762392,7.762392 v 21.225269 z m 0,0"
       id="path550"
       style="display:inline;stroke:#000000;stroke-width:0.970169;stroke-dasharray:none;stroke-opacity:1" />
  </g>
  <g
     id="g293"
     transform="matrix(0.3,0,0,0.3,-5.1470599,-2.4894805)">
    <path
       style="display:inline;fill:#f8f83b;fill-opacity:1;stroke:#f8f83b;stroke-width:1px;stroke-linecap:butt;stroke-linejoin:miter;stroke-opacity:1"
       d="M 17.418941,51.886013 51.308601,31.758397 86.389438,50.945431 86.782999,78.314359 52.551737,99.187729 17.105105,78.550014 Z"
       id="path2091"
       sodipodi:nodetypes="ccccccc"
       transform="matrix(0.83333333,0,0,0.83333333,17.182216,8.2982677)"
       inkscape:label="path2091" />
    <ellipse
       style="fill:#ffff3e;fill-rule:evenodd;stroke-width:0.807516"
       id="path2502"
       cx="45.055603"
       cy="43.952312"
       rx="6.5506396"
       ry="4.4321566" />
    <ellipse
       style="fill:#ffff3e;fill-rule:evenodd;stroke-width:0.791036"
       id="ellipse2505"
       cx="60.430981"
       cy="35.605904"
       rx="6.5506396"
       ry="4.253099" />
    <ellipse
       style="fill:#ffff3e;fill-rule:evenodd;stroke-width:0.791036"
       id="ellipse2507"
       cx="76.837509"
       cy="43.6763"
       rx="6.5506396"
       ry="4.253099" />
    <path
       d="m 66.447106,39.6925 c -0.15,-0.2 -0.225,-0.45 -0.22,-0.7 -0.17,0.135 -0.35,0.26 -0.54,0.38 -1.335,0.84 -3.16,1.365 -5.16,1.365 -2,0 -3.83,-0.52 -5.16,-1.365 -0.29,-0.18 -0.555,-0.38 -0.795,-0.59 v 1.55 c 0,1.815 1.485,2.99 3.39,3.52 0.8,0.225 1.67,0.335 2.54,0.335 0.87,0 1.74,-0.11 2.54,-0.335 1.915,-0.535 3.415,-1.71 3.415,-3.505 v -0.655 z m -5.87,6.835 c 2,0 3.83,0.52 5.16,1.365 1.44,0.91 2.33,2.195 2.33,3.645 0,0.185 -0.015,0.365 -0.04,0.54 v 4.08 c 0,2.61 -1.99,4.265 -4.53,4.97 -0.93,0.26 -1.935,0.39 -2.945,0.39 -1.005,0 -2.015,-0.13 -2.945,-0.385 -2.53,-0.705 -4.51,-2.36 -4.51,-4.985 v -4.11 c 0,-0.045 0.005,-0.085 0.01,-0.125 -0.015,-0.12 -0.02,-0.245 -0.02,-0.37 0,-1.45 0.89,-2.74 2.33,-3.645 1.335,-0.85 3.16,-1.37 5.16,-1.37 z m 5.925,8.1 c -0.23,0.2 -0.485,0.385 -0.76,0.56 -1.335,0.84 -3.16,1.365 -5.16,1.365 -2,0 -3.83,-0.52 -5.16,-1.365 -0.29,-0.18 -0.555,-0.38 -0.795,-0.59 v 1.55 c 0,1.815 1.485,2.99 3.39,3.52 0.8,0.225 1.67,0.335 2.54,0.335 0.87,0 1.74,-0.11 2.54,-0.335 1.915,-0.535 3.415,-1.71 3.415,-3.505 v -1.535 z m -1.57,-5.45 c -1.1,-0.695 -2.64,-1.125 -4.35,-1.125 -1.715,0 -3.25,0.43 -4.35,1.125 -0.995,0.63 -1.615,1.465 -1.615,2.36 0,0.895 0.615,1.73 1.615,2.36 1.1,0.695 2.64,1.125 4.35,1.125 1.715,0 3.25,-0.43 4.35,-1.125 0.845,-0.535 1.415,-1.215 1.57,-1.96 v -0.14 c 0,-0.085 0.015,-0.17 0.04,-0.25 v -0.015 c 0,-0.89 -0.615,-1.725 -1.61,-2.355 z m -19.77,-10.105 c 1.6,0 3.085,0.33 4.3,0.895 0.06,-0.06 0.13,-0.11 0.205,-0.155 l 3.14,-1.815 c 0.075,-0.045 0.155,-0.075 0.235,-0.1 v -1.675 c 0,-0.045 0.005,-0.085 0.01,-0.125 -0.015,-0.12 -0.02,-0.245 -0.02,-0.37 0,-1.45 0.89,-2.74 2.33,-3.645 1.335,-0.845 3.16,-1.365 5.16,-1.365 2,0 3.83,0.52 5.16,1.365 1.44,0.91 2.33,2.195 2.33,3.645 0,0.185 -0.015,0.365 -0.04,0.54 v 1.83 l 3.42,1.875 c 0.07,0.04 0.135,0.085 0.195,0.135 1.325,-0.815 3.12,-1.315 5.085,-1.315 2,0 3.83,0.52 5.16,1.365 1.44,0.91 2.33,2.195 2.33,3.645 0,0.185 -0.015,0.365 -0.04,0.54 v 2.63 c 0.08,0.02 0.16,0.055 0.24,0.095 l 5.445,2.985 c 0.195,0.095 0.365,0.245 0.48,0.445 0.1,0.175 0.15,0.37 0.15,0.56 h 0.005 v 22.595 c 0,0.425 -0.24,0.8 -0.59,0.99 l -28.715,17.35 c -0.17,0.105 -0.36,0.155 -0.545,0.16 h -0.06 c -0.28,0 -0.54,-0.105 -0.735,-0.275 L 31.032333,74.645255 c -0.365,-0.215 -0.575272,-0.514682 -0.560272,-0.914682 L 30.492106,51.5875 c -0.01,-0.205 0.035,-0.415 0.14,-0.61 0.115,-0.21 0.29,-0.365 0.49,-0.46 l 6.235,-3.6 c 0.1,-0.06 0.21,-0.1 0.315,-0.125 v -2.215 c 0,-0.045 0.005,-0.085 0.01,-0.125 -0.015,-0.12 -0.02,-0.245 -0.02,-0.37 0,-1.45 0.89,-2.74 2.33,-3.645 1.34,-0.845 3.17,-1.365 5.17,-1.365 z m 6.305,2.28 c 0.75,0.78 1.185,1.715 1.185,2.73 0,0.185 -0.015,0.365 -0.04,0.54 v 4.08 c 0,2.61 -1.99,4.265 -4.53,4.97 -0.93,0.26 -1.935,0.39 -2.945,0.39 -1.005,0 -2.015,-0.13 -2.945,-0.385 -2.335,-0.65 -4.28868,-1.961046 -4.505718,-4.97631 L 33.410454,51.327141 60.512106,66.4375 87.634757,50.777425 84.033114,48.865206 c -0.134139,2.133916 -2.246008,3.922294 -4.446008,4.532294 -0.93,0.26 -1.935,0.39 -2.945,0.39 -1.01,0 -2.015,-0.13 -2.945,-0.385 -2.53,-0.705 -4.51,-2.36 -4.51,-4.985 v -4.11 c 0,-0.045 0.005,-0.085 0.01,-0.125 -0.015,-0.12 -0.02,-0.245 -0.02,-0.37 0,-0.76 0.245,-1.48 0.685,-2.12 l -1.905,-1.04 c -0.145,2.44 -2.075,4 -4.525,4.68 -0.93,0.26 -1.935,0.39 -2.945,0.39 -1.01,0 -2.015,-0.13 -2.945,-0.385 -2.5,-0.695 -4.455,-2.315 -4.505,-4.88 z m -0.38,5.815 c -0.23,0.2 -0.485,0.385 -0.76,0.56 -1.335,0.84 -3.16,1.365 -5.16,1.365 -2,0 -3.83,-0.52 -5.16,-1.365 -0.29,-0.18 -0.555,-0.38 -0.795,-0.59 v 1.55 c 0,1.815 1.485,2.99 3.39,3.52 0.8,0.225 1.67,0.335 2.54,0.335 0.87,0 1.74,-0.11 2.54,-0.335 1.915,-0.535 3.415,-1.71 3.415,-3.505 v -1.535 z m -1.575,-5.445 c -1.1,-0.695 -2.64,-1.125 -4.35,-1.125 -1.715,0 -3.25,0.43 -4.35,1.125 -0.995,0.63 -1.615,1.465 -1.615,2.36 0,0.895 0.615,1.73 1.615,2.36 1.1,0.695 2.64,1.125 4.35,1.125 1.715,0 3.25,-0.43 4.35,-1.125 0.845,-0.535 1.415,-1.215 1.57,-1.96 v -0.14 c 0,-0.085 0.015,-0.17 0.04,-0.25 v -0.015 c 0.005,-0.89 -0.61,-1.725 -1.61,-2.355 z m 33.08,5.165 c -0.23,0.2 -0.485,0.385 -0.76,0.56 -1.335,0.84 -3.16,1.365 -5.16,1.365 -2,0 -3.83,-0.52 -5.16,-1.365 -0.29,-0.18 -0.555,-0.38 -0.795,-0.59 v 1.55 c 0,1.815 1.485,2.99 3.39,3.52 0.8,0.225 1.67,0.335 2.54,0.335 0.87,0 1.74,-0.11 2.54,-0.335 1.915,-0.535 3.415,-1.71 3.415,-3.505 v -1.535 z m -1.57,-5.445 c -1.1,-0.695 -2.64,-1.125 -4.35,-1.125 -1.715,0 -3.25,0.43 -4.35,1.125 -0.995,0.63 -1.615,1.465 -1.615,2.36 0,0.895 0.615,1.73 1.615,2.36 1.1,0.695 2.64,1.125 4.35,1.125 1.715,0 3.25,-0.43 4.35,-1.125 0.845,-0.535 1.415,-1.215 1.57,-1.96 v -0.135 c 0,-0.085 0.015,-0.17 0.04,-0.25 v -0.015 c 0,-0.895 -0.615,-1.735 -1.61,-2.36 z m -14.575,-5.31 v -0.14 c 0,-0.085 0.015,-0.17 0.04,-0.25 v -0.015 c 0,-0.895 -0.615,-1.73 -1.615,-2.36 -1.1,-0.695 -2.64,-1.125 -4.35,-1.125 -1.715,0 -3.25,0.43 -4.35,1.125 -0.995,0.63 -1.615,1.465 -1.615,2.36 0,0.895 0.615,1.73 1.615,2.36 1.1,0.695 2.64,1.125 4.35,1.125 1.715,0 3.25,-0.43 4.35,-1.125 0.85,-0.53 1.42,-1.215 1.575,-1.955 z M 61.41205,68.03178 61.50428,89.859638 88.619029,73.304013 88.787358,52.207006 Z m -1.75732,21.753639 -0.04459,-21.74152 -27.491708,-15.392782 0.0902,20.605766 z"
       id="path291"
       style="display:inline;stroke-width:0.5"
       sodipodi:nodetypes="cccsccscscsccscscscscsscscsccsccscscscccscscsccscscsccccscscscsccccscscccccccscccsccccccccscscscscscscccccccscsscscccscccccsccscscscccscscsccscccccsccscscscccscscsccscsccscscscscscccccccccccc" />
  </g>
</svg>
