<?xml version="1.0" encoding="UTF-8" standalone="no"?>
<svg
   viewBox="0 0 32 32"
   version="1.1"
   id="svg32"
   sodipodi:docname="libreoffice-oasis-text-template.svg"
   inkscape:version="1.2.2 (b0a8486541, 2022-12-01)"
   width="32"
   height="32"
   xmlns:inkscape="http://www.inkscape.org/namespaces/inkscape"
   xmlns:sodipodi="http://sodipodi.sourceforge.net/DTD/sodipodi-0.dtd"
   xmlns="http://www.w3.org/2000/svg"
   xmlns:svg="http://www.w3.org/2000/svg">
  <defs
     id="defs36">
    <rect
       x="9.1927605"
       y="5.2253876"
       width="24.808346"
       height="24.962543"
       id="rect1388" />
  </defs>
  <sodipodi:namedview
     id="namedview34"
     pagecolor="#ffffff"
     bordercolor="#999999"
     borderopacity="1"
     inkscape:showpageshadow="0"
     inkscape:pageopacity="0"
     inkscape:pagecheckerboard="0"
     inkscape:deskcolor="#d1d1d1"
     showgrid="false"
     inkscape:zoom="64"
     inkscape:cx="13.507813"
     inkscape:cy="30.242188"
     inkscape:window-width="2384"
     inkscape:window-height="1331"
     inkscape:window-x="60"
     inkscape:window-y="29"
     inkscape:window-maximized="0"
     inkscape:current-layer="g16" />
  <path
     d="m 5.4041871,0.2646864 c -0.681001,0 -1.323617,0.6645982 -1.323617,1.3688944 v 19.1862232 9.560561 c 0,0.664598 0.681001,1.368894 1.323617,1.368894 H 26.582055 c 0.642616,0 1.323617,-0.704296 1.323617,-1.368894 V 8.890148 L 19.302163,0.2646864 Z"
     style="display:inline;fill:#efefef;fill-opacity:1;stroke:#646464;stroke-width:0.507988;stroke-miterlimit:4;stroke-dasharray:none;stroke-opacity:1;image-rendering:auto"
     id="path2"
     sodipodi:nodetypes="sscssssccs" />
  <path
     d="m 31,13.25 11,11 v -11 z"
     style="display:none;fill-opacity:0.196"
     id="path4"
     sodipodi:nodetypes="cccc"
     sodipodi:insensitive="true" />
  <path
     d="m 4.4066511,23.462844 v 6.885455 c 0,0.521617 0.535745,1.074392 1.041292,1.074392 H 26.553937 c 0.497956,0 1.025654,-0.553225 1.025654,-1.075267 v -6.88458 z"
     style="display:inline;fill:#427fb8;fill-opacity:1;stroke:#427fb8;stroke-width:0.493194;stroke-dasharray:none;stroke-opacity:1"
     id="path8"
     sodipodi:nodetypes="csssscc" />
  <g
     transform="matrix(0.65307183,0,0,0.58641428,-4.3504502,5.029064)"
     style="display:inline;fill:#ffffff;stroke-width:1.50955"
     id="g16">
    <text
       xml:space="preserve"
       id="text1386"
       style="font-style:normal;font-variant:normal;font-weight:normal;font-stretch:normal;font-size:18.6667px;font-family:Stencil;-inkscape-font-specification:'Stencil, Normal';font-variant-ligatures:normal;font-variant-caps:normal;font-variant-numeric:normal;font-variant-east-asian:normal;white-space:pre;shape-inside:url(#rect1388);opacity:0.99;fill:#427fb8;fill-opacity:1;fill-rule:evenodd;stroke:#427fb8;stroke-width:0.863972;stroke-dasharray:none;stroke-opacity:1"
       transform="matrix(1.758609,0.01336108,0,1.9891424,4.9960983,-26.369049)"><tspan
         x="9.1933594"
         y="25.335757"
         id="tspan3500">T</tspan></text>
    <path
       d="m 22.67,38.185499 c 0,0.42 0.014,0.817 0.042,1.19 0.037,0.364 0.103,0.681 0.196,0.952 0.103,0.271 0.243,0.485 0.42,0.644 0.177,0.159 0.415,0.238 0.714,0.238 0.289,0 0.523,-0.079 0.7,-0.238 0.187,-0.159 0.327,-0.373 0.42,-0.644 0.103,-0.28 0.168,-0.602 0.196,-0.966 0.037,-0.364 0.056,-0.756 0.056,-1.176 0,-0.42 -0.019,-0.812 -0.056,-1.176 -0.028,-0.373 -0.093,-0.695 -0.196,-0.966 -0.093,-0.271 -0.229,-0.485 -0.406,-0.644 -0.177,-0.159 -0.415,-0.238 -0.714,-0.238 -0.299,0 -0.537,0.079 -0.714,0.238 -0.177,0.159 -0.317,0.378 -0.42,0.658 -0.093,0.271 -0.159,0.588 -0.196,0.952 -0.028,0.364 -0.042,0.756 -0.042,1.176 m -1.75,0 c 0,-1.493 0.275,-2.618 0.826,-3.374 0.551,-0.765 1.316,-1.148 2.296,-1.148 1.017,0 1.792,0.383 2.324,1.148 0.532,0.756 0.798,1.881 0.798,3.374 0,1.493 -0.271,2.623 -0.812,3.388 -0.541,0.756 -1.307,1.134 -2.296,1.134 -1.017,0 -1.797,-0.378 -2.338,-1.134 -0.532,-0.765 -0.798,-1.895 -0.798,-3.388"
       id="path10"
       sodipodi:nodetypes="cccsscccsccssscccccscscscc"
       style="stroke-width:1.50955" />
    <path
       d="m 41.19,33.859499 v 1.428 h -2.282 v 7.238 h -1.736 v -7.238 H 34.89 v -1.428 h 6.3"
       id="path14"
       style="display:inline;stroke-width:1.50955"
       sodipodi:nodetypes="ccccccccc" />
    <path
       d="M 36.32579,-7.7764239 49.111257,6.4836458 H 38.292785 c -0.954977,0 -1.966995,-1.1287386 -1.966995,-2.1938569 z"
       style="font-style:normal;font-variant:normal;font-weight:normal;font-stretch:normal;font-size:18.6667px;font-family:Stencil;-inkscape-font-specification:'Stencil, Normal';font-variant-ligatures:normal;font-variant-caps:normal;font-variant-numeric:normal;font-variant-east-asian:normal;white-space:pre;shape-inside:url(#rect1388);display:inline;opacity:0.99;fill:#ffffff;fill-opacity:0.392;fill-rule:evenodd;stroke:#646464;stroke-width:0.627167;stroke-dasharray:none;stroke-opacity:1"
       id="path6" />
    <path
       d="m 34.157909,33.859499 v 1.428 h -2.282 v 7.238 h -1.736 v -7.238 h -2.282 v -1.428 h 6.3"
       id="path3484"
       style="display:inline;stroke-width:1.50955"
       sodipodi:nodetypes="ccccccccc" />
  </g>
</svg>
