<?xml version="1.0" encoding="UTF-8" standalone="no"?>
<svg
   viewBox="0 0 32 32"
   version="1.1"
   id="svg3609"
   sodipodi:docname="text-x-chdr.svg"
   inkscape:version="1.2.2 (b0a8486541, 2022-12-01)"
   xmlns:inkscape="http://www.inkscape.org/namespaces/inkscape"
   xmlns:sodipodi="http://sodipodi.sourceforge.net/DTD/sodipodi-0.dtd"
   xmlns="http://www.w3.org/2000/svg"
   xmlns:svg="http://www.w3.org/2000/svg">
  <defs
     id="defs3613" />
  <sodipodi:namedview
     id="namedview3611"
     pagecolor="#ffffff"
     bordercolor="#999999"
     borderopacity="1"
     inkscape:showpageshadow="0"
     inkscape:pageopacity="0"
     inkscape:pagecheckerboard="0"
     inkscape:deskcolor="#d1d1d1"
     showgrid="false"
     inkscape:zoom="16"
     inkscape:cx="21.125"
     inkscape:cy="30.71875"
     inkscape:window-width="1517"
     inkscape:window-height="1317"
     inkscape:window-x="821"
     inkscape:window-y="123"
     inkscape:window-maximized="0"
     inkscape:current-layer="svg3609" />
  <path
     d="M 3.9936576,0.01595565 C 3.9590023,16.649869 3.9933711,16.686467 4.0027456,31.998 H 27.975955 c 0.0058,-2.863623 -8.1e-5,-0.0054 -8.1e-5,-23 l -8.990961,-9 C 4.5492786,0.02760334 18.898686,-0.0017662 3.9936576,0.01595565 Z"
     style="fill:#f2f2f2;stroke:none;stroke-width:0.3;stroke-dasharray:none;stroke-opacity:1"
     id="path3599"
     sodipodi:nodetypes="cccccc" />
  <path
     d="m 21 9 7 7 0 -7 z"
     style="fill:#000;fill-opacity:0.196"
     id="path3601" />
  <path
     d="m 19 0 8.992 9 -7.613 0 c -0.673 0 -1.378 -0.713 -1.378 -1.386 z"
     style="fill:#ffffff;fill-opacity:0.96450531"
     id="path3603" />
  <path
     d="M 3.9936728,16.234586 C 3.9589827,32.8685 3.9932955,16.538868 4.00277,31.998 H 28.000081 C 28.005887,29.134377 28,23.789711 28,16.231809 c -23.7569374,0 -0.663893,0.0028 -24.0063272,0.0028 z"
     style="fill:#ffff00"
     id="path403"
     sodipodi:nodetypes="ccccc" />
  <g
     transform="matrix(0.60358678,0,0,0.56440798,17.428954,8.1319634)"
     style="fill:#888888"
     id="g3607">
    <path
       d="M 11.819189,39.263202 H 8.3848901 v -8.331447 c 0,-1.463815 -0.2053799,-1.997609 -0.5638258,-2.563373 -0.349727,-0.57642 -1.1974033,-0.958116 -2.1099873,-0.958116 -0.6917038,0 -1.2942805,0.222818 -1.6110693,0.449511 -0.3603835,0.257693 -0.562857,0.546387 -0.7895499,0.990085 -0.2266928,0.443698 -0.3875091,0.991055 -0.4814801,1.643039 -0.093971,0.651984 -0.1685664,1.52388 -0.1685664,2.237866 v 6.532435 H -0.7748573 V 17.222651 h 3.4352686 v 9.148122 c 0.4630734,-0.82152 1.1082761,-1.411502 1.8261368,-1.770917 0.7178607,-0.368134 1.5374425,-0.5367 2.4432452,-0.5367 0.7837372,0 1.2758738,0.09785 1.9094513,0.324539 0.6422964,0.217005 1.1896524,0.561888 1.6430384,1.03368 0.453385,0.471793 0.803112,1.076307 1.048212,1.813543 0.245099,0.727549 0.289663,1.600413 0.289663,2.620531 z"
       id="path3605"
       style="stroke-width:0.999996" />
  </g>
  <path
     id="rect1032"
     style="display:inline;opacity:1;fill:none;fill-rule:evenodd;stroke:#000000;stroke-width:0.3;stop-color:#000000;stop-opacity:1"
     inkscape:label="rect1032"
     d="m 4.1407757,0.15453383 14.9251353,0.001255 8.783756,8.75688407 V 31.913615 L 4.1407757,31.845705 Z"
     sodipodi:nodetypes="cccccc" />
</svg>
