<?xml version="1.0" encoding="UTF-8" standalone="no"?>
<svg
   version="1.1"
   viewBox="0 0 32 32"
   id="svg10"
   sodipodi:docname="text-x-common-lisp (kopia2).svg"
   inkscape:version="1.2.2 (b0a8486541, 2022-12-01)"
   width="32"
   height="32"
   xmlns:inkscape="http://www.inkscape.org/namespaces/inkscape"
   xmlns:sodipodi="http://sodipodi.sourceforge.net/DTD/sodipodi-0.dtd"
   xmlns="http://www.w3.org/2000/svg"
   xmlns:svg="http://www.w3.org/2000/svg">
  <defs
     id="defs14">
    <linearGradient
       id="linearGradient12880"
       inkscape:swatch="solid">
      <stop
         style="stop-color:#000000;stop-opacity:1;"
         offset="0"
         id="stop12878" />
    </linearGradient>
    <linearGradient
       id="linearGradient3909"
       inkscape:swatch="solid">
      <stop
         style="stop-color:#274e90;stop-opacity:1;"
         offset="0"
         id="stop3907" />
    </linearGradient>
    <linearGradient
       id="linearGradient3890"
       inkscape:swatch="solid">
      <stop
         style="stop-color:#1a405c;stop-opacity:0.56862748;"
         offset="0"
         id="stop3888" />
    </linearGradient>
  </defs>
  <sodipodi:namedview
     id="namedview12"
     pagecolor="#ffffff"
     bordercolor="#999999"
     borderopacity="1"
     inkscape:showpageshadow="0"
     inkscape:pageopacity="0"
     inkscape:pagecheckerboard="0"
     inkscape:deskcolor="#d1d1d1"
     showgrid="false"
     inkscape:zoom="11.313709"
     inkscape:cx="15.865708"
     inkscape:cy="30.228815"
     inkscape:window-width="2560"
     inkscape:window-height="1358"
     inkscape:window-x="0"
     inkscape:window-y="28"
     inkscape:window-maximized="1"
     inkscape:current-layer="svg10" />
  <path
     d="m 4.1921589,0.70004455 c -0.1566961,0 -0.1587779,-0.00227 -0.1587779,0.1687166 V 31.141712 c 0,0.161872 -0.00111,0.158242 0.1748814,0.158242 H 27.801395 c 0.160614,0 0.165259,1.63e-4 0.165259,-0.165362 V 9.3478446 L 19.324083,0.70004455 Z"
     style="display:inline;fill:#d8f1fc;fill-opacity:1;stroke:#000000;stroke-width:0.2;stroke-dasharray:none;stroke-opacity:1"
     id="path2"
     sodipodi:nodetypes="ccssssccc" />
  <path
     d="m 20.653709,9.3478446 7.312945,7.3173704 V 9.3478446 Z"
     style="opacity:0.99;fill-opacity:0.196;fill-rule:evenodd;stroke-width:1"
     id="path4" />
  <path
     d="m 19.324083,0.70004455 8.642571,8.64780005 h -7.312945 c -0.645533,0 -1.329626,-0.6845063 -1.329626,-1.3304299 z"
     style="fill:#ffffff;fill-opacity:0.392;stroke-width:1"
     id="path6" />
  <path
     d="m 15.002798,8.6826296 c -1.65226,0 -2.99166,1.3402104 -2.99166,2.9934694 0,0.551072 0.44647,0.997823 0.99722,0.997823 0.550739,0 0.99722,-0.446738 0.99722,-0.997823 0,-0.551084 0.446468,-0.997823 0.99722,-0.997823 0.550751,0 0.997219,0.446739 0.997219,0.997823 v 0.997823 L 9.2142702,24.410317 c -0.1292531,0.223553 -0.1946966,0.47841 -0.1947768,0.73666 -2.434e-4,0.826597 0.6697323,1.496934 1.4958296,1.496735 0.53883,-1.48e-4 1.046815,-0.284678 1.301039,-0.760075 l 4.183668,-7.822933 v 5.58934 c 0,1.653259 1.339399,2.993469 2.99166,2.993469 1.65226,0 2.991659,-1.34021 2.991659,-2.993469 0,-0.551072 -0.446469,-0.997824 -0.99722,-0.997824 -0.550751,0 -0.99722,0.446738 -0.99722,0.997824 0,0.551083 -0.446468,0.997823 -0.997219,0.997823 -0.550738,0 -0.99722,-0.44674 -0.99722,-0.997823 V 11.676166 c 0,-1.65326 -1.339399,-2.9934696 -2.991658,-2.9934696 z"
     style="fill:#9b3131;fill-opacity:1;stroke-width:1"
     id="path8" />
</svg>
