<?xml version="1.0" encoding="UTF-8" standalone="no"?>
<svg
   version="1.1"
   viewBox="0 0 32 32"
   id="svg10"
   sodipodi:docname="text-x-arduino.svg"
   inkscape:version="1.2.2 (b0a8486541, 2022-12-01)"
   width="32"
   height="32"
   xmlns:inkscape="http://www.inkscape.org/namespaces/inkscape"
   xmlns:sodipodi="http://sodipodi.sourceforge.net/DTD/sodipodi-0.dtd"
   xmlns="http://www.w3.org/2000/svg"
   xmlns:svg="http://www.w3.org/2000/svg">
  <defs
     id="defs14">
    <linearGradient
       id="linearGradient12880"
       inkscape:swatch="solid">
      <stop
         style="stop-color:#000000;stop-opacity:1;"
         offset="0"
         id="stop12878" />
    </linearGradient>
    <linearGradient
       id="linearGradient3909"
       inkscape:swatch="solid">
      <stop
         style="stop-color:#274e90;stop-opacity:1;"
         offset="0"
         id="stop3907" />
    </linearGradient>
    <linearGradient
       id="linearGradient3890"
       inkscape:swatch="solid">
      <stop
         style="stop-color:#1a405c;stop-opacity:0.56862748;"
         offset="0"
         id="stop3888" />
    </linearGradient>
  </defs>
  <sodipodi:namedview
     id="namedview12"
     pagecolor="#ffffff"
     bordercolor="#999999"
     borderopacity="1"
     inkscape:showpageshadow="0"
     inkscape:pageopacity="0"
     inkscape:pagecheckerboard="0"
     inkscape:deskcolor="#d1d1d1"
     showgrid="false"
     inkscape:zoom="8.01"
     inkscape:cx="23.033708"
     inkscape:cy="45.380774"
     inkscape:window-width="1530"
     inkscape:window-height="1355"
     inkscape:window-x="394"
     inkscape:window-y="28"
     inkscape:window-maximized="0"
     inkscape:current-layer="svg10" />
  <path
     d="m 4.2562786,0.60003689 c -0.155845,0 -0.157916,-0.0023 -0.157916,0.16982 V 31.240686 c 0,0.16293 -0.0011,0.159276 0.173932,0.159276 H 27.737311 c 0.159741,0 0.164361,1.64e-4 0.164361,-0.166442 V 9.3043629 L 19.306033,0.60003689 Z"
     style="display:inline;fill:#e5f1f2;fill-opacity:1;stroke:#000000;stroke-width:0.2;stroke-dasharray:none;stroke-opacity:1"
     id="path2"
     sodipodi:nodetypes="ccssssccc"
     inkscape:label="path2__DOC-BLANK" />
  <path
     d="m 20.96234,9.3071209 6.942635,7.0298681 V 9.3071209 Z"
     style="display:inline;fill:#000000;fill-opacity:0.144102;fill-rule:nonzero;stroke:none;stroke-width:1"
     id="path4-6"
     inkscape:label="path4__FLIK-SKUGGA"
     sodipodi:nodetypes="cccc" />
  <path
     d="m 19.306033,0.60003689 8.595639,8.70432601 h -8.592096 l -0.0035,2.74e-4 z"
     style="fill:#ffffff;fill-opacity:0.492688;stroke-width:0.999995"
     id="path6"
     inkscape:label="path6__FLIK-VIT"
     sodipodi:nodetypes="ccccc" />
  <g
     inkscape:groupmode="layer"
     id="layer1"
     inkscape:label="LOGO">
    <path
       d="m 23.220685,16.925072 c 0,-1.78271 -1.602492,-3.239478 -3.549583,-3.239478 v 0 c -0.182758,0 -0.365018,0.01894 -0.547775,0.03837 v 0 c -1.521321,0.210815 -2.535203,1.245953 -3.123315,2.031901 v 0 c -0.567694,-0.785948 -1.602491,-1.840024 -3.123314,-2.031901 v 0 c -0.182757,-0.01894 -0.365017,-0.03837 -0.547775,-0.03837 v 0 c -1.967509,0 -3.5495834,1.456768 -3.5495834,3.239478 v 0 c 0,1.78271 1.6024924,3.239479 3.5495834,3.239479 v 0 c 0.182758,0 0.365018,-0.01894 0.547775,-0.03838 v 0 c 1.521321,-0.210816 2.535203,-1.245954 3.123314,-2.031901 v 0 c 0.567695,0.804886 1.582075,1.840024 3.123315,2.031901 v 0 c 0.182757,0.01894 0.365017,0.03838 0.547775,0.03838 v 0 c 1.947091,0 3.549583,-1.43783 3.549583,-3.239479 z m -10.507323,2.070276 c -0.121507,0.01894 -0.243511,0.01894 -0.385435,0.01894 v 0 c -1.298227,0 -2.3325264,-0.939449 -2.3325264,-2.089215 v 0 c 0,-1.150264 1.0547164,-2.089214 2.3325264,-2.089214 v 0 c 0.121507,0 0.243511,0.01894 0.385435,0.01894 v 0 c 1.44015,0.191877 2.312109,1.53352 2.616373,2.070276 v 0 c -0.304264,0.536757 -1.176223,1.8784 -2.616373,2.070276 z m 3.954936,-2.070276 c 0.304264,-0.536756 1.176223,-1.878399 2.616373,-2.070276 v 0 c 0.121507,-0.01894 0.243511,-0.01894 0.385435,-0.01894 v 0 c 1.298227,0 2.332526,0.939449 2.332526,2.089214 v 0 c 0,1.150265 -1.054716,2.089215 -2.332526,2.089215 v 0 c -0.121507,0 -0.243511,0 -0.385435,-0.01894 v 0 c -1.44015,-0.191876 -2.312109,-1.533519 -2.616373,-2.070276 z"
       style="display:inline;fill:#0099ab;fill-opacity:1;stroke-width:1"
       id="path8-6" />
    <path
       d="m 11.169632,16.576206 v 0 0.697734 h 2.689078 v 0 -0.697734 0 z"
       style="display:inline;fill:#0099ab;fill-opacity:1;stroke-width:0.374241"
       id="path10" />
    <path
       d="m 18.091518,16.576205 v 0.697734 0 h 1.045752 v 0 1.046601 0 h 0.697168 v -1.046601 h 1.045753 v -0.697734 h -1.045753 v -1.0466 H 19.13727 v 1.0466 z"
       style="display:inline;fill:#0099ab;fill-opacity:1;stroke-width:0.285714"
       id="path12" />
  </g>
</svg>
