<?xml version="1.0" encoding="UTF-8" standalone="no"?>
<!-- Generator: https://ezgif.com/png-to-svg -->

<svg
   width="25"
   height="32"
   version="1.1"
   id="svg12"
   sodipodi:docname="text-gcode (32).svg"
   inkscape:version="1.2.2 (b0a8486541, 2022-12-01)"
   inkscape:export-filename="text-gcode (32).png"
   inkscape:export-xdpi="96"
   inkscape:export-ydpi="96"
   xmlns:inkscape="http://www.inkscape.org/namespaces/inkscape"
   xmlns:sodipodi="http://sodipodi.sourceforge.net/DTD/sodipodi-0.dtd"
   xmlns="http://www.w3.org/2000/svg"
   xmlns:svg="http://www.w3.org/2000/svg">
  <defs
     id="defs16" />
  <sodipodi:namedview
     id="namedview14"
     pagecolor="#ffffff"
     bordercolor="#999999"
     borderopacity="1"
     inkscape:showpageshadow="0"
     inkscape:pageopacity="0"
     inkscape:pagecheckerboard="0"
     inkscape:deskcolor="#d1d1d1"
     showgrid="false"
     inkscape:zoom="17.359375"
     inkscape:cx="18.721872"
     inkscape:cy="32"
     inkscape:window-width="2560"
     inkscape:window-height="1357"
     inkscape:window-x="0"
     inkscape:window-y="28"
     inkscape:window-maximized="1"
     inkscape:current-layer="svg12" />
  <path
     d="M 0,0 H 19.5055 L 25,5.644 V 32 H 0 Z"
     fill="#e4f3fb"
     id="path2"
     style="stroke-width:0.499997"
     inkscape:export-filename="32.svg"
     inkscape:export-xdpi="96"
     inkscape:export-ydpi="96" />
  <path
     d="M 0,0 H 19.5055 L 25,5.644 V 32 H 22.198948 0 Z M 1,1 V 31 H 24 V 7 H 18 V 1 Z"
     id="path4"
     style="stroke-width:0.499997"
     sodipodi:nodetypes="cccccccccccccc" />
  <path
     d="M 2.5,3 H 9 V 4 H 7.5 V 5.5 H 8 v 1 H 8.5 V 8 H 9 v 1.5 h 0.5 v 1 H 10 V 10 h 0.5 V 9 H 11 V 7.5 h 0.5 V 6 H 12 V 5.5 h 0.5 V 4 H 11 V 3 h 4.5 v 1 h -1 V 4.5 H 14 v 1 h -0.5 v 1 H 13 V 8 H 12.5 V 9 H 12 v 1.5 h -0.5 v 1 H 11 V 13 h -0.5 v 1 H 10 v 1.5 H 9.5 v 1 H 9 V 18 H 8.5 v 0.5 H 8 V 19 H 7.5 v 0.5 H 7 V 20 H 4 V 19.5 H 3.5 V 19 H 3 V 17.5 H 3.5 V 17 H 4 V 16.5 H 5 V 17 h 0.5 v 1.5 H 7 v -1 h 0.5 v -1 H 8 v -1 H 8.5 V 15 h -1 V 14 H 7 V 12.5 H 6.5 V 11 H 6 V 9.5 H 5.5 V 8 H 5 V 6.5 H 4.5 V 5 H 4 V 4.5 H 3.5 V 4 h -1 z"
     fill="#e1262f"
     id="path6"
     style="stroke-width:0.499997" />
  <path
     d="M 10.5,17 H 16 v 1 h -0.5 v 1.5 H 16 V 20 h 0.5 v 0.5 h 1 V 20 H 18 v -0.5 h 0.5 V 18 H 18 v -1 h 4 v 1 h -1 v 0.5 H 20.5 V 19 H 20 v 1 h -0.5 v 0.5 H 19 V 21 h -0.5 v 0.5 H 18 V 23 h 0.5 v 0.5 H 19 v 1 h 0.5 V 25 H 20 v 1 h 0.5 v 0.5 H 21 v 1 h 0.5 V 28 h 1 v 1 h -6 v -1 h 1 V 27 H 17 v -0.5 h -0.5 v -1 H 16 V 25 h -1 v 1 h -0.5 v 0.5 H 14 V 27 h -0.5 v 1 h 1 v 1 H 10 v -1 h 1 v -0.5 h 0.5 V 27 H 12 v -0.5 h 0.5 V 26 H 13 v -1 h 0.5 V 24.5 H 14 V 24 h 0.5 V 23 H 14 V 22 H 13.5 V 21.5 H 13 v -1 H 12.5 V 20 H 12 V 19 H 11.5 V 18.5 H 11 V 18 h -0.5 z"
     fill="#088408"
     id="path8"
     style="stroke-width:0.499997" />
  <path
     d="M 19,0.990319 20,2 23,5 23.990568,6 H 19 Z"
     fill="#e5f6ff"
     id="path10"
     style="stroke-width:0.499997" />
</svg>
