<?xml version="1.0" encoding="UTF-8" standalone="no"?>
<!-- Created with Inkscape (http://www.inkscape.org/) -->

<svg
   id="svg2424"
   width="32"
   height="32"
   version="1.0"
   sodipodi:docname="32-text-x-preview.svg"
   inkscape:version="1.2.2 (b0a8486541, 2022-12-01)"
   xml:space="preserve"
   xmlns:inkscape="http://www.inkscape.org/namespaces/inkscape"
   xmlns:sodipodi="http://sodipodi.sourceforge.net/DTD/sodipodi-0.dtd"
   xmlns:xlink="http://www.w3.org/1999/xlink"
   xmlns="http://www.w3.org/2000/svg"
   xmlns:svg="http://www.w3.org/2000/svg"><sodipodi:namedview
     id="namedview44"
     pagecolor="#ffffff"
     bordercolor="#999999"
     borderopacity="1"
     inkscape:showpageshadow="0"
     inkscape:pageopacity="0"
     inkscape:pagecheckerboard="0"
     inkscape:deskcolor="#d1d1d1"
     showgrid="false"
     inkscape:zoom="24.549864"
     inkscape:cx="21.568348"
     inkscape:cy="13.177263"
     inkscape:window-width="2560"
     inkscape:window-height="1357"
     inkscape:window-x="0"
     inkscape:window-y="28"
     inkscape:window-maximized="1"
     inkscape:current-layer="layer1" /><defs
     id="defs2426"><linearGradient
       id="linearGradient5060"><stop
         id="stop5062"
         offset="0" /><stop
         id="stop5064"
         style="stop-opacity:0"
         offset="1" /></linearGradient><filter
       id="filter3212"
       x="-0.1484589"
       y="-0.1643425"
       width="1.2969178"
       height="1.328685"><feGaussianBlur
         id="feGaussianBlur3214"
         stdDeviation="0.77391625" /></filter><linearGradient
       id="linearGradient2506"
       x1="32.892"
       x2="36.358"
       y1="8.059"
       y2="5.4565"
       gradientTransform="matrix(.63713 0 0 .64456 .82968 .74452)"
       gradientUnits="userSpaceOnUse"><stop
         id="stop8591"
         style="stop-color:#fefefe"
         offset="0" /><stop
         id="stop8593"
         style="stop-color:#cbcbcb"
         offset="1" /></linearGradient><linearGradient
       id="linearGradient2510"
       x1="24"
       x2="24"
       y1="2"
       y2="46.017"
       gradientTransform="matrix(.63636 0 0 .62791 .72725 .93022)"
       gradientUnits="userSpaceOnUse"><stop
         id="stop3213"
         style="stop-color:#fff"
         offset="0" /><stop
         id="stop3215"
         style="stop-color:#fff;stop-opacity:0"
         offset="1" /></linearGradient><radialGradient
       id="radialGradient2513"
       cx="102"
       cy="112.3"
       r="139.56"
       gradientTransform="matrix(.23404 0 0 -.2543 1.0213 32.289)"
       gradientUnits="userSpaceOnUse"><stop
         id="stop41"
         style="stop-color:#b7b8b9"
         offset="0" /><stop
         id="stop47"
         style="stop-color:#ececec"
         offset=".18851" /><stop
         id="stop49"
         style="stop-color:#fafafa;stop-opacity:0"
         offset=".25718" /><stop
         id="stop51"
         style="stop-color:#fff;stop-opacity:0"
         offset=".30111" /><stop
         id="stop53"
         style="stop-color:#fafafa;stop-opacity:0"
         offset=".5313" /><stop
         id="stop55"
         style="stop-color:#ebecec;stop-opacity:0"
         offset=".8449" /><stop
         id="stop57"
         style="stop-color:#e1e2e3;stop-opacity:0"
         offset="1" /></radialGradient><linearGradient
       id="linearGradient2516"
       x1="25.132"
       x2="25.132"
       y1=".98521"
       y2="47.013"
       gradientTransform="matrix(.65714 0 0 .63012 .22855 -.089648)"
       gradientUnits="userSpaceOnUse"><stop
         id="stop3602"
         style="stop-color:#f4f4f4"
         offset="0" /><stop
         id="stop3604"
         style="stop-color:#dbdbdb"
         offset="1" /></linearGradient><linearGradient
       id="linearGradient2518"
       x1="-51.786"
       x2="-51.786"
       y1="50.786"
       y2="2.9062"
       gradientTransform="matrix(.53064 0 0 .5897 39.27 -.79191)"
       gradientUnits="userSpaceOnUse"><stop
         id="stop3106"
         style="stop-color:#aaa"
         offset="0" /><stop
         id="stop3108"
         style="stop-color:#c8c8c8"
         offset="1" /></linearGradient><radialGradient
       id="radialGradient2521"
       cx="605.71"
       cy="486.65"
       r="117.14"
       gradientTransform="matrix(.015663 0 0 .0082353 17.61 26.981)"
       gradientUnits="userSpaceOnUse"
       xlink:href="#linearGradient5060" /><radialGradient
       id="radialGradient2524"
       cx="605.71"
       cy="486.65"
       r="117.14"
       gradientTransform="matrix(-.015663 0 0 .0082353 14.39 26.981)"
       gradientUnits="userSpaceOnUse"
       xlink:href="#linearGradient5060" /><linearGradient
       id="linearGradient2527"
       x1="302.86"
       x2="302.86"
       y1="366.65"
       y2="609.51"
       gradientTransform="matrix(.045769 0 0 .0082353 -.54232 26.981)"
       gradientUnits="userSpaceOnUse"><stop
         id="stop5050"
         style="stop-opacity:0"
         offset="0" /><stop
         id="stop5056"
         offset=".5" /><stop
         id="stop5052"
         style="stop-opacity:0"
         offset="1" /></linearGradient></defs><g
     id="layer1"><path
       id="path4160"
       d="m 4.5,1.5 h 15.811 c 0.92456,0.3128 5.8916,3.8764 7.1886,6.3439 v 22.656 h -23 V 21.838627 1.4999 Z"
       style="display:inline;fill:url(#linearGradient2516);stroke:#000000;stroke-width:0.99992;stroke-linejoin:round;stroke-opacity:1"
       sodipodi:nodetypes="cccccccc"
       inkscape:label="path4160"
       sodipodi:insensitive="true" /><path
       id="path4191"
       d="M 5.234,30 C 5.10504,30 4.99996,29.88582 4.99996,29.7457 V 2.2817 c 0,-0.14037 0.10509,-0.2543 0.23404,-0.2543 4.842,0.070289 10.208,-0.10514 15.044,0.0175 l 6.6535,5.7695 0.06857,21.931 c 0,0.14012 -0.10485,0.2543 -0.23404,0.2543 h -21.532 z"
       style="fill:#ffffff"
       sodipodi:insensitive="true" /><path
       id="path2435"
       d="M 26.5,8.139 V 29.5 h -21 v -27 h 14.551"
       style="opacity:0.6;fill:none;stroke:url(#linearGradient2510)"
       sodipodi:insensitive="true" /><path
       id="path12038"
       transform="matrix(0.6386,0,0,0.61936,0.72508,1.4294)"
       d="m 28.617,0.92126 c 4.2825,0 2.1532,8.4832 2.1532,8.4832 0,0 10.358,-1.8023 10.358,2.8187 0,-2.6097 -11.302,-10.729 -12.511,-11.302 z"
       style="opacity:0.4;fill-rule:evenodd;filter:url(#filter3212)"
       sodipodi:insensitive="true" /><path
       id="path4474"
       d="m 19,2 c 2.0349,0 1.4916,4.7455 1.4916,4.7455 0,0 6.4978,-0.60763 6.4978,2.2545 0,-0.69737 0.05487,-1.1968 -0.08543,-1.4144 C 25.89607,6.0222 21.54257,2.514 19.97057,2.0542 19.85293,2.019792 19.59207,1.999985 19.00002,1.999985 Z"
       style="fill:#e6e6e6;fill-rule:evenodd"
       sodipodi:insensitive="true" /><g
       style="opacity:1"
       id="g2264"
       transform="translate(-236.15478,-247.15777)"><g
         id="g2245">
	
	
	
	
	
	
	
	
	
	<g
   id="g2329"
   sodipodi:insensitive="true"><path
     class="st0"
     d="m 257.3488,264.96646 c -0.26899,0.0236 -0.55357,-0.0534 -0.80647,-0.1791 -0.39893,-0.18022 -0.7047,-0.63106 -0.79623,-1.10604 l -0.012,-0.003 c -0.0796,-0.48142 0.0237,-0.91923 0.41614,-1.38052 l 0.0912,-0.1029 0.005,-0.002 -0.1539,-0.0685 c -0.46624,-0.2312 -0.7996,-0.66293 -0.90552,-1.17552 -0.0685,-0.38324 -10e-4,-0.74268 0.15413,-1.06961 0.23152,-0.42018 0.628,-0.7138 1.02742,-0.75253 0.1539,-0.0157 0.26898,0.001 0.30746,0.1194 10e-4,0.0236 -0.007,0.0912 -0.0796,0.15412 -0.0157,0.0305 -0.1029,0.0797 -0.15413,0.10275 -0.10275,0.0796 -0.18022,0.15435 -0.26898,0.27035 -0.26865,0.3078 -0.34677,0.70393 -0.30712,1.07871 0.0157,0.1539 0.1023,0.30712 0.17932,0.4617 0.23118,0.3468 0.59918,0.4617 0.94316,0.56802 l 0.0797,0.003 c 0.0685,0.0236 0.15412,0.091 0.15412,0.1194 0.005,0.0135 -0.009,0.12015 -0.15412,0.23118 -0.15435,0.1194 -0.3473,0.26899 -0.49815,0.49815 -0.15413,0.26832 -0.2312,0.59839 -0.15413,0.9067 0.0157,0.1791 0.1194,0.3473 0.23153,0.50648 0.15412,0.18022 0.34677,0.34527 0.5946,0.4374 0.0796,0.012 0.1194,0.0534 0.23152,0.0801 0.11955,0.0354 0.3078,0.0801 0.3473,0.15322 0.007,0.0158 0.007,0.0158 0.007,0.0455 10e-4,0.007 10e-4,0.0356 -0.007,0.091 -0.091,0.0801 -0.26865,0.15345 -0.43083,0.15345 z"
     style="fill:#4b4b4b;stroke-width:0.0336379"
     id="path2225" /><path
     class="st0"
     d="m 258.25114,266.34618 c -0.15412,-0.0105 -0.3468,-0.0801 -0.42678,-0.15323 -0.0135,-0.0237 -0.0135,-0.0356 -0.0135,-0.0356 0.001,-0.0158 0.0105,-0.0158 0.0135,-0.0455 0.0531,-0.091 0.2052,-0.12015 0.34679,-0.15435 0.0686,-0.0237 0.15322,-0.0237 0.23119,-0.0796 0.23085,-0.0687 0.44955,-0.23152 0.59765,-0.4374 0.1026,-0.15322 0.17932,-0.30712 0.23118,-0.50802 0.0796,-0.30712 10e-4,-0.6318 -0.15435,-0.9067 -0.15413,-0.22985 -0.34679,-0.38322 -0.49664,-0.49662 -0.12015,-0.0796 -0.15412,-0.17933 -0.15412,-0.2312 0.002,-0.0531 0.0797,-0.0796 0.15412,-0.11955 l 0.0797,-10e-4 c 0.34679,-0.1365 0.70089,-0.23118 0.93974,-0.56875 0.1368,-0.15323 0.15435,-0.30713 0.17932,-0.46068 0.0796,-0.38426 -0.007,-0.7803 -0.30747,-1.07985 -0.0797,-0.1194 -0.1791,-0.17933 -0.26865,-0.26898 -0.0454,-10e-4 -0.11955,-0.0796 -0.15412,-0.11955 -0.0685,-0.006 -0.1194,-0.1023 -0.0685,-0.1539 10e-4,-0.0105 0.11955,-0.10275 0.30712,-0.10275 0.39945,0.0354 0.79965,0.34627 1.02627,0.7533 0.1791,0.34678 0.23153,0.69711 0.15413,1.06728 -0.1194,0.51559 -0.4374,0.9534 -0.90213,1.17895 l -0.11955,0.0796 -10e-4,0.008 0.1194,0.1368 c 0.34678,0.4617 0.49207,0.8987 0.41613,1.37885 l -10e-4,0.0534 c -0.0797,0.47133 -0.39942,0.89532 -0.79616,1.10146 -0.26899,0.15345 -0.53764,0.18023 -0.80644,0.18023 z"
     style="fill:#4b4b4b;stroke-width:0.0336379"
     id="path2227" /><path
     class="st0"
     d="m 243.70563,257.30085 0.26899,-0.26865 c 0.66596,-0.66443 1.74029,-0.66218 2.4066,0 l 1.45064,1.45068 1.16869,1.16005 c -0.003,-5.1e-4 -0.007,-5.1e-4 -0.007,-6.4e-4 l 0.007,0.005 c -0.73354,-0.12015 -1.50534,0.1029 -2.03248,0.66141 -0.52929,0.53082 -0.77342,1.30032 -0.65687,2.03248 l -2.61786,-2.61796 c -0.66295,-0.66294 -0.66295,-1.74534 7.1e-4,-2.4066 z"
     style="fill:#4b4b4b;stroke-width:0.0336379"
     id="path2229" /><path
     class="st0"
     d="m 247.24096,260.5531 c 0.5331,-0.53308 1.32246,-0.71077 2.0169,-0.4855 l 0.0797,-0.0685 0.51488,0.51487 0.001,0.001 v 0 l 0.001,10e-4 -0.45765,0.46068 -0.15435,-0.0912 c -0.48753,-0.26865 -1.09924,-0.2052 -1.49169,0.17933 -0.39336,0.39285 -0.4779,1.00467 -0.18022,1.49157 l 0.0801,0.1539 -0.46121,0.4617 -0.51711,-0.52092 0.0801,-0.0797 c -0.23152,-0.70092 -0.0356,-1.48991 0.48296,-2.0196 z"
     style="fill:#4b4b4b;stroke-width:0.0336379"
     id="path2231" /><path
     class="st0"
     d="m 248.50063,263.19892 c 0.0801,0.003 0.18023,0.003 0.26898,0.001 0.007,-4.8e-4 0.0158,-0.001 0.0203,-0.001 0.23018,-0.0105 0.4445,-0.1194 0.62648,-0.26898 0.008,-0.002 0.009,-0.009 0.009,-0.009 0.018,-0.0203 0.0686,-0.0531 0.12015,-0.0685 0.26898,-0.27034 0.40347,-0.65154 0.34474,-1.03081 l -0.0105,-0.11955 0.59535,-0.59459 0.002,-10e-4 v 0 l 0.003,-0.001 0.51563,0.51333 0.003,0.002 v 0 l 0.001,0.001 -0.34475,0.34728 c -0.003,0.5202 -0.18022,1.01492 -0.57939,1.38906 -0.38424,0.38322 -0.86799,0.57639 -1.3891,0.57942 l -0.34527,0.34628 -0.52245,-0.52245 0.59916,-0.59918 z"
     style="fill:#4b4b4b;stroke-width:0.0336379"
     id="path2233" /><path
     class="st0"
     d="m 250.31212,263.62489 c 0.4055,-0.40297 0.64242,-0.93066 0.67887,-1.49167 l 0.27035,-0.269 6.61599,6.5862 0.82809,0.99327 c 0.38524,0.41766 0.34728,1.05138 -0.003,1.44551 l -1.06959,1.06954 c -0.2052,0.20475 -0.47738,0.30713 -0.75026,0.30713 -0.23119,0 -0.49662,-0.0796 -0.69709,-0.269 l -0.61511,-0.4951 -0.34677,-0.34628 -6.60366,-6.60396 0.27033,-0.26898 c 0.56042,-0.0203 1.0832,-0.26865 1.48989,-0.68269 z m 5.4935,7.29912 0.54595,0.43688 c 0.20475,0.15367 0.42578,0.11955 0.584,-0.0354 l 1.08319,-1.08326 c 0.15435,-0.15367 0.15435,-0.4035 0.005,-0.57865 -0.15435,-0.18023 -0.30712,-0.39942 -0.43587,-0.55359 -0.0797,-0.12015 -0.23052,-0.12015 -0.34729,-0.0236 l -1.50693,1.507 c -0.0685,0.0801 -0.0685,0.23018 0.008,0.34628 z"
     style="fill:#4b4b4b;stroke-width:0.0336379"
     id="path2235" /><path
     class="st0"
     d="m 248.19438,261.78642 c -0.0797,0.002 -0.15368,-0.0796 -0.15368,-0.15435 0.0202,-0.15413 0.11955,-0.26865 0.269,-0.38423 0.12015,-0.0685 0.27033,-0.11955 0.39993,-0.0685 0.0105,9.6e-4 0.0105,10e-4 0.027,10e-4 0.0531,0.0105 0.12015,0.0236 0.15322,0.0236 0.007,0.001 0.0157,0.001 0.0157,0.0157 0.0237,10e-4 0.0356,10e-4 0.0801,10e-4 0.0797,0.0797 0.1539,0.15435 0.18023,0.23153 0.0135,0.0683 -0.027,0.15412 -0.11955,0.1791 z"
     style="fill:#4b4b4b;stroke-width:0.0336379"
     id="path2237" /><path
     class="st0"
     d="m 257.75389,269.84826 c 0.0797,0.0682 0.0797,0.15435 0,0.23017 -0.0796,0.0797 -0.15412,0.0797 -0.23119,0 -0.0796,-0.0801 -0.0796,-0.15345 0,-0.23017 0.0796,-0.0797 0.15412,-0.0797 0.23119,0 z"
     style="fill:#4b4b4b;stroke-width:0.0336379"
     id="path2239" /><ellipse
     class="st0"
     cx="-256.66376"
     cy="270.93936"
     style="display:inline;fill:#4b4b4b;stroke-width:0.0336379"
     id="circle2241"
     rx="0.15729101"
     ry="0.15729104"
     transform="scale(-1,1)" /><ellipse
     class="st0"
     cx="-257.01144"
     cy="270.30777"
     style="fill:#4b4b4b;stroke-width:0.0336379"
     id="circle2243"
     rx="0.15729101"
     ry="0.15729104"
     transform="scale(-1,1)" /></g>
</g></g></g><style
     type="text/css"
     id="style2223">
	.st0{fill:#374149;}
</style></svg>
