<?xml version="1.0" encoding="UTF-8" standalone="no"?>
<!-- Created with Inkscape (http://www.inkscape.org/) -->

<svg
   version="1.1"
   id="svg3955"
   width="16"
   height="16"
   viewBox="0 0 16 16"
   sodipodi:docname="16 x-raku.svg"
   inkscape:version="1.2.2 (b0a8486541, 2022-12-01)"
   xmlns:inkscape="http://www.inkscape.org/namespaces/inkscape"
   xmlns:sodipodi="http://sodipodi.sourceforge.net/DTD/sodipodi-0.dtd"
   xmlns="http://www.w3.org/2000/svg"
   xmlns:svg="http://www.w3.org/2000/svg">
  <defs
     id="defs3959">
    <clipPath
       id="a">
      <path
         d="M 0,-0.1 H 792.1 V 612 H 0 Z"
         id="path156" />
    </clipPath>
  </defs>
  <sodipodi:namedview
     id="namedview3957"
     pagecolor="#ffffff"
     bordercolor="#999999"
     borderopacity="1"
     inkscape:showpageshadow="0"
     inkscape:pageopacity="0"
     inkscape:pagecheckerboard="0"
     inkscape:deskcolor="#d1d1d1"
     showgrid="false"
     inkscape:zoom="8"
     inkscape:cx="-5.8125"
     inkscape:cy="33.4375"
     inkscape:window-width="1820"
     inkscape:window-height="1330"
     inkscape:window-x="599"
     inkscape:window-y="28"
     inkscape:window-maximized="0"
     inkscape:current-layer="svg3955" />
  <g
     id="g343"
     transform="matrix(0.25,0,0,0.25,-0.0013441,-0.00159964)">
    <g
       inkscape:groupmode="layer"
       id="layer1"
       inkscape:label="Image 2"
       style="display:inline"
       sodipodi:insensitive="true">
      <path
         id="rect1980"
         style="display:inline;opacity:1;fill:#ffffff;fill-opacity:1;fill-rule:evenodd;stroke:#000000;stroke-width:0;stroke-dasharray:none;stop-color:#000000;stop-opacity:1"
         d="M 7.7644773,0.64170361 H 43.707172 L 56.179135,13.146041 V 63.239543 H 7.7644773 Z"
         sodipodi:nodetypes="cccccc"
         inkscape:label="rect1980__Dokument_bg-colour"
         sodipodi:insensitive="true" />
    </g>
    <g
       inkscape:groupmode="layer"
       inkscape:label="Image"
       id="g3961"
       style="display:inline">
      <g
         id="g2372"
         style="display:inline"
         transform="translate(2.0054702,-14.007669)">
        <g
           id="g342"
           style="display:inline;stroke:#4da500;stroke-opacity:1"
           inkscape:label="g342__Diagonalt_veck">
          <path
             style="display:inline;fill:none;stroke:#4da500;stroke-width:2;stroke-linecap:butt;stroke-linejoin:miter;stroke-dasharray:none;stroke-opacity:1"
             d="m 46.999618,21.009995 h 0.99819 v 0.09561"
             id="path2368"
             sodipodi:nodetypes="ccc" />
          <path
             style="display:inline;fill:none;stroke:#4da500;stroke-width:2;stroke-linecap:butt;stroke-linejoin:miter;stroke-dasharray:none;stroke-opacity:1"
             d="m 48.999618,23.009995 h 0.99819 v 0.09561"
             id="path329"
             sodipodi:nodetypes="ccc" />
          <path
             style="display:inline;fill:none;stroke:#4da500;stroke-width:2;stroke-linecap:butt;stroke-linejoin:miter;stroke-dasharray:none;stroke-opacity:1"
             d="m 50.999618,25.009995 h 0.99819 v 0.09561"
             id="path331"
             sodipodi:nodetypes="ccc" />
          <path
             style="display:inline;fill:none;stroke:#4da500;stroke-width:2;stroke-linecap:butt;stroke-linejoin:miter;stroke-dasharray:none;stroke-opacity:1"
             d="m 44.999618,19.009995 h 0.99819 v 0.09561"
             id="path333"
             sodipodi:nodetypes="ccc" />
          <path
             style="display:inline;fill:none;stroke:#4da500;stroke-width:2;stroke-linecap:butt;stroke-linejoin:miter;stroke-dasharray:none;stroke-opacity:1"
             d="m 42.999618,17.009995 h 0.99819 v 0.09561"
             id="path335"
             sodipodi:nodetypes="ccc" />
        </g>
        <g
           clip-path="url(#a)"
           id="g275"
           transform="matrix(0.05601094,0,0,-0.05601094,7.7524763,62.980886)"
           style="display:inline;opacity:1"
           inkscape:label="g275__Camelia">
          <path
             d="M 304.2,75.7 C 248.8,35.1 174.7,42.1 138.6,91.4 c -36,49.2 -20.3,122 35.1,162.5 55.3,40.6 129.5,33.6 165.5,-15.6 36.1,-49.3 20.4,-122.1 -35,-162.6 z"
             fill-rule="evenodd"
             id="path161" />
          <path
             d="M 304.2,75.7 C 248.8,35.1 174.7,42.1 138.6,91.4 c -36,49.2 -20.3,122 35.1,162.5 55.3,40.6 129.5,33.6 165.5,-15.6 36.1,-49.3 20.4,-122.1 -35,-162.6 z"
             fill="none"
             stroke="#000000"
             stroke-linejoin="round"
             stroke-miterlimit="10"
             stroke-width="4.3016"
             id="path163" />
          <path
             d="m 273.6,523.5 c 68.9,-50.4 88.4,-140.9 43.5,-202.1 -44.8,-61.2 -137,-69.9 -205.8,-19.5 -68.9,50.4 -88.4,141 -43.6,202.2 44.9,61.2 137,69.9 205.9,19.4 z"
             fill-rule="evenodd"
             id="path165" />
          <path
             d="m 273.6,523.5 c 68.9,-50.4 88.4,-140.9 43.5,-202.1 -44.8,-61.2 -137,-69.9 -205.8,-19.5 -68.9,50.4 -88.4,141 -43.6,202.2 44.9,61.2 137,69.9 205.9,19.4 z"
             fill="none"
             stroke="#000000"
             stroke-linejoin="round"
             stroke-miterlimit="10"
             stroke-width="7.1882"
             id="path167" />
          <path
             d="m 213.3,370.5 c -25.8,21.2 -27.3,62.2 -3.3,91.4 24.1,29.3 64.5,35.9 90.3,14.6 25.9,-21.2 27.4,-62.1 3.3,-91.4 -24,-29.3 -64.4,-35.8 -90.3,-14.6 z"
             fill="#00ff00"
             fill-rule="evenodd"
             id="path169" />
          <path
             d="m 191.7,375.8 c -25.9,21.3 -27.4,62.2 -3.4,91.5 24.1,29.3 64.6,35.8 90.4,14.6 25.9,-21.2 27.4,-62.2 3.3,-91.5 -24,-29.3 -64.5,-35.8 -90.3,-14.6 z"
             fill-rule="evenodd"
             id="path173" />
          <path
             d="m 245.6,311.6 c -3.55132,2.3647 -7.21851,4.68421 -10.97128,6.97205 C 194.42169,343.08379 144.39141,363.95862 121.8,397.8 c -18.4,27.5 -39.3,38.3 -17.3,65.5 21,25.7 32.7,53.3 61.9,57.9 32.8,-4.4 58.3,-7.3 79.3,-43.8 -2.4,-21.4 4.8,-66.6 -23,-88.1 l -48.1,-26.7"
             fill="none"
             stroke="#0000ff"
             stroke-linejoin="round"
             stroke-miterlimit="10"
             stroke-width="21.565"
             id="path177"
             style="stroke:#48baff;stroke-opacity:1"
             sodipodi:nodetypes="cscccccc" />
          <path
             d="m 175,400.5 c -23.8,0 -43.1,18.9 -43.1,42.3 0,23.4 19.3,42.3 43.1,42.3 23.8,0 43.1,-18.9 43.1,-42.3 0,-23.4 -19.3,-42.3 -43.1,-42.3 z"
             fill="#ff3366"
             fill-rule="evenodd"
             id="path179" />
          <path
             d="m 194.2,418.9 c -8.9,-7.3 -22.2,-5.9 -29.7,3.2 -7.5,9.1 -6.3,22.4 2.7,29.7 8.9,7.3 22.2,5.9 29.6,-3.2 7.5,-9.1 6.3,-22.4 -2.6,-29.7 z"
             fill="#0000ff"
             fill-rule="evenodd"
             id="path183"
             style="fill:#881bad;fill-opacity:1" />
          <path
             d="m 249.3,308.8 c -41.7,27.8 -104.7,27.8 -129.4,64.7 -18.4,27.6 -50.3,63.1 -28.3,90.2 20.1,31.9 45.6,53.8 77.5,53.8 32.9,-4.3 66.7,-17 74.7,-42.8 -2.3,-21.5 2.1,-55.4 -25.7,-76.9 l -45.3,-36.1"
             fill="none"
             stroke="#0000ff"
             stroke-linejoin="round"
             stroke-miterlimit="10"
             stroke-width="21.565"
             id="path187"
             sodipodi:nodetypes="ccccccc"
             style="stroke:#48baff;stroke-opacity:1" />
          <path
             d="m 268,298 c -2.9,-5.1 -15.3,-3.4 -27.6,3.7 -12.4,7.1 -20,17 -17.1,22.1 3,5 15.3,3.4 27.7,-3.7 12.3,-7.2 20,-17 17,-22.1 z"
             fill="#0000ff"
             fill-rule="evenodd"
             id="path189"
             style="fill:#48baff;fill-opacity:1" />
          <path
             d="m 268,298 c -2.9,-5.1 -15.3,-3.4 -27.6,3.7 -12.4,7.1 -20,17 -17.1,22.1 3,5 15.3,3.4 27.7,-3.7 12.3,-7.2 20,-17 17,-22.1 z"
             fill="none"
             id="path191" />
          <path
             d="M 629.1,253 C 684.4,212.5 700.1,139.6 664,90.4 627.9,41.1 553.8,34.1 498.4,74.6 c -55.3,40.6 -71,113.4 -34.9,162.6 36.1,49.3 110.2,56.4 165.6,15.8 z"
             fill-rule="evenodd"
             id="path193" />
          <path
             d="M 629.1,253 C 684.4,212.5 700.1,139.6 664,90.4 627.9,41.1 553.8,34.1 498.4,74.6 c -55.3,40.6 -71,113.4 -34.9,162.6 36.1,49.3 110.2,56.4 165.6,15.8 z"
             fill="none"
             stroke="#000000"
             stroke-linejoin="round"
             stroke-miterlimit="10"
             stroke-width="4.3016"
             id="path195" />
          <path
             d="m 399.5,162 c -64,0 -115.8,41.4 -115.8,92.6 0,51.1 51.8,92.6 115.8,92.6 64,0 115.8,-41.5 115.8,-92.6 0,-51.2 -51.8,-92.6 -115.8,-92.6 z"
             fill="#ffff00"
             fill-rule="evenodd"
             id="path197" />
          <path
             d="m 399.5,162 c -64,0 -115.8,41.4 -115.8,92.6 0,51.1 51.8,92.6 115.8,92.6 64,0 115.8,-41.5 115.8,-92.6 0,-51.2 -51.8,-92.6 -115.8,-92.6 z"
             fill="none"
             stroke="#000000"
             stroke-linejoin="round"
             stroke-miterlimit="10"
             stroke-width="8.6315"
             id="path199" />
          <path
             d="m 320.1,255.7 c -25.6,0 -46.3,20.8 -46.3,46.3 0,25.6 20.7,46.3 46.3,46.3 25.6,0 46.4,-20.7 46.4,-46.3 0,-25.5 -20.8,-46.3 -46.4,-46.3 z"
             fill="#ffffff"
             fill-rule="evenodd"
             id="path201" />
          <path
             d="m 320.1,255.7 c -25.6,0 -46.3,20.8 -46.3,46.3 0,25.6 20.7,46.3 46.3,46.3 25.6,0 46.4,-20.7 46.4,-46.3 0,-25.5 -20.8,-46.3 -46.4,-46.3 z"
             fill="none"
             stroke="#000000"
             stroke-linejoin="round"
             stroke-miterlimit="10"
             stroke-width="10.075"
             id="path203" />
          <path
             d="m 683.4,296.3 c -68.4,-50.1 -160,-41.4 -204.5,19.4 -44.6,60.8 -25.2,150.7 43.2,200.9 68.4,50.1 160,41.4 204.5,-19.4 44.6,-60.9 25.2,-150.8 -43.2,-200.9 z"
             fill-rule="evenodd"
             id="path205" />
          <path
             d="m 683.4,296.3 c -68.4,-50.1 -160,-41.4 -204.5,19.4 -44.6,60.8 -25.2,150.7 43.2,200.9 68.4,50.1 160,41.4 204.5,-19.4 44.6,-60.9 25.2,-150.8 -43.2,-200.9 z"
             fill="none"
             stroke="#000000"
             stroke-linejoin="round"
             stroke-miterlimit="10"
             stroke-width="7.1882"
             id="path207" />
          <path
             d="m 698.5,335.2 c -25.7,-21.1 -65.9,-14.5 -89.8,14.6 -23.9,29.1 -22.5,69.8 3.2,90.9 25.7,21.1 65.9,14.6 89.8,-14.6 23.9,-29.1 22.5,-69.8 -3.2,-90.9 z"
             fill="#00ff00"
             fill-rule="evenodd"
             id="path209" />
          <path
             d="m 677.1,335.2 c -25.7,-21.1 -65.9,-14.5 -89.8,14.6 -23.9,29.1 -22.5,69.8 3.2,90.8 25.7,21.1 65.9,14.6 89.8,-14.5 23.9,-29.1 22.4,-69.8 -3.2,-90.9 z"
             fill-rule="evenodd"
             id="path213" />
          <path
             d="m 705.7,464.7 c -18,58.1 -98.5,38.2 -128.5,18.1 -41.4,-27.6 -36.2,-22.1 -60.7,-58.8 -18.3,-27.5 -8.4,-63.6 13.5,-90.6 20.7,-25.6 29,-13.8 61.6,-9.5 32.6,4.3 41.5,5.4 49.4,31 9.9,32.1 -22.1,65.3 -49.7,86.6 L 560.2,463"
             fill="none"
             stroke="#0000ff"
             stroke-linejoin="round"
             stroke-miterlimit="10"
             stroke-width="21.565"
             id="path217"
             style="stroke:#48baff;stroke-opacity:1" />
          <path
             d="m 569.2,345.3 c -21,0 -37.9,17.2 -37.9,38.5 0,21.3 16.9,38.5 37.9,38.5 20.9,0 37.8,-17.2 37.8,-38.5 0,-21.3 -16.9,-38.5 -37.8,-38.5 z"
             fill="#ff3366"
             fill-rule="evenodd"
             id="path219" />
          <path
             d="m 582.5,361.7 c -8.9,-7.2 -22.1,-5.8 -29.5,3.3 -7.4,9 -6.3,22.3 2.5,29.5 8.8,7.3 22.1,5.8 29.5,-3.2 7.4,-9.1 6.3,-22.3 -2.5,-29.6 z"
             fill="#0000ff"
             fill-rule="evenodd"
             id="path223"
             style="fill:#881bad;fill-opacity:1" />
          <path
             d="m 711.2,466.5 c -18,58.1 -116.7,47.3 -146.7,27.2 -41.4,-27.6 -35.3,-22.2 -59.8,-58.9 -18.3,-27.4 -2,-76.9 19.9,-103.9 20.7,-25.6 35.8,-19.8 68.3,-15.5 32.6,4.3 44,3.5 52,29.2 9.9,32 4,71.5 -23.7,92.9 l -61,25.5"
             fill="none"
             stroke="#0000ff"
             stroke-linejoin="round"
             stroke-miterlimit="10"
             stroke-width="21.565"
             id="path227"
             style="stroke:#48baff;stroke-opacity:1" />
          <path
             d="m 473.4,255.7 c -25.6,0 -46.4,20.8 -46.4,46.3 0,25.6 20.8,46.3 46.4,46.3 25.6,0 46.3,-20.7 46.3,-46.3 0,-25.5 -20.7,-46.3 -46.3,-46.3 z"
             fill="#ffffff"
             fill-rule="evenodd"
             id="path229" />
          <path
             d="m 473.4,255.7 c -25.6,0 -46.4,20.8 -46.4,46.3 0,25.6 20.8,46.3 46.4,46.3 25.6,0 46.3,-20.7 46.3,-46.3 0,-25.5 -20.7,-46.3 -46.3,-46.3 z"
             fill="none"
             stroke="#000000"
             stroke-linejoin="round"
             stroke-miterlimit="10"
             stroke-width="10.075"
             id="path231" />
          <path
             d="m 321.5,279 c -12.8,0 -23.2,10.4 -23.2,23.2 0,12.8 10.4,23.2 23.2,23.2 12.8,0 23.1,-10.4 23.1,-23.2 0,-12.8 -10.3,-23.2 -23.1,-23.2 z"
             fill-rule="evenodd"
             id="path233" />
          <path
             d="m 475.1,281.6 c -12.9,0 -23.2,10.4 -23.2,23.1 0,12.8 10.3,23.1 23.2,23.1 12.8,0 23.1,-10.3 23.1,-23.1 0,-12.7 -10.3,-23.1 -23.1,-23.1 z"
             fill-rule="evenodd"
             id="path237" />
          <path
             d="m 360,230 c -4.6,-31.7 87.5,-54.6 76.4,-5.4 v 2.7"
             fill="none"
             stroke="#ff3366"
             stroke-linejoin="round"
             stroke-miterlimit="10"
             stroke-width="12.933"
             id="path241" />
          <path
             d="m 385.1,348 c -1.9,25.2 7.3,53.8 -4.2,77.1 l -9.7,23.1 -12.6,-21.2 9.7,-1.9"
             fill="none"
             stroke="#000000"
             stroke-linejoin="round"
             stroke-miterlimit="10"
             stroke-width="10.075"
             id="path243" />
          <path
             d="m 413.3,348 c 1.9,25.2 -7.4,53.8 4.1,77.1 l 9.7,23.1 12.6,-21.2 -9.7,-1.9"
             fill="none"
             stroke="#000000"
             stroke-linejoin="round"
             stroke-miterlimit="10"
             stroke-width="10.075"
             id="path245" />
          <path
             d="m 181.1,99.3 c -26.6,21.9 -27.5,64.8 -2,96 25.6,31.1 67.9,38.6 94.6,16.7 26.6,-21.9 27.5,-64.8 1.9,-95.9 C 250.1,84.9 207.8,77.4 181.1,99.3 Z"
             fill="#ff3366"
             fill-rule="evenodd"
             id="path247" />
          <path
             d="m 212.3,134.8 c -12,9.8 -10.1,32 4.3,49.5 14.4,17.6 35.7,23.8 47.8,13.9 11.9,-9.8 10,-32 -4.3,-49.6 -14.4,-17.5 -35.8,-23.7 -47.8,-13.8 z"
             fill="#0000ff"
             fill-rule="evenodd"
             id="path255"
             style="fill:#0000ff;fill-opacity:0.467808" />
          <path
             d="M 616.6,99.2 C 589.9,77.3 547.6,84.8 522,116 c -25.5,31.1 -24.6,74.1 2,95.9 26.7,21.9 69,14.4 94.6,-16.7 25.5,-31.2 24.6,-74.1 -2,-96 z"
             fill="#ff3366"
             fill-rule="evenodd"
             id="path259" />
          <path
             d="m 581.8,132 c -12,-9.8 -33.4,-3.6 -47.7,13.8 -14.4,17.5 -16.3,39.7 -4.2,49.5 11.9,9.9 33.3,3.7 47.7,-13.8 14.3,-17.4 16.2,-39.6 4.2,-49.5 z"
             fill="#0000ff"
             fill-rule="evenodd"
             id="path263"
             style="fill:#881bad;fill-opacity:1" />
          <path
             d="m 722.4,447.3 c -6.1,-4.2 -19.3,4.3 -29.6,19.1 -10.4,14.7 -13.8,30.1 -7.8,34.3 6,4.2 19.3,-4.3 29.6,-19.1 10.3,-14.7 13.8,-30.1 7.8,-34.3 z"
             fill="#0000ff"
             fill-rule="evenodd"
             id="path271"
             style="fill:#48baff;fill-opacity:1;stroke:#48baff;stroke-opacity:1" />
        </g>
      </g>
      <g
         id="g8142"
         style="display:inline;opacity:1"
         transform="matrix(0.02397452,0,0,-0.02716726,-16.506472,57.199249)">
        <path
           d="M 1958.1572,641.14971 V 523.22776 l 64.6796,-107.27347"
           fill="none"
           stroke="#000000"
           stroke-linejoin="round"
           stroke-miterlimit="10"
           stroke-width="34.0416"
           id="path7601"
           style="display:inline" />
        <path
           d="M 2102.1087,641.14971 V 522.83338 l 64.6796,-107.27348"
           fill="none"
           stroke="#000000"
           stroke-linejoin="round"
           stroke-miterlimit="10"
           stroke-width="34.0416"
           id="path7603"
           style="display:inline" />
      </g>
    </g>
    <g
       inkscape:groupmode="layer"
       id="layer2"
       inkscape:label="Image 1"
       style="display:inline">
      <path
         id="rect4394"
         style="display:inline;opacity:1;fill:none;fill-rule:evenodd;stroke:#4da500;stroke-width:2.00002;stroke-opacity:1;stop-color:#000000;stop-opacity:1"
         d="M 8.0017128,1.0051471 H 44.007406 l -0.0069,11.9912569 12.008534,-0.0076 V 63.00765 H 8.0017128 Z"
         sodipodi:nodetypes="ccccccc"
         sodipodi:insensitive="true"
         inkscape:label="rect4394__Dokument_kontur" />
    </g>
  </g>
</svg>
