<?xml version="1.0" encoding="UTF-8" standalone="no"?>
<!-- Created with Inkscape (http://www.inkscape.org/) -->

<svg
   version="1.1"
   id="svg3955"
   width="16"
   height="16"
   viewBox="0 0 16 16"
   sodipodi:docname="application-typescript.svg"
   inkscape:version="1.2.2 (b0a8486541, 2022-12-01)"
   xml:space="preserve"
   xmlns:inkscape="http://www.inkscape.org/namespaces/inkscape"
   xmlns:sodipodi="http://sodipodi.sourceforge.net/DTD/sodipodi-0.dtd"
   xmlns="http://www.w3.org/2000/svg"
   xmlns:svg="http://www.w3.org/2000/svg"><defs
     id="defs3959"><style
       id="style2">
      .cls-1 {
        fill: rgba(235, 235, 235, 0);
      }

      .cls-1, .cls-2 {
        isolation: isolate;
        opacity: .99;
      }

      .cls-3 {
        fill: #fdd83c;
      }

      .cls-4 {
        fill: #f7df1e;
      }

      .cls-2 {
        fill: rgba(235, 235, 235, .92);
      }

      .cls-5 {
        fill: #d4b830;
      }
    </style><style
       id="style327">
      .cls-1 {
        fill-rule: evenodd;
      }

      .cls-1, .cls-2 {
        fill: #007acc;
      }
    </style></defs><sodipodi:namedview
     id="namedview3957"
     pagecolor="#ffffff"
     bordercolor="#999999"
     borderopacity="1"
     inkscape:showpageshadow="0"
     inkscape:pageopacity="0"
     inkscape:pagecheckerboard="0"
     inkscape:deskcolor="#d1d1d1"
     showgrid="true"
     inkscape:zoom="11.313709"
     inkscape:cx="15.291184"
     inkscape:cy="9.5459415"
     inkscape:window-width="2203"
     inkscape:window-height="1355"
     inkscape:window-x="608"
     inkscape:window-y="28"
     inkscape:window-maximized="0"
     inkscape:current-layer="layer1"><inkscape:grid
       type="xygrid"
       id="grid952"
       originx="0"
       originy="0" /></sodipodi:namedview><g
     inkscape:groupmode="layer"
     id="layer1"
     inkscape:label="Image 2"
     style="display:inline"
     transform="matrix(0.5,0,0,0.5,16.502688,17.003199)"><path
       id="rect1980"
       style="display:inline;opacity:1;fill:#ffffff;fill-opacity:1;fill-rule:evenodd;stroke:#000000;stroke-width:0;stroke-dasharray:none;stop-color:#000000;stop-opacity:1"
       d="m -29.005376,-33.019945 c 0,0 2,0.01555 17.015357,0.01555 8.184776,8.235295 4.5238996,4.791005 7.9053009,8.172406 v 21.825591 l -24.9206579,0.00433 z"
       sodipodi:nodetypes="cccccc"
       inkscape:label="rect1980__Dokument_bg-colour" /><g
       id="g12"
       transform="matrix(0.0492137,0,0,0.0492137,-28.209602,-38.895278)"><path
         class="cls-4"
         d="m 25.09,302.5413 447.03,-0.20862 c 0,39.33203 0,407.35732 0,407.35732 H 25.09 Z"
         id="path6"
         sodipodi:nodetypes="ccccc" /><path
         d="m 142.63,636.23 34.21,-20.7 c 6.6,11.7 12.6,21.6 27,21.6 14.4,0 22.51,-5.4 22.51,-26.4 V 467.89 h 42.01 v 143.43 c 0,43.51 -25.5,63.32 -62.71,63.32 -33.61,0 -53.11,-17.4 -63.02,-38.41"
         id="path8" /><path
         d="m 291.18,631.72 34.21,-19.8 c 9,14.71 20.71,25.51 41.41,25.51 17.41,0 28.51,-8.7 28.51,-20.71 0,-14.4 -11.4,-19.51 -30.61,-27.9 l -10.5,-4.5 c -30.31,-12.9 -50.41,-29.1 -50.41,-63.31 0,-31.51 24.01,-55.51 61.52,-55.51 26.71,0 45.91,9.3 59.71,33.61 l -32.71,21 c -7.2,-12.9 -15,-18 -27,-18 -12,0 -20.11,7.8 -20.11,18 0,12.6 7.8,17.71 25.8,25.51 l 10.5,4.5 c 35.71,15.3 55.81,30.91 55.81,66.01 0,37.81 -29.71,58.51 -69.62,58.51 -39.91,0 -64.22,-18.6 -76.52,-42.91"
         id="path10" /></g><g
       id="g415"
       transform="matrix(2,0,0,1.9258076,-128.94787,-146.95188)"><rect
         style="font-variation-settings:normal;opacity:1;fill:#fefefe;fill-opacity:1;fill-rule:evenodd;stroke:#000000;stroke-width:0;stroke-linecap:butt;stroke-linejoin:miter;stroke-miterlimit:4;stroke-dasharray:none;stroke-dashoffset:0;stroke-opacity:1;stop-color:#000000;stop-opacity:1"
         id="rect643"
         width="3.57339"
         height="2.440861"
         x="51.197441"
         y="65.291557" /><path
         class="cls-1"
         d="m 50.874343,63.850472 c 0,0 3.974532,-1.25e-4 3.999789,-1.25e-4 8.12e-4,1.333323 -0.0012,2.66665 6.2e-5,3.999973 l -3.99969,1.9e-5 c 0,0 3.28e-4,-3.999656 -1.69e-4,-3.999862 z m 2.223329,2.127829 v -0.328136 h -1.423359 v 0.328136 h 0.508219 v 1.460671 h 0.404615 v -1.460671 h 0.510717 z m 0.161269,1.421987 c 0.06516,0.03324 0.142432,0.05812 0.231428,0.07484 0.08919,0.01672 0.18299,0.02488 0.281597,0.02488 0.09861,0 0.187602,-0.0091 0.274099,-0.02741 0.0865,-0.01827 0.162423,-0.0484 0.227776,-0.09039 0.06516,-0.04199 0.116868,-0.09681 0.154927,-0.164651 0.03806,-0.06784 0.05709,-0.151627 0.05709,-0.251351 0,-0.07231 -0.01096,-0.135686 -0.03268,-0.190311 -0.02172,-0.05443 -0.05305,-0.102834 -0.09419,-0.145405 -0.04094,-0.04238 -0.09015,-0.08048 -0.147429,-0.114109 -0.05728,-0.03363 -0.121866,-0.06551 -0.193754,-0.09545 -0.05267,-0.02158 -0.09995,-0.04257 -0.141855,-0.06298 -0.0419,-0.02041 -0.07746,-0.04121 -0.106681,-0.0624 -0.02922,-0.02119 -0.0519,-0.04374 -0.06766,-0.06745 -0.01595,-0.02372 -0.02383,-0.05054 -0.02383,-0.08048 0,-0.02741 0.0071,-0.0521 0.02134,-0.07426 0.01422,-0.02197 0.03421,-0.04102 0.06016,-0.05676 0.02595,-0.01575 0.05767,-0.02799 0.09534,-0.03674 0.03767,-0.0087 0.07938,-0.01302 0.125518,-0.01302 0.03345,0 0.06881,0.0025 0.106103,0.0074 0.03729,0.005 0.07458,0.01264 0.112254,0.02313 0.03767,0.0103 0.0742,0.02352 0.109755,0.03927 0.03556,0.01575 0.06843,0.03402 0.09842,0.05482 v -0.373044 c -0.06113,-0.02333 -0.127824,-0.04063 -0.200097,-0.05171 -0.07227,-0.01127 -0.155311,-0.01691 -0.249112,-0.01691 -0.0938,0 -0.185681,0.01011 -0.271024,0.03052 -0.08534,0.02041 -0.160309,0.0521 -0.225278,0.09545 -0.06497,0.04335 -0.116098,0.09836 -0.153772,0.165234 -0.03767,0.06687 -0.05651,0.146962 -0.05651,0.240076 0,0.118969 0.03441,0.220442 0.103604,0.30442 0.06901,0.08398 0.173763,0.155126 0.314273,0.213249 0.05517,0.02255 0.10668,0.04452 0.15435,0.06609 0.04767,0.02158 0.0888,0.04413 0.123595,0.06726 0.03479,0.02333 0.06209,0.0486 0.08227,0.07601 0.02018,0.02741 0.03018,0.05871 0.03018,0.0935 0,0.02585 -0.0063,0.04976 -0.01884,0.07173 -0.01249,0.02197 -0.03152,0.04121 -0.05709,0.05735 -0.02557,0.01613 -0.05728,0.02896 -0.09534,0.0381 -0.03806,0.0091 -0.08265,0.0138 -0.13359,0.0138 -0.08707,0 -0.173187,-0.01516 -0.258531,-0.04549 -0.08534,-0.03033 -0.164344,-0.07581 -0.237194,-0.136659 v 0.39909 z"
         id="path333"
         style="display:inline;stroke-width:0.0193302"
         inkscape:label="path333"
         sodipodi:nodetypes="cccccccccccccccccsscssccscsscscsssccscccsssssccscssssssscccc" /></g></g><g
     inkscape:groupmode="layer"
     inkscape:label="Image"
     id="g3961"
     style="display:inline"
     transform="matrix(0.5,0,0,0.5,16.502688,17.003199)"><g
       id="g2372"
       style="display:inline"
       transform="translate(-57.258383,-48.01978)"><g
         id="g342"
         style="display:inline;stroke:#000000;stroke-opacity:1"
         inkscape:label="g342__Diagonalt_veck"
         transform="translate(-0.74)"><path
           style="display:inline;fill:none;stroke:#000000;stroke-width:2;stroke-linecap:butt;stroke-linejoin:miter;stroke-dasharray:none;stroke-opacity:1"
           d="m 46.999618,17.009995 h 0.99819 v 0.09561"
           id="path2368"
           sodipodi:nodetypes="ccc" /><path
           style="display:inline;fill:none;stroke:#000000;stroke-width:2;stroke-linecap:butt;stroke-linejoin:miter;stroke-dasharray:none;stroke-opacity:1"
           d="m 48.999618,19.009995 h 0.99819 v 0.09561"
           id="path329"
           sodipodi:nodetypes="ccc" /><path
           style="display:inline;fill:none;stroke:#000000;stroke-width:2;stroke-linecap:butt;stroke-linejoin:miter;stroke-dasharray:none;stroke-opacity:1"
           d="m 50.999618,21.009995 h 0.99819 v 0.09561"
           id="path331"
           sodipodi:nodetypes="ccc" /></g></g></g><g
     inkscape:groupmode="layer"
     id="layer2"
     inkscape:label="Image 1"
     style="display:inline"
     transform="matrix(0.5,0,0,0.5,16.502688,17.003199)"><path
       id="rect4394"
       style="display:inline;opacity:1;fill:none;fill-rule:evenodd;stroke:#000000;stroke-width:2.00002;stroke-opacity:1;stop-color:#000000;stop-opacity:1"
       d="m -28.005376,-33.005712 16,-0.0013 v 8.0013 h 8 v 22.0000001 h -24 z"
       sodipodi:nodetypes="ccccccc"
       inkscape:label="rect4394__Dokument_kontur" /></g></svg>
