<?xml version="1.0" encoding="UTF-8" standalone="no"?>
<!-- Created with Inkscape (http://www.inkscape.org/) -->

<svg
   version="1.1"
   id="svg3955"
   width="16"
   height="16"
   viewBox="0 0 16 16"
   sodipodi:docname="text-x-java-source 16.svg"
   inkscape:version="1.2.2 (b0a8486541, 2022-12-01)"
   xmlns:inkscape="http://www.inkscape.org/namespaces/inkscape"
   xmlns:sodipodi="http://sodipodi.sourceforge.net/DTD/sodipodi-0.dtd"
   xmlns:xlink="http://www.w3.org/1999/xlink"
   xmlns="http://www.w3.org/2000/svg"
   xmlns:svg="http://www.w3.org/2000/svg">
  <defs
     id="defs3959">
    <radialGradient
       id="radialGradient4086"
       cx="62.625"
       cy="4.625"
       r="10.625"
       gradientTransform="matrix(1,0,0,0.34118,0,3.0471)"
       gradientUnits="userSpaceOnUse">
      <stop
         id="stop8840"
         offset="0" />
      <stop
         id="stop8842"
         style="stop-opacity:0"
         offset="1" />
    </radialGradient>
    <linearGradient
       id="linearGradient4094"
       x1="34.875999"
       x2="38.154999"
       y1="22.978001"
       y2="23.945"
       gradientTransform="translate(-1,-1)"
       gradientUnits="userSpaceOnUse">
      <stop
         id="stop4090"
         style="stop-color:#7f7f7f;stop-opacity:1;"
         offset="0" />
      <stop
         id="stop4092"
         style="stop-color:#e7e7e3;stop-opacity:1;"
         offset="1" />
    </linearGradient>
    <linearGradient
       id="linearGradient4102"
       x1="34.463001"
       x2="39.780998"
       y1="24.868"
       y2="27.549"
       gradientTransform="translate(-1,-1)"
       gradientUnits="userSpaceOnUse"
       xlink:href="#linearGradient1447" />
    <linearGradient
       id="linearGradient1447">
      <stop
         id="stop1443"
         style="stop-color:#5e5e5e;stop-opacity:1;"
         offset="0" />
      <stop
         id="stop1445"
         style="stop-color:#c6c6c6"
         offset="1" />
    </linearGradient>
    <radialGradient
       id="radialGradient4111"
       cx="-6.4537001"
       cy="29.205999"
       r="32"
       gradientTransform="matrix(0,0.47619,-0.494,0,32.286,26.955)"
       gradientUnits="userSpaceOnUse">
      <stop
         id="stop3491"
         style="stop-color:#f5f5f5;stop-opacity:1;"
         offset="0" />
      <stop
         id="stop3497"
         style="stop-color:#dededb;stop-opacity:1;"
         offset="0.5" />
      <stop
         id="stop3493"
         style="stop-color:#707070;stop-opacity:1;"
         offset="1" />
    </radialGradient>
    <linearGradient
       id="linearGradient4113"
       x1="117.3"
       x2="53.303001"
       y1="55.030998"
       y2="2.3599"
       gradientTransform="matrix(0.33333,0,0,0.33786,-5.4339,15.066)"
       gradientUnits="userSpaceOnUse"
       xlink:href="#linearGradient3584" />
    <linearGradient
       id="linearGradient3584">
      <stop
         id="stop3586"
         style="stop-color:#5f5f5f"
         offset="0" />
      <stop
         id="stop3588"
         style="stop-color:#c6c6c6"
         offset="1" />
    </linearGradient>
    <linearGradient
       id="linearGradient4067"
       x1="5.6835999"
       x2="35.033001"
       y1="16.365999"
       y2="16.365999"
       gradientUnits="userSpaceOnUse"
       spreadMethod="reflect">
      <stop
         id="stop3528"
         style="stop-color:#d1d1d1"
         offset="0" />
      <stop
         id="stop3530"
         style="stop-color:#959594"
         offset="1" />
    </linearGradient>
    <radialGradient
       id="radialGradient4107"
       cx="8.4375"
       cy="32.535"
       r="26.406"
       gradientTransform="matrix(0.37791,0,0,0.11821,19.791,17.658)"
       gradientUnits="userSpaceOnUse">
      <stop
         id="stop3740"
         style="stop-color:#8b6a35"
         offset="0" />
      <stop
         id="stop3742"
         style="stop-color:#754d0d"
         offset=".60331" />
      <stop
         id="stop3744"
         style="stop-color:#483816"
         offset="1" />
    </radialGradient>
    <linearGradient
       id="linearGradient4071"
       x1="87.050003"
       x2="87.050003"
       y1="53.75"
       y2="41.73"
       gradientTransform="matrix(0.33333,0,0,0.33786,-5.4339,14.704)"
       gradientUnits="userSpaceOnUse">
      <stop
         id="stop3597"
         style="stop-color:#fff"
         offset="0" />
      <stop
         id="stop3599"
         style="stop-color:#fff;stop-opacity:0"
         offset="1" />
    </linearGradient>
    <linearGradient
       id="linearGradient4073"
       x1="-1.9371001"
       x2="-1.9371001"
       y1="-0.72359997"
       y2="31.827"
       gradientUnits="userSpaceOnUse">
      <stop
         id="stop3668"
         style="stop-color:#fff"
         offset="0" />
      <stop
         id="stop3670"
         style="stop-color:#fff;stop-opacity:0"
         offset="1" />
    </linearGradient>
  </defs>
  <sodipodi:namedview
     id="namedview3957"
     pagecolor="#ffffff"
     bordercolor="#999999"
     borderopacity="1"
     inkscape:showpageshadow="0"
     inkscape:pageopacity="0"
     inkscape:pagecheckerboard="0"
     inkscape:deskcolor="#d1d1d1"
     showgrid="true"
     inkscape:zoom="22.627417"
     inkscape:cx="12.639534"
     inkscape:cy="6.9384853"
     inkscape:window-width="2203"
     inkscape:window-height="1355"
     inkscape:window-x="349"
     inkscape:window-y="28"
     inkscape:window-maximized="0"
     inkscape:current-layer="layer2">
    <inkscape:grid
       type="xygrid"
       id="grid952"
       originx="0"
       originy="0" />
  </sodipodi:namedview>
  <g
     inkscape:groupmode="layer"
     id="layer1"
     inkscape:label="Image 2"
     style="display:inline"
     transform="matrix(0.5,0,0,0.5,16.502688,17.003199)">
    <path
       id="rect1980"
       style="display:inline;opacity:1;fill:#e5c370;fill-opacity:1;fill-rule:evenodd;stroke:#000000;stroke-width:0;stroke-dasharray:none;stop-color:#000000;stop-opacity:1"
       d="m -29.005376,-33.019945 c 0,0 2,0.01555 17.015357,0.01555 8.184776,8.235295 4.5238996,4.791005 7.9053009,8.172406 v 21.825591 l -24.9206579,0.00433 z"
       sodipodi:nodetypes="cccccc"
       inkscape:label="rect1980__Dokument_bg-colour" />
  </g>
  <g
     inkscape:groupmode="layer"
     id="layer2"
     inkscape:label="Image 1"
     style="display:inline"
     transform="matrix(0.5,0,0,0.5,16.502688,17.003199)">
    <path
       style="display:inline;fill:none;stroke:#f0e1bc;stroke-width:1.76788;stroke-linecap:butt;stroke-linejoin:miter;stroke-dasharray:none;stroke-opacity:1"
       d="m -11.082174,-26.875427 c 0.941973,0.01145 3.312694,0.0081 3.9628337,0.01187 l -3.0636337,-3.05816 c 0.0038,0.880211 -0.0076,1.850605 -0.007,3.199111"
       id="path2348"
       sodipodi:nodetypes="cccc"
       inkscape:label="rect1980__Dokument_&quot;baksida&quot;" />
    <g
       id="layer1-3"
       transform="matrix(0.71143454,0,0,0.71143456,-33.489232,-32.662497)"
       style="display:inline"
       inkscape:label="Cuppa">
      <path
         id="path2845"
         transform="matrix(1.1294,0,0,1.1034,-47.729,26.897)"
         d="m 73.25,4.625 a 10.625,3.625 0 1 1 -21.25,0 10.625,3.625 0 1 1 21.25,0 z"
         style="display:inline;opacity:0.3;fill:url(#radialGradient4086);fill-rule:evenodd" />
      <path
         id="path4023"
         d="m 32.049,29.476 c 3.268384,-0.808024 6.2362,-4.0598 6.2362,-5.8758 0,-0.27604 -0.08887,-0.5585 -0.21211,-0.77769 -0.15458,-0.26099 -0.32161,-0.43403 -0.5515,-0.60486 -1.0525,-0.75396 -1.742628,-0.63657 -4.3271,-0.63657 -8.473717,0.960474 -3.231274,8.373367 -2.271865,8.139941 z m 0.71879,-5.849 c 0,0 1.7866,0.0059 2.5801,0.0059 0,1.6917 -2.5693,2.4962 -2.5693,2.4962 L 32.76773,23.627 Z"
         style="display:inline;fill:url(#linearGradient4094);stroke:url(#linearGradient4102);stroke-width:0.99112"
         sodipodi:nodetypes="cscccccccccc" />
      <path
         id="path3674"
         d="m 23,15.51 c -5.5764,0 -10.141,1.6257 -10.479,3.6742 h -0.02083 v 0.24284 2.0694 0.15837 c 0.07516,6.5473 4.7505,11.836 10.5,11.836 5.7493,0 10.425,-5.2884 10.5,-11.836 6.1e-4,-0.05333 0,-0.10488 0,-0.15837 V 19.42704 19.1842 H 33.47934 C 33.14144,17.1356 28.57664,15.51 23.00034,15.51 Z"
         style="display:inline;fill:url(#radialGradient4111);stroke:url(#linearGradient4113);stroke-linecap:square;stroke-linejoin:round" />
      <path
         id="path3678"
         transform="matrix(0.30629,0,0,0.16999,21.218,16.868)"
         d="m 35.033,16.366 a 29.2815,14.64125 0 1 1 -58.563,0 29.2815,14.64125 0 1 1 58.563,0 z"
         style="display:inline;fill:url(#linearGradient4067)" />
      <path
         id="path3680"
         d="m 22.979,18.441 c -4.1545,0 -7.6472,0.78624 -8.6647,1.8506 1.0225,1.0624 4.5154,1.843 8.6647,1.843 4.1484,0 7.6414,-0.78098 8.6647,-1.843 C 30.6256,19.2275 27.1329,18.441 22.979,18.441 Z"
         style="display:inline;fill:url(#radialGradient4107)" />
      <path
         id="path3682"
         d="m 31.357,27.448 c -1.7392,2.4068 -4.7827,4.0015 -8.2499,4.0015 -3.4603,0 -6.4986,-1.5921 -8.2395,-3.991 1.3394,3.1705 4.524,5.4058 8.2395,5.4058 3.7204,0 6.9136,-2.2392 8.2499,-5.4163 z"
         style="display:inline;opacity:0.3;fill:url(#linearGradient4071)" />
      <path
         id="path3684"
         transform="matrix(0.32448,0,0,0.2091,21.134,16.248)"
         d="m 35.033,16.366 a 29.2815,14.64125 0 1 1 -58.563,0 29.2815,14.64125 0 1 1 58.563,0 z"
         style="display:inline;opacity:0.6;fill:none;stroke:url(#linearGradient4073);stroke-width:3.9315;stroke-linecap:square;stroke-linejoin:round" />
    </g>
  </g>
  <g
     inkscape:groupmode="layer"
     inkscape:label="Image"
     id="g3961"
     style="display:inline"
     transform="matrix(0.5,0,0,0.5,16.502688,17.003199)">
    <g
       id="g2372"
       style="display:inline"
       transform="translate(-57.258383,-48.01978)">
      <g
         id="g342"
         style="display:inline;stroke:#000000;stroke-opacity:1"
         inkscape:label="g342__Diagonalt_veck"
         transform="translate(-0.74)">
        <path
           style="display:inline;fill:none;stroke:#000000;stroke-width:2;stroke-linecap:butt;stroke-linejoin:miter;stroke-dasharray:none;stroke-opacity:1"
           d="m 46.999618,17.009995 h 0.99819 v 0.09561"
           id="path2368"
           sodipodi:nodetypes="ccc" />
        <path
           style="display:inline;fill:none;stroke:#000000;stroke-width:2;stroke-linecap:butt;stroke-linejoin:miter;stroke-dasharray:none;stroke-opacity:1"
           d="m 48.999618,19.009995 h 0.99819 v 0.09561"
           id="path329"
           sodipodi:nodetypes="ccc" />
        <path
           style="display:inline;fill:none;stroke:#000000;stroke-width:2;stroke-linecap:butt;stroke-linejoin:miter;stroke-dasharray:none;stroke-opacity:1"
           d="m 50.999618,21.009995 h 0.99819 v 0.09561"
           id="path331"
           sodipodi:nodetypes="ccc" />
      </g>
    </g>
  </g>
  <path
     id="rect4394"
     style="display:inline;opacity:1;fill:none;fill-rule:evenodd;stroke:#000000;stroke-width:2.00002;stroke-opacity:1;stop-color:#000000;stop-opacity:1"
     d="m -28.005376,-33.005712 16,-0.0013 v 8.0013 h 8 v 22.0000001 h -24 z"
     sodipodi:nodetypes="ccccccc"
     inkscape:label="rect4394__Dokument_kontur"
     transform="matrix(0.5,0,0,0.5,16.502688,17.003199)" />
</svg>
