<?xml version="1.0" encoding="UTF-8" standalone="no"?>
<svg
   height="16"
   viewBox="0 0 16 16"
   width="16"
   version="1.1"
   id="svg18"
   sodipodi:docname="font-x-generic.svg"
   inkscape:version="1.2.2 (b0a8486541, 2022-12-01)"
   xmlns:inkscape="http://www.inkscape.org/namespaces/inkscape"
   xmlns:sodipodi="http://sodipodi.sourceforge.net/DTD/sodipodi-0.dtd"
   xmlns="http://www.w3.org/2000/svg"
   xmlns:svg="http://www.w3.org/2000/svg">
  <defs
     id="defs22" />
  <sodipodi:namedview
     id="namedview20"
     pagecolor="#ffffff"
     bordercolor="#999999"
     borderopacity="1"
     inkscape:showpageshadow="0"
     inkscape:pageopacity="0"
     inkscape:pagecheckerboard="0"
     inkscape:deskcolor="#d1d1d1"
     showgrid="false"
     showguides="true"
     inkscape:zoom="4"
     inkscape:cx="49"
     inkscape:cy="95.625"
     inkscape:window-width="1570"
     inkscape:window-height="1326"
     inkscape:window-x="154"
     inkscape:window-y="53"
     inkscape:window-maximized="0"
     inkscape:current-layer="svg18">
    <inkscape:grid
       type="xygrid"
       id="grid401"
       originx="0"
       originy="0" />
  </sodipodi:namedview>
  <g
     id="g2969"
     inkscape:label="g***Bakgrunden"
     style="display:inline"
     transform="matrix(0.1280795,0,0,0.12352442,-0.19804886,0.09443708)">
    <path
       d="M 102.01346,6.5e-7 H 14.022085 L 14.021484,0.00527197 13.993687,127.99182 102.00595,128 c 6.65899,6.2e-4 12.01553,-5.35646 12.01553,-12.01536 V 12.02903 C 114.02148,5.3625507 108.66829,6.5e-7 102.01346,6.5e-7 Z"
       fill="#f6f5f4"
       id="path2"
       style="display:inline;fill:#ffffff;fill-opacity:1;stroke:#000000;stroke-width:1.5;stroke-dasharray:none;stroke-opacity:1"
       sodipodi:nodetypes="scccssss" />
  </g>
  <g
     fill="#1a5fb4"
     id="g16"
     style="display:inline"
     inkscape:label="g***Font-logon"
     transform="matrix(0.1830125,0,0,0.1830125,-3.8281451,-6.079094)">
    <path
       d="m 35.988281,99.925781 v -2 h 60 v 2 z m 0,0"
       fill="#1a5fb4"
       id="path6"
       style="display:inline;fill:#2d2d2d" />
    <path
       d="m 89.988281,49.925781 h 2 v 55.999999 h -2 z m 0,0"
       id="path10"
       style="display:inline;fill:#ff4141" />
    <path
       d="m 86.996094,49.925781 3.992187,-3.992187 3.992188,3.992187 z m 0,0"
       id="path12"
       style="display:inline;fill:#ff4141" />
    <path
       d="m 86.996094,103.93359 3.992187,3.99219 3.992188,-3.99219 z m 0,0"
       id="path14"
       style="display:inline;fill:#ff4141" />
    <path
       d="m 63.707031,55.621094 c -6.925781,0 -13.933593,1.851562 -18.683593,5.234375 l 4.511718,8.777343 c 3.140625,-2.496093 7.890625,-4.027343 12.480469,-4.027343 6.761719,0 9.984375,3.140625 9.984375,8.535156 h -9.984375 c -13.207031,0 -18.601563,5.316406 -18.601563,12.964844 0,7.488281 6.039063,13.125001 16.183594,13.125001 6.363282,0 10.871094,-2.093751 13.207032,-6.039064 v 5.398438 H 84.5625 V 74.867188 c 0,-13.125 -7.652344,-19.246094 -20.855469,-19.246094 z m -0.96875,36.15625 c -4.425781,0 -7.085937,-2.09375 -7.085937,-5.234375 0,-2.898438 1.851562,-5.074219 7.730468,-5.074219 H 72 v 4.429688 c -1.449219,3.945312 -5.074219,5.878906 -9.261719,5.878906 z m 0,0"
       fill="#3584e4"
       id="path8"
       style="display:inline" />
  </g>
</svg>
