<?xml version="1.0" encoding="UTF-8" standalone="no"?>
<svg
   height="16"
   viewBox="0 0 16 16"
   width="16"
   version="1.1"
   id="svg10"
   sodipodi:docname="inode-symlink.svg"
   inkscape:version="1.2.2 (b0a8486541, 2022-12-01)"
   xmlns:inkscape="http://www.inkscape.org/namespaces/inkscape"
   xmlns:sodipodi="http://sodipodi.sourceforge.net/DTD/sodipodi-0.dtd"
   xmlns="http://www.w3.org/2000/svg"
   xmlns:svg="http://www.w3.org/2000/svg">
  <defs
     id="defs14" />
  <sodipodi:namedview
     id="namedview12"
     pagecolor="#ffffff"
     bordercolor="#999999"
     borderopacity="1"
     inkscape:showpageshadow="0"
     inkscape:pageopacity="0"
     inkscape:pagecheckerboard="0"
     inkscape:deskcolor="#d1d1d1"
     showgrid="false"
     inkscape:zoom="8"
     inkscape:cx="-7.8125"
     inkscape:cy="25.25"
     inkscape:window-width="1714"
     inkscape:window-height="1355"
     inkscape:window-x="666"
     inkscape:window-y="139"
     inkscape:window-maximized="0"
     inkscape:current-layer="svg10" />
  <path
     d="M 1.2466787,1.8749747 H 11.642361 c 4.258857,4.1801952 0.05525,0.074687 4.233381,4.1726932 v 3.907389 L 11.655819,14.12935 H 1.2466787 c -0.62364752,0 -1.12531312,-0.49624 -1.12531312,-1.113144 V 2.9881189 c 0,-0.61636 0.5016656,-1.1131442 1.12531312,-1.1131442 z"
     fill="#f6f5f4"
     id="path2"
     style="display:inline;stroke:#000000;stroke-width:0.245625;stroke-dasharray:none;stroke-opacity:1"
     sodipodi:nodetypes="sccccssss" />
  <g
     fill="#deddda"
     id="g8"
     transform="matrix(0.14285745,0,0,0.14193205,-1.0193058,-2.2021673)">
    <path
       d="m 119.29433,85.11033 h -22 c -4.433594,0 -8,3.570312 -8,8 v 21.87497 z m 0,0"
       id="path4"
       style="display:inline;stroke:#000000;stroke-width:0.999867;stroke-dasharray:none;stroke-opacity:1" />
    <path
       d="M 119.37649,58.650989 H 97.376446 c -4.433594,0 -8,-3.570312 -8,-8 v -21.875 z m 0,0"
       id="path852"
       style="display:inline;stroke:#000000;stroke-width:0.999867;stroke-dasharray:none;stroke-opacity:1" />
  </g>
  <path
     d="m 5.310913,5.2613919 c -0.677321,0 -1.22252,0.541667 -1.22252,1.214601 v 3.238935 c 0,0.6729331 0.545199,1.2146011 1.22252,1.2146011 h 3.260053 c 0.677321,0 1.22252,-0.541668 1.22252,-1.2146011 v -1.619468 c 0,-0.223784 -0.182264,-0.404867 -0.407507,-0.404867 -0.225243,0 -0.407506,0.181083 -0.407506,0.404867 v 1.619468 c 0,0.224575 -0.181468,0.4048671 -0.407507,0.4048671 H 5.310913 c -0.226039,0 -0.407507,-0.1802921 -0.407507,-0.4048671 v -3.238935 c 0,-0.224575 0.181468,-0.404867 0.407507,-0.404867 h 1.630026 c 0.225243,0 0.407507,-0.181083 0.407507,-0.404867 0,-0.223784 -0.182264,-0.404867 -0.407507,-0.404867 z m 2.852546,-0.809734 c -0.225243,0 -0.407506,0.181083 -0.407506,0.404867 0,0.223784 0.182263,0.404867 0.407506,0.404867 H 9.21645 l -2.156124,2.142157 c -0.159978,0.158151 -0.159978,0.415147 0,0.573298 0.159183,0.158151 0.417058,0.158151 0.57624,0 l 2.15692,-2.142948 v 1.04696 c 0,0.223784 0.182264,0.404867 0.407507,0.404867 0.225243,0 0.407507,-0.181083 0.407507,-0.404867 v -2.024334 c 0,-0.03558 -0.0047,-0.07038 -0.01432,-0.10438 -0.0096,-0.0348 -0.02308,-0.06721 -0.04059,-0.09805 -0.01751,-0.03084 -0.0398,-0.05852 -0.06447,-0.08382 -0.0064,-0.0047 -0.01273,-0.0095 -0.0191,-0.01423 -0.02229,-0.02056 -0.04775,-0.03796 -0.07402,-0.05219 -0.01513,-0.0079 -0.03104,-0.01423 -0.04696,-0.01977 -0.02069,-0.0087 -0.04218,-0.01502 -0.06367,-0.01977 -0.01671,-0.0039 -0.03263,-0.0055 -0.04934,-0.0071 -0.01194,-0.0039 -0.02309,-0.0039 -0.03502,-0.0047 z m 0,0"
     id="path6"
     style="fill:#2d2d2d;fill-opacity:1;stroke-width:0.203125;stroke-dasharray:none" />
</svg>
