<?xml version="1.0" encoding="UTF-8" standalone="no"?>
<svg
   viewBox="0 0 16 16"
   version="1.1"
   id="svg10"
   sodipodi:docname="text-x-tcl.svg"
   inkscape:version="1.2.2 (b0a8486541, 2022-12-01)"
   width="16"
   height="16"
   xmlns:inkscape="http://www.inkscape.org/namespaces/inkscape"
   xmlns:sodipodi="http://sodipodi.sourceforge.net/DTD/sodipodi-0.dtd"
   xmlns="http://www.w3.org/2000/svg"
   xmlns:svg="http://www.w3.org/2000/svg">
  <defs
     id="defs14" />
  <sodipodi:namedview
     id="namedview12"
     pagecolor="#ffffff"
     bordercolor="#999999"
     borderopacity="1"
     inkscape:showpageshadow="0"
     inkscape:pageopacity="0"
     inkscape:pagecheckerboard="0"
     inkscape:deskcolor="#d1d1d1"
     showgrid="true"
     inkscape:zoom="2"
     inkscape:cx="35.75"
     inkscape:cy="-46"
     inkscape:window-width="1570"
     inkscape:window-height="1321"
     inkscape:window-x="357"
     inkscape:window-y="62"
     inkscape:window-maximized="0"
     inkscape:current-layer="svg10">
    <inkscape:grid
       type="xygrid"
       id="grid423"
       originx="0"
       originy="0" />
  </sodipodi:namedview>
  <path
     d="M 2.005867,0 C 2.008667,5.33333 2,15.013953 2,16 c 3.987159,-1.09e-4 8.012841,-4.4e-5 12,-4.4e-5 -3.2e-5,-3.826075 -1.3e-5,-8.173054 -1.3e-5,-11.999131 L 10.000237,0 Z"
     style="fill:#c3b15f;fill-opacity:1;stroke-width:0.349815"
     id="path2"
     sodipodi:nodetypes="cccccc" />
  <path
     d="m 9.666122,3.337573 0.021,0.021 0.052,-0.021 z m 0.666644,0.666696 3.666541,3.666836 V 4.004269 Z"
     style="fill-opacity:0.196;stroke-width:0.333335"
     id="path4" />
  <path
     d="m 10.000307,0.0028095 3.998999,3.9992735 h -3.998161 l -8e-4,-0.01337 z"
     style="fill:#ffffff;fill-opacity:0.392;stroke-width:0.307627"
     id="path6"
     sodipodi:nodetypes="ccccc" />
  <path
     d="M 6.253087,3.223657 C 3.131875,3.742592 7.17855,10.607248 8.713442,10.677357 7.523317,5.331577 6.598822,3.739768 6.756771,3.555757 6.91472,3.371747 8.078872,5.593915 9.346342,10.573997 10.613427,9.633854 10.509619,2.515962 7.104575,3.082088 Z m 3.09318,7.349886 c -0.239735,0.118734 -0.472992,0.124845 -0.632823,0.103828 l 0.708411,2.360947 0.705096,1.209642 -0.17523,-1.054113 z"
     style="fill:#ffffff;stroke-width:0.46038"
     id="path8" />
  <path
     style="fill:none;stroke:#000000;stroke-width:0.583904;stroke-linecap:butt;stroke-linejoin:miter;stroke-dasharray:none;stroke-opacity:1"
     d="m 10.01855,0.30079833 -7.7251833,-0.0051 0.00668,15.40732967 11.4189913,0.0011 0,-11.6923706"
     id="path1777"
     sodipodi:nodetypes="ccccc" />
</svg>
