<?xml version="1.0" encoding="UTF-8" standalone="no"?>
<svg
   version="1.1"
   viewBox="0 0 16 16"
   id="svg10"
   sodipodi:docname="text-x-common-lisp (kopia2).svg"
   inkscape:version="1.2.2 (b0a8486541, 2022-12-01)"
   width="16"
   height="16"
   xmlns:inkscape="http://www.inkscape.org/namespaces/inkscape"
   xmlns:sodipodi="http://sodipodi.sourceforge.net/DTD/sodipodi-0.dtd"
   xmlns="http://www.w3.org/2000/svg"
   xmlns:svg="http://www.w3.org/2000/svg">
  <defs
     id="defs14">
    <linearGradient
       id="linearGradient12880"
       inkscape:swatch="solid">
      <stop
         style="stop-color:#000000;stop-opacity:1;"
         offset="0"
         id="stop12878" />
    </linearGradient>
    <linearGradient
       id="linearGradient3909"
       inkscape:swatch="solid">
      <stop
         style="stop-color:#274e90;stop-opacity:1;"
         offset="0"
         id="stop3907" />
    </linearGradient>
    <linearGradient
       id="linearGradient3890"
       inkscape:swatch="solid">
      <stop
         style="stop-color:#1a405c;stop-opacity:0.56862748;"
         offset="0"
         id="stop3888" />
    </linearGradient>
  </defs>
  <sodipodi:namedview
     id="namedview12"
     pagecolor="#ffffff"
     bordercolor="#999999"
     borderopacity="1"
     inkscape:showpageshadow="0"
     inkscape:pageopacity="0"
     inkscape:pagecheckerboard="0"
     inkscape:deskcolor="#d1d1d1"
     showgrid="false"
     inkscape:zoom="11.313709"
     inkscape:cx="15.865708"
     inkscape:cy="30.228815"
     inkscape:window-width="2560"
     inkscape:window-height="1358"
     inkscape:window-x="0"
     inkscape:window-y="28"
     inkscape:window-maximized="1"
     inkscape:current-layer="svg10" />
  <path
     d="m 2.145443,0.40005005 c -0.07769,0 -0.07873,-0.00113 -0.07873,0.083807 V 15.521359 c 0,0.08041 -5.51e-4,0.0786 0.08671,0.0786 h 11.697968 c 0.07964,0 0.08194,8.1e-5 0.08194,-0.08214 V 4.6956777 L 9.648168,0.40005005 Z"
     style="display:inline;fill:#d8f1fc;fill-opacity:1;stroke:#000000;stroke-width:0.2;stroke-dasharray:none;stroke-opacity:1"
     id="path2"
     sodipodi:nodetypes="ccssssccc" />
  <path
     d="m 10.307424,4.6956777 3.625911,3.634762 v -3.634762 z"
     style="opacity:0.99;fill-opacity:0.196;fill-rule:evenodd;stroke-width:1"
     id="path4" />
  <path
     d="m 9.648168,0.40005005 4.285167,4.29562765 h -3.625911 c -0.320069,0 -0.659256,-0.340016 -0.659256,-0.660866 z"
     style="fill:#ffffff;fill-opacity:0.392;stroke-width:1"
     id="path6" />
  <path
     d="m 7.505584,4.3652447 c -0.819225,0 -1.483327,0.665723 -1.483327,1.486948 0,0.273734 0.221369,0.495649 0.494442,0.495649 0.273068,0 0.494443,-0.221908 0.494443,-0.495649 0,-0.27374 0.221368,-0.495649 0.494442,-0.495649 0.273074,0 0.494442,0.221909 0.494442,0.495649 v 0.495649 L 4.635511,12.177669 c -0.06409,0.111046 -0.09654,0.237641 -0.09657,0.365922 -1.21e-4,0.410596 0.332067,0.743573 0.741663,0.743474 0.267163,-7.4e-5 0.519033,-0.141408 0.645083,-0.377553 l 2.07435,-3.8858903 v 2.7763963 c 0,0.821225 0.664102,1.486948 1.483327,1.486948 0.819225,0 1.483327,-0.665723 1.483327,-1.486948 0,-0.273734 -0.221368,-0.49565 -0.494442,-0.49565 -0.273074,0 -0.494443,0.221909 -0.494443,0.49565 0,0.27374 -0.221368,0.495649 -0.494442,0.495649 -0.273067,0 -0.494442,-0.221909 -0.494442,-0.495649 V 5.8522257 c 0,-0.821225 -0.664102,-1.486948 -1.483327,-1.486948 z"
     style="fill:#9b3131;fill-opacity:1;stroke-width:1"
     id="path8" />
</svg>
