<?xml version="1.0" encoding="UTF-8" standalone="no"?>
<svg
   version="1.1"
   viewBox="0 0 16 16"
   id="svg10"
   sodipodi:docname="text-x-arduino.svg"
   inkscape:version="1.2.2 (b0a8486541, 2022-12-01)"
   width="16"
   height="16"
   xmlns:inkscape="http://www.inkscape.org/namespaces/inkscape"
   xmlns:sodipodi="http://sodipodi.sourceforge.net/DTD/sodipodi-0.dtd"
   xmlns="http://www.w3.org/2000/svg"
   xmlns:svg="http://www.w3.org/2000/svg">
  <defs
     id="defs14">
    <linearGradient
       id="linearGradient12880"
       inkscape:swatch="solid">
      <stop
         style="stop-color:#000000;stop-opacity:1;"
         offset="0"
         id="stop12878" />
    </linearGradient>
    <linearGradient
       id="linearGradient3909"
       inkscape:swatch="solid">
      <stop
         style="stop-color:#274e90;stop-opacity:1;"
         offset="0"
         id="stop3907" />
    </linearGradient>
    <linearGradient
       id="linearGradient3890"
       inkscape:swatch="solid">
      <stop
         style="stop-color:#1a405c;stop-opacity:0.56862748;"
         offset="0"
         id="stop3888" />
    </linearGradient>
  </defs>
  <sodipodi:namedview
     id="namedview12"
     pagecolor="#ffffff"
     bordercolor="#999999"
     borderopacity="1"
     inkscape:showpageshadow="0"
     inkscape:pageopacity="0"
     inkscape:pagecheckerboard="0"
     inkscape:deskcolor="#d1d1d1"
     showgrid="false"
     inkscape:zoom="22.655701"
     inkscape:cx="7.9670895"
     inkscape:cy="9.6443715"
     inkscape:window-width="1530"
     inkscape:window-height="1355"
     inkscape:window-x="394"
     inkscape:window-y="28"
     inkscape:window-maximized="0"
     inkscape:current-layer="svg10" />
  <path
     d="m 2.1766805,0.35004525 c -0.07728,0 -0.07831,-0.00114 -0.07831,0.084358 V 15.570844 c 0,0.08094 -5.45e-4,0.07912 0.08625,0.07912 H 13.820172 c 0.07921,0 0.0815,8.2e-5 0.0815,-0.08268 V 4.673935 L 9.6393735,0.35004525 Z"
     style="display:inline;fill:#e5f1f2;fill-opacity:1;stroke:#000000;stroke-width:0.2;stroke-dasharray:none;stroke-opacity:1"
     id="path2"
     sodipodi:nodetypes="ccssssccc"
     inkscape:label="path2__DOC-BLANK" />
  <path
     d="m 10.460682,4.675305 3.442631,3.4921 v -3.4921 z"
     style="display:inline;fill:#000000;fill-opacity:0.144102;fill-rule:nonzero;stroke:none;stroke-width:1"
     id="path4-6"
     inkscape:label="path4__FLIK-SKUGGA"
     sodipodi:nodetypes="cccc" />
  <path
     d="M 9.6393735,0.35004525 13.901676,4.673935 H 9.6411295 l -0.0017,1.36e-4 z"
     style="fill:#ffffff;fill-opacity:0.492688;stroke-width:0.999995"
     id="path6"
     inkscape:label="path6__FLIK-VIT"
     sodipodi:nodetypes="ccccc" />
  <g
     inkscape:groupmode="layer"
     id="layer1"
     inkscape:label="LOGO">
    <path
       d="m 11.580523,8.459536 c 0,-0.885564 -0.794624,-1.609216 -1.7601235,-1.609216 v 0 c -0.09062,0 -0.181001,0.0094 -0.271625,0.01906 v 0 c -0.754374,0.104723 -1.257126,0.618929 -1.548752,1.009351 v 0 C 7.7185215,7.488309 7.2053985,6.964695 6.4512715,6.86938 v 0 C 6.3606515,6.85998 6.2702705,6.85032 6.1796465,6.85032 v 0 c -0.975625,0 -1.760125,0.723652 -1.760125,1.609216 v 0 c 0,0.885565 0.794625,1.609217 1.760125,1.609217 v 0 c 0.09062,0 0.181001,-0.0094 0.271625,-0.01907 v 0 c 0.754374,-0.104723 1.257126,-0.61893 1.548751,-1.00935 v 0 c 0.281502,0.399828 0.784501,0.914035 1.548752,1.00935 v 0 c 0.09062,0.0094 0.181001,0.01907 0.271625,0.01907 v 0 c 0.9654995,0 1.7601235,-0.714244 1.7601235,-1.609217 z M 6.3702775,9.48795 c -0.06025,0.0094 -0.120749,0.0094 -0.191125,0.0094 v 0 c -0.643749,0 -1.156625,-0.466673 -1.156625,-1.037821 v 0 c 0,-0.571396 0.523,-1.037821 1.156625,-1.037821 v 0 c 0.06025,0 0.12075,0.0094 0.191125,0.0094 v 0 c 0.714125,0.09532 1.146501,0.761779 1.297376,1.028414 v 0 C 7.5167785,8.726157 7.0844025,9.39262 6.3702775,9.487935 Z m 1.961127,-1.028414 c 0.150875,-0.266634 0.583251,-0.933098 1.297376,-1.028413 v 0 c 0.06025,-0.0094 0.120749,-0.0094 0.191125,-0.0094 v 0 c 0.6437485,0 1.1566245,0.466673 1.1566245,1.037821 v 0 c 0,0.571397 -0.523,1.037822 -1.1566245,1.037822 v 0 c -0.06025,0 -0.12075,0 -0.191125,-0.0094 v 0 C 8.9146555,9.392656 8.4822795,8.726188 8.3314045,8.459553 Z"
       style="display:inline;fill:#0099ab;fill-opacity:1;stroke-width:1"
       id="path8-6" />
    <path
       d="m 5.6047915,8.286236 v 0 0.346601 h 1.333428 v 0 -0.346601 0 z"
       style="display:inline;fill:#0099ab;fill-opacity:1;stroke-width:0.374241"
       id="path10" />
    <path
       d="m 9.0371335,8.286236 v 0.346601 0 h 0.518555 v 0 0.519901 0 h 0.345704 V 8.632837 H 10.419947 V 8.286236 H 9.9013925 v -0.5199 h -0.345704 v 0.5199 z"
       style="display:inline;fill:#0099ab;fill-opacity:1;stroke-width:0.285714"
       id="path12" />
  </g>
</svg>
