<?xml version="1.0" encoding="UTF-8" standalone="no"?>
<svg
   viewBox="0 0 16 16"
   version="1.1"
   id="svg3609"
   sodipodi:docname="text-x-chdr.svg"
   inkscape:version="1.2.2 (b0a8486541, 2022-12-01)"
   width="16"
   height="16"
   xmlns:inkscape="http://www.inkscape.org/namespaces/inkscape"
   xmlns:sodipodi="http://sodipodi.sourceforge.net/DTD/sodipodi-0.dtd"
   xmlns="http://www.w3.org/2000/svg"
   xmlns:svg="http://www.w3.org/2000/svg">
  <defs
     id="defs3613" />
  <sodipodi:namedview
     id="namedview3611"
     pagecolor="#ffffff"
     bordercolor="#999999"
     borderopacity="1"
     inkscape:showpageshadow="0"
     inkscape:pageopacity="0"
     inkscape:pagecheckerboard="0"
     inkscape:deskcolor="#d1d1d1"
     showgrid="false"
     inkscape:zoom="32"
     inkscape:cx="8.15625"
     inkscape:cy="13.015625"
     inkscape:window-width="2021"
     inkscape:window-height="1317"
     inkscape:window-x="97"
     inkscape:window-y="28"
     inkscape:window-maximized="0"
     inkscape:current-layer="svg3609" />
  <path
     d="M 2.0216864,0.01416572 C 2.0044213,8.3254731 2.0215429,8.3437589 2.0261695,15.994327 H 13.967831 c 0.0029,-1.43084 -4e-5,-0.0027 -4e-5,-11.4921896 L 9.4891655,0.00519409 c -7.1907546,0.01479465 -0.042948,1.1679e-4 -7.467523,0.00898469 z"
     style="fill:#f2f2f2;stroke:none;stroke-width:0.3;stroke-dasharray:none;stroke-opacity:1"
     id="path3599"
     sodipodi:nodetypes="cccccc" />
  <path
     d="m 10.50239,4.4791239 3.5,3.503612 v -3.503612 z"
     style="fill:#000000;fill-opacity:0.196;stroke-width:1"
     id="path3601" />
  <path
     d="M 9.5023895,-0.02552007 13.99839,4.4791239 h -3.8065 c -0.3365005,0 -0.6890005,-0.356868 -0.6890005,-0.693715 z"
     style="fill:#ffffff;fill-opacity:0.964505;stroke-width:1"
     id="path3603" />
  <path
     d="m 1.9992255,8.1001499 c -0.01735,8.3255401 -1.88e-4,0.152298 0.0045,7.8898411 H 14.002381 c 0.0029,-1.433289 -4e-5,-4.10838 -4e-5,-7.8912311 -11.8784695,0 -0.331947,0.0014 -12.0031645,0.0014 z"
     style="fill:#ffff00;stroke-width:1"
     id="path403"
     sodipodi:nodetypes="ccccc" />
  <g
     transform="matrix(0.3017934,0,0,0.2824952,8.7168665,4.0446579)"
     style="fill:#888888;stroke-width:1.99897"
     id="g3607">
    <path
       d="M 11.819189,39.263202 H 8.3848901 v -8.331447 c 0,-1.463815 -0.2053799,-1.997609 -0.5638258,-2.563373 -0.349727,-0.57642 -1.1974033,-0.958116 -2.1099873,-0.958116 -0.6917038,0 -1.2942805,0.222818 -1.6110693,0.449511 -0.3603835,0.257693 -0.562857,0.546387 -0.7895499,0.990085 -0.2266928,0.443698 -0.3875091,0.991055 -0.4814801,1.643039 -0.093971,0.651984 -0.1685664,1.52388 -0.1685664,2.237866 v 6.532435 H -0.7748573 V 17.222651 h 3.4352686 v 9.148122 c 0.4630734,-0.82152 1.1082761,-1.411502 1.8261368,-1.770917 0.7178607,-0.368134 1.5374425,-0.5367 2.4432452,-0.5367 0.7837372,0 1.2758738,0.09785 1.9094513,0.324539 0.6422964,0.217005 1.1896524,0.561888 1.6430384,1.03368 0.453385,0.471793 0.803112,1.076307 1.048212,1.813543 0.245099,0.727549 0.289663,1.600413 0.289663,2.620531 z"
       id="path3605"
       style="stroke-width:1.99896" />
  </g>
  <path
     id="rect1032"
     style="display:inline;opacity:1;fill:none;fill-rule:evenodd;stroke:#000000;stroke-width:0.3;stop-color:#000000;stop-opacity:1"
     inkscape:label="rect1032"
     d="m 2.1236119,0.15453106 7.462567,6.1831e-4 4.3918771,4.26370633 V 15.880212 L 2.1236119,15.846586 Z"
     sodipodi:nodetypes="cccccc" />
</svg>
