<?xml version="1.0" encoding="UTF-8" standalone="no"?>
<svg
   width="30.398mm"
   height="30.399mm"
   version="1.1"
   viewBox="0 0 30.398 30.399"
   id="svg147"
   sodipodi:docname="htop.svg"
   inkscape:export-filename="htop.png"
   inkscape:export-xdpi="40.637875"
   inkscape:export-ydpi="40.637875"
   inkscape:version="1.2.2 (b0a8486541, 2022-12-01)"
   xmlns:inkscape="http://www.inkscape.org/namespaces/inkscape"
   xmlns:sodipodi="http://sodipodi.sourceforge.net/DTD/sodipodi-0.dtd"
   xmlns:xlink="http://www.w3.org/1999/xlink"
   xmlns="http://www.w3.org/2000/svg"
   xmlns:svg="http://www.w3.org/2000/svg">
  <sodipodi:namedview
     id="namedview149"
     pagecolor="#ffffff"
     bordercolor="#999999"
     borderopacity="1"
     inkscape:showpageshadow="0"
     inkscape:pageopacity="0"
     inkscape:pagecheckerboard="0"
     inkscape:deskcolor="#d1d1d1"
     inkscape:document-units="mm"
     showgrid="false"
     inkscape:zoom="9.6697945"
     inkscape:cx="41.365926"
     inkscape:cy="57.395222"
     inkscape:window-width="2560"
     inkscape:window-height="1358"
     inkscape:window-x="0"
     inkscape:window-y="28"
     inkscape:window-maximized="1"
     inkscape:current-layer="svg147" />
  <defs
     id="defs87">
    <linearGradient
       id="aj"
       x1="42.304"
       x2="42.245"
       y1="57.522"
       y2="50.607"
       gradientTransform="translate(41.404 221.45)"
       gradientUnits="userSpaceOnUse"
       xlink:href="#c" />
    <linearGradient
       id="c">
      <stop
         stop-color="#363d36"
         offset="0"
         id="stop3" />
      <stop
         stop-color="#565d56"
         offset=".2"
         id="stop5" />
      <stop
         stop-color="#6c766c"
         offset=".8"
         id="stop7" />
      <stop
         stop-color="#8c968c"
         offset="1"
         id="stop9" />
    </linearGradient>
    <filter
       id="f"
       x="-0.06396258"
       y="-0.025050849"
       width="1.1279252"
       height="1.0501017"
       color-interpolation-filters="sRGB">
      <feGaussianBlur
         stdDeviation="0.072789412"
         id="feGaussianBlur12" />
    </filter>
    <linearGradient
       id="ai"
       x1="44.761"
       x2="44.761"
       y1="50.493"
       y2="57.517"
       gradientTransform="translate(41.508 221.43)"
       gradientUnits="userSpaceOnUse"
       xlink:href="#a" />
    <linearGradient
       id="a">
      <stop
         stop-color="#8bf18b"
         offset="0"
         id="stop16" />
      <stop
         stop-color="#5bc15b"
         offset=".2"
         id="stop18" />
      <stop
         stop-color="#47a347"
         offset=".8"
         id="stop20" />
      <stop
         stop-color="#177317"
         offset="1"
         id="stop22" />
    </linearGradient>
    <filter
       id="l"
       x="-0.08927814"
       y="-0.022545396"
       width="1.1785563"
       height="1.0450908"
       color-interpolation-filters="sRGB">
      <feGaussianBlur
         stdDeviation="0.065909587"
         id="feGaussianBlur25" />
    </filter>
    <linearGradient
       id="d"
       x1="42.304"
       x2="42.245"
       y1="57.522"
       y2="50.607"
       gradientTransform="translate(24.234,-9.2667)"
       gradientUnits="userSpaceOnUse"
       xlink:href="#c" />
    <filter
       id="e"
       x="-0.063963048"
       y="-0.025049412"
       width="1.1279261"
       height="1.0500988"
       color-interpolation-filters="sRGB">
      <feGaussianBlur
         stdDeviation="0.072789412"
         id="feGaussianBlur29" />
    </filter>
    <linearGradient
       id="ah"
       x1="44.761"
       x2="44.761"
       y1="50.493"
       y2="57.517"
       gradientTransform="translate(44.242 221.43)"
       gradientUnits="userSpaceOnUse"
       xlink:href="#a" />
    <filter
       id="k"
       x="-0.08927814"
       y="-0.022545396"
       width="1.1785563"
       height="1.0450908"
       color-interpolation-filters="sRGB">
      <feGaussianBlur
         stdDeviation="0.065909587"
         id="feGaussianBlur33" />
    </filter>
    <linearGradient
       id="ag"
       x1="44.761"
       x2="44.761"
       y1="50.493"
       y2="57.517"
       gradientTransform="translate(46.976 221.43)"
       gradientUnits="userSpaceOnUse"
       xlink:href="#a" />
    <filter
       id="j"
       x="-0.08927814"
       y="-0.022545396"
       width="1.1785563"
       height="1.0450908"
       color-interpolation-filters="sRGB">
      <feGaussianBlur
         stdDeviation="0.065909587"
         id="feGaussianBlur37" />
    </filter>
    <linearGradient
       id="af"
       x1="44.761"
       x2="44.761"
       y1="50.493"
       y2="57.517"
       gradientTransform="translate(49.709 221.43)"
       gradientUnits="userSpaceOnUse"
       xlink:href="#a" />
    <filter
       id="am"
       x="-0.08927814"
       y="-0.022545396"
       width="1.1785563"
       height="1.0450908"
       color-interpolation-filters="sRGB">
      <feGaussianBlur
         stdDeviation="0.065909587"
         id="feGaussianBlur41" />
    </filter>
    <linearGradient
       id="ae"
       x1="44.761"
       x2="44.761"
       y1="50.493"
       y2="57.517"
       gradientTransform="translate(52.443 221.43)"
       gradientUnits="userSpaceOnUse"
       xlink:href="#a" />
    <filter
       id="al"
       x="-0.08927814"
       y="-0.022545396"
       width="1.1785563"
       height="1.0450908"
       color-interpolation-filters="sRGB">
      <feGaussianBlur
         stdDeviation="0.065909587"
         id="feGaussianBlur45" />
    </filter>
    <linearGradient
       id="ad"
       x1="44.761"
       x2="44.761"
       y1="50.493"
       y2="57.517"
       gradientTransform="translate(55.177 221.43)"
       gradientUnits="userSpaceOnUse"
       xlink:href="#a" />
    <filter
       id="ak"
       x="-0.08927814"
       y="-0.022545396"
       width="1.1785563"
       height="1.0450908"
       color-interpolation-filters="sRGB">
      <feGaussianBlur
         stdDeviation="0.065909587"
         id="feGaussianBlur49" />
    </filter>
    <linearGradient
       id="ac"
       x1="44.761"
       x2="44.761"
       y1="50.493"
       y2="57.517"
       gradientTransform="translate(57.91 221.43)"
       gradientUnits="userSpaceOnUse"
       xlink:href="#a" />
    <filter
       id="i"
       x="-0.08927814"
       y="-0.022545396"
       width="1.1785563"
       height="1.0450908"
       color-interpolation-filters="sRGB">
      <feGaussianBlur
         stdDeviation="0.065909587"
         id="feGaussianBlur53" />
    </filter>
    <linearGradient
       id="ab"
       x1="44.761"
       x2="44.761"
       y1="50.493"
       y2="57.517"
       gradientTransform="translate(60.644 221.43)"
       gradientUnits="userSpaceOnUse"
       xlink:href="#b" />
    <linearGradient
       id="b">
      <stop
         stop-color="#fe7f7f"
         offset="0"
         id="stop57" />
      <stop
         stop-color="#ce4f4f"
         offset=".2"
         id="stop59" />
      <stop
         stop-color="#b23030"
         offset=".8"
         id="stop61" />
      <stop
         stop-color="#920000"
         offset="1"
         id="stop63" />
    </linearGradient>
    <filter
       id="h"
       x="-0.08927814"
       y="-0.022545396"
       width="1.1785563"
       height="1.0450908"
       color-interpolation-filters="sRGB">
      <feGaussianBlur
         stdDeviation="0.065909587"
         id="feGaussianBlur66" />
    </filter>
    <linearGradient
       id="aa"
       x1="44.761"
       x2="44.761"
       y1="50.493"
       y2="57.517"
       gradientTransform="translate(63.376 221.43)"
       gradientUnits="userSpaceOnUse"
       xlink:href="#b" />
    <filter
       id="g"
       x="-0.08927814"
       y="-0.022545396"
       width="1.1785563"
       height="1.0450908"
       color-interpolation-filters="sRGB">
      <feGaussianBlur
         stdDeviation="0.065909587"
         id="feGaussianBlur70" />
    </filter>
    <linearGradient
       id="z"
       x1="42.304"
       x2="42.245"
       y1="57.522"
       y2="50.607"
       gradientTransform="translate(41.404 210.02)"
       gradientUnits="userSpaceOnUse"
       xlink:href="#c" />
    <linearGradient
       id="y"
       x1="44.761"
       x2="44.761"
       y1="50.493"
       y2="57.517"
       gradientTransform="translate(41.508 210)"
       gradientUnits="userSpaceOnUse"
       xlink:href="#a" />
    <linearGradient
       id="x"
       x1="44.761"
       x2="44.761"
       y1="50.493"
       y2="57.517"
       gradientTransform="translate(44.242 210)"
       gradientUnits="userSpaceOnUse"
       xlink:href="#a" />
    <linearGradient
       id="w"
       x1="44.761"
       x2="44.761"
       y1="50.493"
       y2="57.517"
       gradientTransform="translate(46.976 210)"
       gradientUnits="userSpaceOnUse"
       xlink:href="#a" />
    <linearGradient
       id="v"
       x1="44.761"
       x2="44.761"
       y1="50.493"
       y2="57.517"
       gradientTransform="translate(57.91 210)"
       gradientUnits="userSpaceOnUse"
       xlink:href="#a" />
    <linearGradient
       id="u"
       x1="44.761"
       x2="44.761"
       y1="50.493"
       y2="57.517"
       gradientTransform="translate(63.376 210)"
       gradientUnits="userSpaceOnUse"
       xlink:href="#b" />
    <linearGradient
       id="t"
       x1="42.304"
       x2="42.245"
       y1="57.522"
       y2="50.607"
       gradientTransform="translate(41.404 232.87)"
       gradientUnits="userSpaceOnUse"
       xlink:href="#c" />
    <linearGradient
       id="s"
       x1="44.761"
       x2="44.761"
       y1="50.493"
       y2="57.517"
       gradientTransform="translate(41.508 232.85)"
       gradientUnits="userSpaceOnUse"
       xlink:href="#a" />
    <linearGradient
       id="r"
       x1="44.761"
       x2="44.761"
       y1="50.493"
       y2="57.517"
       gradientTransform="translate(44.242 232.85)"
       gradientUnits="userSpaceOnUse"
       xlink:href="#a" />
    <linearGradient
       id="q"
       x1="44.761"
       x2="44.761"
       y1="50.493"
       y2="57.517"
       gradientTransform="translate(46.976 232.85)"
       gradientUnits="userSpaceOnUse"
       xlink:href="#a" />
    <linearGradient
       id="p"
       x1="44.761"
       x2="44.761"
       y1="50.493"
       y2="57.517"
       gradientTransform="translate(60.644 232.85)"
       gradientUnits="userSpaceOnUse"
       xlink:href="#b" />
    <linearGradient
       id="o"
       x1="44.761"
       x2="44.761"
       y1="50.493"
       y2="57.517"
       gradientTransform="translate(63.376 232.85)"
       gradientUnits="userSpaceOnUse"
       xlink:href="#b" />
    <linearGradient
       id="n"
       x1="44.761"
       x2="44.761"
       y1="50.493"
       y2="57.517"
       gradientTransform="translate(57.91 232.85)"
       gradientUnits="userSpaceOnUse"
       xlink:href="#b" />
    <linearGradient
       id="m"
       x1="44.761"
       x2="44.761"
       y1="50.493"
       y2="57.517"
       gradientTransform="translate(60.644 210)"
       gradientUnits="userSpaceOnUse"
       xlink:href="#a" />
  </defs>
  <g
     transform="translate(.08011 -.58599)"
     id="g145">
    <g
       transform="matrix(.98769 0 0 .99741 -80.905 -258.93)"
       fill-rule="evenodd"
       id="g143">
      <path
         transform="matrix(.99856 0 0 1.2772 .14037 -76.353)"
         d="m82.188 271.97 0.0251 6.963 2.7061-8e-3v-1.2194h-1.0357v-4.602h1.019v-1.1442z"
         fill="url(#aj)"
         filter="url(#f)"
         id="path89" />
      <path
         transform="matrix(.99856 0 0 1.2772 .14037 -76.353)"
         d="m85.401 271.95v7.0132h1.7718v-7.0162h-1.7718z"
         fill="url(#ai)"
         filter="url(#l)"
         id="path91" />
      <path
         transform="matrix(-.99856 0 0 1.2772 177.16 218.32)"
         d="m65.017 41.255 0.02508 6.963 2.7061-0.0084v-1.2194h-1.0357v-4.602h1.019v-1.1442z"
         fill="url(#d)"
         filter="url(#e)"
         id="path93" />
      <path
         transform="matrix(.99856 0 0 1.2772 .14037 -76.353)"
         d="m88.135 271.95v7.0132h1.7718v-7.0162h-1.7718z"
         fill="url(#ah)"
         filter="url(#k)"
         id="path95" />
      <path
         transform="matrix(.99856 0 0 1.2772 .14037 -76.353)"
         d="m90.868 271.95v7.0132h1.7718v-7.0162h-1.7718z"
         fill="url(#ag)"
         filter="url(#j)"
         id="path97" />
      <path
         transform="matrix(.99856 0 0 1.2772 .14037 -76.353)"
         d="m93.602 271.95v7.0132h1.7718v-7.0162h-1.7718z"
         fill="url(#af)"
         filter="url(#am)"
         id="path99" />
      <path
         transform="matrix(.99856 0 0 1.2772 .14037 -76.353)"
         d="m96.335 271.95v7.0132h1.7718v-7.0162h-1.7718z"
         fill="url(#ae)"
         filter="url(#al)"
         id="path101" />
      <path
         transform="matrix(.99856 0 0 1.2772 .14037 -76.353)"
         d="m99.069 271.95v7.0132h1.7718v-7.0162h-1.7718z"
         fill="url(#ad)"
         filter="url(#ak)"
         id="path103" />
      <path
         transform="matrix(.99856 0 0 1.2772 .14037 -76.353)"
         d="m101.8 271.95v7.0132h1.7718v-7.0162h-1.7718z"
         fill="url(#ac)"
         filter="url(#i)"
         id="path105" />
      <path
         transform="matrix(.99856 0 0 1.2772 .14037 -76.353)"
         d="m104.54 271.95v7.0132h1.7718v-7.0162h-1.7718z"
         fill="url(#ab)"
         filter="url(#h)"
         id="path107" />
      <path
         transform="matrix(.99856 0 0 1.2772 .14037 -76.353)"
         d="m107.27 271.95v7.0132h1.7718v-7.0162h-1.7718z"
         fill="url(#aa)"
         filter="url(#g)"
         id="path109" />
      <path
         transform="matrix(.99856 0 0 1.2772 .14037 -72.134)"
         d="m82.188 260.54 0.0251 6.963 2.7061-8e-3v-1.2194h-1.0357v-4.602h1.019v-1.1442z"
         fill="url(#z)"
         filter="url(#f)"
         id="path111" />
      <path
         transform="matrix(.99856 0 0 1.2772 .14037 -72.134)"
         d="m85.401 260.52v7.0132h1.7718v-7.0162h-1.7718z"
         fill="url(#y)"
         filter="url(#l)"
         id="path113" />
      <path
         transform="matrix(-.99856 0 0 1.2772 177.16 207.94)"
         d="m65.017 41.255 0.02508 6.963 2.7061-0.0084v-1.2194h-1.0357v-4.602h1.019v-1.1442z"
         fill="url(#d)"
         filter="url(#e)"
         id="path115" />
      <path
         transform="matrix(.99856 0 0 1.2772 .14037 -72.134)"
         d="m88.135 260.52v7.0132h1.7718v-7.0162h-1.7718z"
         fill="url(#x)"
         filter="url(#k)"
         id="path117" />
      <path
         transform="matrix(.99856 0 0 1.2772 .14037 -72.134)"
         d="m90.868 260.52v7.0132h1.7718v-7.0162h-1.7718z"
         fill="url(#w)"
         filter="url(#j)"
         id="path119" />
      <path
         transform="matrix(.99856 0 0 1.2772 .14037 -72.134)"
         d="m101.8 260.52v7.0132h1.7718v-7.0162h-1.7718z"
         fill="url(#v)"
         filter="url(#i)"
         id="path121" />
      <path
         transform="matrix(.99856 0 0 1.2772 .14037 -72.134)"
         d="m107.27 260.52v7.0132h1.7718v-7.0162h-1.7718z"
         fill="url(#u)"
         filter="url(#g)"
         id="path123" />
      <path
         transform="matrix(.99856 0 0 1.2772 .14037 -80.616)"
         d="m82.188 283.39 0.0251 6.963 2.7061-8e-3v-1.2194h-1.0357v-4.602h1.019v-1.1442z"
         fill="url(#t)"
         filter="url(#f)"
         id="path125" />
      <path
         transform="matrix(.99856 0 0 1.2772 .14037 -80.616)"
         d="m85.401 283.37v7.0132h1.7718v-7.0162h-1.7718z"
         fill="url(#s)"
         filter="url(#l)"
         id="path127" />
      <path
         transform="matrix(-.99856 0 0 1.2772 177.16 228.65)"
         d="m65.017 41.255 0.02508 6.963 2.7061-0.0084v-1.2194h-1.0357v-4.602h1.019v-1.1442z"
         fill="url(#d)"
         filter="url(#e)"
         id="path129" />
      <path
         transform="matrix(.99856 0 0 1.2772 .14037 -80.616)"
         d="m88.135 283.37v7.0132h1.7718v-7.0162h-1.7718z"
         fill="url(#r)"
         filter="url(#k)"
         id="path131" />
      <path
         transform="matrix(.99856 0 0 1.2772 .14037 -80.616)"
         d="m90.868 283.37v7.0132h1.7718v-7.0162h-1.7718z"
         fill="url(#q)"
         filter="url(#j)"
         id="path133" />
      <path
         transform="matrix(.99856 0 0 1.2772 .14037 -80.616)"
         d="m104.54 283.37v7.0132h1.7718v-7.0162h-1.7718z"
         fill="url(#p)"
         filter="url(#h)"
         id="path135" />
      <path
         transform="matrix(.99856 0 0 1.2772 .14037 -80.616)"
         d="m107.27 283.37v7.0132h1.7718v-7.0162h-1.7718z"
         fill="url(#o)"
         filter="url(#g)"
         id="path137" />
      <path
         transform="matrix(.99856 0 0 1.2772 .14037 -80.616)"
         d="m101.8 283.37v7.0132h1.7718v-7.0162h-1.7718z"
         fill="url(#n)"
         filter="url(#h)"
         id="path139" />
      <path
         transform="matrix(.99856 0 0 1.2772 .14037 -72.134)"
         d="m104.54 260.52v7.0132h1.7718v-7.0162h-1.7718z"
         fill="url(#m)"
         filter="url(#i)"
         id="path141" />
    </g>
  </g>
</svg>
