<?xml version="1.0" encoding="UTF-8" standalone="no"?>
<!-- Created with Inkscape (http://www.inkscape.org/) -->

<svg
   version="1.1"
   id="svg2726"
   width="64.00383"
   height="64"
   viewBox="-1 0 64.00383 64"
   sodipodi:docname="markdown_doc.svg"
   inkscape:version="1.2.2 (b0a8486541, 2022-12-01)"
   xmlns:inkscape="http://www.inkscape.org/namespaces/inkscape"
   xmlns:sodipodi="http://sodipodi.sourceforge.net/DTD/sodipodi-0.dtd"
   xmlns="http://www.w3.org/2000/svg"
   xmlns:svg="http://www.w3.org/2000/svg">
  <defs
     id="defs2730" />
  <sodipodi:namedview
     id="namedview2728"
     pagecolor="#ffffff"
     bordercolor="#999999"
     borderopacity="1"
     inkscape:showpageshadow="true"
     inkscape:pageopacity="0"
     inkscape:pagecheckerboard="false"
     inkscape:deskcolor="#d1d1d1"
     showgrid="false"
     inkscape:zoom="12.120099"
     inkscape:cx="5.4042465"
     inkscape:cy="30.527805"
     inkscape:window-width="2560"
     inkscape:window-height="1358"
     inkscape:window-x="0"
     inkscape:window-y="28"
     inkscape:window-maximized="1"
     inkscape:current-layer="g2732"
     showguides="false"
     borderlayer="true"
     showborder="true">
    <inkscape:grid
       type="xygrid"
       id="grid2100"
       units="px"
       snapvisiblegridlinesonly="false"
       dotted="false"
       originx="31.996066"
       originy="31.976223"
       empcolor="#f109e5"
       empopacity="0.30196078" />
  </sodipodi:namedview>
  <g
     inkscape:groupmode="layer"
     inkscape:label="Image"
     id="g2732"
     style="display:inline"
     transform="translate(7.9960658,7.976223)">
    <g
       id="g5907"
       style="display:inline;image-rendering:optimizeSpeed"
       transform="matrix(1.3349649,0,0,1.3316443,-7.7061515,-7.9673477)">
      <g
         id="g5897">
        <path
           id="path2274"
           style="display:inline;fill:#e7e7ff;fill-opacity:1;stroke-width:1.33834"
           d="M 4.5336965,8.5956617 12.518576,0.58344493 41.21066,0.56105957 41.310441,47.359037 4.7050551,47.364097 Z"
           sodipodi:nodetypes="cccccc" />
        <path
           style="display:inline;fill:#000000;fill-opacity:1"
           d="M 4.0033767,48.000123 C 3.9673806,34.488739 3.9896263,21.573652 3.9949851,8.0622238 6.5230938,5.5935922 9.5665186,2.4913252 12.094627,0.02269321 L 25.669718,0 c 7.739577,-0.0129381 16.328272,-0.00305422 16.328272,-0.00305422 0,0 -0.03658,31.85703722 0.02509,48.01400622 -19.999029,0.06146 -20.057,0.05088 -38.0153392,0.0091 z M 40.981445,1.0564306 c -5.053968,0.04342 -22.740051,0.00384 -27.972252,-0.0591597 L 13,9 l 4.5e-5,0.00151 -7.9737886,0.020468 c 0,0 -0.00665,37.400388 0.00112,37.9842 35.1754836,-0.0033 0.227978,-0.04013 35.9336116,-0.0092 0.01861,-15.497889 0.0565,-30.670328 0.02045,-45.9405934 z"
           id="path2855"
           sodipodi:nodetypes="cccsccccccccccccc" />
        <path
           id="path2115"
           style="display:inline;fill:#e7e7ff;fill-opacity:1"
           inkscape:transform-center-x="-0.046642038"
           inkscape:transform-center-y="-1.4885397"
           d="M 12.27092,8.1834884 5.1666106,8.1563601 12.281357,1.1849755 Z"
           sodipodi:nodetypes="cccc"
           sodipodi:insensitive="true" />
      </g>
      <g
         id="g2975"
         transform="translate(0.01072897,-2.1468539)">
        <rect
           style="font-variation-settings:normal;display:inline;vector-effect:none;fill:#ffffff;fill-opacity:1;fill-rule:evenodd;stroke:none;stroke-width:3.43571;stroke-linecap:butt;stroke-linejoin:miter;stroke-miterlimit:4;stroke-dasharray:none;stroke-dashoffset:0;stroke-opacity:1;-inkscape-stroke:none;stop-color:#000000"
           id="rect286"
           width="26.039839"
           height="44.869411"
           x="15.917077"
           y="-45.40984"
           transform="rotate(90)" />
        <rect
           width="45.639194"
           height="27.199114"
           x="0.1755227"
           y="15.249081"
           ry="2.3050096"
           stroke="#000000"
           stroke-width="2.30501"
           fill="none"
           id="rect530"
           style="display:inline" />
        <path
           d="M 5.9380457,36.685672 V 21.011606 h 4.6100193 l 4.610019,5.762524 4.61002,-5.762524 h 4.610018 v 15.674066 h -4.610018 v -8.989538 l -4.61002,5.762525 -4.610019,-5.762525 v 8.989538 z m 28.8126203,0 -6.91503,-7.606532 h 4.61002 v -8.067534 h 4.610019 v 8.067534 h 4.61002 z"
           id="path532"
           style="display:inline;stroke-width:0.230501"
           sodipodi:insensitive="true" />
      </g>
    </g>
  </g>
</svg>
