<?xml version="1.0" encoding="UTF-8" standalone="no"?>
<svg
   width="22"
   height="22"
   viewBox="0 0 16.5 16.5"
   version="1.1"
   id="svg14"
   sodipodi:docname="drive-removable-media-usb.svg"
   inkscape:version="1.2.2 (b0a8486541, 2022-12-01)"
   xmlns:inkscape="http://www.inkscape.org/namespaces/inkscape"
   xmlns:sodipodi="http://sodipodi.sourceforge.net/DTD/sodipodi-0.dtd"
   xmlns="http://www.w3.org/2000/svg"
   xmlns:svg="http://www.w3.org/2000/svg">
  <defs
     id="defs18" />
  <sodipodi:namedview
     id="namedview16"
     pagecolor="#ffffff"
     bordercolor="#999999"
     borderopacity="1"
     inkscape:showpageshadow="0"
     inkscape:pageopacity="0"
     inkscape:pagecheckerboard="0"
     inkscape:deskcolor="#d1d1d1"
     showgrid="false"
     inkscape:zoom="11.313708"
     inkscape:cx="6.850097"
     inkscape:cy="13.214058"
     inkscape:window-width="2051"
     inkscape:window-height="1326"
     inkscape:window-x="164"
     inkscape:window-y="35"
     inkscape:window-maximized="0"
     inkscape:current-layer="svg14" />
  <path
     d="m 8.2499992,16.373017 c 3.8990498,0 3.8990498,-3.899048 3.8990498,-3.899048 V 4.6758716 c 0,-1.2996818 -1.299684,-1.2996818 -1.299684,-1.2996818 H 5.6506328 c 0,0 -1.2996818,0 -1.2996818,1.2996818 v 7.7980974 c 0,0 0,3.899048 3.8990482,3.899048 z"
     style="fill:#3596eb;fill-opacity:1;fill-rule:nonzero;stroke:#000000;stroke-width:0.253843;stroke-dasharray:none;stroke-opacity:1"
     id="path2" />
  <path
     d="M 5.6506328,3.3761898 H 10.849365 V 0.12698269 H 5.6506328 Z"
     style="fill:#b0bcc1;fill-opacity:1;fill-rule:nonzero;stroke:#000000;stroke-width:0.253843;stroke-dasharray:none;stroke-opacity:1"
     id="path6" />
  <path
     d="M 8.2499992,3.2336666 H 10.199525 V 0.2610254 H 8.2499992 Z"
     style="fill:#ffffff;fill-opacity:0.31;fill-rule:nonzero;stroke:none;stroke-width:0.414377"
     id="path8" />
  <path
     d="M 6.3004769,2.0765071 H 7.6001587 V 0.7768245 H 6.3004769 Z"
     style="fill:#05353f;fill-opacity:0.655;fill-rule:nonzero;stroke:none;stroke-width:0.433225"
     id="path10" />
  <path
     d="M 8.8998405,2.0765071 H 10.199525 V 0.7768245 H 8.8998405 Z"
     style="fill:#05353f;fill-opacity:0.655;fill-rule:nonzero;stroke:none;stroke-width:0.433225"
     id="path12" />
  <g
     id="g3136"
     transform="matrix(0,-0.02756059,0.02932032,0,6.4685172,15.147918)">
    <path
       fill-rule="evenodd"
       clip-rule="evenodd"
       fill="#005699"
       d="m 305.7998,125.80957 4.06055,-18.47656 h 23.95899 c 0.0176,0 0.0312,0 0.0469,0 h -0.0469 0.0469 c 10.30664,0.0742 20.11524,-2.42969 27.13867,-8.21094 6.37696,-5.246093 10.33203,-12.914062 10.23828,-23.40625 0.18164,-4.847656 -1.36328,-9.652343 -4.18554,-13.485351 -0.42188,-0.574219 -0.875,-1.12793 -1.35352,-1.655274 1.32031,-1.082031 2.50195,-2.296875 3.53711,-3.647461 3.17578,-4.141601 4.84375,-9.357421 4.93164,-15.52832 v -0.136719 c -0.0918,-7.327148 -2.37109,-13.054687 -7.60742,-17.124023 -4.71094,-3.661133 -11.62109,-5.579102 -21.34375,-5.660156 H 329.38574 L 333.44824,0 H 204.84473 c -43.98536,0 -79.31348,27.647461 -81.82618,67.864258 -2.79296,47.054692 30.71973,57.945312 68.28125,57.945312 z"
       id="path3108"
       inkscape:label="****************"
       style="fill:#f6000a;fill-opacity:1" />
    <path
       fill-rule="evenodd"
       clip-rule="evenodd"
       fill="#ffffff"
       d="m 229.28027,23.876953 h -23.8789 l -8.93555,42.307617 c -1.53516,8.800782 -4.60742,17.734375 -14.52148,17.457032 -9.63575,0.277343 -8.93653,-7.542969 -8.93653,-9.914063 0,-1.257812 0.69727,-5.167969 1.11621,-7.542969 l 8.79688,-42.307617 h -23.73731 l -10.333,49.432617 c -0.2793,1.675782 -0.83789,4.746094 -0.83789,6.140625 0,12.429688 9.63476,23.601565 32.81445,23.878905 19.4082,-0.27734 33.79101,-8.796873 37.70117,-28.20703 z m 64.0918,23.87793 c 0.41992,-18.990235 -14.38281,-25.133789 -30.99805,-25.274414 -15.5,0.140625 -32.25586,8.099609 -32.39648,25.693359 0.14062,12.707031 9.2168,17.733398 18.57226,20.944336 10.75196,3.492187 18.57032,4.191406 18.43165,9.914062 0.13867,5.027344 -5.58594,7.402344 -10.33399,7.542969 -3.76953,-0.140625 -6.5625,-0.421875 -8.51758,-2.097656 -2.09375,-1.953125 -3.07226,-4.605469 -3.21093,-8.9375 h -22.75977 c -1.11719,19.832031 14.93945,27.929691 32.67383,28.066411 16.75586,-0.13672 34.9082,-8.79688 34.9082,-27.367192 0,-9.355469 -4.60742,-16.615235 -18.15234,-21.363282 -7.40039,-2.791992 -18.99024,-3.072265 -19.12891,-8.936523 0.13867,-5.026367 5.30469,-6.283203 9.21484,-6.422852 2.79297,0.139649 5.30665,0.558594 7.1211,1.81543 1.67578,1.396485 2.6543,3.350586 2.51367,6.422852 z m -4.04883,53.757817 16.0586,-77.216802 h 39.79492 c 16.75586,0.139649 23.03906,6.004883 23.17969,17.036133 -0.14063,9.774414 -5.02735,16.197266 -14.24415,18.571289 v 0.279297 c 6.98243,1.535156 11.58985,8.376953 11.31055,15.357422 0.2793,18.710938 -14.66015,26.113281 -31.55664,25.972661 z m 29.1836,-33.093755 -3.21289,14.523438 h 15.36132 c 4.32813,0 10.05274,-1.535156 10.33203,-7.820313 -0.13867,-5.722656 -4.46875,-6.5625 -9.35546,-6.703125 z m 5.30468,-25.970703 -2.51172,11.729492 h 13.54297 c 3.77149,0 8.51758,-1.536132 8.51758,-6.143554 0,-4.748047 -3.07031,-5.585938 -7.40039,-5.585938 z"
       id="path3110" />
    <polygon
       fill-rule="evenodd"
       clip-rule="evenodd"
       fill="#005699"
       points="139.49512,42.448242 8.9365234,42.448242 0,82.942383 139.49512,82.942383 "
       id="polygon3112"
       inkscape:label="polygon3112***********"
       style="fill:#f6000a;fill-opacity:1" />
    <path
       fill-rule="evenodd"
       clip-rule="evenodd"
       fill="#ffffff"
       d="m 13.824219,62.696289 c 0.977539,-4.189453 1.81543,-8.239258 7.401367,-8.239258 3.350586,0 4.328125,1.81543 3.490234,5.306641 h -3.351562 c 0.558594,-2.234375 0.279297,-2.932617 -0.698242,-2.932617 -1.955078,0 -2.512696,1.815429 -3.350586,5.865234 -0.977539,4.046875 -1.117188,5.863281 0.83789,5.863281 1.535157,0 1.954102,-1.953125 2.234375,-3.210937 h 3.350586 c -0.977539,4.328125 -2.93164,5.585937 -6.143554,5.585937 -5.446289,0 -4.608399,-4.050781 -3.770508,-8.238281 z"
       id="path3114" />
    <polygon
       fill-rule="evenodd"
       clip-rule="evenodd"
       fill="#ffffff"
       points="36.026367,70.793945 27.089844,70.793945 30.581055,54.59668 39.376953,54.59668 38.818359,57.110352 33.373047,57.110352 32.535156,61.15918 37.5625,61.15918 37.00293,63.533203 31.976562,63.533203 30.999023,68.282227 36.583984,68.282227 "
       id="polygon3116" />
    <path
       fill-rule="evenodd"
       clip-rule="evenodd"
       fill="#ffffff"
       d="m 46.917969,57.110352 h 1.396484 c 1.116211,0 1.674805,0.558593 1.396485,2.094726 -0.280274,1.116211 -0.978516,2.373047 -2.234375,2.373047 H 45.94043 Z m -1.536133,6.981445 h 0.83789 c 2.653321,0 2.094727,1.538086 1.675782,3.491211 -0.140625,1.117187 -0.559571,2.234375 -0.279297,3.210937 h 3.350586 c -0.279297,-0.699218 0.418945,-3.769531 0.558594,-4.746093 0.698242,-2.933594 -1.536133,-3.073243 -2.233399,-3.211915 v 0 c 2.233399,-0.419921 3.350586,-1.955078 3.90918,-3.910156 C 53.759766,56.132812 52.50293,54.59668 50.268555,54.59668 H 44.125 l -3.491211,16.197265 h 3.351563 z"
       id="path3118" />
    <polygon
       fill-rule="evenodd"
       clip-rule="evenodd"
       fill="#ffffff"
       points="57.669922,54.59668 68.560547,54.59668 68.00293,57.389648 64.232422,57.389648 61.299805,70.793945 57.948242,70.793945 60.880859,57.389648 57.110352,57.389648 "
       id="polygon3120" />
    <polygon
       fill-rule="evenodd"
       clip-rule="evenodd"
       fill="#ffffff"
       points="72.470703,70.793945 69.119141,70.793945 72.470703,54.59668 75.822266,54.59668 "
       id="polygon3122" />
    <polygon
       fill-rule="evenodd"
       clip-rule="evenodd"
       fill="#ffffff"
       points="87.271484,63.673828 82.524414,63.673828 80.988281,70.793945 77.636719,70.793945 81.12793,54.59668 89.366211,54.59668 88.947266,57.110352 83.920898,57.110352 83.083008,61.299805 87.830078,61.299805 "
       id="polygon3124" />
    <polygon
       fill-rule="evenodd"
       clip-rule="evenodd"
       fill="#ffffff"
       points="93.416016,70.793945 90.064453,70.793945 93.416016,54.59668 96.907227,54.59668 "
       id="polygon3126" />
    <polygon
       fill-rule="evenodd"
       clip-rule="evenodd"
       fill="#ffffff"
       points="107.6582,70.793945 98.72168,70.793945 102.07324,54.59668 110.87012,54.59668 110.31152,57.110352 105.00586,57.110352 104.16699,61.15918 109.05469,61.15918 108.63574,63.533203 103.60938,63.533203 102.63184,68.282227 108.2168,68.282227 "
       id="polygon3128" />
    <path
       fill-rule="evenodd"
       clip-rule="evenodd"
       fill="#ffffff"
       d="m 118.5498,57.110352 h 1.81543 c 2.23438,0 1.81543,2.65332 1.11719,5.585937 -0.83789,4.046875 -1.53613,5.585938 -3.62988,5.585938 h -1.67676 z m -6.14355,13.683593 h 5.44629 c 5.72461,0 6.5625,-5.722656 7.12109,-8.238281 0.97657,-5.026367 0.83789,-7.958984 -3.63086,-7.958984 h -5.58593 z"
       id="path3130" />
    <polygon
       fill-rule="evenodd"
       clip-rule="evenodd"
       fill="#ffffff"
       points="287.78613,112.54395 293.51074,112.54395 293.09277,113.94238 291.1377,113.94238 289.74121,120.92285 287.92676,120.92285 289.46191,113.94238 287.50684,113.94238 "
       id="polygon3132" />
    <polygon
       fill-rule="evenodd"
       clip-rule="evenodd"
       fill="#ffffff"
       points="297.84082,118.27051 300.49316,112.54395 303.28613,112.54395 301.47168,120.92285 299.7959,120.92285 301.05176,114.50098 298.12012,120.92285 296.44434,120.92285 296.30371,114.50098 296.16504,114.50098 294.90723,120.92285 293.09277,120.92285 294.90723,112.54395 297.7002,112.54395 "
       id="polygon3134" />
  </g>
  <path
     d="M 9.4960281,3.3761898 9.4653781,16.111886 C 10.32979,15.911194 10.942126,15.085694 11.457431,14.82115 L 11.426317,3.6368861"
     style="display:inline;fill:#ffffff;fill-opacity:0.205918;fill-rule:nonzero;stroke:none;stroke-width:0.433225"
     id="path4"
     sodipodi:nodetypes="cccc" />
</svg>
