<?xml version="1.0" encoding="UTF-8" standalone="no"?>
<svg
   viewBox="0 0 22 22"
   version="1.1"
   id="svg8"
   sodipodi:docname="system.svg"
   inkscape:version="1.2.2 (b0a8486541, 2022-12-01)"
   xmlns:inkscape="http://www.inkscape.org/namespaces/inkscape"
   xmlns:sodipodi="http://sodipodi.sourceforge.net/DTD/sodipodi-0.dtd"
   xmlns="http://www.w3.org/2000/svg"
   xmlns:svg="http://www.w3.org/2000/svg">
  <defs
     id="defs12" />
  <sodipodi:namedview
     id="namedview10"
     pagecolor="#ffffff"
     bordercolor="#999999"
     borderopacity="1"
     inkscape:showpageshadow="0"
     inkscape:pageopacity="0"
     inkscape:pagecheckerboard="0"
     inkscape:deskcolor="#d1d1d1"
     showgrid="true"
     inkscape:zoom="3.15625"
     inkscape:cx="2.6930693"
     inkscape:cy="57.50495"
     inkscape:window-width="2492"
     inkscape:window-height="1317"
     inkscape:window-x="1"
     inkscape:window-y="37"
     inkscape:window-maximized="0"
     inkscape:current-layer="svg8">
    <inkscape:grid
       type="xygrid"
       id="grid10799"
       units="px"
       spacingx="11"
       spacingy="11"
       empspacing="2" />
  </sodipodi:namedview>
  <rect
     width="18"
     height="11"
     x="2"
     y="3.5239999"
     style="fill:#ebedf3;fill-opacity:1;stroke:none;stroke-width:1.09545"
     id="rect2" />
  <path
     d="m 13.402189,3.524 -4.7171988,11 H 20.179775 v -11 z"
     style="opacity:0.232;fill:#c3c3c3;fill-opacity:1;stroke:none;stroke-width:1.11008"
     id="path4" />
  <path
     style="fill:none;stroke:#f93404;stroke-width:0.75;stroke-linecap:butt;stroke-linejoin:miter;stroke-dasharray:none;stroke-opacity:1"
     d="m 15.273926,18.771985 c 0.282726,0.02907 0.758271,0.02526 1.460951,0.0056 0.588777,-0.01649 0.921147,-0.07427 1.188899,-0.366675 0.610796,-0.667044 0.311707,-1.923892 -0.676195,-2.157494 -0.985635,-0.233066 -0.764748,-1.842199 -0.764748,-1.842199"
     id="path7151"
     sodipodi:nodetypes="csssc" />
  <path
     d="M 1.6722586,3.046 C 1.3060089,3.077 0.99850908,3.352 1.0010091,3.646 v 10.8 c 0,0.314 0.3574997,0.6 0.7499994,0.6 h 6.7499949 l 0.260498,-0.0025 4.5179856,-1.65e-4 0.221513,0.0026 h 6.749995 c 0.392499,0 0.749999,-0.286 0.749999,-0.6 v -10.8 c 0,-0.314 -0.3575,-0.6 -0.749999,-0.6 H 1.7510085 Z m 0.9924992,1.013 c 0.03125,-0.005 0.0625,-0.005 0.09375,0 H 19.240995 c 0.26125,0 0.5,0.191 0.5,0.4 v 9.206 c 0,0.209 -0.23875,0.4 -0.5,0.4 H 2.7585078 c -0.2612498,0 -0.4999997,-0.191 -0.4999997,-0.4 V 4.459 C 2.2547581,4.272 2.436008,4.094 2.6647578,4.059 Z"
     style="color:#000000;fill:#000000;fill-opacity:1;stroke-width:1;stroke-dasharray:none"
     id="path6"
     sodipodi:nodetypes="ccssccccssssccccsssssscc" />
  <rect
     style="font-variation-settings:normal;opacity:1;fill:#9f9f9f;fill-opacity:1;fill-rule:evenodd;stroke:#9f9f9f;stroke-width:0.75;stroke-linecap:butt;stroke-linejoin:miter;stroke-miterlimit:4;stroke-dasharray:none;stroke-dashoffset:0;stroke-opacity:1;stop-color:#000000;stop-opacity:1"
     id="rect3228"
     width="8.5151711"
     height="3.1372566"
     x="6.7421765"
     y="17.075134" />
</svg>
