<?xml version="1.0" encoding="UTF-8" standalone="no"?>
<svg
   viewBox="0 0 22 22"
   version="1.1"
   id="svg8"
   sodipodi:docname="system.svg"
   inkscape:version="1.2.2 (b0a8486541, 2022-12-01)"
   xmlns:inkscape="http://www.inkscape.org/namespaces/inkscape"
   xmlns:sodipodi="http://sodipodi.sourceforge.net/DTD/sodipodi-0.dtd"
   xmlns="http://www.w3.org/2000/svg"
   xmlns:svg="http://www.w3.org/2000/svg">
  <defs
     id="defs12" />
  <sodipodi:namedview
     id="namedview10"
     pagecolor="#ffffff"
     bordercolor="#999999"
     borderopacity="1"
     inkscape:showpageshadow="0"
     inkscape:pageopacity="0"
     inkscape:pagecheckerboard="0"
     inkscape:deskcolor="#d1d1d1"
     showgrid="true"
     inkscape:zoom="32"
     inkscape:cx="1.9375"
     inkscape:cy="12.6875"
     inkscape:window-width="2492"
     inkscape:window-height="1317"
     inkscape:window-x="60"
     inkscape:window-y="66"
     inkscape:window-maximized="0"
     inkscape:current-layer="svg8">
    <inkscape:grid
       type="xygrid"
       id="grid10799"
       units="px"
       spacingx="11"
       spacingy="11"
       empspacing="2" />
  </sodipodi:namedview>
  <rect
     width="19.48378"
     height="11.827511"
     x="1.2580286"
     y="2.6259706"
     style="fill:#ebedf3;fill-opacity:1;stroke:none;stroke-width:1.1818"
     id="rect2" />
  <path
     d="M 13.600124,2.6259707 8.494077,14.453481 H 20.936402 V 2.6259707 Z"
     style="opacity:0.232;fill:#c3c3c3;fill-opacity:1;stroke:none;stroke-width:1.19757"
     id="path4" />
  <path
     style="fill:none;stroke:#f93404;stroke-width:1.25;stroke-linecap:butt;stroke-linejoin:miter;stroke-dasharray:none;stroke-opacity:1"
     d="m 15.282436,20.060071 c 0.276126,0.03278 0.605647,0.03585 1.318918,0.02269 0.605198,-0.01117 1.120401,-0.0086 1.420652,-0.561111 0.398185,-0.732779 0.177227,-1.489661 -0.575611,-1.921462 -0.779927,-0.447338 -0.585895,-1.357358 -0.62256,-2.333462 -0.01204,-0.320593 -0.01305,-0.478662 -0.01305,-0.478662"
     id="path7151"
     sodipodi:nodetypes="cssssc" />
  <path
     d="M 0.90327083,2.1120116 C 0.50683034,2.1453436 0.17398264,2.4410314 0.17668874,2.7571485 V 14.369613 c 0,0.337622 0.38696918,0.645137 0.81182349,0.645137 H 8.2949238 l 0.2819714,-0.0027 4.8904128,-1.78e-4 0.239773,0.0028 h 7.306412 c 0.424853,0 0.811823,-0.307516 0.811823,-0.645137 V 2.7570786 c 0,-0.3376217 -0.38697,-0.645137 -0.811823,-0.645137 H 0.98851223 Z M 1.9775839,3.2012177 c 0.033826,-0.00538 0.067652,-0.00538 0.1014788,0 H 19.920236 c 0.282786,0 0.541216,0.2053686 0.541216,0.4300913 v 9.898551 c 0,0.224722 -0.25843,0.430091 -0.541216,0.430091 H 2.0790619 c -0.2827852,0 -0.5412157,-0.205369 -0.5412157,-0.430091 V 3.631309 C 1.533787,3.4302413 1.7299778,3.2388507 1.9775839,3.2012177 Z"
     style="color:#000000;fill:#000000;fill-opacity:1;stroke-width:1.07882;stroke-dasharray:none"
     id="path6"
     sodipodi:nodetypes="ccssccccssssccccsssssscc" />
  <rect
     style="font-variation-settings:normal;opacity:1;fill:#9f9f9f;fill-opacity:1;fill-rule:evenodd;stroke:#9f9f9f;stroke-width:0.75;stroke-linecap:butt;stroke-linejoin:miter;stroke-miterlimit:4;stroke-dasharray:none;stroke-dashoffset:0;stroke-opacity:1;stop-color:#000000;stop-opacity:1"
     id="rect3228"
     width="8.5151711"
     height="3.1372566"
     x="6.7421765"
     y="18.448362" />
</svg>
