<?xml version="1.0" encoding="UTF-8" standalone="no"?>
<svg
   height="16"
   width="16"
   version="1.1"
   id="svg122"
   sodipodi:docname="koiourpaint.svg"
   inkscape:version="1.2.2 (b0a8486541, 2022-12-01)"
   xmlns:inkscape="http://www.inkscape.org/namespaces/inkscape"
   xmlns:sodipodi="http://sodipodi.sourceforge.net/DTD/sodipodi-0.dtd"
   xmlns="http://www.w3.org/2000/svg"
   xmlns:svg="http://www.w3.org/2000/svg">
  <defs
     id="defs126" />
  <sodipodi:namedview
     id="namedview124"
     pagecolor="#ffffff"
     bordercolor="#999999"
     borderopacity="1"
     inkscape:showpageshadow="0"
     inkscape:pageopacity="0"
     inkscape:pagecheckerboard="0"
     inkscape:deskcolor="#d1d1d1"
     showgrid="false"
     inkscape:zoom="11.572917"
     inkscape:cx="11.881188"
     inkscape:cy="15.985599"
     inkscape:window-width="2560"
     inkscape:window-height="1358"
     inkscape:window-x="0"
     inkscape:window-y="28"
     inkscape:window-maximized="1"
     inkscape:current-layer="svg122" />
  <linearGradient
     id="a"
     gradientTransform="matrix(0.23915364,0,0,0.2381003,29.47164,-145.35054)"
     gradientUnits="userSpaceOnUse"
     x1="-87"
     x2="-87"
     y1="616"
     y2="672">
    <stop
       offset="0"
       stop-color="#d4ba94"
       id="stop2" />
    <stop
       offset="1"
       stop-color="#997657"
       id="stop4" />
  </linearGradient>
  <linearGradient
     id="i"
     gradientTransform="matrix(0,0.23809363,-0.23915364,0,267.82626,-94.680147)"
     gradientUnits="userSpaceOnUse"
     x1="410"
     x2="421"
     y1="1080.4"
     y2="1080.4">
    <stop
       offset="0"
       stop-color="#e4720c"
       id="stop7" />
    <stop
       offset="1"
       stop-color="#f1d23b"
       id="stop9" />
  </linearGradient>
  <linearGradient
     id="b"
     gradientTransform="matrix(0.23915364,0,0,0.23809363,-90.104175,-253.03834)"
     gradientUnits="userSpaceOnUse"
     x1="415"
     x2="415"
     y1="1068.4"
     y2="1079.4">
    <stop
       offset="0"
       stop-color="#884d2c"
       id="stop12" />
    <stop
       offset="1"
       stop-color="#ffa92d"
       id="stop14" />
  </linearGradient>
  <linearGradient
     id="j"
     gradientTransform="matrix(0.23915364,0,0,0.23809363,-89.944175,-252.954)"
     gradientUnits="userSpaceOnUse"
     x1="424"
     x2="424"
     y1="1074.4"
     y2="1086.4">
    <stop
       offset="0"
       stop-color="#884d2c"
       id="stop17" />
    <stop
       offset="1"
       stop-color="#b7bf31"
       id="stop19" />
  </linearGradient>
  <linearGradient
     id="e"
     gradientTransform="matrix(0.23915364,0,0,0.23809363,-90.11751,-145.15354)"
     gradientUnits="userSpaceOnUse"
     x1="409"
     x2="409"
     y1="629"
     y2="642">
    <stop
       offset="0"
       stop-color="#ffa92d"
       id="stop22" />
    <stop
       offset="1"
       stop-color="#ffe5e1"
       id="stop24" />
  </linearGradient>
  <linearGradient
     id="l"
     gradientTransform="matrix(0.23915364,0,0,0.23809363,-89.944175,-252.76368)"
     gradientUnits="userSpaceOnUse"
     x1="424"
     x2="424"
     y1="1092.4"
     y2="1101.4">
    <stop
       offset="0"
       stop-color="#7ceca4"
       id="stop27" />
    <stop
       offset="1"
       stop-color="#e1f2ff"
       id="stop29" />
  </linearGradient>
  <linearGradient
     id="g"
     gradientTransform="matrix(0.23915364,0,0,0.23809363,-89.85751,-145.15388)"
     gradientUnits="userSpaceOnUse"
     x1="433.29999"
     x2="433.29999"
     y1="632"
     y2="643.95001">
    <stop
       offset="0"
       stop-color="#377d50"
       id="stop32" />
    <stop
       offset="1"
       stop-color="#3b85b5"
       id="stop34" />
  </linearGradient>
  <linearGradient
     id="k"
     gradientTransform="matrix(0.23915364,0,0,0.23809363,-89.944175,-145.15354)"
     gradientUnits="userSpaceOnUse"
     x1="425"
     x2="425"
     y1="632"
     y2="640">
    <stop
       offset="0"
       stop-color="#b7bf31"
       id="stop37" />
    <stop
       offset="1"
       stop-color="#54d883"
       id="stop39" />
  </linearGradient>
  <linearGradient
     id="f"
     gradientTransform="matrix(0.23915364,0,0,0.23809363,-89.85751,-144.9562)"
     gradientUnits="userSpaceOnUse"
     x1="432"
     x2="432"
     y1="647"
     y2="662">
    <stop
       offset="0"
       stop-color="#375a7d"
       id="stop42" />
    <stop
       offset="1"
       stop-color="#7cbcec"
       id="stop44" />
  </linearGradient>
  <linearGradient
     id="d"
     gradientTransform="matrix(0.23915364,0,0,0.23809363,-90.104175,-253.05034)"
     gradientUnits="userSpaceOnUse"
     x1="401"
     x2="401"
     y1="1075.4"
     y2="1086.4">
    <stop
       offset="0"
       stop-color="#ac0808"
       id="stop47" />
    <stop
       offset="1"
       stop-color="#e4720c"
       id="stop49" />
  </linearGradient>
  <linearGradient
     id="h"
     gradientTransform="matrix(0.23915364,0,0,0.23809363,-90.104175,-145.34688)"
     gradientUnits="userSpaceOnUse"
     x1="407"
     x2="407"
     y1="636"
     y2="622">
    <stop
       offset="0"
       stop-color="#ffa92d"
       id="stop52" />
    <stop
       offset="1"
       stop-color="#e05e4c"
       id="stop54" />
  </linearGradient>
  <linearGradient
     id="c"
     gradientTransform="matrix(0.23915364,0,0,0.23809363,-90.104175,-145.34688)"
     gradientUnits="userSpaceOnUse"
     x1="393"
     x2="393"
     y1="623"
     y2="632">
    <stop
       offset="0"
       stop-color="#913bb5"
       id="stop57" />
    <stop
       offset="1"
       stop-color="#bf4231"
       id="stop59" />
  </linearGradient>
  <path
     d="M 6.499278,1.6666417 5.165943,1.9999755 3.832608,2.666643 2.165939,4.333312 v 1.000001 l 0.230334,0.691334 c 1.199001,1.353002 3.812005,2.43467 2.78267,3.460004 -0.579334,0.576668 -0.817001,1.314002 -0.818334,2.086669 6.65e-4,0.03733 0.0027,0.07433 0.0047,0.111667 -0.0017,0.042 -0.0047,0.08433 -0.0047,0.126667 l 0.011,0.0067 c 0.128333,1.609003 1.476668,2.850004 3.09767,2.850338 0.088,0 0.176667,-0.0043 0.264334,-0.01234 3.590005,-0.140998 6.428009,-3.077668 6.432341,-6.654339 0,-0.111667 -0.003,-0.223001 -0.0083,-0.333334 h -0.325 V 6.666648 L 13.499287,5.666646 12.499285,3.999978 11.16595,2.666643 8.832614,1.6666417 Z m 0.970001,8.4760103 a 1.4350018,1.4286685 0 0 1 1.435669,1.429002 1.4350018,1.4286685 0 0 1 -1.435669,1.428335 1.4350018,1.4286685 0 0 1 -1.435001,-1.428335 1.4350018,1.4286685 0 0 1 1.435001,-1.429002 z"
     fill="url(#a)"
     id="path62"
     style="fill:url(#a);stroke-width:0.333334" />
  <path
     d="M 4.499275,2.030975 A 6.688342,6.688342 0 0 0 2.695273,3.332977 l 2.084003,0.28 z"
     fill="#432b4d"
     id="path64"
     style="stroke-width:0.333334" />
  <path
     d="M 6.499278,1.4066413 C 5.800277,1.5093082 5.125943,1.7213085 4.499275,2.030975 v 1.302002 l 2.324004,0.412667 z"
     fill="#4d2f2b"
     id="path66"
     style="stroke-width:0.333334" />
  <path
     d="m 7.469946,1.333308 c -0.327,3.375e-4 -0.651334,0.026666 -0.970668,0.073333 V 3.33331 L 8.911615,3.686644 8.499281,1.4119744 A 6.772342,6.772342 0 0 0 7.469946,1.333308 Z"
     fill="#813c33"
     id="path68"
     style="stroke-width:0.333334" />
  <path
     d="M 8.499281,1.4119747 V 3.33331 L 10.95595,3.745644 10.499283,2.060309 A 6.6580085,6.6580085 0 0 0 8.499281,1.4119747 Z"
     fill="url(#b)"
     id="path70"
     style="fill:url(#b);stroke-width:0.333334" />
  <path
     d="m 10.499283,2.060309 v 1.272668 l 1.154335,0.398001 0.594334,-0.398001 A 6.7060085,6.7060085 0 0 0 10.499283,2.060309 Z"
     fill="#7c8133"
     id="path72"
     style="stroke-width:0.333334" />
  <path
     d="M 1.8426054,4.699979 C 1.6856053,6.403981 5.152943,7.694982 5.398277,8.863984 5.631944,7.685982 2.015939,6.401314 1.8426054,4.699979 Z"
     fill="#6c5548"
     id="path74"
     style="stroke-width:0.333334" />
  <path
     d="m 2.687273,3.341644 c -0.08933,0.091 -0.176667,0.184 -0.261333,0.280667 C 1.4252715,4.618979 1.832272,5.48198 2.621273,6.256981 2.277939,5.863647 2.701273,5.871313 2.92594,6.09498 3.165274,6.332981 3.165274,6.571314 3.404607,6.333314 3.643608,6.09498 2.687273,5.619313 2.687273,5.143312 Z"
     fill="#2b3c4d"
     id="path76"
     style="stroke-width:0.333334" />
  <path
     d="m 2.698607,3.33331 a 6.714342,6.714675 0 0 0 -0.012,0.011 v 0.132334 c 0,0.238 -0.478334,0.476001 -0.478334,0.714001 0,0.238 0.478334,0.476334 0.478334,0.952667 l 0.03533,-0.245 c 0.229334,-0.643334 1.434002,0.586668 1.777336,0.245 L 4.705939,4.679979 4.832606,3.33331 Z"
     fill="url(#c)"
     id="path78"
     style="fill:url(#c);stroke-width:0.333334" />
  <path
     d="m 6.260278,5.333313 c 0.239,-0.238001 -0.225334,-0.904668 -0.464667,-0.666668 -0.239001,0.238334 0,0.714334 -0.478001,0.714334 -0.478001,0 -0.207333,-0.595333 0,-0.714334 0.204,-0.117333 0.176,-0.417 0.007,-0.502667 -0.169,-0.08567 -0.479001,0.04333 -0.479001,0.446001 0,0.344 -0.346334,0.533 -0.346334,0.533 V 3.33331 h 2.000003 l 0.383334,2.45667 z"
     fill="url(#d)"
     id="path80"
     style="fill:url(#d);stroke-width:0.333334" />
  <path
     d="m 6.260611,5.333313 c 0,0 -0.717334,0.416667 -0.717334,1.904669 H 6.499612 V 6.285647 c 0,-0.714334 0.717334,-0.952334 0.717334,-0.952334 H 6.260278 Z"
     fill="#ffafa5"
     id="path82"
     style="stroke-width:0.333334" />
  <path
     d="m 6.499278,5.333313 v 0.952334 c 0,0.238001 -0.478334,0.238001 -0.717334,0.476334 -0.12,0.119 -0.239334,0.238 -0.239334,0.476001 0,0.210333 0.239334,0.476334 0.478334,0.476334 0.478334,0 0.478334,-0.381001 1.145002,-0.381001 H 8.499281 V 5.333313 Z"
     fill="url(#e)"
     id="path84"
     style="fill:url(#e);stroke-width:0.333334" />
  <path
     d="m 12.035285,8.707317 0.464001,1.108335 v 0.232 c 0,0.714334 -0.717335,1.905002 -0.956335,2.143336 -0.220333,0.219334 0.371001,0.639335 0.652334,0.517333 0.085,-0.08433 0.166667,-0.172 0.246667,-0.260999 0.178667,-0.245001 0.357335,-0.555334 0.536001,-0.733335 0.029,-0.02867 0.069,-0.05633 0.104,-0.085 a 6.618675,6.618675 0 0 0 0.947335,-2.295669 z"
     fill="url(#f)"
     id="path86"
     style="fill:url(#f);stroke-width:0.333334" />
  <path
     d="m 12.499286,7.332982 -0.427334,0.955668 0.427334,1.044334 h 1.530002 a 6.6563415,6.6563415 0 0 0 0.103334,-2.000002 z"
     fill="#2b3c4d"
     id="path88"
     style="stroke-width:0.333334" />
  <path
     d="m 12.499286,5.332979 -0.677668,1.882003 0.677668,0.832334 c 0,0.476001 0.309333,0.406667 0.478667,0.238 0.239,-0.238 0.478001,-0.952334 0.956335,-0.952334 h 0.198334 A 6.5953415,6.5953415 0 0 0 13.605287,5.332979 Z"
     fill="url(#g)"
     id="path90"
     style="fill:url(#g);stroke-width:0.333334" />
  <g
     fill="#6c5548"
     id="g96"
     transform="matrix(0.33333375,0,0,0.33333375,-0.16739705,-2.6999625e-5)">
    <path
       d="m 42.99,23.647 c -0.202,10.565 -8.64,19.182 -19.287,19.6 a 8.722,8.722 0 0 1 -0.792,0.039 c -4.863,0 -8.908,-3.724 -9.293,-8.55 l -0.034,-0.022 c 0.003,0.112 0.007,0.223 0.013,0.334 -0.004,0.126 -0.013,0.252 -0.013,0.38 l 0.034,0.022 c 0.385,4.826 4.43,8.548 9.293,8.55 0.265,0 0.529,-0.015 0.792,-0.039 10.769,-0.423 19.284,-9.23 19.297,-19.96 0,-0.12 -0.008,-0.236 -0.01,-0.354 z"
       id="path92" />
    <path
       d="m 22.911,29.747 a 4.305,4.286 0 0 0 -4.305,4.286 4.305,4.286 0 0 0 0.019,0.355 4.305,4.286 0 0 1 4.286,-3.927 4.305,4.286 0 0 1 4.287,3.93 4.305,4.286 0 0 0 0.018,-0.358 4.305,4.286 0 0 0 -4.305,-4.286 z"
       id="path94" />
  </g>
  <ellipse
     cx="13.167286"
     cy="9.9999847"
     fill="#7cbcec"
     rx="0.33466706"
     ry="0.33333376"
     id="ellipse98"
     style="stroke-width:0.333334" />
  <path
     d="m 6.499278,3.33331 v 2.000003 h 1.195668 c 0.478334,0 0.478334,0.238 0.478334,0.476334 0,0.238333 -0.239,0.619 -0.239,0.857001 0,0.238 0.326,0.666667 0.565001,0.666667 l 0.545,-2.000002 -0.545,-2.000003 z"
     fill="url(#h)"
     id="path100"
     style="fill:url(#h);stroke-width:0.333334" />
  <path
     d="M 10.499283,3.33331 11.000284,5.84898 8.499281,5.333313 V 3.33331 Z"
     fill="url(#i)"
     id="path102"
     style="fill:url(#i);stroke-width:0.333334" />
  <path
     d="M 10.499283,3.332977 V 5.332979 L 12.779287,5.61298 12.499286,3.608311 C 12.416956,3.514981 12.335285,3.421644 12.247952,3.332977 Z"
     fill="url(#j)"
     id="path104"
     style="fill:url(#j);stroke-width:0.333334" />
  <path
     d="m 12.499286,3.608311 v 1.724668 h 1.106001 A 6.6610085,6.6610085 0 0 0 12.499286,3.608311 Z"
     fill="#2b4d37"
     id="path106"
     style="stroke-width:0.333334" />
  <path
     d="m 8.499281,5.333313 h 2.000002 L 10.83795,7.657316 8.499281,7.333315 Z"
     fill="#f7e385"
     id="path108"
     style="stroke-width:0.333334" />
  <path
     d="m 10.499283,5.333313 v 2.000002 h 2.000003 V 6.666648 c 0,-0.476334 0.870001,-0.026 0.870001,-0.381001 0,-0.238 -0.392334,-0.268667 -0.478334,-0.476 -0.061,-0.146667 0.238334,-0.476334 0,-0.476334 z"
     fill="url(#k)"
     id="path110"
     style="fill:url(#k);stroke-width:0.333334" />
  <ellipse
     cx="11.056952"
     cy="4.3999777"
     fill="#ffa92d"
     rx="0.23900031"
     ry="0.23800029"
     id="ellipse112"
     style="stroke-width:0.333334" />
  <path
     d="m 9.934282,6.14298 c -0.239,0 -0.478333,0.238001 -0.239,0.476334 0.239,0.238001 0.239,0.714001 -0.239333,0.714001 H 8.499281 c 0,0 0.717667,0.238334 0.717667,0.714334 0,0.476334 -0.586667,0.549001 -0.584,1.157669 0.002,0.588334 0.566667,0.412667 0.754334,0.815334 0.121333,0.26 -0.170667,0.451667 0.095,0.716001 0.09,0.05767 0.645667,0.08833 0.847334,-0.112334 0.453334,-0.451334 0.170001,-0.671667 0.170001,-1.148001 l 0.692,-1.056668 -0.692334,-1.086668 v -0.238 c 0,-0.238001 -0.325667,-0.952335 -0.565001,-0.952335 z"
     fill="#ecfde3"
     id="path114"
     style="stroke-width:0.333334" />
  <path
     d="m 10.499283,7.333315 v 2.14267 c 0,-0.238001 2.000003,-0.238001 2.000003,0.476667 V 7.333315 Z"
     fill="url(#l)"
     id="path116"
     style="fill:url(#l);stroke-width:0.333334" />
  <ellipse
     cx="9.8612823"
     cy="8.5666504"
     fill="#986f34"
     rx="0.23900031"
     ry="0.35700044"
     id="ellipse118"
     style="stroke-width:0.333334" />
  <ellipse
     cx="9.2632809"
     cy="3.9333117"
     fill="#d7e04c"
     rx="0.35866711"
     ry="0.23800029"
     id="ellipse120"
     style="stroke-width:0.333334" />
</svg>
