<?xml version="1.0" encoding="UTF-8" standalone="no"?>
<!-- Uploaded to: SVG Repo, www.svgrepo.com, Transformed by: SVG Repo Mixer Tools -->

<svg
   fill="#000000"
   version="1.1"
   id="Capa_1"
   width="48"
   height="48"
   viewBox="0 0 3 3"
   xml:space="preserve"
   sodipodi:docname="image-missing.svg"
   inkscape:version="1.2.2 (b0a8486541, 2022-12-01)"
   xmlns:inkscape="http://www.inkscape.org/namespaces/inkscape"
   xmlns:sodipodi="http://sodipodi.sourceforge.net/DTD/sodipodi-0.dtd"
   xmlns="http://www.w3.org/2000/svg"
   xmlns:svg="http://www.w3.org/2000/svg"><defs
   id="defs18" /><sodipodi:namedview
   id="namedview16"
   pagecolor="#ffffff"
   bordercolor="#999999"
   borderopacity="1"
   inkscape:showpageshadow="0"
   inkscape:pageopacity="0"
   inkscape:pagecheckerboard="0"
   inkscape:deskcolor="#d1d1d1"
   showgrid="false"
   inkscape:zoom="5.6568543"
   inkscape:cx="-0.088388347"
   inkscape:cy="85.294755"
   inkscape:window-width="1570"
   inkscape:window-height="1326"
   inkscape:window-x="571"
   inkscape:window-y="81"
   inkscape:window-maximized="0"
   inkscape:current-layer="Capa_1"
   showguides="false" />





<g
   id="g10"
   transform="matrix(0.06,0,0,0.06,0.00541684,0.0087089)"
   style="display:inline">    <path
   id="ellipse1101"
   style="display:inline;fill:#fff9ed;fill-opacity:1;fill-rule:evenodd;stroke:#000000;stroke-width:3.13014;stroke-dasharray:none;stroke-opacity:1"
   d="m 48.344648,23.187678 c 0,10.021631 -10.361492,17.800485 -23.303577,17.932053 -2.334957,0.02374 -5.712545,-0.29846 -9.609345,-1.441372 -5.6397149,2.889603 -6.6342047,3.596274 -13.1519255,7.101437 1.3734258,-5.915611 1.768252,-7.328718 3.33163,-13.351467 -2.6827089,-3.400973 -4.13664,-6.247458 -4.13664,-10.240651 0,-10.021631 10.4921745,-18.1457679 23.4349285,-18.1457679 12.942754,0 23.434929,8.1241369 23.434929,18.1457679 z"
   sodipodi:nodetypes="sscccsss" /><g
   id="g1166"
   style="display:inline;fill:#2d2d2d"
   transform="matrix(0.73142472,0,0,0.72669121,10.81822,5.3026917)"><path
     d="m 18.781121,34.794041 c -0.936,0 -1.73,0.322 -2.375,0.947 -0.645,0.627 -0.968,1.414 -0.968,2.338 0,1.035 0.334,1.85 1,2.429 0.667,0.581 1.449,0.862 2.342,0.862 0.868,0 1.631,-0.297 2.295,-0.881 0.656,-0.582 0.988,-1.395 0.988,-2.41 0,-0.924 -0.32,-1.711 -0.953,-2.338 -0.623,-0.624 -1.405,-0.947 -2.329,-0.947 z"
     id="path1162"
     style="display:inline;fill:#2d2d2d" /><path
     d="m 24.944121,9.2480412 c -1.631,-0.791 -3.51,-1.18 -5.629,-1.18 -2.295,0 -4.294,0.473 -6.005,1.401 -1.718,0.9429998 -3.026,2.1259998 -3.9189998,3.5619998 -0.893,1.423 -1.343,2.839 -1.343,4.232 0,0.67 0.281,1.295 0.848,1.889 0.561,0.565 1.2579998,0.861 2.0759998,0.861 1.395,0 2.342,-0.832 2.844,-2.488 0.527,-1.574 1.172,-2.777 1.935,-3.59 0.762,-0.817 1.946,-1.225 3.564,-1.225 1.377,0 2.502,0.406 3.375,1.205 0.871,0.813 1.31,1.802 1.31,2.98 0,0.602 -0.147,1.16 -0.429,1.66 -0.289,0.515 -0.643,0.984 -1.055,1.397 -0.419,0.425 -1.103,1.047 -2.039,1.866 -1.072,0.941 -1.922,1.743 -2.548,2.428 -0.632,0.686 -1.138,1.464 -1.522,2.382 -0.378,0.9 -0.57,1.959 -0.57,3.199 0,0.975 0.259,1.721 0.783,2.217 0.519,0.496 1.162,0.75 1.923,0.75 1.464,0 2.334,-0.768 2.62,-2.293 0.161,-0.713 0.28,-1.211 0.358,-1.506 0.084,-0.281 0.192,-0.562 0.342,-0.857 0.149,-0.281 0.375,-0.602 0.675,-0.945 0.294,-0.345 0.698,-0.736 1.194,-1.203 1.805,-1.61 3.051,-2.753 3.75,-3.438 0.697,-0.672 1.299,-1.486 1.803,-2.43 0.507,-0.941 0.763,-2.037 0.763,-3.284 0,-1.574 -0.441,-3.05 -1.333,-4.388 -0.89,-1.353 -2.146,-2.424 -3.771,-3.2019998 z"
     id="path1164"
     style="display:inline;fill:#2d2d2d" /></g></g>

</svg>
